<?xml version="1.0" encoding="UTF-8"?>
<svg id="Layer_2" data-name="Layer 2" xmlns="http://www.w3.org/2000/svg" viewBox="0 0 73.54 34.55">
  <defs>
    <style>
      .cls-1 {
        fill: #492807;
      }

      .cls-2 {
        fill: tan;
      }

      .cls-3 {
        fill: #441107;
      }
    </style>
  </defs>
  <g id="about">
    <g>
      <path class="cls-3" d="M7.55,25.66c-.26,1.78-.43,3.01-.51,3.69h.07l-.02.11h.86v2.57H1.93v-2.57h1.05c.08-.91.17-1.37.26-1.37l-.07-.16v-.28s.02-.07.07-.07c.47-3.8.8-6.12.98-6.96l-.07-.14c.09-.56.16-.91.21-1.05-.05,0-.07-.02-.07-.07,0-.14.05-.29.14-.44h-.07l.21-1.27h-.07l.28-1.78c.27-2.41.49-4.27.65-5.57h-1.12v-2.55h9.53v2.55h-1.21l.04.53-.07.14c.19,1.35.28,2.34.28,2.99v.07l.07.35-.14.07c.16,0,.3,1.35.42,4.04l-.07.14h.14v.14l-.07.14s.07.02.07.07v.07c0,.11-.05.16-.14.16v.28s.07-.02.07-.07c.08,0,.13.05.14.14v.14l-.07.14s.07.02.07.07l-.07.14s.09.16.14.49l-.07.14.14,1.07-.07.28c.09.2.14.34.14.42l-.07.14.35,2.14-.07.14c.08,0,.13.05.14.14l-.07.14h.07c0,.91.09,1.76.28,2.55l-.07.14s.12.47.21,1.42c-.05,0-.07.02-.07.07.02,0,.06.04.11.11h1.18v2.57h-6.03v-2.57h.95c-.05-.3-.09-.69-.14-1.16,0-.08-.09-.83-.28-2.23-.02-.14-.04-.28-.05-.4h-2.46ZM2.12,32.41h-.14v-.14h.14v.14ZM4.37,27.89v.42h.14v-.42h-.14ZM4.51,30.77v.14h.26v-.14h-.26ZM4.64,29.12v.28h.14v-.28h-.14ZM4.78,25.55v.26h.14v-.26h-.14ZM5.18,26.8v.12h.28v-.12h-.28ZM5.29,23.81h-.07v.14c.14.12.21.23.21.35h.14v-.35c-.07,0-.16-.05-.28-.14ZM5.46,29.12c0,.19-.05.28-.14.28,0,.47.13.7.4.7,0-.16.09-.26.28-.28l-.14-.7h-.4ZM6.27,24.02h-.21l-.14.07-.07-.14c-.07,0-.14.09-.21.28h.21l.14-.07s.14.15.42.37h.14v-.09c-.09-.09-.14-.28-.14-.56-.09,0-.14.05-.14.14ZM5.78,23.74c0,.09.05.14.14.14v-.21l-.14.07ZM5.99,21.47l-.07.49v.35h.21v-.84h-.14ZM5.92,23.04v.07c0,.09.05.14.14.14h.07c-.07-.14-.14-.21-.21-.21ZM5.99,17.78h.14l.14-.07-.07-.14c-.14.07-.21.14-.21.21ZM6.27,15.73h-.07c0,.09-.05.14-.14.14v.21h.28c.08,0,.13-.05.14-.14-.07-.14-.14-.21-.21-.21ZM6.27,24.67v.07h.14v-.07h-.14ZM6.41,21.82v.14h.14v-.14h-.14ZM6.48,23.25h-.07v.42c.08,0,.2.05.35.14h.14c-.22-.38-.36-.56-.42-.56ZM6.55,24.09c0,.09.05.14.14.14h.07v-.07l-.07-.14-.14.07ZM6.62,26.31v.14h.07v-.14h-.07ZM6.83,12.81v.14c.08,0,.13-.05.14-.14h-.14ZM6.83,23.95v.14h.14c0-.08-.05-.13-.14-.14ZM7.04,10.61l-.14.07c0,.09.05.14.14.14h.21c-.05-.09-.07-.16-.07-.21h-.14ZM6.9,18.98c0,.09.05.14.14.14v-.14h-.14ZM6.97,12.67c0,.09.05.14.14.14v-.14h-.14ZM7.19,12.09v.16h.07v-.16h-.07ZM7.26,16.36h-.07c.05.09.07.16.07.21h.28v-.14c-.11,0-.2-.02-.28-.07ZM7.54,17.57v.07h.14v-.07h-.14ZM7.61,10.03v.14h.14c.08,0,.13-.05.14-.14h-.28ZM9.77,23.11c-.05-.32-.09-.89-.12-1.72.05,0,.07-.04.07-.12-.08,0-.18-.87-.28-2.6v-.84c0-.15-.05-.23-.14-.25l.07-.88-.14-.37.07-.25c-.19-1.49-.3-2.89-.35-4.22.05,0,.07-.04.07-.11-.05,0-.09-.29-.14-.86.09-.08.16-.12.21-.12-.12-.34-.21-.51-.28-.51,0,.23-.07.49-.21.76v.12s.12.04.21.12c-.08.18-.15.5-.21.98l.07.25c-.05.69-.07,1.27-.07,1.74v.25l-.14.35v.74c-.09,1.57-.19,2.56-.28,2.97h.07c-.15,1.84-.27,2.91-.35,3.22h.07c-.06.73-.11,1.18-.14,1.35h1.95ZM9.29,15.64v.16h.07v-.16h-.07ZM9.58,11.17v.21h.14v-.21h-.14ZM9.79,9.89v.07h.14v-.07h-.14ZM9.86,10.4h-.07v.07s.12.02.21.07h.07v-.07s-.12-.02-.21-.07ZM10.07,16.01v.07h.14v-.07h-.14ZM10.35,11.88v.14h.07v-.14h-.07ZM10.42,12.53h.14v-.14c-.09,0-.14.05-.14.14ZM10.98,21.61v.14h.14v-.14h-.14ZM11.26,17.41v.09h.21v-.09h-.21ZM11.4,21.26v.21c0,.09.05.14.14.14h.07c-.05-.08-.07-.2-.07-.35h-.14ZM11.47,21.68l-.07.35v.07h.14v-.42h-.07ZM11.9,9.05v.14h.14v-.14h-.14ZM12.04,10.24v.16h.07v-.16h-.07ZM12.04,10.54v.07h.14v-.07h-.14ZM12.25,10.96v.35l.28-.07v-.07c-.07,0-.16-.07-.28-.21ZM12.25,12.17v.14h.14c0-.08-.05-.13-.14-.14ZM12.25,30v.14h.14c0-.08-.05-.13-.14-.14ZM12.32,12.81v.21h.07c.08,0,.13-.05.14-.14-.05,0-.12-.02-.21-.07ZM12.39,29.93l.07.14.14-.07-.07-.14-.14.07ZM12.46,13.58v.37h.14c0-.06.02-.13.07-.23-.09,0-.14-.05-.14-.14h-.07ZM12.53,14.3v.07h.14v-.07h-.14ZM12.53,15.07v.14h.14v-.14h-.14ZM12.74,15.43v.07h.14v-.07h-.14ZM12.74,15.8v.07h.14v-.07h-.14ZM12.74,16.01v.07h.14v-.07h-.14ZM12.81,16.64v.14c.07.14.14.21.21.21v-.28s-.12-.02-.21-.07ZM12.88,16.36v.14h.07v-.14h-.07ZM12.88,17.13v.14h.14v-.14h-.14ZM12.88,29.79v.14h.07v-.14h-.07ZM12.88,30.63v.14c.08,0,.13-.05.14-.14h-.14ZM12.95,17.92v.42l.14-.07-.07-.35h-.07ZM12.95,29.14v.07h.14v-.07h-.14Z"/>
      <path class="cls-3" d="M19.81,8.11l.32-.14s.07.03.07.09l1.05-.16c.3.05.61.07.91.07h.28c.06.06.12.11.19.14h3.39v.46c.09-.05.16-.07.21-.07v.46l-.07.14c.14.06.21.11.21.16l.14-.07h.07l.21.14c0-.09.09-.14.28-.14v-.09l-.21-.3v-.07c.2.06.34.18.42.37l.14-.07h.07v.3c.52,0,.77.55.77,1.65.05,0,.07.02.07.07s-.02.07-.07.07l.07.39v.37l-.07.37c.11,0,.18.13.21.39-.09.01-.14.06-.14.14v.23c0,.15.02.23.07.23-.06.54-.11.86-.14.97.09.01.14.06.14.16v.07l-.07.46c.05.08.07.18.07.3l-.14.07c.09.16.14.29.14.37-.05,0-.07.03-.07.09l.14.07c-.05.25-.09.37-.14.37l.07.16c-.05.08-.07.18-.07.3h-.07l-.28-.23h-.14c0,.07-.05.17-.14.3h.14c.09-.05.16-.07.21-.07l.07.14.14-.07.14.07c0,.63-.45,1.34-1.34,2.11h-.07l-.14-.09h-.07v.09l.42.37c.94.34,1.41.89,1.41,1.65,0,.05.02.07.07.07-.09.16-.14.32-.14.46l.07.37h-.07l.28.53-.14.07.07.16c-.05.09-.07.17-.07.23.09.01.14.06.14.14v.07l-.07.16.14.07-.07.16c0,.14.02.21.07.21l-.07.39v.53c-.08.11-.15.38-.21.83-.05,0-.07.05-.07.14.09.32.14.52.14.6,0,.05-.02.12-.07.23l.07.46v.07h-.14v.97c0,.21.02.49.07.83-.07.2-.14.3-.21.3-.08-.05-.18-.07-.28-.07,0,.05-.02.07-.07.07v-.07l.07-.16h-.28c0,.26-.02.39-.07.39l.07.14-.14.23v.23h.14v.14l-.28.09-.07-.16v-.37h-.07l-.35.67c0,.06-.07.09-.21.09.01.09.06.14.14.14l.28-.14.14.07c.08,0,.29-.13.63-.39l-.07-.14c.09-.26.23-.46.42-.6l.07.14v.09c0,.11-.02.21-.07.3.05.08.07.18.07.3-.07.54-.26,1.01-.56,1.42,0,.23-.35.61-1.05,1.12h-.49c-.13,0-.26-.06-.39-.19h-.09l.05.11-.14.09-.14-.09-.28.09-.35-.09c-.3.06-.61.09-.91.09l-.42-.09c-.08.06-.18.09-.28.09-.23,0-.35-.05-.35-.16l-.14.07h-.14s-.07-.02-.07-.07l-.14.07-.14-.07s-.07.02-.07.07l-.35-.07h-.35c-.18.15-.34.23-.49.23-.23,0-.98-.02-2.25-.07l-.14.07c-.33-.06-.49-.13-.49-.23l-.14.07s-.09-.04-.12-.11h-1.53v-2.69h1.51v-.49c0-.12-.02-.22-.07-.3.04-.09.08-.47.14-1.12l-.07-.39c0-.15.12-.4.35-.74l.07-.46-.28.3.07.16c0,.09-.05.14-.14.14l-.07-.14v-.53l.07-.46c-.09-.2-.14-.38-.14-.53,0-.05.02-.07.07-.07l-.07-.37c.07-.55.16-.83.28-.83h.07c.09.01.14.06.14.14,0,.11-.09.16-.28.16l.07.37c.33,0,.49-.15.49-.44-.09,0-.14-.05-.14-.16v-.14c.13,0,.22-.13.28-.39-.05-.2-.19-.3-.42-.3l-.07.16s.07.02.07.07l-.35.23-.07-.16v-.74c0-.12-.02-.22-.07-.3.05-.15.09-.23.14-.23.09.05.16.07.21.07,0-.15-.09-.23-.28-.23,0-.21.09-.39.28-.53-.05-.09-.07-.16-.07-.21h.07c-.19-.26-.28-.46-.28-.6v-.16c0-.21.02-.49.07-.83-.05-.09-.07-.17-.07-.23.07,0,.14-.07.21-.21-.09,0-.14-.05-.14-.16v-.16s.02-.07.07-.07l-.07-.14.07-.39c-.05-.27-.07-.47-.07-.6h.07c-.09-.16-.14-.31-.14-.44,0-.26.05-.39.14-.39-.09-.79-.14-1.23-.14-1.34.05-.53.07-.96.07-1.28l-.07-.16c.05-.09.07-.16.07-.21l-.14-.3c.06-.7.13-1.13.21-1.28-.14,0-.21-.05-.21-.14v-.09h.14v-.67l-.14.07h-.07v-.07s.07-.11.21-.23l-.07-.14.05-.11h-1.56v-2.69h1.34s.06-.05.11-.05h.42l.07.05h.21v-.05c.2,0,.46-.03.77-.09.09.06.16.09.21.09,0-.06.02-.09.07-.09l.07.14h.04ZM18.15,22.23v.56h.14l.21-.14c-.06-.28-.13-.42-.21-.42h-.14ZM18.22,9.08v.14c.09,0,.14-.05.14-.14h-.14ZM18.22,21.53v.14h.07v-.14h-.07ZM18.29,18.29c.01.09.06.14.14.14l.07-.14h-.21ZM18.29,20.19v.35h.14v-.35h-.14ZM18.29,24.69v.07h.14v-.07h-.14ZM18.37,11.26v.07c.01.09.06.14.14.14h.21v-.07c-.07,0-.16-.05-.28-.14h-.07ZM18.37,21.03v.07h.35c0-.09-.05-.14-.14-.14-.09.05-.16.07-.21.07ZM18.37,24.34v.07h.14s.02-.07.07-.07l.14.21v.07c-.09,0-.14.02-.14.07.05.14.09.21.14.21.09-.05.16-.07.21-.07v.07l.14-.07.35.21c.09-.05.16-.07.21-.07v-.07c0-.08-.23-.18-.7-.28-.11-.23-.22-.35-.35-.35-.09.05-.16.07-.21.07ZM18.37,24.83v.07c.01.09.06.14.14.14h.14c0-.07-.07-.14-.21-.21h-.07ZM18.51,18.99v.07h.14v-.07h-.14ZM18.86,26.59v.14l-.35-.07v.07c0,.07.07.14.21.21h.14c0-.09.07-.14.21-.14,0-.07-.07-.14-.21-.21ZM18.65,15.34v.21h.21v-.07c0-.09-.05-.14-.14-.14h-.07ZM18.65,25.89v.07h.21v-.07h-.21ZM18.65,26.17v.14h.14c0-.09-.05-.14-.14-.14ZM18.79,13.93c0,.11-.02.2-.07.28,0,.09.19.23.56.42l-.14.21v.07h.07c.15-.14.27-.21.35-.21v-.21l-.14.07c-.07,0-.14-.07-.21-.21v-.07h.07c.09.05.16.07.21.07v-.07c0-.06-.14-.18-.42-.35-.05,0-.07.02-.07.07l-.14-.07h-.07ZM18.72,20.75h.14v-.14c-.09.01-.14.06-.14.14ZM18.79,13.51v.07h.14v-.07h-.14ZM18.79,13.65v.14c.09,0,.14-.05.14-.14h-.14ZM18.79,20.4v.07h.21v-.07h-.21ZM18.86,25.39s-.02.12-.07.21h.07c.09,0,.14-.05.14-.14v-.07h-.14ZM18.93,15.34v.07h.21v-.07h-.21ZM19.07,15.48v.21h.07c.09,0,.14-.05.14-.14v-.07h-.21ZM19.14,23.64v.07c.01.09.06.14.14.14v-.21h-.14ZM19.21,9.85v.07h.14v-.07h-.14ZM19.28,11.96v.07h.14v-.07h-.14ZM19.35,9.22v.07h.14v-.07h-.14ZM19.35,14.99v.14h.07v-.14h-.07ZM19.35,25.11v.35h.07c.07,0,.14-.07.21-.21l-.21-.14h-.07ZM19.35,25.53v.07h.14v-.07h-.14ZM19.7,16.11c-.08-.05-.18-.07-.28-.07v.28c.11,0,.2-.02.28-.07.06.05.18.07.35.07-.05-.09-.07-.16-.07-.21.05,0,.07-.02.07-.07-.05,0-.07-.02-.07-.07l-.28.14ZM19.42,21.1v.14h.14v-.14h-.14ZM19.49,12.81s.12.02.21.07v-.21h-.07c-.09.01-.14.06-.14.14ZM19.56,13.44v.07l.07.14c.09-.05.16-.07.21-.07v-.07l-.28-.07ZM19.56,18.36v.07h.14v-.07h-.14ZM19.56,22.58v.14h.14c0-.11.02-.2.07-.28h-.07c-.09.01-.14.06-.14.14ZM19.63,28.42l-.07.14h.21c0-.09-.05-.14-.14-.14ZM19.56,29.4v.07h.14v-.07h-.14ZM19.63,14.71v.21c.07,0,.14-.07.21-.21h-.21ZM19.7,17.73v.07h.14v-.07h-.14ZM19.7,22.93v.14h.14c0-.09-.05-.14-.14-.14ZM19.7,25.11c.05.09.07.16.07.21.09-.05.16-.07.21-.07v-.07c0-.09-.05-.14-.14-.14l-.14.07ZM19.77,25.6l-.07.42h.14c0-.09.02-.14.07-.14l-.07-.14.07-.14h-.14ZM19.7,28.77v.07h.14v-.07h-.14ZM19.77,27.43v.07h.14v-.07h-.14ZM19.91,15.2v.35c.01.09.06.14.14.14.09-.15.14-.27.14-.35l-.21-.14h-.07ZM19.91,15.76v.07h.14v-.07h-.14ZM19.98,10.91v.07c.09,0,.14-.05.14-.14v-.07c-.09.01-.14.06-.14.14ZM19.98,13.58c.01.09.06.14.14.14h.07c0-.09-.05-.14-.14-.14h-.07ZM19.98,16.89v.14h.28c-.05-.09-.07-.16-.07-.21-.09.05-.16.07-.21.07ZM19.98,25.6c.01.09.06.14.14.14h.14c0-.09-.05-.14-.14-.14h-.14ZM20.05,12.6v.07c0,.07.07.14.21.21l.07-.14v-.14h-.28ZM20.05,14.71v.07c.11,0,.2.02.28.07v-.21c-.08.05-.18.07-.28.07ZM20.19,20.47c.01.09.06.14.14.14l.07-.14h-.21ZM20.26,14.14v.07h.14v-.07h-.14ZM20.26,15.69c.09,0,.14.02.14.07l.14-.07.14.07.14-.21h-.07l-.14.07c0-.09-.05-.14-.14-.14-.07,0-.14.07-.21.21ZM20.33,19.42v.07c.09,0,.14-.05.14-.14v-.07c-.09.01-.14.06-.14.14ZM20.33,26.52v.14h.21v-.14h-.21ZM20.4,27.01c0,.14-.02.21-.07.21.07.19.14.28.21.28h.14v-.14h-.14v-.07s.02-.07.07-.07c-.05-.09-.07-.16-.07-.21h-.14ZM20.33,30.46v.07c.09,0,.14-.05.14-.14v-.07c-.09.01-.14.06-.14.14ZM20.4,14.56c.05.08.07.18.07.28l.49-.07c-.09-.15-.14-.27-.14-.35-.11.09-.25.14-.42.14ZM20.4,17.45v.07h.14v-.07h-.14ZM20.54,25.74c0,.09-.05.14-.14.14v.14h.14c0-.07.07-.16.21-.28h-.21ZM20.54,9.78v.14h.07v-.14h-.07ZM20.62,11.68v.14h.07v-.14h-.07ZM20.69,20.47v.07h.14v-.07h-.14ZM22.23,11.59v6.03l1.72-.6c.59-.2.88-.83.88-1.9v-2.02c0-1.01-.37-1.51-1.11-1.51h-1.49ZM22.23,21v8.16h1.72c.59,0,.88-.57.88-1.72v-5.98c0-1.01-.26-1.39-.77-1.16l-1.83.7ZM24.76,20.61h.07c.09,0,.14-.05.14-.14h-.07c-.09.01-.14.06-.14.14ZM24.76,20.89v.07h.14v-.07h-.14ZM24.83,21.74v.07c.07,0,.14-.07.21-.21h-.07c-.09.01-.14.06-.14.14ZM25.19,22.02c-.23.21-.35.38-.35.49h.21c0-.23.14-.35.42-.35v-.07l-.28-.07ZM25.04,24.27c0,.09-.05.14-.14.14l.07.14v.07h-.14c.05.09.07.16.07.21h.28l-.07-.14.21-.35-.28-.07ZM24.9,22.58v.14h.07v-.14h-.07ZM25.12,22.79c0,.07-.07.16-.21.28h.07c.07,0,.14-.07.21-.21v-.07h-.07ZM24.97,20.75v.07h.14v-.07h-.14ZM24.97,23.28h.14v-.14c-.09.01-.14.06-.14.14ZM24.97,28.35v.07c.01.09.06.14.14.14h.07v-.28c-.09.05-.16.07-.21.07ZM25.12,14.64l-.07.14c.12,0,.23.05.35.14h.07c0-.14.14-.21.42-.21v-.07h-.35l-.07.14c-.15-.09-.27-.14-.35-.14ZM25.04,25.25c.01.09.06.14.14.14v-.14h-.14ZM25.04,27.08c0,.06.16.15.49.28,0,.14-.07.21-.21.21v.07h.14s.02-.07.07-.07c0,.05.02.07.07.07l.14-.42c-.19,0-.28-.09-.28-.28-.19.09-.33.14-.42.14ZM25.19,10.28s-.02.12-.07.21l.14.07c.09,0,.14-.05.14-.14s-.05-.14-.14-.14h-.07ZM25.12,11.05v.07s.12.02.21.07l.07-.14v-.21h-.07c-.07,0-.14.07-.21.21ZM25.12,25.74v.14h.28v-.14h-.28ZM25.12,27.5v.07h.14v-.07h-.14ZM25.12,27.64v.14h.14v-.14h-.14ZM25.12,27.92v.07h.14v-.07h-.14ZM25.26,16.6s-.02.12-.07.21c.14,0,.21.09.21.28h.14l-.07-.14c.07,0,.14-.07.21-.21-.14,0-.21-.05-.21-.14h-.21ZM25.26,20.75s-.02.07-.07.07c.05.08.07.2.07.35h.14c0-.15.02-.27.07-.35-.05,0-.12-.02-.21-.07ZM25.26,21.39v.07h.14v-.07h-.14ZM25.33,21.6l.07.14c-.09.01-.14.06-.14.14l.14.07h.07v-.35h-.14ZM25.54,15.76c0,.11-.07.25-.21.42l.14.07h.07c.02-.19.09-.28.21-.28-.05-.09-.07-.16-.07-.21h-.14ZM25.33,22.37v.07h.14v-.07h-.14ZM25.4,22.86c.05.08.07.18.07.28h.07c.09,0,.14-.05.14-.14v-.14h-.28ZM25.47,23.49s-.02.12-.07.21l.14.07h.14c-.05-.08-.07-.18-.07-.28h-.14ZM25.4,24.76v.21h.07c.09,0,.14-.05.14-.14v-.07h-.21ZM25.4,25.11v.07h.21v-.14c-.09.05-.16.07-.21.07ZM27.08,11.75c.14,0,.21.16.21.49s-.23.49-.7.49c0,.09.16.16.49.21v.07c-.14,0-.21.05-.21.14h.14v.21s-.18-.14-.42-.42c-.05.09-.07.16-.07.21.05.09.07.16.07.21h-.07c-.12,0-.19-.09-.21-.28h-.35l-.35-.07v.14c.14,0,.26.12.35.35.15,0,.27.02.35.07-.08.33-.18.49-.28.49l-.07-.14c.14,0,.21-.05.21-.14h-.14c-.09.05-.16.07-.21.07l-.07-.14s.07-.02.07-.07h-.14c-.09.05-.16.07-.21.07.12.33.21.49.28.49h.07v-.21h.14l-.07.14c.11,0,.2.12.28.35h.07v.07l-.21.35c.19,0,.28.14.28.42-.09-.05-.16-.07-.21-.07,0,.05-.02.07-.07.07-.05-.08-.07-.18-.07-.28h-.07c-.12.09-.23.14-.35.14.01.08.13.27.35.56,0,.05-.02.07-.07.07l.07.14v.07c-.14,0-.21.05-.21.14v.07c.06-.05.22-.07.49-.07v-.07s-.12-.02-.21-.07l.07-.14v-.07s-.02-.07-.07-.07l.07-.14-.07-.14h.07c.14,0,.21.09.21.28l.42-.49v-.07c-.14,0-.21-.05-.21-.14v-.07h.35v.49h-.14v.14l.21-.14c.09.01.14.06.14.14,0,.09-.05.14-.14.14l.07.14v.07h-.21c-.09,0-.14-.07-.14-.21h-.21c0,.14-.05.21-.14.21l.07.14c-.15.33-.25.49-.28.49h-.21l-.07.28.14-.07c.01.09.06.14.14.14h.07c0-.14.05-.21.14-.21v.07c.08-.05.18-.07.28-.07v-.07c-.14,0-.21-.05-.21-.14v-.14h.07l.14.07c0-.19.05-.28.14-.28.01.09.06.14.14.14,0-.12.19-.21.56-.28l.07-.14h-.07c-.09.05-.16.07-.21.07v-.14c.05-.14.19-.21.42-.21v-.07c-.14,0-.23-.12-.28-.35-.09-.05-.16-.07-.21-.07v-.07l.07-.14.14.07c.08-.05.18-.07.28-.07l-.07.14h.07c.09-.05.16-.07.21-.07v-.07c0-.13-.12-.2-.35-.21.01-.09.06-.14.14-.14h.21v-.21l-.14-.07c-.08.05-.18.07-.28.07h-.07v-.07s.02-.07.07-.07l-.07-.14v-.14l.07-.14c-.09,0-.14-.05-.14-.14l.21-.28.14.07h.14c0-.12.05-.23.14-.35v-.07c-.09,0-.14-.02-.14-.07l.07-.14c-.05-.09-.07-.16-.07-.21.28-.09.42-.19.42-.28-.09,0-.14-.05-.14-.14.09-.15.14-.27.14-.35-.05-.19-.14-.28-.28-.28h-.07v.07h.14v.07l-.07.14s.07.02.07.07c-.09,0-.14.12-.14.35h-.07c-.07,0-.14-.07-.21-.21v-.07c.14,0,.21-.05.21-.14-.11,0-.18-.12-.21-.35h-.07c-.23.12-.35.21-.35.28ZM25.47,12.81v.07h.28v-.07h-.28ZM25.54,18.78s-.02.12-.07.21l.14.07c.09,0,.14-.05.14-.14s-.05-.14-.14-.14h-.07ZM25.47,19.56v.07s.12.02.21.07l.07-.14v-.21h-.07c-.07,0-.14.07-.21.21ZM25.47,22.65v.14h.07v-.14h-.07ZM25.54,29.82s-.02.12-.07.21l.14.07c.09,0,.14-.05.14-.14s-.05-.14-.14-.14h-.07ZM25.47,30.6v.07s.12.02.21.07l.07-.14v-.21h-.07c-.07,0-.14.07-.21.21ZM25.54,10.14v.7c.09,0,.14-.05.14-.14l-.07-.14.14-.07c-.09-.15-.14-.27-.14-.35h-.07ZM25.54,27.78v.14l.28.07v-.14c-.11,0-.2-.02-.28-.07ZM25.61,11.82v.14l.35.07.07-.14-.42-.07ZM25.61,24.34v.14h.14v-.14h-.14ZM25.68,11.61v.07h.14v-.07h-.14ZM25.82,10.91l-.07.49h.21c0-.09.02-.14.07-.14-.05-.08-.07-.2-.07-.35h-.14ZM25.75,24.83c0,.09.07.14.21.14h.07v-.07l-.28-.07ZM25.75,28.06v.07h.14v-.07h-.14ZM25.82,16.39v.07h.14v-.07h-.14ZM25.82,21.53v.14h.07v-.14h-.07ZM25.89,25.04l-.07.14h.28v-.07s-.12-.02-.21-.07ZM25.82,27.29v.14c.01.09.06.14.14.14h.14c0-.07-.09-.16-.28-.28ZM26.1,17.1c0,.13-.07.25-.21.35,0,.05.02.12.07.21-.05.32-.07.57-.07.77v.07h.14v.42c.01.09.06.14.14.14h.07l.14-.07c0-.2-.09-.43-.28-.7v-.07h.07l.14.07.14-.21c-.14,0-.21-.02-.21-.07l-.14.07h-.07v-.07c.09-.19.16-.28.21-.28l.14.07h.07v-.07h-.14v-.14h.35c-.05-.09-.07-.16-.07-.21l-.14.07h-.14l-.07-.35h-.14ZM25.89,20.19v.14h.14v-.14h-.14ZM25.89,29.05v.35c.19-.07.28-.14.28-.21v-.14h-.28ZM25.89,29.89v.14h.14c0-.09-.05-.14-.14-.14ZM25.96,10.28l.07.35c.19-.07.28-.14.28-.21-.05-.14-.09-.21-.14-.21-.09.05-.16.07-.21.07ZM25.96,12.31v.42h.07l.28-.21.07.14.14-.07.49.07c0-.07.05-.16.14-.28v-.07h-.21v.14c-.38-.05-.63-.12-.77-.21-.09.05-.16.07-.21.07ZM25.96,27.92v.14h.07v-.14h-.07ZM26.03,11.4v.07h.14v-.07h-.14ZM26.03,21.67v.07h.14v-.07h-.14ZM26.03,25.46v.07h.14v-.07h-.14ZM26.1,19.42c.01.09.06.14.14.14h.07c0-.09-.05-.14-.14-.14h-.07ZM26.31,19.91c0,.09.07.14.21.14v.21c0,.14-.09.21-.28.21l.14.28c-.09.05-.16.07-.21.07l.14.21.14-.07h.07v.14l-.07.14.14.07h.07c0-.09.07-.14.21-.14l-.07-.35s.07-.02.07-.07c-.19,0-.28-.07-.28-.21.09-.15.14-.27.14-.35-.09,0-.14-.05-.14-.14.09,0,.14-.05.14-.14v-.14c-.11.09-.25.14-.42.14ZM26.17,22.23v.21c.14,0,.21.05.21.14.09,0,.16-.16.21-.49l-.14-.07h-.07c-.07,0-.14.07-.21.21ZM26.24,9.99v.07h.14v-.07h-.14ZM26.31,14.28h.07c.42.09.63.19.63.28v.07c-.07,0-.16.09-.28.28h-.14c0-.28-.09-.42-.28-.42v-.21ZM26.31,21.53v.07h.42v-.07h-.42ZM26.38,10.42v.07l.28.07c0-.09-.07-.14-.21-.14h-.07ZM26.38,19.7h.21c.09,0,.14-.05.14-.14v-.21h-.14c-.08,0-.15.12-.21.35ZM26.38,23.64v.07h.14v-.07h-.14ZM27.22,10.84v.07h.14s-.14.19-.42.42c-.07-.23-.23-.35-.49-.35.08.19.18.28.28.28v.14c-.14,0-.21.05-.21.14h.07c.09,0,.14-.05.14-.14l.35.14s.02-.07.07-.07l-.07-.14c0-.07.07-.14.21-.21.05.09.07.16.07.21h.07c.09,0,.14-.05.14-.14v-.28c-.11,0-.2-.02-.28-.07h-.07ZM26.45,11.68v.14c0,.07.07.14.21.21,0-.11.02-.2.07-.28l-.14-.07h-.14ZM26.45,17.17v.14c.09,0,.14-.05.14-.14h-.14ZM26.45,21.81v.14h.28c.09,0,.14-.05.14-.14l-.14-.07c-.08.05-.18.07-.28.07ZM26.52,12.17v.07h.14v-.07h-.14ZM26.52,18.15v.07h.14v-.07h-.14ZM26.52,22.93v.21h.14v-.07c0-.09-.05-.14-.14-.14ZM26.59,14.49v.07h.14v-.07h-.14ZM26.66,16.67l-.07.35c.15-.09.27-.14.35-.14v-.07c0-.09-.05-.14-.14-.14h-.14ZM26.66,10.77v.07h.21v-.07h-.21ZM26.66,22.09v.07h.14v-.07h-.14ZM26.73,10.35c.15.28.27.42.35.42l-.07-.35c.05-.09.07-.16.07-.21h-.21c-.09.01-.14.06-.14.14ZM26.73,13.72h.28c0,.07-.09.14-.28.21v-.21ZM26.73,14.07h.07c.09.01.14.06.14.14,0,.09-.05.14-.14.14l-.07-.14v-.14ZM27.01,17.31c0,.09-.02.14-.07.14-.09-.05-.16-.07-.21-.07v.14l.28.07c.01-.09.06-.14.14-.14.05.08.07.18.07.28h.14c0-.14.05-.21.14-.21v.28h.14c0-.12.05-.23.14-.35-.18,0-.32-.05-.42-.14h-.35ZM26.73,18.29c.11,0,.2.02.28.07l.07-.14v-.07h-.21c-.09.01-.14.06-.14.14ZM26.8,27.22h.21c0-.12.05-.23.14-.35h-.07c-.09.02-.19.14-.28.35ZM26.87,13.37c.09.01.14.06.14.14v.07c-.09,0-.14-.05-.14-.14v-.07ZM26.87,17.03v.07h.21l.07-.14h-.07c-.09.05-.16.07-.21.07ZM26.94,17.73v.07l.07.14h-.14v.14h.21l.07-.28-.14-.07h-.07ZM26.87,19.63v.14h.07v-.14h-.07ZM26.87,20.54v.14h.07v-.14h-.07ZM26.87,24.69v.14h.07v-.14h-.07ZM27.08,14.78l.07.14h-.21c.01-.09.06-.14.14-.14ZM26.94,19.91v.07c.09,0,.14-.05.14-.14v-.07c-.09.01-.14.06-.14.14ZM27.01,10.84v.21h.14v-.21h-.14ZM27.08,20.12v.28c.01.09.06.14.14.14,0-.12.07-.23.21-.35-.05-.09-.07-.16-.07-.21h-.14c-.09.01-.14.06-.14.14ZM27.15,16.46v.07h.35v-.14l-.35.07ZM27.15,20.82c.01.09.06.14.14.14v-.14h-.14ZM27.15,21.1v.07h.14v-.07h-.14ZM27.15,29.61c.05.09.07.16.07.21.09,0,.14-.05.14-.14v-.07h-.21ZM27.15,29.89v.14h.07v-.14h-.07ZM27.29,16.67c0,.11-.02.2-.07.28h.07l.35-.07c0-.07-.07-.14-.21-.21h-.14ZM27.29,10.14v.07c.05.09.07.16.07.21-.05,0-.07.02-.07.07l.35.07c.09-.05.16-.07.21-.07-.12-.23-.3-.35-.56-.35ZM27.29,16.18v.14h.07v-.14h-.07ZM27.29,17.17h.14v-.14c-.09.01-.14.06-.14.14ZM27.58,13.79l-.14.21h.07c.15-.09.27-.14.35-.14v-.07h-.28ZM27.44,15.34v.07s.12.02.21.07v-.14h-.21ZM27.44,26.45v.07h.14v-.07h-.14ZM27.51,14.07v.07h.14v-.07h-.14ZM27.65,30.31h.21c.14-.04.21-.22.21-.56v-.21c-.08,0-.22.26-.42.77ZM27.65,29.68h.14v-.14c-.09.01-.14.06-.14.14ZM27.86,15.97c0,.07-.05.16-.14.28h.07c.19-.07.28-.14.28-.21l-.14-.07h-.07ZM27.79,15.2v.07h.21v-.07h-.21ZM27.86,12.74v.14h.21c0-.09-.05-.14-.14-.14h-.07ZM27.86,27.29v.07h.14v-.07h-.14ZM27.86,27.64v.42l.21-.14h.21c.05-.09.07-.16.07-.21-.09,0-.14-.07-.14-.21h-.07c-.12.09-.21.14-.28.14ZM27.93,29.33v.07h.21v-.07h-.21ZM28,17.31v.07h.14v-.07h-.14ZM28,26.87v.14h.07v-.14h-.07ZM28.07,13.09v.28h.14v-.14c0-.09-.05-.14-.14-.14ZM28.07,16.32v.07h.14v-.07h-.14ZM28.07,25.81v.21h.07l.21-.14c-.05-.09-.07-.16-.07-.21h-.07c-.09.01-.14.06-.14.14ZM28.07,26.38c.09.19.14.35.14.49.09,0,.14-.05.14-.14-.05-.09-.07-.16-.07-.21.05,0,.07-.02.07-.07l-.14-.07h-.14ZM28.14,15.83v.21c.09,0,.14-.05.14-.14v-.07h-.14ZM28.14,17.03v.21h.07s.02-.12.07-.21h-.14ZM28.14,27.36h.07c.09,0,.14-.05.14-.14h-.07c-.09.01-.14.06-.14.14ZM28.21,27.01v.07h.14v-.07h-.14ZM29.54,11.96h.07c.07,0,.14.07.21.21v.14c-.12-.09-.21-.14-.28-.14v-.21Z"/>
      <path class="cls-3" d="M42.87,21.37s.02.07.07.07l-.07.14v4.2l.14.21v.16l-.14.21v.54c0,1.78-.47,3.09-1.41,3.94-.86,1-2.29,1.49-4.31,1.49-1.39,0-2.68-.45-3.85-1.34l-.81-1.12c-.32-.66-.54-1.48-.67-2.46-.05,0-.07-.02-.07-.07,0-.06.02-.13.07-.23l-.07-.39.07-.37c-.09-.01-.14-.06-.14-.14.09-.46.14-.79.14-.98v-.14c0-.18-.02-.4-.07-.67l.14-.46c-.05-.08-.07-.18-.07-.28l.07-.53c-.09-.02-.14-.08-.14-.16v-.14c0-.11.05-.16.14-.16l-.07-.37v-.07l.07-.46c-.05-.08-.07-.16-.07-.23.07-.19.15-.28.23-.28.09.05.16.07.21.07v-.07l-.07-.16-.14.07c-.12,0-.19-.17-.23-.51l.02-.05h-.04l-.05-.35s.04-.1.05-.16c-.01-.06-.03-.12-.05-.19.02-.04.04-.08.05-.12-.01-.05-.03-.09-.05-.12.02-.07.04-.13.05-.19-.01-.06-.03-.11-.05-.16l.05-.35h.04l-.02-.05c.04-.34.11-.51.23-.51l.14.07.07-.16v-.07s-.12.02-.21.07c-.08,0-.16-.09-.23-.28,0-.07.02-.15.07-.23l-.07-.46v-.07l.07-.37c-.09,0-.14-.05-.14-.16v-.14c0-.08.05-.13.14-.16l-.07-.53c0-.11.02-.2.07-.28l-.14-.46c.05-.27.07-.49.07-.67v-.14c0-.2-.05-.53-.14-.98,0-.08.05-.13.14-.14l-.07-.37.07-.39c-.05-.09-.07-.17-.07-.23,0-.05.02-.07.07-.07.13-.98.35-1.8.67-2.46l.81-1.12c1.17-.89,2.46-1.34,3.85-1.34,2.02,0,3.45.5,4.31,1.49.94.84,1.41,2.16,1.41,3.94v.54l.14.21v.16l-.14.21v4.2l.07.14s-.07.02-.07.07v3.09ZM33.43,12.16c-.15.11-.23.18-.23.21h.23v.14h-.23v.3c.11.12.16.21.16.28.19.07.31.21.37.42-.04.14-.23.21-.6.21,0,.06.02.09.07.09l-.14.28v.07l.14-.07h.07v.28h-.14v.07h.07c.35-.06.53-.13.53-.21.08,0,.13.05.14.14l-.07.14h.3v-.14h-.16v-.07l.09-.14.14.07c.08,0,.13-.05.14-.14.06,0,.13.02.23.07.2,0,.32-.09.37-.28-.09,0-.22-.22-.37-.65-.25.19-.42.28-.51.28v.07h.07l.37-.07.07.14c0,.11-.05.16-.14.16h-.23c-.2-.12-.3-.22-.3-.3v-.07h.16c0-.18-.03-.29-.09-.35,0-.14.08-.21.23-.21v-.07s-.12-.02-.23-.07l.09-.51h-.23l-.37-.07ZM33.87,10.38h-.23c-.11.09-.25.14-.44.14.05.09.07.16.07.21.11,0,.36-.07.76-.21,0-.08-.05-.13-.16-.14ZM33.64,10.94h-.14l-.14-.07s-.05.07-.16.07v.07l.07.51h.23c0-.09.18-.26.53-.51v-.14l-.39.07ZM33.2,11.73v.21l.16-.07c0-.08-.05-.13-.16-.14ZM33.2,14.86v.07c0,.11.05.16.16.16l-.16.21v.28h.3c.25,0,.39.07.44.21l.16-.07h.07s.02.12.07.21c.09-.05.17-.07.23-.07v-.07c-.06,0-.13-.02-.23-.07,0-.09.12-.14.37-.14l-.07-.14.07-.14-.51.07-.16-.07.09-.14c0-.08-.05-.13-.16-.14l.07-.16v-.14l-.07-.14c-.45.07-.67.16-.67.28ZM33.2,21.44h.16v-.14c-.11,0-.16.05-.16.14ZM33.27,13.3v.14h.16c0-.08-.05-.13-.16-.14ZM33.32,30.79h.07l.14.07s.03-.07.09-.07l.07.14-.23.14h-.07l-.07-.28ZM33.43,15.65h-.07v.14c0,.06.17.18.51.35v-.21c-.18,0-.32-.09-.44-.28ZM33.87,16.87v.07c-.15.12-.23.21-.23.28h-.07c-.09,0-.14-.05-.14-.14l.07-.14c-.09,0-.14-.05-.14-.14,0-.08.05-.13.14-.14h.14c.15.07.23.14.23.21ZM33.57,14.93h-.14v-.14h.14v.14ZM33.73,15.44h-.23v-.14h.23v.14ZM33.8,17.8v.14c-.13-.14-.23-.21-.3-.21v-.14c.2.07.3.14.3.21ZM33.73,19.29l-.09.14-.14-.07c0-.08.05-.13.14-.14h.09v.07ZM34.06,31.14c0,.14.08.21.23.21v.14c-.16,0-.26.09-.3.28-.2-.07-.3-.14-.3-.21.15,0,.23-.09.23-.28.01-.09.06-.14.14-.14ZM33.8,11.59v.14c.08.18.28.34.6.49h.14c0-.14.05-.21.14-.21l.39.07v-.14c-.22,0-.38-.02-.46-.07-.08.05-.18.07-.3.07h-.07c-.11,0-.18-.12-.21-.35h-.23ZM34.1,21.23c-.11,0-.16-.05-.16-.14h.16v.14ZM34.03,20.23v.21l.37.07h.14v-.21s-.12.02-.23.07c-.07,0-.16-.05-.28-.14ZM34.06,30.44v.07h.23v-.07h-.23ZM34.4,10.94h-.23v.14l.14.21v.16l-.07.14s.07.05.07.14h.23l.23-.14c-.16-.42-.29-.64-.37-.65ZM34.17,14.86v.07h.14v-.07h-.14ZM34.31,18.94h-.14v-.14h.14v.14ZM34.29,29.73c0,.11-.03.2-.09.28h.23c-.05-.08-.07-.18-.07-.28h-.07ZM34.43,30.37c0,.07-.05.16-.14.28h.14c.09-.05.17-.07.23-.07,0-.07-.08-.14-.23-.21ZM34.54,18.22c-.09,0-.14.05-.14.14.05,0,.12-.02.21-.07l.16.07.3-.07v-.07h-.53ZM34.4,21.58v.07h.14v-.07h-.14ZM34.61,11.52h-.14v-.16h.14v.16ZM34.61,16.59c0,.09-.05.14-.14.14,0,.09.05.14.14.14,0-.07.08-.16.23-.28h-.23ZM34.54,9.87h.23l-.09-.14c-.09,0-.14.05-.14.14ZM34.68,16.08h-.07c0,.12-.02.22-.07.3l.3-.07v-.07c0-.08-.05-.13-.16-.16ZM34.54,17.59c.05.15.15.25.3.28v-.28h-.3ZM34.59,30.3v.07h.14v-.07h-.14ZM34.61,21.65v.14h.16c0-.08-.05-.13-.16-.14ZM34.84,15.23v.21c0,.09.05.14.14.14h.09v-.07c-.11-.12-.16-.21-.16-.28h-.07ZM35.61,18.5c0,.06.02.09.07.09,0,.05-.02.12-.07.21l.07.14c-.02.19-.09.28-.21.28l.07.14c0,.09-.22.16-.67.21,0,.11.05.16.14.16,0,.05-.02.07-.07.07l.07.14c.14,0,.29-.05.46-.14,0,.05.02.07.07.07,0,.09-.1.14-.3.14.05.09.07.16.07.21h.07c.09,0,.15-.05.16-.14.05,0,.07.02.07.07h.07l-.07-.14v-.07c.12-.25.24-.37.37-.37l-.14-.21c.12-.19.22-.28.3-.28l-.16-.21.07-.14s-.12.02-.21.07c-.05,0-.07-.1-.07-.3h-.16ZM34.87,31.63h.16v.14c-.11,0-.16-.05-.16-.14ZM35.06,10.45c-.11,0-.16.05-.16.14v.14h.3l-.07-.28h-.07ZM34.91,12.74v.21l.37-.07-.21-.3c-.11,0-.16.05-.16.16ZM34.91,16.38v.14h.07v-.14h-.07ZM34.96,31.07v.07h.21v-.21h-.07c-.09.01-.14.06-.14.14ZM35.1,31.91l.07.14c0,.09-.05.14-.14.14l-.07-.14c.01-.09.06-.14.14-.14ZM35.06,16.45l.07.35c.08,0,.13-.05.14-.14-.07-.14-.14-.21-.21-.21ZM35.33,30.44s-.02.12-.07.21h.14v-.21h-.07ZM35.26,30.93c.05.09.07.16.07.21h.07v-.21h-.14ZM35.33,31.21c0,.09.07.14.21.14h.09v-.07l-.3-.07ZM35.47,31.84h.16c0,.11.02.2.07.28h-.07c-.11,0-.16-.05-.16-.14v-.14ZM35.84,22.44h-.07c0,.08-.05.2-.16.35,0,.14.1.26.3.35l.07-.35h-.14c0-.09.1-.14.3-.14v-.07c-.08,0-.18-.05-.3-.14ZM35.77,29.88v.07h.23v-.07h-.23ZM35.77,32.13h.53s.02.12.07.21c-.4-.05-.6-.12-.6-.21ZM35.93,31.14c0,.15-.03.27-.09.35h.37v-.21c0-.09-.05-.14-.14-.14h-.14ZM37.37,9.99c-.55,0-.94.39-1.18,1.18l.07.14-.07.44c0,.06.05.33.14.81l-.07.14.07.67c0,.32-.02.81-.07,1.48l.07.37-.07.14.07.14-.07.44v.23c0,.18.02.4.07.67-.05.08-.07.18-.07.28l.07.16h-.07l.07.44-.14,2.57s.09.08.14.23c-.09.41-.17.85-.23,1.32.06,0,.11.12.16.37l-.07.14.07.37s-.07.02-.07.07h.07l-.07.53v.14c0,.21.05.4.14.58l-.07.37c.05.67.07,1.16.07,1.48,0,.21-.02.48-.07.81l.07.14c-.05.34-.07.61-.07.81v.44c.21.36.58.61,1.11.74v-.07c0-.08-.05-.13-.14-.14.12-.2.22-.3.3-.3l.14.07c-.09.16-.14.29-.14.37v.07l.37-.07v-.07l-.07-.14.28-.23.16.07v-.14l-.07-.16s.07-.02.07-.07h-.16c-.09,0-.14.08-.14.23-.09-.05-.17-.07-.23-.07v-.23c.4-.13.6-.38.6-.74h-.23v-.21c.15,0,.23-.05.23-.16v-.14c-.2-.15-.37-.23-.51-.23v-.07c.21,0,.38-.15.51-.44-.05,0-.09-.07-.14-.21.08,0,.13-.05.14-.16l-.07-.37h.07v-1.25c.05-.56.1-.88.16-.95-.06,0-.09-.02-.09-.07v-.16l.09-.37c-.06,0-.09-.02-.09-.07l.09-.14c-.06,0-.09-.02-.09-.07v-.37h-.14v-.07l.14-.23v-.58h-.21v-.16c.12,0,.19-.09.21-.28-.05,0-.07-.03-.07-.09v-.81l.07-.51c-.14-.39-.24-.58-.3-.58,0-.09.05-.15.16-.16,0-.14-.05-.33-.16-.58.06,0,.09-.02.09-.07v-.09l-.09-.14c.06,0,.09-.02.09-.07v-.3c0-.08-.05-.13-.16-.14l.16-.23v-.21c0-.21-.03-.41-.09-.6.06-.2.09-.39.09-.58v-.37l.07-.16s-.07-.02-.07-.07v-.65l-.09-.37c.07,0,.12-.39.16-1.18,0-.05-.02-.12-.07-.23.02-.09.07-.56.14-1.39-.19-.59-.51-.88-.97-.88ZM36.14,30.93v.14h.07v-.14h-.07ZM36.14,33.74h.07v.14h-.07v-.14ZM36.37,26.57v.14h.07c.11,0,.16-.05.16-.14h-.23ZM36.37,31.14v.07h.3v-.07h-.3ZM36.51,26.08h.09c.09.01.14.06.14.14v.07c-.07,0-.15-.07-.23-.21ZM36.88,17.71v.07l-.07.14c.2,0,.3.05.3.14-.05,0-.07.02-.07.07-.07-.05-.22-.07-.44-.07v-.28c.11,0,.2-.02.28-.07ZM36.59,30.72v.07h.21v-.07h-.21ZM36.8,32.2h.07v.21h-.21v-.07c.01-.09.06-.14.14-.14ZM36.73,17.5h.07v.14h-.07v-.14ZM36.73,27.27h.23v.14h-.23v-.14ZM37.54,30.93c0,.08-.15.15-.44.21,0-.09-.05-.14-.14-.14h-.09c0,.07-.05.16-.14.28v.07l.14-.07c.16.09.29.14.39.14.01-.09.06-.14.14-.14h.07v.21h.07c0-.19.13-.28.39-.28v-.21l-.16.07-.23-.14ZM36.96,27.84v.14h-.16c.02-.09.08-.14.16-.14ZM36.8,31.49v.07h.23v-.07h-.23ZM37.26,26.43h.07l.3.21c-.06.08-.09.18-.09.28l-.37-.07-.3.07v-.14c.22,0,.38-.09.46-.28-.05,0-.07-.02-.07-.07ZM36.88,30.65v.07h.16v-.07h-.16ZM36.96,18.27h.07c.09.01.14.06.14.14h-.21v-.14ZM37.03,17.64h.14v.14h-.14v-.14ZM37.4,25.16h.07c.11.01.16.06.16.14v.14c-.12,0-.29.09-.53.28h-.07v-.07c.25-.16.37-.33.37-.49ZM37.1,17.15h.16v.07h-.16v-.07ZM37.26,19.12v.14h-.16c.01-.09.06-.14.16-.14ZM37.4,26.92v.14c0,.09-.05.14-.14.14-.11,0-.16-.05-.16-.14v-.07s.12-.02.3-.07ZM37.1,27.98h.23c.09.01.14.06.14.14-.05,0-.07.02-.07.07h.14v.14h-.28c-.11,0-.16-.05-.16-.14v-.21ZM37.33,16.31v.14h-.16c.02-.09.08-.14.16-.14ZM37.26,19.89h.14v.07h-.14v-.07ZM37.26,24.81h.14c.09.01.14.06.14.14l-.14.07c-.09,0-.14-.05-.14-.14v-.07ZM37.26,26.15h.21v.14h-.21v-.14ZM37.26,27.27h.14v.14h-.14v-.14ZM37.33,26.64v.07h.14v-.07h-.14ZM37.4,19.05h.14c0,.09-.05.14-.14.14v-.14ZM37.54,20.24l.09.14v.07h-.09c-.09,0-.14-.05-.14-.14l.14-.07ZM37.4,21.58c.09.01.14.06.14.14h-.14v-.14ZM37.4,24.32h.14v.07h-.14v-.07ZM37.4,29.66v.07h.14v-.07h-.14ZM37.63,30.37c0,.09-.08.14-.23.14.01.09.06.14.14.14.3-.05.46-.12.46-.21v-.07l-.16.07c-.09-.05-.16-.07-.21-.07ZM37.47,19.61c.11.01.16.06.16.14v.28h-.16v-.42ZM37.47,21.3h.16v.14h-.16v-.14ZM37.47,27.84h.07v.21h-.07v-.21ZM37.47,32.41h.16v.14h-.16v-.14ZM37.63,16.09h.21v.07c0,.09-.05.14-.14.14l-.07-.14v-.07ZM37.63,16.45h.07v.14h-.07v-.14ZM37.63,21.79h.14v.14h-.14v-.14ZM37.77,21.23h.23c0,.09-.05.14-.16.14h-.07v-.14ZM37.77,23.27h.07c.11.01.16.06.16.14l-.16.07-.07-.14v-.07ZM38.14,32.13v.28c-.08.05-.18.07-.3.07h-.07s.12-.16.37-.35ZM38.07,17.01h.07v.14h-.07v-.14ZM38.21,29.45c0,.09-.05.14-.14.14l.07.14c-.05.09-.07.16-.07.21.05.09.07.16.07.21h.07c0-.23.13-.35.39-.35v-.14c-.13,0-.26-.07-.39-.21ZM38.14,21.02c.11.01.16.06.16.14h-.16v-.14ZM38.14,30.51v.07h.37c.11,0,.16-.05.16-.14v-.07h-.23c-.12.09-.22.14-.3.14ZM38.21,29.1v.14h.09c.09,0,.14-.05.14-.14h-.23ZM38.51,28.47s-.02.12-.07.21h.16s.02-.12.07-.21h-.16ZM38.51,31.07v.14c.11-.05.18-.07.23-.07v-.07h-.23ZM38.67,20.03c.05.09.07.16.07.21h.14c.08,0,.16-.07.23-.21v-.07h-.07l-.37.07ZM38.81,22.21l.16.21c-.06,0-.09.02-.09.07.06,0,.13.02.23.07v-.07l-.07-.14s.07-.02.07-.07l-.14-.07h-.16ZM38.81,27.63v.21h.07v-.21h-.07ZM39.04,29.66v.21h.07v-.21h-.07ZM39.04,31.07h.3c0-.09-.05-.14-.16-.14-.09.01-.14.06-.14.14ZM39.11,20.81v.21h.37c0-.07-.07-.14-.21-.21h-.16ZM39.11,22.84c.05.09.07.16.07.21.06,0,.09-.02.09-.07l.14.07h.07c.12,0,.22-.02.3-.07.09.05.17.07.23.07.09-.05.16-.07.21-.07v-.14l-.07-.14c-.18.09-.38.14-.6.14h-.07v-.14h-.07c-.12.09-.22.14-.3.14ZM39.11,27.63c.05.09.07.16.07.21h.16c-.05-.09-.07-.16-.07-.21h-.16ZM39.27,21.65l-.09.14c.11-.05.18-.07.23-.07v-.07h-.14ZM39.41,22c0,.07-.05.16-.14.28v.14h.07c.08,0,.15-.14.21-.42h-.14ZM39.27,26.92v.28h.07c.09,0,.14-.05.14-.14s-.05-.14-.14-.14h-.07ZM39.27,30.51v.21h.07c.12-.09.22-.14.3-.14v-.14c-.08.05-.21.07-.37.07ZM39.34,21.51v.07h.21v-.07h-.21ZM39.41,31.98h.14v.14h-.14v-.14ZM39.48,28.33v.14c.13-.09.23-.14.3-.14v-.07h-.07c-.09.05-.17.07-.23.07ZM39.63,20.38c0,.11-.03.2-.09.28h.16c0-.11.02-.2.07-.28h-.14ZM39.55,21.79v.14h.09c.09,0,.14-.05.14-.14h-.23ZM39.55,24.46h.3c0-.09-.05-.14-.14-.14-.11.01-.16.06-.16.14ZM39.71,23.27c.01.09.06.14.14.14v-.14h-.14ZM39.71,25.59v.07c.09,0,.14-.05.14-.14v-.07c-.09.01-.14.06-.14.14ZM39.71,28.96v.07l.07.14s-.07.02-.07.07h.07c.11,0,.16-.05.16-.14s-.05-.14-.16-.14h-.07ZM40.14,21.3v.14h-.14l-.16-.07-.07.28h.3c.11-.02.21-.14.3-.35h-.23ZM39.78,26.92v.07h.16v-.07h-.16ZM39.78,30.37v.07c.01.09.06.14.16.14v-.07c0-.09-.05-.14-.16-.14ZM40.3,31.56v.07c-.2.14-.3.26-.3.35h-.23v-.21c0-.09.18-.16.53-.21ZM39.93,22.56v.07h.14v-.07h-.14ZM39.93,24.25v.07h.14v-.07h-.14ZM40,28.19v.14h.07c.09-.05.17-.07.23-.07v-.07h-.3ZM40.07,26.15v.21c.01.09.06.14.14.14h.16v-.07c-.11-.12-.16-.21-.16-.28h-.14ZM40.21,20.24h.09c.09,0,.14-.05.14-.14v-.14c-.07,0-.15.09-.23.28ZM40.21,27.7c.06.08.09.18.09.28h.07v-.35l-.16.07ZM40.3,26.99v.07h.14v-.07h-.14ZM40.37,24.95v.14l.37-.07v-.07h-.37ZM40.44,23.62v.14c.11,0,.16-.05.16-.14h-.16ZM40.44,24.11v.07h.23v-.07h-.23ZM40.6,31.77h.07v.21h-.23v-.07c.01-.09.06-.14.16-.14ZM40.67,20.95h.14v-.14c-.09.01-.14.06-.14.14ZM40.67,21.3v.07h.14v-.07h-.14ZM40.74,29.66v.14h.07v-.14h-.07ZM40.88,30.51c0,.14-.05.21-.14.21v.21h.07c0-.07.05-.16.16-.28v-.14h-.09ZM40.88,22.28v.14h.09v-.14h-.09ZM40.97,26.92v.14h.14v-.14h-.14ZM41.04,28.26v.07c.01.09.06.14.14.14v-.21h-.14ZM41.27,22.42v.07h.28v-.07h-.28ZM41.34,24.46v.07h.14v-.07h-.14ZM41.34,26.99v.07h.14v-.07h-.14ZM41.55,22.63v.21h.09c.09,0,.14-.05.14-.14l-.14-.07h-.09ZM41.64,29.95h.14v.07h-.14v-.07ZM41.71,8.85h.07v.14h-.07v-.14ZM42.08,8.71h.14v.14h-.14v-.14ZM42.15,9.84s-.02.07-.07.07c.09.19.14.35.14.49.11,0,.16-.05.16-.14v-.07l-.07-.14h.21v-.21l-.14.07h-.07l-.16-.07ZM42.15,28.47c.09.05.19.07.3.07v.14h-.14c-.11,0-.16-.05-.16-.14v-.07ZM42.38,7.73h.07v.07c0,.09-.05.14-.14.14l-.09-.14.16-.07ZM42.38,30.02h.07c.11.01.16.06.16.14l-.16.07-.07-.14v-.07ZM42.52,29.38h.09v.14h-.09v-.14ZM42.61,15.74h.07v.14h-.07v-.14ZM42.68,8.71h.14v.07h-.14v-.07ZM42.82,14.97h.16c0,.09-.05.14-.16.14v-.14ZM42.97,15.88v.14h-.16c.02-.09.08-.14.16-.14ZM42.97,14.27h.14v.07h-.14v-.07ZM43.34,14.97l.07.14-.14.07h-.16c0-.07.08-.14.23-.21ZM43.27,9.48h.14v.14h-.14v-.14ZM43.41,14.62h.14v.14h-.14v-.14ZM43.55,13.91h.16v.14h-.16v-.14ZM44.22,9.41h.09v.07c0,.09-.05.14-.16.14h-.07v-.07c.01-.09.06-.14.14-.14ZM44.61,31.91h.14v.14c-.09,0-.14-.05-.14-.14Z"/>
      <path class="cls-3" d="M42.95,34.34c.09.01.14.06.14.14v.07c-.09,0-.14-.05-.14-.14v-.07ZM44.41,28.08v.14h-.14c.01-.09.06-.14.14-.14ZM51.76,10.43v-2.6h6.5v2.51h-1.32v.35c0,.21.02.48.07.81l-.14.58c.05.11.07.22.07.35l-.07.63c.09.02.14.09.14.21v.18c0,.13-.05.19-.14.19l.07.44v.09l-.07.56c.05.12.07.21.07.28-.07.25-.15.37-.23.37-.09-.07-.16-.11-.21-.11v.11l.07.18.14-.09c.12,0,.19.21.23.62l-.02.07h.04l.05.44c-.02.07-.04.14-.05.21.01.07.03.15.05.23-.02.05-.04.09-.05.14.01.06.03.11.05.16-.02.08-.04.16-.05.23.01.07.03.14.05.21l-.05.44h-.04l.02.07c-.04.41-.11.62-.23.62l-.14-.09-.07.18v.11s.12-.04.21-.11c.08,0,.16.12.23.37,0,.08-.02.18-.07.28l.07.56v.09l-.07.44c.09,0,.14.06.14.19v.19c0,.11-.05.17-.14.19l.07.63c0,.13-.02.25-.07.35l.14.58c-.05.33-.07.6-.07.81v.18c0,.26.05.66.14,1.21,0,.11-.05.16-.14.18l.07.46-.07.47c.05.12.07.21.07.28,0,.06-.02.09-.07.09-.13,1.22-.35,2.23-.67,3.02l-.81,1.39c-1.17,1.1-2.46,1.65-3.85,1.65-2.02,0-3.45-.61-4.31-1.83-.94-1.04-1.41-2.67-1.41-4.87v-.67l-.14-.26v-.18l.14-.28v-5.17l-.07-.18s.07-.03.07-.09v-3.81c0-.06-.02-.09-.07-.09l.07-.18v-4.68h-1.32v-2.51h6.5v2.6h-.51v.32c0,.07-.02.11-.07.11l.07.18v.47c0,.27.03.53.09.77-.06.23-.09.49-.09.76v.3l.16.28c-.11.02-.16.09-.16.19v.37c0,.07.03.11.09.11l-.09.18v.11c0,.06.03.09.09.09-.11.33-.16.59-.16.77.11.01.16.08.16.19-.06,0-.16.26-.3.77l.07.65v1.05c0,.06-.02.09-.07.09.02.26.09.39.21.39v.19h-.21v.76l.14.28v.11h-.14v.47c0,.06-.03.09-.09.09l.09.19c0,.06-.03.09-.09.09l.09.49v.19c0,.06-.03.09-.09.09.06.09.11.51.16,1.25v1.62h.07l-.07.46c.01.13.06.19.14.19-.05.19-.09.28-.14.28.13.39.3.58.51.58v.11c-.14,0-.31.09-.51.28v.19c0,.12.08.18.23.18v.28h-.23c0,.47.2.79.6.97v.28c-.06,0-.13.03-.23.09,0-.19-.05-.28-.14-.28h-.16c0,.07.02.11.07.11l-.07.18v.19l.16-.09.28.28-.07.21v.09l.37.09v-.09c0-.11-.05-.27-.14-.49l.14-.09c.08,0,.18.13.3.39-.09.02-.14.09-.14.19v.09c.53-.16.9-.48,1.11-.95v-.56c0-.28-.02-.63-.07-1.05l.07-.19c-.05-.42-.07-.77-.07-1.05,0-.41.02-1.04.07-1.9l-.07-.47c.09-.25.14-.5.14-.77v-.19l-.07-.65h.07c0-.06-.02-.09-.07-.09l.07-.49-.07-.19c.05-.32.1-.47.16-.47-.06-.61-.13-1.18-.23-1.71.05-.19.09-.28.14-.28l-.14-3.36.07-.56h-.07l.07-.19c0-.14-.02-.26-.07-.37.05-.36.07-.65.07-.86v-.28l-.07-.58.07-.19-.07-.19.07-.47c-.01-.18-.02-.35-.04-.51h-.72ZM46.08,10.22l.02.21h.07l-.02-.21h-.07ZM46.33,17.82v.07h.21v-.07h-.21ZM46.62,18.17l.28-.02v-.14h-.14c-.09.02-.14.08-.14.16ZM46.69,20.35v.14l.28-.02v-.14l-.28.02ZM46.78,20.91v.07l.28-.02v-.07l-.28.02ZM46.8,21.4v.07l.14-.02v-.07l-.14.02ZM46.87,19.42v.07h.21v-.07h-.21ZM46.98,18.01v.35l.35-.02.21-.14c.08.05.18.07.28.07,0-.08-.1-.18-.3-.28h-.07s-.05.02-.05.07l-.14-.05h-.28ZM47.03,15.27v.07h.14v-.07h-.14ZM47.12,20.26v.14l.14-.07.14.05c0-.09.07-.14.21-.14l-.02-.07h-.14l-.33.09ZM47.15,23.85h.21v-.14h-.07c-.09.01-.14.06-.14.14ZM47.2,27.71v.14c.09,0,.14-.05.14-.14h-.14ZM47.22,17.45l.02.07c.16-.01.3.03.42.12.11-.09.2-.15.28-.16-.15-.14-.23-.25-.23-.33h-.07c-.28.13-.42.23-.42.3ZM47.31,22.37l.02.07.28-.02-.02-.14h-.07c-.08.05-.15.08-.21.09ZM47.34,14.69h.07c.07,0,.14-.07.21-.21h-.07c-.07,0-.14.07-.21.21ZM48.03,15.87v.07l.21.28.02.35-.7-.05s-.02.07-.07.07c0,.11.26.24.79.4h.07l-.09-.14c0-.09.14-.15.42-.16v-.07l-.28-.28.12-.21c-.11.01-.22-.08-.35-.26h-.14ZM47.5,21.44v.14c.09-.05.16-.07.21-.07l.14.07c.08-.06.18-.09.28-.09l.07.14c.08-.05.18-.08.28-.09v-.14l-.07.02c-.18,0-.39-.02-.63-.05-.08.05-.18.07-.28.07ZM47.64,15.11l.02.35.21-.02v-.14c-.01-.06-.09-.12-.23-.19ZM47.64,19.47v.14c.09,0,.14-.05.14-.14h-.14ZM47.7,23.2c.01.09.06.14.14.14v-.14h-.14ZM47.73,22.14c.02.09.07.14.14.14l.07-.02v-.14l-.21.02ZM47.77,22.98v.07l.35.05.07-.14h-.14s-.07.02-.07.07l-.14-.05h-.07ZM47.82,13.83c.14,0,.21.07.21.21h.28l-.07-.14c.01-.09.06-.15.14-.16h.21l.21.14.21-.16.14.07c.09-.05.16-.07.21-.07.01.09.06.13.14.12h.07c.09,0,.14-.05.14-.14-.36-.18-.65-.26-.86-.25h-.35c-.4.14-.63.26-.69.37ZM47.98,14.39v.07c.11,0,.25.06.42.19l.07-.14c-.19-.08-.33-.12-.42-.12h-.07ZM48,16.99v.14c.09,0,.14-.05.14-.14h-.14ZM48.01,20.08l.02.14h.14l-.02-.14h-.14ZM48.07,17.2l.16.42c.08-.05.15-.08.21-.09l-.02-.21c0-.09-.05-.13-.14-.12h-.21ZM48.08,17.98l.02.07h.21l-.02-.07h-.21ZM48.15,22.26h.14v-.14c-.09.01-.14.06-.14.14ZM48.58,17.68c-.15.34-.26.51-.33.51v.07h.07c.14-.06.21-.11.21-.16l.35.07.28-.02v-.07c0-.06-.17-.17-.51-.33,0-.05-.02-.07-.07-.07ZM48.31,22.9l-.05.14c.09,0,.14.07.14.21l.14-.02c0-.14.09-.21.28-.21h.07v-.07c-.2,0-.39-.02-.58-.05ZM48.29,15.37c.01.09.06.13.14.12h.07c0-.09-.05-.14-.14-.14l-.07.02ZM48.38,11.77v.07c.02.09.08.14.16.14h.07l-.02-.07c0-.09-.05-.14-.14-.14h-.07ZM48.4,18.82l.14.05v-.21c-.09.02-.14.08-.14.16ZM48.43,26.55l.21-.02v-.14h-.07c-.09.02-.14.08-.14.16ZM48.56,12.54v.28c.02.09.07.14.14.14.08,0,.15-.12.21-.37-.16.01-.28,0-.35-.05ZM48.68,23.3l-.07.14.02.42h.28l-.07-.14.42-.09-.02-.21h-.21l.02.14-.37-.26ZM48.65,13.11c.01.09.06.14.14.14h.07v-.14h-.21ZM48.75,20.77v.07h.21v-.07h-.21ZM48.91,23.51v.07c0,.09-.05.14-.14.14v-.07c.01-.09.06-.14.14-.14ZM48.79,22.25v.07c.09,0,.3-.1.63-.3v-.07h-.07c-.38.09-.56.19-.56.3ZM49,26.47h.07c.09-.01.14-.06.14-.16h-.07c-.09.02-.14.08-.14.16ZM49.08,13.65h.14v.07h-.14v-.07ZM49.08,16.18v.07h.14v-.07h-.14ZM49.12,15.06l.02.21h.07l-.02-.21h-.07ZM49.12,25.74v.14h.07l.14-.07c.01.09.06.14.14.14h.14v-.14c-.07,0-.16-.05-.28-.14-.09.05-.16.07-.21.07ZM49.21,10.98v.07h.14v-.07h-.14ZM49.24,16.46v.14l.28.05c-.05-.08-.07-.15-.07-.19h-.21ZM49.33,8.45v.07l.14-.02v-.07l-.14.02ZM49.51,26.94l-.07.14h.07c.09-.05.16-.08.21-.09v-.07l-.21.02ZM49.47,15.11v.07h.14v-.07h-.14ZM49.54,21.39v.07l.14-.02v-.07l-.14.02ZM49.56,22.02v.07l.14-.02v-.07l-.14.02ZM49.63,22.35l.02.07h.21l-.02-.07h-.21ZM49.63,24.25v.07h.21v-.07h-.21ZM49.68,17.15v.14h.21v-.14h-.21ZM49.68,31.53v.07l.14-.02v-.07l-.14.02ZM49.74,31.04c.02.09.08.13.16.12.09,0,.13-.05.12-.14,0-.09-.05-.14-.14-.14-.09.02-.14.08-.14.16ZM49.79,24.81v.07h.14v-.07h-.14ZM49.81,14.13v.07h.14v-.07h-.14ZM49.82,21.37v.21c.09,0,.14-.05.14-.14v-.07h-.14ZM49.86,26.92c.05.09.07.16.07.21h.14c0-.11.02-.2.07-.28h-.07c-.09.05-.16.07-.21.07ZM49.95,16.59v.07l.14-.02v-.07l-.14.02ZM50.02,18.63v.14l.07-.02v-.14l-.07.02ZM50.21,12.44h.14v.28c0,.09-.05.14-.14.14v-.42ZM50.23,30.95v.07l.14-.02v-.07l-.14.02ZM50.3,10.82v.07h.14v-.07h-.14ZM50.39,11.38s-.02.12-.07.21h.07c.09,0,.14-.05.14-.14l-.14-.07ZM50.32,11.73c.05.09.08.16.09.21h.07l-.02-.28-.14.07ZM50.37,25.36h.14v.07h-.14v-.07ZM50.56,10.73l.02.07h.21l-.02-.07h-.21ZM50.67,31.49v.07h.14v-.07h-.14ZM50.72,11.01v.07h.21v-.07h-.21ZM50.88,31.42v.07l.21-.02v-.07l-.21.02ZM51.23,31.55l.21-.02c.01.09-.03.15-.12.16h-.07l-.02-.14ZM51.33,15c.02.09.07.14.14.14h.07v-.21c-.09.05-.16.07-.21.07ZM51.37,11.42v.07h.14v-.07h-.14ZM51.49,17.54h.21v-.14h-.07c-.09.01-.14.06-.14.14ZM51.65,20.56l.09.14c-.14,0-.21.05-.21.14h.07c.08,0,.24-.15.47-.44h.07v-.07h-.14c-.18.15-.29.23-.35.23ZM51.62,14.86v.07l.14-.02v-.07l-.14.02ZM51.65,18.38v.07l.14-.02v-.07l-.14.02ZM51.77,17.38c-.05.26-.07.4-.07.44l.21-.02.07-.35-.14-.07h-.07ZM51.97,14.64c0,.07-.05.16-.14.28l.28.21.28-.02c-.13-.29-.25-.45-.35-.47h-.07ZM52.21,15.76c0,.12-.05.23-.14.35.05.08.08.18.09.28l-.21-.14c0,.14-.02.21-.07.21.05.09.07.16.07.21l.35-.02c0-.11.06-.25.19-.42v-.14c-.09-.12-.14-.23-.14-.35l-.14.02ZM51.9,16.89c0,.07.07.14.21.21v-.07c0-.09-.05-.14-.14-.14h-.07ZM51.9,19.06v.14h.07v-.14h-.07ZM51.92,30.97v.07l.14-.02v-.07l-.14.02ZM52.02,18.99l.02.07.07.14c-.09.01-.14.06-.14.14h.14v-.14l.14.07c.11-.11.2-.16.28-.16v-.07h-.07c-.09.06-.16.09-.21.09-.01-.09-.06-.14-.16-.14h-.07ZM52.06,15.55v.07h.14v-.07h-.14ZM52.09,12.24l.42-.02-.14-.21s.07-.02.07-.07h-.07c-.08,0-.18.1-.28.3ZM52.2,13.37c.06.08.09.15.09.19h.14c.11-.09.19-.14.26-.14-.09-.12-.14-.21-.14-.28-.06,0-.18.08-.35.23ZM52.2,30.95v.07h.14v-.07h-.14ZM52.35,20.33v.14l.14-.09h.35l-.07.14v.07l.14-.02-.07-.12c.19-.01.28-.11.28-.3-.07,0-.33.06-.77.18ZM52.37,14.34v.07c0,.07.08.14.23.21-.06-.08-.09-.18-.09-.28h-.14ZM52.58,14.06v.07c0,.07.07.14.21.21l.14-.02s-.02-.07-.07-.07l.07-.14v-.07h-.07c-.09.06-.16.09-.21.09,0-.05-.02-.07-.07-.07ZM52.6,17.08c.02.09.07.14.14.14v-.14h-.14ZM52.62,17.43v.07h.14v-.07h-.14ZM52.65,20.73c0,.07.07.14.21.21v-.07c0-.09-.05-.14-.14-.14h-.07ZM52.83,13.4v.07h.07c.09,0,.14-.05.14-.14v-.07h-.07c-.09.02-.14.07-.14.14ZM52.88,14.67v.14h.14v-.14h-.14ZM52.9,15.58l.02.21h.07c.09,0,.13-.05.12-.14l-.14-.07h-.07ZM52.9,17.48v.07h.14v-.07h-.14ZM52.9,30.65v.14c.09,0,.14-.05.14-.14h-.14ZM52.99,20.58l.02.14c.09,0,.13-.05.12-.14h-.14ZM53.18,13.05c0,.22-.04.39-.12.49h.28c-.01-.09,0-.15.05-.16-.05-.07-.07-.18-.07-.33h-.14ZM53.27,20.15l-.07.14c.05.09.07.16.07.21h.07c.12-.11.21-.16.28-.16v-.14l-.35-.05ZM53.51,12.4v.21h.14v-.21h-.14ZM53.73,8.32v.07c.2.36.35.54.44.54v-.28l.21-.02-.14.23c.14-.01.22.05.23.19h.14l-.02-.49c-.01-.11-.13-.17-.37-.19l-.14.07-.35-.12ZM53.95,13.23v.07s.12.02.21.07h.07v-.07s-.12-.02-.21-.07h-.07ZM53.99,9.64v.07h.14v-.07h-.14ZM54.01,10.35c.01.09.06.14.14.14h.07c0-.09-.05-.14-.14-.14h-.07ZM54.06,9.78v.14h.07c.09,0,.14-.05.14-.14h-.21ZM54.08,10.21v.07h.14v-.07h-.14ZM54.27,14.49l.02.07h.12v-.07h-.14ZM54.27,20.82v.07h.14v-.07h-.14ZM54.43,14.64c0,.09-.05.14-.14.14v.14l.21-.02c0-.11.02-.2.07-.28l-.14.02ZM54.39,13.86c.01.11,0,.2-.05.28l.21-.02-.02-.28-.14.02ZM54.45,15.13v.14l.07-.02v-.14l-.07.02ZM54.6,9.48h.14l.02.49c0,.09-.05.14-.14.14h-.07v-.14s.02-.07.07-.07l-.07-.14c.05-.08.06-.18.05-.28ZM54.6,11.38h.14v.07c0,.09-.05.14-.14.14v-.21ZM54.92,28.05h.14c0,.09-.05.14-.14.14v-.14ZM55.06,27.77l.21-.02v.14l-.07.02c-.09,0-.14-.05-.14-.14Z"/>
      <path class="cls-3" d="M68.9,11.05c.02.5.06.8.11.9l-.07.12c-.01.26,0,.63.02,1.11,0,.05-.03.19-.09.44.16.71.21,1.94.14,3.67l.05.35s-.07.02-.07.07c-.01.09.03.15.12.16,0,.05-.02.07-.07.07l.07.14-.02.42c-.01.28,0,.63.02,1.04-.05.11-.07.18-.07.23l.12.42-.09.16c.01.86.02,1.37.02,1.55,0,.05-.05.07-.14.07l-.02.12c.14,0,.21.08.21.23l-.16.28.14.3-.09.16s.07.02.07.07v.09h-.21v.07c.22.26.32.81.28,1.67-.01.14-.06.29-.16.46,0,.07.04.11.12.12-.04.96-.02,1.82.05,2.57-.06.2-.09.37-.11.51l.07.3s-.07.02-.07.05c.08.18.12.33.11.47v.05c0,.09-.09.14-.28.14v.04h1.51v2.5h-7.51v-2.5h1.56v-.11l-.07-.12s.08-.03.09-.09l-.05-.44.07-.16c-.11,0-.14-1.46-.11-4.38l.09-.16h-.07c.02-.63,0-1.29-.07-1.97.05,0,.07-.02.07-.07-.04-.09-.05-.19-.05-.28.04-.89.02-1.82-.04-2.79l.09-.3c-.05-.08-.09-.64-.14-1.67l.07-.12c-.07-.55-.11-1.19-.12-1.92l.07-.14c0-1.2-.02-1.96-.05-2.29.05,0,.07-.03.07-.09l-.11-.7s.07-.03.07-.09c-.07,0-.11-.17-.12-.51l.02-.04c-.09-.02-.22-.06-.39-.12,0,.05-.03.12-.09.21l-.49-.07c-.11,0-.2.02-.28.07-.08-.05-.18-.07-.28-.07h-.05v2.58h-2.6v-6.01h2.6v.02h.32v-.02h7.51v.02h.32v-.02h2.6v6.01h-2.6v-2.58h-.05c-.11,0-.2.02-.28.07-.08-.05-.18-.07-.28-.07l-.49.07c-.06-.09-.09-.16-.09-.21-.28.09-.46.14-.54.14l-.09-.14s.07-.02.07-.07h-.09ZM63.06,10.15l-.07.14v.07c.09-.05.16-.07.21-.07,0-.09-.05-.14-.14-.14ZM63.06,8.75h.07c.09.01.14.06.14.14v.07h-.07c-.09,0-.14-.05-.14-.14v-.07ZM63.34,10.15v.07l.35.07v-.07c0-.07-.07-.14-.21-.21-.09.01-.14.06-.14.14ZM64.01,16.64v-.25h-.07v.25h.07ZM65.1,16.55h.21v.07c0,.09-.05.14-.14.14l-.07-.14v-.07ZM65.12,19.59v.25h.23v-.25h-.23ZM65.12,23.27v.47h.07c.13-.32.23-.47.32-.47v-.12h-.09c-.08.08-.18.12-.3.12ZM65.19,22.32c.3.55.49.83.54.83l.07-.23c-.14-.4-.35-.6-.62-.6ZM65.27,19.94v.12h.14v-.12h-.14ZM65.31,9.24c.01.09.06.14.14.14l.07-.14h-.21ZM65.34,18.89v.23h.16v-.23h-.16ZM65.42,18.41v.12h.16v-.37c-.11.02-.16.11-.16.25ZM65.54,16.99v-.47h-.09v.47h.09ZM65.5,23.39v.11c.01.16.06.25.14.25h.09v-.12c0-.15-.05-.23-.16-.23h-.07ZM65.52,8.89c.01.09.06.14.14.14v-.14h-.14ZM65.57,20.31v.11h.16v-.11h-.16ZM65.73,19.12v.12h.14v-.12h-.14ZM65.8,21.97c0,.08-.02.12-.07.12.05.13.07.29.07.47.09-.08.19-.12.3-.12,0-.12-.1-.28-.3-.47ZM65.8,17.11c.01.15.06.23.16.23h.07c.11,0,.16-.08.16-.23h-.39ZM65.87,21.14v.23h.09v-.23h-.09ZM65.96,20.89v.12h.14v-.12h-.14ZM66.03,16.64v.12h.16v-.12h-.16ZM66.03,19.24v.12h.16v-.12h-.16ZM66.19,20.31v.23h.07v-.23h-.07ZM66.19,23.39v.11h.14v-.11h-.14ZM66.42,17.34h.14v-.23c-.09.01-.14.09-.14.23ZM66.42,18.29h.14v-.23c-.09.01-.14.09-.14.23ZM66.42,19.24v.12h.14v-.12h-.14ZM66.58,28.15l.14.07v-.21c-.09.01-.14.06-.14.14ZM66.65,17.11v.11h.14v-.11h-.14ZM66.65,18.41v.12c.01.15.06.23.14.23v-.12c0-.15-.05-.23-.14-.23ZM66.72,16.29c.01.15.06.23.16.23h.07v-.47h-.07c-.11.02-.16.11-.16.25ZM66.72,30.4v.21h.21v-.14s-.12-.02-.21-.07ZM66.79,21.72v.25h.09v-.25h-.09ZM66.79,29.21v.14h.07v-.14h-.07ZM66.86,9.66v.07h.14v-.07h-.14ZM66.86,18.38v.14h.14c0-.09-.05-.14-.14-.14ZM66.86,31.04v.14h.07v-.14h-.07ZM66.87,23.27c.05.15.07.27.07.35h.14v-.23l.46.23c0-.18.03-.33.09-.47l-.16-.11h-.16v.23h-.14v-.12l.07-.23h-.16c-.07,0-.14.12-.21.35ZM67,26.11l-.07.28c.09,0,.14-.07.14-.21v-.07h-.07ZM66.94,18.29v.25h.53c-.05-.16-.07-.29-.07-.37l-.46.12ZM67,9.03v.07h.14v-.07h-.14ZM67.01,21.97v.23c.11,0,.16-.08.16-.23h-.16ZM67.07,24.92v.21c.14,0,.21.07.21.21h.07v-.35l-.14.07c0-.09-.05-.14-.14-.14ZM67.14,9.8v.14h.07v-.14h-.07ZM67.21,17.11v.07h.21c.09,0,.14-.05.14-.14v-.14h-.07c-.19.07-.28.14-.28.21ZM67.28,30.97l-.07.28c.05.09.07.16.07.21h.14l.07-.28c-.09,0-.14-.07-.14-.21h-.07ZM67.24,16.16v.12h.16v-.12h-.16ZM67.24,23.97v.25h.16v-.25h-.16ZM67.28,26.18v.14h.07v-.14h-.07ZM67.31,21.84c.02.16.08.25.16.25h.16c0-.16-.05-.25-.16-.25h-.16ZM67.4,17.11v.35h.23c0-.08.02-.2.07-.35-.05,0-.07-.04-.07-.12-.11.08-.18.12-.23.12ZM67.42,26.32v.14h.14c0-.09-.05-.14-.14-.14ZM67.42,27.59v.07h.14v-.07h-.14ZM67.49,25.13v.14h.14v-.28c-.09.01-.14.06-.14.14ZM67.63,11.7l-.07.28h.07c.07,0,.14-.07.21-.21l-.14-.07h-.07ZM67.56,22.53v.84h.14c-.05-.25-.07-.53-.07-.84h-.07ZM67.63,19.59v.12h.23v-.12h-.23ZM67.7,13.88v.14c.09,0,.14-.05.14-.14h-.14ZM67.77,20.54l-.07.25c.01.15.06.23.16.23,0-.08.02-.2.07-.35l-.16-.12ZM67.7,24.09c0,.18.15.33.46.47v.12c.11,0,.16-.08.16-.25v-.11c-.08,0-.29-.08-.62-.25ZM67.77,10.5v.14h.07v-.14h-.07ZM67.77,17.94v.23h.16v-.23h-.16ZM67.77,19.94c.01.16.06.25.16.25.11,0,.16-.08.16-.25h-.32ZM67.77,25.06v.14h.07v-.14h-.07ZM67.91,13.18v.21h.07v-.21h-.07ZM67.91,26.25v.14c.01.09.06.14.14.14v-.14c0-.09-.05-.14-.14-.14ZM67.91,27.03v.14c.09,0,.14-.05.14-.14v-.14c-.09.01-.14.06-.14.14ZM67.93,23.49v.12l.3.12c-.05-.14-.07-.3-.07-.47h-.07c-.11.02-.16.1-.16.23ZM67.98,25.2v.07c.01.09.06.14.14.14v-.07c0-.09-.05-.14-.14-.14ZM67.98,25.9v.14h.07v-.14h-.07ZM68.16,21.84v.12h.16v-.12h-.16ZM68.23,18.64v.12h.16v-.12h-.16ZM68.23,21.24v.37h.09v-.37h-.09ZM68.23,23.97v.25h.09v-.25h-.09ZM68.26,9.52v.14c.09,0,.14-.05.14-.14h-.14ZM68.26,11.63v.14h.07v-.14h-.07ZM68.26,18.87v.07h.14v-.07h-.14ZM68.33,17.47v.14h.07v-.14h-.07ZM68.4,18.24v.07h.14v-.07h-.14ZM68.47,12.54v.07h.14v-.07h-.14ZM69.04,19.93v.07c.09,0,.14-.05.14-.14v-.07c-.09.01-.14.06-.14.14ZM69.6,18.8v.14h.07v-.14h-.07ZM69.88,11.7v.14h.07v-.14h-.07ZM70.3,10.86v.14c0,.07.07.14.21.21,0-.15.02-.27.07-.35h-.28ZM70.65,9.38v.07c.01.09.06.14.14.14v-.07c0-.09-.05-.14-.14-.14ZM71.22,10.86l.07.42.42-.07c-.09-.23-.26-.35-.49-.35ZM71.43,10.01h.14v-.14c-.09.01-.14.06-.14.14ZM71.85,10.65v.07h.14v-.07h-.14ZM72.27,9.31l.14.07h.07c.09,0,.14-.05.14-.14v-.07h-.21c-.09.01-.14.06-.14.14ZM72.34,10.5v.07h.07c.09,0,.14-.05.14-.14v-.07h-.07c-.09.01-.14.06-.14.14ZM72.41,10.01v.07c.01.09.06.14.14.14h.07v-.21h-.21ZM73.25,9.87s-.02.12-.07.21l.14.07c.09,0,.14-.05.14-.14s-.05-.14-.14-.14h-.07ZM73.18,10.65c.09.01.14.06.14.14.09-.05.16-.07.21-.07v-.28h-.14c-.07,0-.14.07-.21.21Z"/>
    </g>
    <g>
      <path class="cls-1" d="M3.63,2.79s.06-.04.09-.06c-.03.02-.06.04-.09.06Z"/>
      <path class="cls-1" d="M2.12,3.28c.51-.03,1-.18,1.42-.44-.43.25-.91.41-1.42.44l-.96.06c-.23.01-.44.1-.61.25.16-.15.38-.24.6-.25l.96-.06Z"/>
      <path class="cls-1" d="M2.58,10.27c.03.07.09.12.16.13.02,0,.05,0,.07,0l1.38-.22c2.47-.33,4.4-1.47,5.73-3.37.21-.3.41-.63.59-.97l.7-1.21c.05-.09.03-.19-.04-.26L6.69.28c-.22-.23-.53-.32-.82-.27-.07.01-.14.04-.21.07.07-.03.14-.05.21-.07.29-.05.6.04.82.27l3.29,3-.56.97c-1.31,2.48-3.46,3.96-6.32,4.34l-1.11.18-.15-.38.5,1.29h0l.23.58h0Z"/>
      <path class="cls-2" d="M3.1,8.6c2.86-.38,5.01-1.86,6.32-4.34l.56-.97L6.69.28c-.22-.23-.53-.32-.82-.27-.07.01-.14.04-.21.07-.2.1-.36.27-.45.48l-.4.88c-.24.53-.62.98-1.09,1.3-.03.02-.06.04-.09.06-.03.02-.06.04-.09.05-.43.25-.91.41-1.42.44l-.96.06c-.23.01-.44.1-.6.25-.05.05-.1.11-.14.17-.15.25-.18.57-.04.86l1.47,3.77.15.38,1.11-.18Z"/>
      <path class="cls-2" d="M13.34,6.71c.68-1.49.74-2.92.02-3.97-.82-1.19-1.54-.27-2.66,1.2l.46.42c.07.07.09.17.04.26l-.7,1.21c-.18.34-.38.67-.59.97-1.33,1.9-3.26,3.04-5.73,3.37l-1.38.22s-.05,0-.07,0c-.07-.01-.13-.06-.16-.13l-.23-.58h0c-1.78.51-2.89.86-2.08,2.05.95,1.38,3.03,1.74,5.36,1.13,1.25-.32,2.56-.92,3.82-1.79,1.83-1.26,3.19-2.84,3.88-4.37Z"/>
    </g>
  </g>
</svg>