<?xml version="1.0" encoding="UTF-8"?>
<svg id="Layer_2" data-name="Layer 2" xmlns="http://www.w3.org/2000/svg" viewBox="0 0 141.77 34.38">
  <defs>
    <style>
      .cls-1 {
        fill: #794a48;
      }

      .cls-2 {
        fill: #492807;
      }

      .cls-3 {
        fill: #97635f;
      }

      .cls-4 {
        fill: #fff;
      }
    </style>
  </defs>
  <g id="Contact_Us" data-name="Contact Us">
    <g>
      <path class="cls-4" d="M16.21,14.73c-.05.11-.09.16-.14.18h-.56c-.15,0-.27-.02-.35-.07l-.42.07h-.42c-.12-.08-.21-.12-.28-.12-.25,0-.71.02-1.41.05-.23-.16-.35-.4-.35-.72l-.02-.3c0-.15.03-.23.09-.23l-.09-.35.02-.97c0-.11.02-.2.07-.28-.05-.08-.07-.18-.07-.3l-.02-.74c0-.16-.14-.4-.42-.72.01-.11.06-.16.14-.16l.07.3h.07c.17-.2.34-.3.51-.3,0,.06.02.09.07.09v-.09s-.02-.07-.07-.07l.07-.14c0-.11-.05-.16-.14-.16h-.35l-.02-.21c0-.08.08-.15.23-.21h.21c.09,0,.14.04.14.12h-.14v.16h.21c0-.11.02-.16.07-.16-.09-.14-.14-.26-.14-.35h-.14c-.34,0-.51.08-.51.23h-.35v-.07l.07-.16s-.12-.02-.21-.07v.42h-.14c0,.07.12.17.35.3,0-.2.05-.3.14-.3l.07.16v.07c0,.09-.05.14-.14.14h-.35c-.09,0-.14-.09-.14-.28h-.14l.07.51-.14.07h-.07s.02-.07.07-.07c-.05-.09-.07-.17-.07-.23h-.21v.23l.07.16c-.63,0-.98.49-1.05,1.46v1.02c0,.06-.02.09-.07.09l.07.14v1.39c0,.06-.02.09-.07.09.05.05.09.41.14,1.09h-.07l.07.14v.09c0,.21-.02.47-.07.79,0,.05.02.07.07.07l-.07.53v3.74c0,1.04-.05,2.31-.14,3.8l.07.16-.07.44v1.02c0,.21-.02.49-.07.83.05.08.07.18.07.3-.05.46-.09.72-.14.79.07,0,.16.25.28.74l.56.44.21-.16c.14,0,.21.1.21.3h.28l-.14-.21v-.09c.15,0,.36-.16.63-.49-.05-.11-.07-.18-.07-.23.09-.16.14-.31.14-.44v-.6c0-1.71.12-2.57.35-2.57h.21l-.05.16-.02.14h.16c0-.25.12-.37.35-.37.09.01.14.06.14.14l-.07.16c.07,0,.16.05.28.14.07,0,.14-.07.21-.21h-.14v-.16c.11,0,.2.02.28.07l.14-.07c.25.05.39.07.42.07l.71-.07v.07l.14-.07c.11,0,.2.02.28.07l.14-.07.14.07c.09-.05.17-.07.21-.07.28.11.42.3.42.6l-.02.44-.05.44s.02.07.07.07l-.07.37v1.18c0,1.49-.63,2.67-1.9,3.53-.89.53-1.85.79-2.89.79h-.92c-1.5,0-2.82-.71-3.94-2.13-.14-.22-.28-.67-.42-1.34l.07-.12c-.14-.35-.28-1.53-.42-3.53,0-.05.02-.07.07-.07l-.07-.74v-.51c0-.34.02-.63.07-.88l-.07-.51c.05-.86.07-1.39.07-1.62,0-.07-.02-.32-.07-.74,0-.09.02-.14.07-.14l-.07-1.02c0-.96.02-3.12.07-6.47.07-.79.23-1.18.49-1.18h.14l-.14-.23.14-.35c-.05-.08-.07-.18-.07-.3.16-.29.28-.44.35-.44.09.05.16.07.21.07l-.07-.14v-.16h.14l-.07-.14c.04-.19.08-.28.14-.28l.14.05h.07v-.05h-.14l.35-.44v-.09l-.14.09h-.07v-.16h.14c.35,0,.8-.32,1.34-.95.72-.25,1.23-.37,1.55-.37h.84c.43,0,.86.1,1.27.3l-.14.23.14.05c.29-.11.64,0,1.04.3v-.7h2.96v3.41s.02.05.02.07l-.02.09v.04l-.02.12c.07.02.11.06.11.12l-.02.16c0,.15-.02.23-.05.23l.05.35.02.6c0,.16-.02.39-.07.67l.14.42c-.05.32-.1.57-.16.76v.16h-.05ZM5.92,18.72v.07h.14v-.07h-.14ZM6.06,14.92v.16h.07v-.16h-.07ZM6.06,18.26v.37h.14l-.07-.37h-.07ZM6.13,15.82v.07c.07,0,.16.05.28.14h.14c0-.08-.12-.15-.35-.21h-.07ZM6.13,17.09c.05.09.07.16.07.21h.14v-.07c0-.09-.05-.14-.14-.14h-.07ZM6.34,14.26v.07h.14v-.07h-.14ZM6.34,17.9v.07h.14v-.07h-.14ZM6.34,19.09v.37l.35-.07v-.09c-.08,0-.2-.07-.35-.21ZM6.41,15.15v.07c.11,0,.2.02.28.07v-.21h-.07c-.09.05-.16.07-.21.07ZM6.49,17.39v.07h.14v-.07h-.14ZM6.49,20.43v.14h.14v-.14h-.14ZM6.56,16.93v.07h.14v-.07h-.14ZM6.56,17.23v.07h.14v-.07h-.14ZM6.63,10.25h.14l-.07.14v.07h.28v-.28h-.07l-.14.07v-.16c-.09.01-.14.06-.14.16ZM6.91,10.62c0,.09-.09.24-.28.44v.3s.12.02.21.07c.09-.05.16-.07.21-.07l-.07-.14-.14.07h-.07v-.07c0-.12.16-.24.49-.37-.05-.11-.07-.18-.07-.23h-.28ZM6.63,16.12v.21h.21v-.14s-.12-.02-.21-.07ZM6.7,12.92v.14c.09,0,.14-.05.14-.14h-.14ZM6.7,13.66v.07h.14v-.07h-.14ZM6.7,17.82c.01.09.06.14.14.14v-.14h-.14ZM6.84,9.79v.09h.14v-.09h-.14ZM6.84,9.95v.07h.14v-.07h-.14ZM6.84,14.12h.07l.35-.09v-.07h-.28c-.09.01-.14.06-.14.16ZM6.91,13.22c0,.06.12.16.35.3h.07v-.16h.14v.16h.28c0-.11.05-.16.14-.16v-.07h-.14s-.02.07-.07.07l-.21-.3s-.07.03-.07.09l-.35-.09c-.09.01-.14.06-.14.16ZM7.05,12.48v.07h.14v-.07h-.14ZM7.19,10.25l.07.14h-.14v.07h.14s.02-.07.07-.07v.16h.07c0-.11.12-.23.35-.37h-.07l-.49.07ZM7.19,15.29l-.07.16v.07c.09-.05.16-.07.21-.07,0-.11-.05-.16-.14-.16ZM7.19,11.06v.16h.07c.09,0,.14-.05.14-.16h-.21ZM7.26,14.12s-.02.12-.07.21v.07h.07c0-.09.05-.14.14-.14,0-.09-.05-.14-.14-.14ZM7.26,16.79v.07h.14v-.07h-.14ZM7.33,11.73v.16h.14c.07,0,.14-.08.21-.23h-.14c-.09.05-.16.07-.21.07ZM7.33,16.12v.37c.08,0,.15-.12.21-.37h-.21ZM7.47,11.13v.09h.14v-.09h-.14ZM7.47,19.9h.28c0-.09-.05-.14-.14-.14-.09.01-.14.06-.14.14ZM7.54,12.69v.07h.14v-.07h-.14ZM7.61,9.95v.07h.14v-.07h-.14ZM7.61,12.48v.07h.14v-.07h-.14ZM7.68,16.03v.09h.14v-.09h-.14ZM7.75,8.98v.14h.07v-.14h-.07ZM7.82,12.55l-.07.3v.21h.07l.07-.44v-.07h-.07ZM7.82,9.65c.01.09.06.14.14.14v-.14h-.14ZM7.82,13.52v.07h.14v-.07h-.14ZM7.89,12.18v.07h.14v-.07h-.14ZM7.89,26.74c0,.13.09.35.28.67v.07h.21c.07,0,.14-.07.21-.21v-.16l-.21.16c-.12,0-.21-.2-.28-.6h-.07l-.14.07ZM7.96,15.82v.14h.21v-.14h-.21ZM7.96,16.19v.14l.14-.07c.09.05.16.07.21.07.09-.05.16-.07.21-.07v-.07h-.56ZM8.03,12.62h.14c.09,0,.14-.05.14-.14h-.14c-.09.01-.14.06-.14.14ZM8.1,11.43v.09h.14v-.09h-.14ZM8.1,19.39h.14v-.16c-.09.01-.14.06-.14.16ZM8.24,10.92v.44c.22-.12.41-.34.56-.67h-.07c-.18.15-.34.23-.49.23ZM8.24,11.58v.07h.28v-.07h-.28ZM8.31,12.92v.23l.14-.09h.14v.16h.14c-.09-.13-.14-.23-.14-.3h-.28ZM8.38,24.96c.05.08.07.21.07.37h.14c0-.11.02-.16.07-.16-.05-.09-.07-.16-.07-.21h-.21ZM8.38,25.4v.07l.14.23-.07.14h.07c.09,0,.14-.05.14-.14v-.07c0-.08-.07-.16-.21-.23h-.07ZM8.45,11.29v.14h.14c0-.09-.05-.14-.14-.14ZM8.81,11.43c0,.09-.07.22-.21.39h.14v-.16h.14l.14.07v-.14c0-.11-.05-.16-.14-.16h-.07ZM8.59,12.18v.07h.14v-.07h-.14ZM8.66,10.39v.16h.14v-.16h-.14ZM8.66,12.76v.09h.21c.09,0,.14-.05.14-.16h-.14c-.09.05-.16.07-.21.07ZM8.66,14.7v.09h.14v-.09h-.14ZM8.74,8.98l.21.14h.07v-.3h-.14c-.09.02-.14.08-.14.16ZM8.81,9.21v.14h.07v-.14h-.07ZM8.81,12.25v.07h.21v-.07h-.21ZM8.88,9.65c.01.09.06.14.14.14l.07-.14h-.21ZM8.88,10.02h.07c.09,0,.14-.05.14-.14h-.07c-.09.01-.14.06-.14.14ZM8.88,10.25v.07h.07c.09,0,.14-.05.14-.14v-.09h-.07c-.09.01-.14.06-.14.16ZM8.95,18.63v.09h.07c.09-.06.16-.09.21-.09v-.07h-.07c-.09.05-.16.07-.21.07ZM9.23,8.98h.21v-.23c-.07,0-.14.08-.21.23ZM9.51,8.54l.14.07h.07c.09,0,.14-.05.14-.16v-.07h-.21c-.09.01-.14.06-.14.16ZM9.58,8.16v.09h.14v-.09h-.14ZM9.58,9.42v.07h.14v-.07h-.14ZM9.79,8.68v.14h.14c0-.09-.05-.14-.14-.14ZM10.07,8.16h.21c.07,0,.14-.07.21-.21h-.14c-.19.07-.28.14-.28.21ZM10.21,8.75c.01.11.06.16.14.16h.07c0-.11-.05-.16-.14-.16h-.07ZM10.84,8.16c0,.11-.09.16-.28.16v.07h.14v.23l-.07.14c.09.01.14.06.14.16-.05,0-.07.02-.07.07.21.2.33.3.35.3,0-.2.05-.38.14-.53-.09,0-.14-.05-.14-.14.11-.11.25-.16.42-.16-.05-.09-.07-.16-.07-.21h-.14c0,.14-.05.21-.14.21h-.07c0-.2-.07-.3-.21-.3ZM10.91,7.72v.07h.14v-.07h-.14ZM11.41,7.95v.07c.09,0,.14-.05.14-.16v-.07c-.09.01-.14.06-.14.16ZM11.41,8.61v.07h.14v-.07h-.14ZM11.62,7.95s-.02.12-.07.21c.13.15.27.23.42.23.01.11.06.16.14.16l.07-.16c-.14-.05-.21-.19-.21-.44h-.35ZM11.69,28.9v.07h.14v-.07h-.14ZM12.04,27.63v.74l-.14.23c.07,0,.17.05.3.14v-1.11h-.16ZM12.04,25.56v.07c.05.09.07.16.07.21h.09v-.28h-.16ZM12.11,25.93v1.11h.09c0-.32.07-.54.21-.67-.14-.2-.21-.35-.21-.44h-.09ZM12.11,27.33v.07h.07l.07-.3c-.09,0-.14.08-.14.23ZM12.2,7.79l-.02.16h.09l-.02-.16h-.05ZM12.34,7.95l-.07.14-.02.23h.09c.09-.05.16-.07.21-.07-.07-.2-.14-.3-.21-.3ZM12.68,10.76l-.07.16c.09,0,.14.07.14.21h.14c0-.14.09-.21.28-.21v-.07s-.12-.03-.21-.09c-.09.06-.16.09-.21.09,0-.06-.02-.09-.07-.09ZM12.74,9.72v.16h.14v-.16h-.14ZM12.89,26.6l.14.07h.07v-.23h-.07c-.09.01-.14.06-.14.16ZM12.96,9.49v.09h.21v-.09h-.21ZM13.16,8.39c0,.15-.05.23-.14.23v.21h.21s.02-.18.07-.44h-.14ZM13.16,25.77v.16c.09,0,.14-.05.14-.16h-.14ZM13.59,9.72v.07h.14v-.07h-.14ZM13.66,10.09v.23c.01.09.06.14.14.14h.07l-.07-.37h-.14ZM13.8,9.65c.01.09.06.14.14.14v-.14h-.14ZM14.02,8.61v.37c.09,0,.14.05.14.14h.14l-.21-.44s.07-.02.07-.07h-.14ZM14.15,12.32v.3c.01.09.06.14.14.14v-.44h-.14ZM14.29,10.92v.07c.01.09.06.14.14.14.09-.05.16-.07.21-.07v-.14h-.35ZM14.36,28.53v.14c.09,0,.14-.05.14-.14h-.14ZM14.37,13.89v.14h.07v-.14h-.07ZM14.43,12.99v.16c.01.09.06.14.14.14v-.3h-.14ZM14.65,12.92v.14h.07v-.14h-.07ZM14.65,29.94v.14h.07v-.14h-.07ZM14.79,13.36v.09h.14v-.09h-.14ZM14.8,12.39s.12.03.21.09h.14v-.09c-.14,0-.21-.05-.21-.14-.09.01-.14.06-.14.14ZM15.36,13.82l-.21-.16-.28.23c.05.09.07.17.07.23h.07c.09,0,.14-.05.14-.16-.05,0-.07-.02-.07-.07h.07l.35.23c0-.08.07-.16.21-.23l.14.07.07-.14c-.09,0-.14-.12-.14-.37-.28.06-.42.18-.42.37ZM14.93,10.85v.07h.21v-.07h-.21ZM14.99,27.77v.16h.14v-.16h-.14ZM15.08,29.5v.07h.14v-.07h-.14ZM15.15,13.06c.05.11.07.18.07.23h.14v-.23h-.21ZM15.15,29.2v.21c.09,0,.14-.05.14-.14l-.14-.07ZM15.22,13.45v.07h.21v-.07h-.21ZM15.22,14.12v.07h.14v-.07h-.14ZM15.29,12.62c.05.09.07.17.07.23h.07c.11,0,.18-.12.21-.37h-.07c-.12.09-.21.14-.28.14ZM15.41,11.65v.23h.14v-.23h-.14ZM15.5,11.06l.21.37s-.07.03-.07.09l.28.14.07-.14c-.13-.05-.25-.18-.35-.39.09,0,.14-.05.14-.14-.05,0-.07-.02-.07-.07-.14.05-.21.09-.21.14ZM15.57,13.66h.07v.16h-.07v-.16ZM15.85,12.09c0,.2-.05.3-.14.3.05.11.07.18.07.23h.21v-.14l-.07-.39h-.07Z"/>
      <path class="cls-4" d="M29.97,21.2s.02.07.07.07l-.07.14v4.2l.14.21v.16l-.14.21v.54c0,1.78-.47,3.09-1.41,3.94-.86,1-2.29,1.49-4.31,1.49-1.39,0-2.68-.45-3.85-1.34l-.81-1.12c-.32-.66-.54-1.48-.67-2.46-.05,0-.07-.02-.07-.07,0-.06.02-.13.07-.23l-.07-.39.07-.37c-.09-.01-.14-.06-.14-.14.09-.46.14-.79.14-.98v-.14c0-.18-.02-.4-.07-.67l.14-.46c-.05-.08-.07-.18-.07-.28l.07-.53c-.09-.02-.14-.08-.14-.16v-.14c0-.11.05-.16.14-.16l-.07-.37v-.07l.07-.46c-.05-.08-.07-.16-.07-.23.07-.19.15-.28.23-.28.09.05.16.07.21.07v-.07l-.07-.16-.14.07c-.12,0-.19-.17-.23-.51l.02-.05h-.04l-.05-.35s.04-.1.05-.16c-.01-.06-.03-.12-.05-.19.02-.04.04-.08.05-.12-.01-.05-.03-.09-.05-.12.02-.07.04-.13.05-.19-.01-.06-.03-.11-.05-.16l.05-.35h.04l-.02-.05c.04-.34.11-.51.23-.51l.14.07.07-.16v-.07s-.12.02-.21.07c-.08,0-.16-.09-.23-.28,0-.07.02-.15.07-.23l-.07-.46v-.07l.07-.37c-.09,0-.14-.05-.14-.16v-.14c0-.08.05-.13.14-.16l-.07-.53c0-.11.02-.2.07-.28l-.14-.46c.05-.27.07-.49.07-.67v-.14c0-.2-.05-.53-.14-.98,0-.08.05-.13.14-.14l-.07-.37.07-.39c-.05-.09-.07-.17-.07-.23,0-.05.02-.07.07-.07.13-.98.35-1.8.67-2.46l.81-1.12c1.17-.89,2.46-1.34,3.85-1.34,2.02,0,3.45.5,4.31,1.49.94.84,1.41,2.16,1.41,3.94v.54l.14.21v.16l-.14.21v4.2l.07.14s-.07.02-.07.07v3.09ZM20.53,11.99c-.15.11-.23.18-.23.21h.23v.14h-.23v.3c.11.12.16.21.16.28.19.07.31.21.37.42-.04.14-.23.21-.6.21,0,.06.02.09.07.09l-.14.28v.07l.14-.07h.07v.28h-.14v.07h.07c.35-.06.53-.13.53-.21.08,0,.13.05.14.14l-.07.14h.3v-.14h-.16v-.07l.09-.14.14.07c.08,0,.13-.05.14-.14.06,0,.13.02.23.07.2,0,.32-.09.37-.28-.09,0-.22-.22-.37-.65-.25.19-.42.28-.51.28v.07h.07l.37-.07.07.14c0,.11-.05.16-.14.16h-.23c-.2-.12-.3-.22-.3-.3v-.07h.16c0-.18-.03-.29-.09-.35,0-.14.08-.21.23-.21v-.07s-.12-.02-.23-.07l.09-.51h-.23l-.37-.07ZM20.97,10.21h-.23c-.11.09-.25.14-.44.14.05.09.07.16.07.21.11,0,.36-.07.76-.21,0-.08-.05-.13-.16-.14ZM20.74,10.78h-.14l-.14-.07s-.05.07-.16.07v.07l.07.51h.23c0-.09.18-.26.53-.51v-.14l-.39.07ZM20.3,11.57v.21l.16-.07c0-.08-.05-.13-.16-.14ZM20.3,14.7v.07c0,.11.05.16.16.16l-.16.21v.28h.3c.25,0,.39.07.44.21l.16-.07h.07s.02.12.07.21c.09-.05.17-.07.23-.07v-.07c-.06,0-.13-.02-.23-.07,0-.09.12-.14.37-.14l-.07-.14.07-.14-.51.07-.16-.07.09-.14c0-.08-.05-.13-.16-.14l.07-.16v-.14l-.07-.14c-.45.07-.67.16-.67.28ZM20.3,21.27h.16v-.14c-.11,0-.16.05-.16.14ZM20.37,13.13v.14h.16c0-.08-.05-.13-.16-.14ZM20.42,30.62h.07l.14.07s.03-.07.09-.07l.07.14-.23.14h-.07l-.07-.28ZM20.53,15.49h-.07v.14c0,.06.17.18.51.35v-.21c-.18,0-.32-.09-.44-.28ZM20.97,16.7v.07c-.15.12-.23.21-.23.28h-.07c-.09,0-.14-.05-.14-.14l.07-.14c-.09,0-.14-.05-.14-.14,0-.08.05-.13.14-.14h.14c.15.07.23.14.23.21ZM20.67,14.77h-.14v-.14h.14v.14ZM20.83,15.28h-.23v-.14h.23v.14ZM20.9,17.63v.14c-.13-.14-.23-.21-.3-.21v-.14c.2.07.3.14.3.21ZM20.83,19.13l-.09.14-.14-.07c0-.08.05-.13.14-.14h.09v.07ZM21.16,30.97c0,.14.08.21.23.21v.14c-.16,0-.26.09-.3.28-.2-.07-.3-.14-.3-.21.15,0,.23-.09.23-.28.01-.09.06-.14.14-.14ZM20.9,11.43v.14c.08.18.28.34.6.49h.14c0-.14.05-.21.14-.21l.39.07v-.14c-.22,0-.38-.02-.46-.07-.08.05-.18.07-.3.07h-.07c-.11,0-.18-.12-.21-.35h-.23ZM21.2,21.06c-.11,0-.16-.05-.16-.14h.16v.14ZM21.13,20.06v.21l.37.07h.14v-.21s-.12.02-.23.07c-.07,0-.16-.05-.28-.14ZM21.16,30.27v.07h.23v-.07h-.23ZM21.5,10.78h-.23v.14l.14.21v.16l-.07.14s.07.05.07.14h.23l.23-.14c-.16-.42-.29-.64-.37-.65ZM21.27,14.7v.07h.14v-.07h-.14ZM21.41,18.77h-.14v-.14h.14v.14ZM21.39,29.57c0,.11-.03.2-.09.28h.23c-.05-.08-.07-.18-.07-.28h-.07ZM21.53,30.2c0,.07-.05.16-.14.28h.14c.09-.05.17-.07.23-.07,0-.07-.08-.14-.23-.21ZM21.64,18.05c-.09,0-.14.05-.14.14.05,0,.12-.02.21-.07l.16.07.3-.07v-.07h-.53ZM21.5,21.41v.07h.14v-.07h-.14ZM21.71,11.36h-.14v-.16h.14v.16ZM21.71,16.42c0,.09-.05.14-.14.14,0,.09.05.14.14.14,0-.07.08-.16.23-.28h-.23ZM21.64,9.7h.23l-.09-.14c-.09,0-.14.05-.14.14ZM21.78,15.91h-.07c0,.12-.02.22-.07.3l.3-.07v-.07c0-.08-.05-.13-.16-.16ZM21.64,17.42c.05.15.15.25.3.28v-.28h-.3ZM21.69,30.13v.07h.14v-.07h-.14ZM21.71,21.48v.14h.16c0-.08-.05-.13-.16-.14ZM21.94,15.06v.21c0,.09.05.14.14.14h.09v-.07c-.11-.12-.16-.21-.16-.28h-.07ZM22.71,18.33c0,.06.02.09.07.09,0,.05-.02.12-.07.21l.07.14c-.02.19-.09.28-.21.28l.07.14c0,.09-.22.16-.67.21,0,.11.05.16.14.16,0,.05-.02.07-.07.07l.07.14c.14,0,.29-.05.46-.14,0,.05.02.07.07.07,0,.09-.1.14-.3.14.05.09.07.16.07.21h.07c.09,0,.15-.05.16-.14.05,0,.07.02.07.07h.07l-.07-.14v-.07c.12-.25.24-.37.37-.37l-.14-.21c.12-.19.22-.28.3-.28l-.16-.21.07-.14s-.12.02-.21.07c-.05,0-.07-.1-.07-.3h-.16ZM21.97,31.47h.16v.14c-.11,0-.16-.05-.16-.14ZM22.16,10.28c-.11,0-.16.05-.16.14v.14h.3l-.07-.28h-.07ZM22.01,12.57v.21l.37-.07-.21-.3c-.11,0-.16.05-.16.16ZM22.01,16.21v.14h.07v-.14h-.07ZM22.06,30.9v.07h.21v-.21h-.07c-.09.01-.14.06-.14.14ZM22.2,31.75l.07.14c0,.09-.05.14-.14.14l-.07-.14c.01-.09.06-.14.14-.14ZM22.16,16.28l.07.35c.08,0,.13-.05.14-.14-.07-.14-.14-.21-.21-.21ZM22.43,30.27s-.02.12-.07.21h.14v-.21h-.07ZM22.36,30.76c.05.09.07.16.07.21h.07v-.21h-.14ZM22.43,31.04c0,.09.07.14.21.14h.09v-.07l-.3-.07ZM22.57,31.68h.16c0,.11.02.2.07.28h-.07c-.11,0-.16-.05-.16-.14v-.14ZM22.94,22.27h-.07c0,.08-.05.2-.16.35,0,.14.1.26.3.35l.07-.35h-.14c0-.09.1-.14.3-.14v-.07c-.08,0-.18-.05-.3-.14ZM22.87,29.71v.07h.23v-.07h-.23ZM22.87,31.96h.53s.02.12.07.21c-.4-.05-.6-.12-.6-.21ZM23.03,30.97c0,.15-.03.27-.09.35h.37v-.21c0-.09-.05-.14-.14-.14h-.14ZM24.47,9.83c-.55,0-.94.39-1.18,1.18l.07.14-.07.44c0,.06.05.33.14.81l-.07.14.07.67c0,.32-.02.81-.07,1.48l.07.37-.07.14.07.14-.07.44v.23c0,.18.02.4.07.67-.05.08-.07.18-.07.28l.07.16h-.07l.07.44-.14,2.57s.09.08.14.23c-.09.41-.17.85-.23,1.32.06,0,.11.12.16.37l-.07.14.07.37s-.07.02-.07.07h.07l-.07.53v.14c0,.21.05.4.14.58l-.07.37c.05.67.07,1.16.07,1.48,0,.21-.02.48-.07.81l.07.14c-.05.34-.07.61-.07.81v.44c.21.36.58.61,1.11.74v-.07c0-.08-.05-.13-.14-.14.12-.2.22-.3.3-.3l.14.07c-.09.16-.14.29-.14.37v.07l.37-.07v-.07l-.07-.14.28-.23.16.07v-.14l-.07-.16s.07-.02.07-.07h-.16c-.09,0-.14.08-.14.23-.09-.05-.17-.07-.23-.07v-.23c.4-.13.6-.38.6-.74h-.23v-.21c.15,0,.23-.05.23-.16v-.14c-.2-.15-.37-.23-.51-.23v-.07c.21,0,.38-.15.51-.44-.05,0-.09-.07-.14-.21.08,0,.13-.05.14-.16l-.07-.37h.07v-1.25c.05-.56.1-.88.16-.95-.06,0-.09-.02-.09-.07v-.16l.09-.37c-.06,0-.09-.02-.09-.07l.09-.14c-.06,0-.09-.02-.09-.07v-.37h-.14v-.07l.14-.23v-.58h-.21v-.16c.12,0,.19-.09.21-.28-.05,0-.07-.03-.07-.09v-.81l.07-.51c-.14-.39-.24-.58-.3-.58,0-.09.05-.15.16-.16,0-.14-.05-.33-.16-.58.06,0,.09-.02.09-.07v-.09l-.09-.14c.06,0,.09-.02.09-.07v-.3c0-.08-.05-.13-.16-.14l.16-.23v-.21c0-.21-.03-.41-.09-.6.06-.2.09-.39.09-.58v-.37l.07-.16s-.07-.02-.07-.07v-.65l-.09-.37c.07,0,.12-.39.16-1.18,0-.05-.02-.12-.07-.23.02-.09.07-.56.14-1.39-.19-.59-.51-.88-.97-.88ZM23.24,30.76v.14h.07v-.14h-.07ZM23.24,33.57h.07v.14h-.07v-.14ZM23.47,26.4v.14h.07c.11,0,.16-.05.16-.14h-.23ZM23.47,30.97v.07h.3v-.07h-.3ZM23.61,25.91h.09c.09.01.14.06.14.14v.07c-.07,0-.15-.07-.23-.21ZM23.98,17.54v.07l-.07.14c.2,0,.3.05.3.14-.05,0-.07.02-.07.07-.07-.05-.22-.07-.44-.07v-.28c.11,0,.2-.02.28-.07ZM23.69,30.55v.07h.21v-.07h-.21ZM23.9,32.03h.07v.21h-.21v-.07c.01-.09.06-.14.14-.14ZM23.83,17.33h.07v.14h-.07v-.14ZM23.83,27.11h.23v.14h-.23v-.14ZM24.64,30.76c0,.08-.15.15-.44.21,0-.09-.05-.14-.14-.14h-.09c0,.07-.05.16-.14.28v.07l.14-.07c.16.09.29.14.39.14.01-.09.06-.14.14-.14h.07v.21h.07c0-.19.13-.28.39-.28v-.21l-.16.07-.23-.14ZM24.06,27.67v.14h-.16c.02-.09.08-.14.16-.14ZM23.9,31.32v.07h.23v-.07h-.23ZM24.36,26.26h.07l.3.21c-.06.08-.09.18-.09.28l-.37-.07-.3.07v-.14c.22,0,.38-.09.46-.28-.05,0-.07-.02-.07-.07ZM23.98,30.48v.07h.16v-.07h-.16ZM24.06,18.11h.07c.09.01.14.06.14.14h-.21v-.14ZM24.13,17.47h.14v.14h-.14v-.14ZM24.5,25h.07c.11.01.16.06.16.14v.14c-.12,0-.29.09-.53.28h-.07v-.07c.25-.16.37-.33.37-.49ZM24.2,16.98h.16v.07h-.16v-.07ZM24.36,18.95v.14h-.16c.01-.09.06-.14.16-.14ZM24.5,26.75v.14c0,.09-.05.14-.14.14-.11,0-.16-.05-.16-.14v-.07s.12-.02.3-.07ZM24.2,27.81h.23c.09.01.14.06.14.14-.05,0-.07.02-.07.07h.14v.14h-.28c-.11,0-.16-.05-.16-.14v-.21ZM24.43,16.14v.14h-.16c.02-.09.08-.14.16-.14ZM24.36,19.72h.14v.07h-.14v-.07ZM24.36,24.65h.14c.09.01.14.06.14.14l-.14.07c-.09,0-.14-.05-.14-.14v-.07ZM24.36,25.98h.21v.14h-.21v-.14ZM24.36,27.11h.14v.14h-.14v-.14ZM24.43,26.47v.07h.14v-.07h-.14ZM24.5,18.88h.14c0,.09-.05.14-.14.14v-.14ZM24.64,20.07l.09.14v.07h-.09c-.09,0-.14-.05-.14-.14l.14-.07ZM24.5,21.41c.09.01.14.06.14.14h-.14v-.14ZM24.5,24.15h.14v.07h-.14v-.07ZM24.5,29.5v.07h.14v-.07h-.14ZM24.73,30.2c0,.09-.08.14-.23.14.01.09.06.14.14.14.3-.05.46-.12.46-.21v-.07l-.16.07c-.09-.05-.16-.07-.21-.07ZM24.57,19.44c.11.01.16.06.16.14v.28h-.16v-.42ZM24.57,21.13h.16v.14h-.16v-.14ZM24.57,27.67h.07v.21h-.07v-.21ZM24.57,32.24h.16v.14h-.16v-.14ZM24.73,15.93h.21v.07c0,.09-.05.14-.14.14l-.07-.14v-.07ZM24.73,16.28h.07v.14h-.07v-.14ZM24.73,21.62h.14v.14h-.14v-.14ZM24.87,21.06h.23c0,.09-.05.14-.16.14h-.07v-.14ZM24.87,23.1h.07c.11.01.16.06.16.14l-.16.07-.07-.14v-.07ZM25.24,31.96v.28c-.08.05-.18.07-.3.07h-.07s.12-.16.37-.35ZM25.17,16.84h.07v.14h-.07v-.14ZM25.31,29.29c0,.09-.05.14-.14.14l.07.14c-.05.09-.07.16-.07.21.05.09.07.16.07.21h.07c0-.23.13-.35.39-.35v-.14c-.13,0-.26-.07-.39-.21ZM25.24,20.85c.11.01.16.06.16.14h-.16v-.14ZM25.24,30.34v.07h.37c.11,0,.16-.05.16-.14v-.07h-.23c-.12.09-.22.14-.3.14ZM25.31,28.93v.14h.09c.09,0,.14-.05.14-.14h-.23ZM25.61,28.3s-.02.12-.07.21h.16s.02-.12.07-.21h-.16ZM25.61,30.9v.14c.11-.05.18-.07.23-.07v-.07h-.23ZM25.77,19.86c.05.09.07.16.07.21h.14c.08,0,.16-.07.23-.21v-.07h-.07l-.37.07ZM25.91,22.04l.16.21c-.06,0-.09.02-.09.07.06,0,.13.02.23.07v-.07l-.07-.14s.07-.02.07-.07l-.14-.07h-.16ZM25.91,27.46v.21h.07v-.21h-.07ZM26.14,29.5v.21h.07v-.21h-.07ZM26.14,30.9h.3c0-.09-.05-.14-.16-.14-.09.01-.14.06-.14.14ZM26.21,20.64v.21h.37c0-.07-.07-.14-.21-.21h-.16ZM26.21,22.68c.05.09.07.16.07.21.06,0,.09-.02.09-.07l.14.07h.07c.12,0,.22-.02.3-.07.09.05.17.07.23.07.09-.05.16-.07.21-.07v-.14l-.07-.14c-.18.09-.38.14-.6.14h-.07v-.14h-.07c-.12.09-.22.14-.3.14ZM26.21,27.46c.05.09.07.16.07.21h.16c-.05-.09-.07-.16-.07-.21h-.16ZM26.37,21.48l-.09.14c.11-.05.18-.07.23-.07v-.07h-.14ZM26.51,21.83c0,.07-.05.16-.14.28v.14h.07c.08,0,.15-.14.21-.42h-.14ZM26.37,26.75v.28h.07c.09,0,.14-.05.14-.14s-.05-.14-.14-.14h-.07ZM26.37,30.34v.21h.07c.12-.09.22-.14.3-.14v-.14c-.08.05-.21.07-.37.07ZM26.44,21.34v.07h.21v-.07h-.21ZM26.51,31.82h.14v.14h-.14v-.14ZM26.58,28.16v.14c.13-.09.23-.14.3-.14v-.07h-.07c-.09.05-.17.07-.23.07ZM26.74,20.22c0,.11-.03.2-.09.28h.16c0-.11.02-.2.07-.28h-.14ZM26.65,21.62v.14h.09c.09,0,.14-.05.14-.14h-.23ZM26.65,24.29h.3c0-.09-.05-.14-.14-.14-.11.01-.16.06-.16.14ZM26.81,23.1c.01.09.06.14.14.14v-.14h-.14ZM26.81,25.42v.07c.09,0,.14-.05.14-.14v-.07c-.09.01-.14.06-.14.14ZM26.81,28.79v.07l.07.14s-.07.02-.07.07h.07c.11,0,.16-.05.16-.14s-.05-.14-.16-.14h-.07ZM27.24,21.13v.14h-.14l-.16-.07-.07.28h.3c.11-.02.21-.14.3-.35h-.23ZM26.88,26.75v.07h.16v-.07h-.16ZM26.88,30.2v.07c.01.09.06.14.16.14v-.07c0-.09-.05-.14-.16-.14ZM27.4,31.4v.07c-.2.14-.3.26-.3.35h-.23v-.21c0-.09.18-.16.53-.21ZM27.03,22.4v.07h.14v-.07h-.14ZM27.03,24.08v.07h.14v-.07h-.14ZM27.1,28.02v.14h.07c.09-.05.17-.07.23-.07v-.07h-.3ZM27.17,25.98v.21c.01.09.06.14.14.14h.16v-.07c-.11-.12-.16-.21-.16-.28h-.14ZM27.32,20.07h.09c.09,0,.14-.05.14-.14v-.14c-.07,0-.15.09-.23.28ZM27.32,27.53c.06.08.09.18.09.28h.07v-.35l-.16.07ZM27.4,26.82v.07h.14v-.07h-.14ZM27.47,24.79v.14l.37-.07v-.07h-.37ZM27.54,23.45v.14c.11,0,.16-.05.16-.14h-.16ZM27.54,23.94v.07h.23v-.07h-.23ZM27.7,31.61h.07v.21h-.23v-.07c.01-.09.06-.14.16-.14ZM27.77,20.78h.14v-.14c-.09.01-.14.06-.14.14ZM27.77,21.13v.07h.14v-.07h-.14ZM27.84,29.5v.14h.07v-.14h-.07ZM27.98,30.34c0,.14-.05.21-.14.21v.21h.07c0-.07.05-.16.16-.28v-.14h-.09ZM27.98,22.11v.14h.09v-.14h-.09ZM28.07,26.75v.14h.14v-.14h-.14ZM28.14,28.09v.07c.01.09.06.14.14.14v-.21h-.14ZM28.37,22.25v.07h.28v-.07h-.28ZM28.44,24.29v.07h.14v-.07h-.14ZM28.44,26.82v.07h.14v-.07h-.14ZM28.65,22.47v.21h.09c.09,0,.14-.05.14-.14l-.14-.07h-.09ZM28.74,29.78h.14v.07h-.14v-.07ZM28.81,8.68h.07v.14h-.07v-.14ZM29.18,8.54h.14v.14h-.14v-.14ZM29.25,9.67s-.02.07-.07.07c.09.19.14.35.14.49.11,0,.16-.05.16-.14v-.07l-.07-.14h.21v-.21l-.14.07h-.07l-.16-.07ZM29.25,28.3c.09.05.19.07.3.07v.14h-.14c-.11,0-.16-.05-.16-.14v-.07ZM29.48,7.56h.07v.07c0,.09-.05.14-.14.14l-.09-.14.16-.07ZM29.48,29.85h.07c.11.01.16.06.16.14l-.16.07-.07-.14v-.07ZM29.62,29.22h.09v.14h-.09v-.14ZM29.71,15.57h.07v.14h-.07v-.14ZM29.78,8.54h.14v.07h-.14v-.07ZM29.92,14.8h.16c0,.09-.05.14-.16.14v-.14ZM30.07,15.72v.14h-.16c.02-.09.08-.14.16-.14ZM30.07,14.1h.14v.07h-.14v-.07ZM30.44,14.8l.07.14-.14.07h-.16c0-.07.08-.14.23-.21ZM30.37,9.32h.14v.14h-.14v-.14ZM30.51,14.45h.14v.14h-.14v-.14ZM30.65,13.75h.16v.14h-.16v-.14ZM31.32,9.25h.09v.07c0,.09-.05.14-.16.14h-.07v-.07c.01-.09.06-.14.14-.14ZM31.71,31.75h.14v.14c-.09,0-.14-.05-.14-.14Z"/>
      <path class="cls-4" d="M33.94,12.04v.14h-.14c0-.09.05-.14.14-.14ZM33.85,12.81c0-.09.05-.14.14-.14,0,.05.02.12.07.21v.07h-.21v-.14ZM34.01,19.14c0-.09.05-.14.14-.14v.21l-.14-.07ZM34.08,12.32h.14v.14h-.14v-.14ZM34.17,11.62l.07-.14.14.07c0,.08-.05.13-.14.14h-.07v-.07ZM41.22,10.42v-2.76h5.96v2.76h-.63s.02,0,.02.02l.02.12c-.14.15-.21.27-.21.35,0,.04.03.21.09.53-.09,0-.14.05-.14.14.06.09.09.16.09.21-.05,0-.07.02-.07.07.09,0,.14.04.14.12l-.26.28c.23,0,.36.43.39,1.28.09,0,.14-.07.14-.21h.14c-.22.4-.33.71-.33.95h.07c-.01.27-.08.47-.19.62l.09.33c0,.09-.02.14-.07.14l.09.69.04.67s-.02.07-.07.07l.07.14c-.02,1.27-.1,1.9-.23,1.9.05.08.08.15.09.19-.05.09-.07.16-.07.21.06,0,.13.13.23.4-.09.63-.16.95-.19.95.06.13.11.19.16.19-.04.32-.12.59-.26.83h.14c.01.29.04.52.09.67l-.07,2.23.16.28h-.14l.04,1.14s-.02.07-.07.07c0,.05.02.07.07.07-.02.83-.03,1.44-.02,1.83l.05,1.23h.65v2.76h-5.96v-2.76h1.07c-.11-.19-.22-.33-.35-.42l.12-.26c-.21-.88-.32-1.38-.32-1.49h.07c.11,0,.2.02.28.07h.07v-.07h-.14l-.02-.14h.14v-.05h-.28v.12h-.07c-.09-.01-.14-.05-.14-.12v-.21h.14v-.07h-.14s-.02.07-.07.07l-.07-.14c-.01-.08.03-.12.12-.12-.19-.28-.29-.49-.3-.62.05-.09.07-.16.07-.21-.11,0-.21-.09-.3-.26l.07-.14c-.13,0-.26-.59-.4-1.76l.28-.21-.07-.12-.02-.21.07-.14h-.35l-.14.07c0-.09-.02-.18-.07-.26.04-.09.05-.16.05-.21-.08,0-.18-.2-.3-.6h-.21l.07-.14-.23-.26-.02-.62c0-.13-.08-.38-.23-.76h-.07l-.14.07.07.14.02.07c-.02.09-.07.14-.14.14l.07.33v.07l-.05.12.14.07-.12.83c.09,0,.14.04.14.12-.04.14-.08.21-.12.21l.07.12c-.01.09-.06.14-.14.14.11.34.16.52.16.54l-.14.07-.14-.07-.05.33c.07,0,.14.07.21.21v.07c-.23,0-.37.06-.4.19v.07h.07l.26-.19.09.12c-.09.01-.28.19-.54.54v.14l.3.54v.07c-.09,0-.14.02-.14.05.08.19.16.28.23.28l.05-.14v-.19s-.02-.07-.07-.07c.05-.09.07-.16.07-.21h.14v.4s-.02.07-.07.07c.06.08.12.31.18.69l-.05.67c.07.67.13,1.12.18,1.35h-.07s.02.07.07.07l-.04.81.02.42h.72v2.76h-6.08v-2.76h.93s-.02-.09-.02-.14v-.14l.14-.19c-.11-.15-.16-.29-.16-.42l-.02-.47s.02-.05.07-.05l-.07-.14-.02-.54c-.01-.11-.04-.19-.09-.26l.14-.28s-.03-.11-.09-.19c.07-.63.13-.95.19-.95,0-.05-.02-.07-.07-.07l.05-.47-.02-.54c0-.11-.03-.19-.09-.26.05-.09.07-.16.07-.21l-.09-.33.07-.35-.07-.12c.08-.15.12-.29.12-.4l-.02-.42c0-.09-.02-.18-.07-.26l-.02-.19h-.14v-.07h.21v-.07s-.02-.07-.07-.07l.07-.14-.02-.19c0-.11-.02-.2-.07-.28l.07-.12c-.06-.09-.09-.16-.09-.21.05,0,.07-.02.07-.07h-.63c0-.09.05-.14.14-.14h.35l.14.07v-.07l-.09-.4c.09-.01.14-.05.14-.12,0-.05-.02-.07-.07-.07l.21-2.18-.09-.4v-.4c-.01-.11,0-.19.05-.26-.05-.08-.08-.2-.09-.35,0-.19.04-.39.12-.6l-.07-.4v-.07c-.01-.11,0-.2.05-.28-.05-.08-.07-.15-.07-.19l.05-.14-.14-.26c.04-.19.08-.28.14-.28-.01-.05-.04-.07-.09-.07l.07-.47-.04-.81.14-.19c-.09-.01-.14-.06-.14-.14l-.02-.14s.02-.07.07-.07l-.07-.12c.02-.8.03-1.27.02-1.42.01,0,.02,0,.04-.02h-1.07v-2.76h6.08v2.76h-.72c.02.16.04.35.05.54-.05,0-.07.02-.07.07.09,0,.3.75.63,2.25l-.12.33c.23,0,.42.5.54,1.49-.09.04-.16.05-.21.05v.07c.14,0,.21.07.21.21,0,.08-.04.22-.12.4h.28s.02.12.07.21l-.12.26c.14,0,.21.05.21.14l-.07.12-.14-.05h-.07v.12c.39.15.59.4.6.76.16.91.32,1.41.46,1.48-.05,0-.07.02-.07.07h.07s0,.07-.05.07c.06.59.18.88.37.88,0-.08.09-.12.28-.12-.2-.26-.3-.51-.3-.76.09,0,.16-.18.19-.54-.09-.01-.15-.05-.16-.12v-.28c0-.08.05-.12.14-.12-.15-.34-.23-.59-.25-.76.08-.45.12-.85.11-1.21l-.02-.95.05-.14c-.09-.01-.14-.06-.14-.14-.01-.32.03-.47.12-.47l-.07-.12v-.07s.02-.07.07-.07l-.16-.4c0-.07.11-.21.33-.4h-.07l-.14.07c-.08-.05-.15-.07-.21-.07v-.07s.02-.07.07-.07l-.07-.14c-.01-.22.03-.33.12-.33l-.07-.14v-.12c-.01-.23.15-.39.47-.47h.14l.21.12h.07l-.07-.12v-.07c.15,0,.27-.02.35-.07l-.09-.14v-.14l.07-.12c-.14,0-.21-.05-.21-.14h-.14c0,.22-.05.33-.14.33-.01-.08-.06-.12-.14-.12-.19.08-.33.12-.42.12l-.07-.12v-.14c0-.07.06-.14.19-.21.01.07.11.16.3.28l-.02-.28h.07v-.07l-.14-.19c.05-.08.07-.17.07-.26l-.16-.07h-.07l.02.26h-.28v-.07l.05-.21h-.77ZM34.28,19.85h.07v.14h-.07v-.14ZM34.36,12.11v-.07h.07l.14.07-.07.14c-.08,0-.13-.05-.14-.14ZM35.05,12.96c0-.09-.05-.14-.14-.14v.14h.14ZM35.1,20.48c.09,0,.14-.05.14-.14v-.21l-.12-.21v-.07l.07-.14-.14-.07h-.07s-.02.12-.07.21l.14.07s-.03.12-.09.21c0,.05.02.12.07.21l-.07.14h.14ZM35,12.32v-.14h-.07v.14h.07ZM35.07,14.29h-.14v.14c.09,0,.14-.05.14-.14ZM35.07,16.82c0-.11.03-.2.09-.28l-.07-.35h-.07s-.02.12-.07.21c.05,0,.07.02.07.07l-.02.14-.07.14.14.07ZM35.07,19.49h.07s-.02-.12-.07-.21l.07-.14c-.14.07-.21.14-.21.21,0,.08.05.13.14.14ZM35.08,13.87v-.07h-.14v.07h.14ZM35.08,18.51c.01-.23.06-.35.16-.35,0-.05-.02-.07-.07-.07,0-.05.02-.07.07-.07l-.14-.21c.01-.09.06-.14.16-.14l-.14-.21c-.08,0-.13.05-.14.14l-.04.91h.14ZM35.08,18.86v-.07c0-.09-.05-.14-.14-.14v.21h.14ZM35.08,16.12l.02-.35h-.07s-.02.12-.07.21c-.01.08.03.13.12.14ZM35.14,21.39c.01-.11.04-.2.09-.28-.08,0-.12-.16-.12-.49l-.14.07c-.01.08.03.27.12.56h-.07c-.01.08.03.13.12.14ZM35.03,15.56c.01-.27.04-.43.09-.49l-.14-.07-.02.56h.07ZM35.14,14.78v-.07h-.14v.07h.14ZM35.21,16.96v-.07h-.21v.07h.21ZM35.3,23.57l-.12-.91s.07-.02.07-.07h-.07l-.14.07c.08.45.12.77.12.98l.14-.07ZM35.19,17.31v-.07h-.14v.07h.14ZM35.26,22.38c-.05-.09-.07-.16-.07-.21h-.14v.21h.21ZM35.4,24.49c-.12-.28-.21-.42-.26-.42l-.09.35.07.35c.12-.19.21-.28.28-.28ZM35.28,23.99v-.21h-.07c-.07,0-.12.05-.14.14v.07h.21ZM35.3,30.67v-.07h-.14v.07h.14ZM35.82,27.16v-.07c0-.09-.05-.14-.14-.14h-.21c0,.11-.03.2-.09.28.26-.05.4-.07.44-.07ZM35.56,12.18h-.14v.14c.09,0,.14-.05.14-.14ZM35.58,25.75v-.14h-.07v.14h.07ZM36.21,13.66l.02-.07h-.56l-.02.07h.56ZM35.91,19.14v-.14c-.08.05-.15.07-.21.07v.07h.21ZM35.79,14.01v-.14h-.07v.14h.07ZM35.86,16.05c.01-.09-.03-.14-.12-.14l-.02.14h.14ZM35.88,13.45v-.07h-.14v.07h.14ZM35.96,17.46v-.07h-.21v.14c.09-.05.16-.07.21-.07ZM36.56,11.41l.02-.14h.14l.12.07.09-.14c-.14,0-.21-.05-.21-.14-.11,0-.2.02-.28.07l-.21-.14h-.14v.07h-.28v.07c.07,0,.16.07.26.21h.07l.02-.14h.21v.07l-.09.14h.28ZM36.4,11.9l.02-.07c-.08,0-.18-.05-.28-.14h-.07c-.01.14-.09.21-.23.21l.07.14.49-.14ZM36.03,15.35v-.07h-.14v.07h.14ZM36.14,16.12s.1-.07.16-.21l-.35.07-.02.07c.06,0,.13.02.21.07ZM36.21,14.01v-.07h-.21v.07h.21ZM36.19,12.46h-.14l-.02.14c.09,0,.15-.05.16-.14ZM36.1,17.6v-.14h-.07v.14h.07ZM36.24,10.42v-.07h-.14v.07h.14ZM36.32,14.92c.01-.12.06-.23.16-.35h-.35l.05.35h.14ZM36.32,10.71c0-.09-.05-.14-.14-.14v.14h.14ZM36.32,15.06v-.07h-.14v.07h.14ZM36.32,12.53l.02-.14h-.07l-.02.14h.07ZM36.35,18.72v-.14h-.07v.14h.07ZM36.74,17.74v-.42h-.07l-.35.07v.07h.21v.14h-.14v.14h.35ZM36.49,18.93v-.07h-.14v.07h.14ZM36.67,10.71s-.02-.07-.07-.07l.14-.21-.35-.07v.07c.09.12.14.21.14.28h.14ZM36.53,12.81v-.07h-.14v.07h.14ZM36.58,18.02v-.07h-.14v.07h.14ZM36.91,9.16v-.14c-.07,0-.16-.05-.26-.14h-.14l-.02.21.42.07ZM36.65,13.24v-.07h-.14v.07h.14ZM36.91,14.08l-.35.07-.02.14c.25-.04.37-.11.37-.21ZM36.82,16.82l.16-.35s-.07-.02-.07-.07l-.14.07s.02.07.07.07c-.01.09-.09.14-.23.14v.07s.12.02.21.07ZM36.9,21.67c0-.09-.05-.14-.14-.14h-.07v.14h.21ZM36.95,10.14c-.04-.09-.05-.16-.05-.21h-.14c.05.09.06.16.05.21h.14ZM37.25,14.64v-.07c-.14,0-.21-.05-.21-.14-.12.09-.21.14-.28.14v.07h.49ZM36.95,12.89c.12-.09.21-.14.28-.14v-.07c-.14,0-.21-.07-.19-.21h-.14s-.04.12-.09.21c0,.14.05.21.14.21ZM37.62,9.44v-.14h.07l.14.07c0-.14.09-.21.28-.21v-.21h-.14c-.07,0-.12.05-.14.14l-.14-.07.09-.14h-.14l-.02.21h-.14v-.14l.09-.14c-.14,0-.3-.02-.49-.07-.09.05-.16.07-.21.07v.07c.23,0,.35.05.33.14.19.19.28.33.28.42h.14ZM36.93,13.38v-.14h-.07v.14h.07ZM37.11,14.36v-.07h-.21v.07h.21ZM37.18,16.75v-.07h-.14v.07h.14ZM37.19,11.83v-.07h-.14v.07h.14ZM37.21,20.27v-.07h-.14v.07h.14ZM37.32,10.07l.12.07h.14l-.12-.21-.14.07h-.07l-.14-.07-.02.21c.06,0,.13-.02.23-.07ZM37.3,10.49v-.07h-.14v.07h.14ZM37.28,18.02c.09,0,.14-.05.14-.14h-.07c-.07,0-.12.05-.14.14h.07ZM37.46,21.53v-.14h-.07l-.14.07c.05.09.07.16.07.21.09,0,.14-.05.14-.14ZM37.46,16.75v-.07h-.14v.07h.14ZM37.77,13.52v-.21c-.07-.14-.14-.21-.21-.21l-.21.14c0,.09.14.19.42.28ZM37.7,24.91s-.12-.02-.21-.07c0,.05-.05.07-.14.07l.14.21c.14-.07.21-.14.21-.21ZM37.51,10.49v-.07h-.14v.07h.14ZM37.65,12.74v-.07c0-.09-.05-.14-.14-.14h-.14c0,.07.09.14.28.21ZM37.79,24.56v-.07l-.42.07.14.21c.19-.07.28-.14.28-.21ZM37.53,11.9h-.14v.14c.09,0,.14-.05.14-.14ZM37.7,11.27v-.07h-.28v.07h.28ZM37.58,15.35v-.07h-.14v.07h.14ZM37.69,25.89l.35-.07v-.07l-.35-.07-.14.07c0,.08.05.13.14.14ZM37.63,10.85l.02-.14h-.07l-.02.14h.07ZM37.77,15.56s.03-.12.09-.21h-.21s-.04.12-.09.21h.21ZM37.7,15.77v-.07h-.14v.07h.14ZM37.72,17.53v-.07h-.14v.07h.14ZM37.88,11.97c-.04-.08-.05-.18-.05-.28h-.21l.07.14-.09.14h.28ZM37.69,14.15v-.14h-.07v.14h.07ZM37.81,17.17v-.07h-.14v.07h.14ZM38.09,26.46h.07v-.07c-.11-.19-.2-.28-.28-.28h-.21v.07c0,.06.14.15.42.28ZM37.76,11.55v-.14h-.07v.14h.07ZM37.9,16.4v-.07s-.12-.02-.21-.07v.14h.21ZM37.99,25.26c0-.09-.05-.14-.14-.14-.08,0-.13.05-.14.14v.07l.28-.07ZM37.72,31.73h.28v.14h-.28v-.14ZM37.9,16.19h.07c-.05-.09-.06-.16-.05-.21l-.16.07c0,.08.05.13.14.14ZM37.9,23.5v-.07h-.14v.07h.14ZM37.93,17.39v-.07h-.14v.07h.14ZM37.95,9.72v-.07h-.14v.07h.14ZM37.95,23.99h.14c0-.09-.05-.14-.14-.14h-.14c0,.08.05.13.14.14ZM37.95,26.53v-.07h-.14v.07h.14ZM37.97,25.54v-.07h-.14v.07h.14ZM38,10.14l.02-.07h-.14l-.02.07h.14ZM37.97,18.44l.02-.14h-.07l-.02.14h.07ZM38.06,18.16v-.07h-.14v.07h.14ZM38.07,10.71v-.14h-.14c0,.08.05.13.14.14ZM38.14,14.92c-.04-.07-.05-.21-.05-.42h-.07l-.09.35v.07h.21ZM38.07,24.49c0-.09-.05-.14-.14-.14v.21l.14-.07ZM38.09,9.93v-.07h-.14v.07h.14ZM38.04,11.48v-.14h-.07v.14h.07ZM38.18,18.72v-.07h-.21v.07h.21ZM38.64,17.46h.14l.14.07v-.14h-.07l-.35.07v-.14c.06,0,.13-.02.21-.07.01-.05,0-.12-.05-.21,0-.05.05-.07.14-.07,0-.05-.02-.07-.07-.07,0-.05.02-.12.07-.21-.07-.14-.13-.21-.19-.21l-.16.35h-.07l-.21-.14v.07c0,.11.12.18.35.21v.14l-.49.07c-.01.08.03.13.12.14l-.07.14c.14,0,.21.05.21.14.23,0,.35-.05.35-.14ZM38.57,10.71v-.14h-.07v-.28h-.07l-.35.07v.07c.19,0,.28.05.28.14l-.07.14h.28ZM38.49,10.21c.12-.09.22-.14.3-.14,0-.05-.02-.07-.07-.07l.07-.14v-.07h-.14v-.07h.21v-.07l-.05-.14-.16.07-.12-.07s-.04.07-.09.07h-.07l.02-.14c.07,0,.16-.07.28-.21h.07v.14h.07v-.21l-.14-.21.09-.14-.21-.14h-.07v.07l.07.14-.16.07-.19-.14v.07l.05.42-.07.14h.07c-.01.08-.06.13-.16.14l.07.14-.02.42.35.07ZM38.21,21.96l.02-.28h-.14l.05.28h.07ZM38.34,15.49l.02-.07h-.21l-.02.07h.21ZM38.27,15.77v-.07h-.14v.07h.14ZM38.27,18.02v-.07h-.14v.07h.14ZM38.93,12.18v-.28l-.05-.14-.14.07h-.07l-.35-.07.05.14h-.21v.14c.21,0,.35.02.42.07v-.07c.08,0,.2.05.35.14ZM38.44,12.25v-.07h-.28v.14c.08-.05.18-.07.28-.07ZM38.3,16.61l.02-.07h-.14l-.02.07h.14ZM38.39,14.08h.14l-.05-.49h-.07c-.01.19-.09.28-.23.28.07.14.14.21.21.21ZM38.46,18.65h.14v-.07c-.11,0-.2-.02-.28-.07h-.07v.07s.12.02.21.07ZM38.51,21.6v-.21c-.09.05-.16.07-.21.07v.07s.12.02.21.07ZM38.44,28.49v-.07h-.14v.07h.14ZM38.49,19.56s.04-.12.09-.21v-.07c-.07,0-.15.09-.23.28h.14ZM38.42,24.49v-.14h-.07v.14h.07ZM38.49,24.77v-.07h-.14v.07h.14ZM38.44,14.5v-.14h-.07v.14h.07ZM38.51,21.81v-.07h-.14v.07h.14ZM38.65,19.07l.23-.42-.42.21-.02.14c.06,0,.13.02.21.07ZM38.65,24.21v-.07h-.21v.07h.21ZM38.62,18.16c0-.09-.05-.14-.14-.14v.14h.14ZM38.48,27.02v.28h.21l.35.07v-.14c-.14,0-.21-.05-.21-.14l-.14.07-.21-.14ZM38.64,12.96h.07v-.14h-.21c0,.08.05.13.14.14ZM38.78,27.65c0,.14-.09.21-.28.21v.07c.23,0,.36.07.37.21h.14v-.07s-.04-.07-.09-.07l.07-.14c0-.07-.07-.14-.21-.21ZM38.51,16.82h.14v.14h-.14v-.14ZM38.65,28.92v-.07h-.14v.07h.14ZM38.69,27.37h.07v-.07c.01-.09-.03-.14-.12-.14h-.07l-.02.07c0,.08.05.13.14.14ZM38.78,15.42v-.07c0-.09-.05-.14-.14-.14h-.07v.14s.12.02.21.07ZM38.57,31.73h.21v.14h-.21v-.14ZM38.85,27.09v-.14h-.21v.07s.12.02.21.07ZM38.81,16.19v-.07h-.14v.07h.14ZM38.81,20.97v-.07h-.14v.07h.14ZM38.81,28v-.07c0-.09-.05-.14-.14-.14v.21h.14ZM38.92,19.56l.02-.21h-.21v.14s.11.02.19.07ZM38.81,25.82v-.14h-.07v.14h.07ZM38.86,19.07s-.02.12-.05.21l.14.07.05-.28h-.14ZM38.93,10v-.14h-.07v.14h.07ZM38.93,30.89l.02.14h.07l-.02-.14h-.07ZM39.02,14.64v.07h.21v-.07h-.21ZM39.09,19.28v.07c.09.21.19.33.28.35h.07c-.09-.19-.14-.33-.14-.42h-.21ZM39.5,18.86v.07c.14,0,.21.05.21.14,0,.07-.06.14-.19.21l.07.14-.07.14h.07c.08-.05.18-.07.28-.07,0,.19.05.28.14.28-.07.38-.25.56-.54.56l-.14-.21s.07-.02.07-.07h-.28v.35c.07,0,.4-.02.98-.07,0,.05.02.07.07.07v-.14h.07s.07.02.07.07c.23-.06.35-.13.35-.21-.14,0-.21-.05-.21-.14.05,0,.07-.02.07-.07-.19,0-.29-.07-.3-.21,0-.05-.07-.07-.21-.07,0-.07.07-.14.21-.21.09.12.14.23.14.35h.14c.04-.47.1-.7.19-.7l.14.07v-.14h-.07c-.28,0-.42.09-.4.28l-.23-.14h-.14l-.14.07-.07-.14c.09,0,.14-.05.14-.14-.14-.05-.21-.09-.21-.14-.09.05-.16.07-.21.07ZM39.15,19.07v.14c.09,0,.14-.05.14-.14h-.14ZM39.18,15.42v.07h.21l.07-.14h-.07c-.09.05-.16.07-.21.07ZM39.36,16.82l-.12.21h.07c.12-.09.23-.14.35-.14l-.02-.07h-.28ZM39.32,17.74v.07h.28l-.07-.14c-.09.05-.16.07-.21.07ZM39.36,14.01v.07c.09,0,.14-.05.14-.14l-.02-.07c-.09.01-.13.06-.12.14ZM39.44,14.85c0,.09-.02.14-.07.14.06.09.09.16.09.21h.07l-.02-.35h-.07ZM39.43,19.07v.14c.09,0,.14-.05.14-.14h-.14ZM39.62,30.39l.02.14h-.14c.01-.09.05-.14.12-.14ZM39.51,17.17v.28h.14v-.07c-.05-.09-.07-.16-.07-.21h-.07ZM39.64,16.47v.07h.14v-.07h-.14ZM39.71,21.39c0,.09-.02.14-.07.14.11.15.16.27.16.35.07,0,.14-.09.21-.28l-.3-.21ZM39.94,21.89c0,.09-.02.14-.07.14.05.08.08.2.09.35h.07l.05-.35v-.14h-.14ZM39.97,27.86h.07v.14h-.07v-.14ZM39.99,18.72v.07h.14v-.07h-.14ZM40.02,22.73l.02.56h.07c0-.33.02-.52.05-.56h-.14ZM40.04,20.97l.02.07h.21l-.02-.07h-.21ZM40.32,20.55v.07h.14v.07c0,.19-.13.52-.39.98.07,0,.16.05.28.14.23-.06.35-.13.35-.21l-.16-.21.19-.42s-.12-.02-.21-.07c0-.14.09-.21.28-.21v-.14h-.28l.05-.14v-.07c-.18.07-.26.14-.26.21ZM40.22,16.96v.07h.14v-.07h-.14ZM40.25,18.58l.02.07h.21l-.02-.07h-.21ZM40.43,17.46h.14l.02.28c-.09-.05-.16-.07-.21-.07.05-.09.06-.16.05-.21ZM40.41,23.71v.21h.07v-.21h-.07ZM40.45,18.02l.02.07h.14l-.02-.07h-.14ZM40.46,16.26h.21l.02.14h-.21l-.02-.14ZM40.71,21.96c.01.16-.05.28-.19.35.06.23.13.35.21.35.28-.11.42-.2.42-.28l-.14-.07-.14.07v-.07c-.01-.09.05-.14.19-.14v-.07c-.07,0-.16-.05-.28-.14h-.07ZM40.53,23.22v.07h.28v-.07h-.28ZM40.69,23.57v.14h.07v-.14h-.07ZM40.99,24.14c0,.14-.09.21-.28.21v.07c.19.01.29.11.3.28-.05,0-.07.02-.07.07h.28v-.07h-.14v-.07l.12-.21c-.05-.08-.07-.18-.07-.28h-.14ZM40.87,24.98s-.02.12-.05.21h.21l-.09-.14s.07-.02.07-.07h-.14ZM40.83,21.25v.14h.14v-.14h-.14ZM40.85,19.71v.07h.14v-.07h-.14ZM41.31,22.8c0,.23-.14.35-.42.35v.07h.21v.07l-.05.14.14.07c.08-.05.15-.07.21-.07l-.09-.14.21-.42c-.06,0-.13-.02-.21-.07ZM41.04,9.72c.01.09.09.14.23.14v.14l-.35-.07v-.07c.01-.09.05-.14.12-.14ZM40.94,22.73l.02.14h.07l-.02-.14h-.07ZM40.96,20.62v.07h.14v-.07h-.14ZM40.99,26.31v.21c.01.09.06.14.14.14h.07l-.14-.21.07-.14h-.14ZM41.01,26.95v.07h.14v-.07h-.14ZM41.59,20.83s-.02.12-.05.21c.05,0,.07.02.07.07-.38,0-.56.21-.54.63l.21.14h.28v-.07h-.14v-.14h.14c-.01-.09-.06-.14-.16-.14-.07.05-.16.07-.26.07-.01-.11.1-.18.33-.21,0,.05.02.07.07.07.18-.35.26-.56.26-.63h-.21ZM41.17,25.54l-.07.14c.06.09.09.16.09.21-.05,0-.07.02-.07.07.05,0,.07.02.07.07.19-.07.28-.14.28-.21l-.02-.21c-.11,0-.2-.02-.28-.07ZM41.17,18.58h.07l.02.14h-.07l-.02-.14ZM41.17,20.9l.02.21c.09,0,.13-.05.12-.14v-.07h-.14ZM41.22,27.44l.02.07h.14l-.02-.07h-.14ZM41.24,25.26c.07.19.14.28.21.28v-.28h-.21ZM41.24,27.72v.21h.14v-.07c0-.09-.05-.14-.14-.14ZM41.34,26.6v.07h.07c.28-.05.42-.12.42-.21v-.14c-.21.19-.38.28-.49.28ZM41.36,22.38h.14v-.14c-.09.01-.14.06-.14.14ZM41.36,24.84v.14h.14c0-.09-.05-.14-.14-.14ZM41.4,28.42v.07h.14v-.07h-.14ZM41.41,24.35c.05.09.08.16.09.21h.21c-.01-.07-.09-.14-.23-.21h-.07ZM41.48,23.99v.28h.21l-.07-.14v-.14l.05-.14h-.07c-.09.01-.13.06-.12.14ZM41.52,23.22v.07h.14v-.07h-.14ZM41.54,23.57v.14h.14c0-.09-.05-.14-.14-.14ZM41.55,29.06v.07h.07l.07-.28c-.09,0-.14.07-.14.21ZM41.68,28.35v.21h.07s.02-.12.07-.21h-.14ZM41.69,22.1l.16.21s-.07.02-.07.07l.14.07h.07l-.07-.14c.04-.09.05-.16.05-.21h-.28ZM41.71,24.91v.07h.14v-.07h-.14ZM41.71,26.95v.07h.14v-.07h-.14ZM41.82,21.53s0,.12-.05.21h.07c.08-.05.18-.07.28-.07-.01-.09-.06-.14-.16-.14h-.14ZM41.76,26.67v.14h.14v-.14h-.14ZM41.76,28.92v.14h.07v-.14h-.07ZM41.8,22.8v.07c.05.09.07.16.07.21h.07v-.28h-.14ZM41.8,27.58v.14c.09,0,.14.09.14.28h.07c.09,0,.14-.05.14-.14-.05-.09-.07-.16-.07-.21h.07l.14.07h.14v-.07l-.49-.07h-.14ZM41.85,29.76l.02.21h.07l-.02-.21h-.07ZM41.89,19v.14h.07v-.14h-.07ZM41.96,23.64l-.05.35h.14c-.01-.15,0-.27.05-.35h-.14ZM41.92,15.7h.07c.11.01.16.06.16.14l-.14.07-.07-.14-.02-.07ZM41.98,26.53c.01.09.06.14.14.14v-.14h-.14ZM41.99,17.95c.02.09.08.14.16.14.09,0,.13-.05.12-.14v-.14h-.14c-.09.01-.14.06-.14.14ZM42.01,20.83l.07.14c-.04.09-.05.16-.05.21h.14c0-.07.04-.16.12-.28,0-.09-.05-.14-.14-.14l-.14.07ZM42.03,21.32v.14h.14c0-.09-.05-.14-.14-.14ZM42.1,14.43l-.05.49v.07h.14c0-.14.02-.3.05-.49l-.14-.07ZM42.08,25.12h.14l-.02-.14c-.09.01-.13.06-.12.14ZM42.12,17.46l.02.21c.09,0,.14-.05.14-.14l-.02-.07h-.14ZM42.34,26.95c0,.09-.07.14-.21.14v.07c.14,0,.3.02.49.07v.07s-.02.07-.07.07l.09.14-.07.14h.07c.08-.05.15-.07.21-.07l-.09-.14.07-.14s-.07-.02-.07-.07c.09,0,.14-.05.14-.14-.18,0-.32-.05-.42-.14h-.14ZM42.15,13.52v.07h.14v-.07h-.14ZM42.17,25.89h.14v-.14c-.09.01-.14.06-.14.14ZM42.19,24.21v.07h.14v-.07h-.14ZM42.2,20.2l.14.07v-.21c-.09.01-.14.06-.14.14ZM42.27,22.38h.21v-.14h-.07c-.09.01-.14.06-.14.14ZM42.27,27.23v.07h.14v-.07h-.14ZM42.29,25.26v.21h.07v-.21h-.07ZM42.31,30.81v.14h.14v-.14h-.14ZM42.38,11.9l.07.14c-.09.01-.13.06-.12.14.18.19.34.28.49.28l.07-.14c-.23-.06-.36-.13-.37-.21h.07c-.05-.08-.07-.2-.07-.35-.09.01-.14.06-.14.14ZM43.08,26.17v.07h.14v-.07h-.14ZM43.14,11.41v.14h.07v-.14h-.07ZM43.17,19.42v.07h.14c.09-.05.16-.07.21-.07v-.07h-.07c-.08.05-.18.07-.28.07ZM43.29,26.24l-.12.21h.07c.08-.05.15-.07.21-.07-.01-.09-.06-.14-.16-.14ZM43.17,31.38v.07h.14v-.07h-.14ZM43.19,17.6h.28c-.01-.09-.06-.14-.16-.14-.08.01-.12.06-.12.14ZM43.28,27.72v.07h.14v-.07h-.14ZM43.43,25.89s-.02-.07-.07-.07l-.07.28.21.14h.07v-.07h-.14v-.07c.01-.09.06-.14.14-.14v.14c.14-.05.21-.19.19-.42v-.14s-.13.12-.33.35ZM43.29,28.64l.02.07h.14l-.02-.07h-.14ZM43.31,19.78h.07c.08-.05.18-.07.28-.07v-.28c-.2.11-.32.22-.35.35ZM43.33,20.06c.07,0,.16.05.28.14v-.14c-.09,0-.14-.05-.14-.14-.09.01-.14.06-.14.14ZM43.33,29.27v.07h.14v-.07h-.14ZM43.38,24.21v.07h.14v-.07h-.14ZM43.38,24.35v.07h.14v-.07h-.14ZM43.42,25.47v.14h.07v-.14h-.07ZM43.43,21.25v.07h.28v-.14c-.08.05-.18.07-.28.07ZM43.52,17.03c0,.11-.02.2-.07.28l.14.07c.09-.05.16-.07.21-.07-.09-.12-.14-.21-.14-.28h-.14ZM43.49,23.08v.07h.14v-.07h-.14ZM43.93,28.28h-.42v.07c.01.09.06.14.14.14.01-.09.06-.14.14-.14.01.09.06.14.14.14h.14s-.02-.07-.07-.07l.07-.14v-.07l-.14.07ZM43.52,24.49l.02.07h.14l-.02-.07h-.14ZM43.52,28.85v.14c.09,0,.14-.05.14-.14h-.14ZM43.66,29.06l.07.14c-.08.05-.15.07-.19.07v.07c.08,0,.2.07.35.21l.14-.21v-.07c-.01-.11-.13-.18-.37-.21ZM43.56,20.97l.02.14c.09,0,.13-.05.12-.14h-.14ZM43.57,28.56l.02.14h.07l-.02-.14h-.07ZM43.59,21.67h.07c.09,0,.13-.05.12-.14h-.07c-.09.01-.13.06-.12.14ZM43.59,31.52v.07h.14v-.07h-.14ZM43.61,29.69l.02.14h.21l-.09-.14h.14v-.07h-.07c-.08.05-.15.07-.21.07ZM43.68,27.09c.09.12.14.21.14.28h.07l.07-.28h-.28ZM43.72,19v.07h.07c.09,0,.14-.05.14-.14v-.07h-.07c-.09.01-.14.06-.14.14ZM43.73,28.92v.07h.14v-.07h-.14ZM43.73,31.24v.07l.28.07v-.14h-.28ZM43.79,23.78v.14h.07v-.14h-.07ZM43.82,22.66l.02.14h.14l-.02-.14h-.14ZM43.82,24.91v.07h.14v-.07h-.14ZM43.84,29.9v.07h.14v-.07h-.14ZM43.86,23.64v.07h.14v-.07h-.14ZM43.87,24.35h.14v-.14c-.09.01-.14.06-.14.14ZM44.59,17.81c.01.23-.03.35-.12.35l.07.14c0,.14-.12.21-.35.21l.09.14h-.07c-.09-.05-.17-.07-.23-.07l-.05.14c0,.15.19.25.56.28,0-.07.07-.14.21-.21h.07s.07.02.07.07c.28-.09.42-.19.4-.28v-.07h-.07l-.33.21h-.07v-.07l.19-.28c-.12-.09-.21-.14-.28-.14.01-.09.06-.14.14-.14,0,.05.09.14.28.28l.14-.07.21.14h.07c0-.21.02-.35.05-.42l-.14-.07.02.21h-.14l-.02-.35h-.7ZM43.94,28.71v.14h.14v-.14h-.14ZM44,21.53l.02.14c.09,0,.13-.05.12-.14h-.14ZM44.03,20.06v.07h.14v-.07h-.14ZM44.31,22.31l-.14-.07c-.09.01-.14.06-.14.14h.28c.09,0,.14-.05.14-.14l-.02-.14c-.09,0-.13.07-.12.21ZM44.42,26.24c.01.19-.03.28-.12.28,0-.05-.02-.07-.07-.07,0,.09-.05.14-.14.14l.23.35c-.09.01-.14.06-.14.14.05,0,.07.02.07.07.07-.05.19-.07.35-.07v-.07c-.08,0-.16-.07-.23-.21l.07-.14-.07-.14h.28c-.08-.19-.16-.28-.23-.28ZM44.12,25.12v.14c.08-.05.15-.07.21-.07v-.07h-.21ZM44.15,31.31v.07h.21v-.07h-.21ZM44.15,31.52v.07h.14v-.07h-.14ZM44.17,29.48c.01.09.06.14.14.14h.07c0-.09-.05-.14-.14-.14h-.07ZM44.23,14.92h.14v-.14c-.09.01-.14.06-.14.14ZM44.24,27.44l.02.07h.14l-.02-.07h-.14ZM44.26,27.72h.14v-.14c-.09.01-.14.06-.14.14ZM44.3,17.31c.05.09.08.16.09.21-.05,0-.07.02-.07.07h.07l.14-.07c0,.07.07.14.21.21h.14v-.07l-.07-.14.12-.28h-.28v.14h-.07c-.09,0-.14-.07-.14-.21-.09.01-.14.06-.14.14ZM44.31,27.3v.07h.14v-.07h-.14ZM44.33,20.69v.14h.07v-.14h-.07ZM44.33,29.9v.07c.21,0,.35.02.42.07v-.14h-.42ZM44.4,20.9c.06.08.09.18.09.28.06,0,.15-.12.26-.35h-.21l-.14.07ZM44.81,20.2c0,.09-.02.14-.07.14h-.21l.02.21h-.07v.07s.12.02.21.07h.21v.28c.08-.05.18-.07.28-.07,0-.07-.07-.14-.21-.21l.07-.14-.02-.28s-.12-.02-.21-.07ZM44.52,25.05l-.05.28.14.07-.02-.35h-.07ZM44.47,25.61l.02.14h.21l-.02-.14h-.21ZM44.49,28.42v.07h.14v-.07h-.14ZM44.56,16.4v.21h.21c.09,0,.14-.05.14-.14l-.02-.21h-.07c-.11.09-.19.14-.26.14ZM44.58,24.35c0,.07.1.16.3.28.01-.09.05-.14.12-.14.01.15.06.27.16.35-.09.15-.13.29-.12.42.11,0,.2.02.28.07,0-.13.06-.27.19-.42h-.07s-.02.07-.07.07l-.21-.28h.21l-.16-.21c.09-.05.16-.07.21-.07v-.07s-.12-.02-.21-.07l-.28.07-.14-.07c-.09.05-.16.07-.21.07ZM44.65,22.03l-.05.42.14.07c.07,0,.14-.07.21-.21-.08-.19-.16-.28-.23-.28h-.07ZM44.61,11.27v.14h.07v-.14h-.07ZM44.63,21.53l.02.21h.07c.11-.09.2-.14.28-.14l-.02-.07c-.09,0-.14-.02-.14-.07-.08.05-.15.07-.21.07ZM44.63,25.89v.14h.07v-.14h-.07ZM44.72,31.17l-.07.35h.14c0-.07.05-.16.14-.28v-.07h-.21ZM44.7,21.32v.07h.21v-.07h-.21ZM44.7,30.89h.14v-.14c-.09.01-.14.06-.14.14ZM44.93,26.46c0,.21-.06.42-.19.63l.07.14c-.05.09-.07.16-.07.21.23-.09.35-.23.35-.42.19.02.28.09.28.21l.35-.07v.07s-.02.07-.07.07c.04.19.11.28.23.28v.07c0,.09-.05.14-.14.14,0-.09-.05-.14-.14-.14,0,.05-.02.07-.07.07,0-.05-.02-.07-.07-.07l.07-.14-.02-.14h-.14l-.05.42h.35c.09.01.14.06.14.14.01.09-.03.14-.12.14-.09-.05-.17-.07-.23-.07l.02.21c.14,0,.21.05.21.14-.09.01-.14.06-.14.14h.42l-.07.14.02.14h.07c.08-.05.15-.07.21-.07l-.02-.14c0-.06-.14-.18-.42-.35.32-.23.47-.45.47-.63l-.14.07c-.01-.14-.09-.21-.23-.21v-.14h.21l-.07-.14c.09,0,.14-.05.14-.14h-.35v.07h.14v.14h-.07l-.49-.21v-.07l-.14.07h-.07c-.01-.14-.06-.21-.16-.21l.07-.14v-.21h-.14ZM45.44,22.31c-.02.33-.09.49-.19.49l-.02-.14.07-.14-.14-.07c-.22.25-.33.46-.33.63.09.01.14.06.14.14.23-.02.35-.09.35-.21h.14v.07c-.05.09-.07.16-.07.21h.07c.19-.09.33-.23.42-.42v-.07c-.11,0-.18-.09-.23-.28h-.14l.07-.14v-.07h-.14ZM44.84,23.57v.21h.35v-.07c-.12,0-.23-.05-.35-.14ZM44.86,19.49v.14h.07v-.14h-.07ZM45.02,17.88l.07.14.02.14c-.07,0-.15-.07-.23-.21l.14-.07ZM44.89,16.05v.07h.14v-.07h-.14ZM44.89,30.32l.02.14h.07l-.02-.14h-.07ZM44.91,14.29v.14h.21v-.07s-.12-.02-.21-.07ZM44.91,14.5l.02.14h.07l-.02-.14h-.07ZM44.96,29.83h.07c.09,0,.13-.05.12-.14h-.07c-.09.01-.13.06-.12.14ZM44.96,25.47v.07h.14v-.07h-.14ZM44.98,16.68c.02.09.07.14.14.14.09,0,.14-.05.14-.14v-.07h-.07c-.09.05-.16.07-.21.07ZM45,16.96c.01.09.06.14.14.14l.07-.14h-.21ZM45.02,15.49v.07h.07c.08-.05.18-.07.28-.07v-.07h-.14c-.09.05-.16.07-.21.07ZM45.02,19.99v.07h.14v-.07h-.14ZM45.65,20.2l.07.14c-.15.28-.29.42-.4.42l.07.14c-.15.33-.26.49-.33.49.11.19.16.33.16.42h.21c-.01-.19.08-.28.26-.28l-.21-.35c.14,0,.21-.05.21-.14l-.09-.14c.2,0,.34-.12.42-.35v-.07h-.14l.05-.49h-.07c-.07,0-.14.07-.21.21ZM45.05,21.04v.07h.14v-.07h-.14ZM45.05,28.35v.07c0,.07.07.14.21.21,0-.27.02-.43.07-.49h-.07c-.07,0-.14.07-.21.21ZM45.05,30.74h.14v-.14c-.09.01-.14.06-.14.14ZM45.07,28.85v.07h.14v-.07h-.14ZM45.12,16.33v.14c.09,0,.14-.05.14-.14h-.14ZM45.12,18.93c.01.09.06.14.14.14v-.14h-.14ZM45.23,29.69l-.05.35h.28s.02-.12.07-.21l-.23-.14h-.07ZM45.17,30.39c.06.09.09.16.09.21h.07l.21-.14h.07l.21.14h.14c0-.09.05-.14.14-.14l-.09-.14-.14.07h-.14v-.07s.02-.07.07-.07l-.07-.14.07-.14h-.07c-.22.28-.41.42-.56.42ZM45.32,25.47l-.12.28c.05.09.07.16.07.21.22-.13.33-.22.33-.28l-.28-.21ZM45.35,17.1c0,.09-.05.14-.14.14v.07c.02.09.07.14.14.14,0-.11.02-.2.07-.28v-.07h-.07ZM45.21,26.31c.01.09.06.14.14.14h.07c0-.09-.05-.14-.14-.14h-.07ZM45.21,26.6c.02.09.07.14.14.14h.07c0-.09-.05-.14-.14-.14h-.07ZM45.21,31.24v.07h.14v-.07h-.14ZM45.33,23.64v.07h.14v-.07h-.14ZM45.44,29.41s-.02.12-.07.21h.14s.02-.12.07-.21h-.14ZM45.39,15.91v.07h.07c.08-.05.18-.07.28-.07v-.07h-.14c-.09.05-.16.07-.21.07ZM45.63,28.92c0,.14-.07.21-.21.21.06.09.09.16.09.21h.14c-.01-.12.03-.23.12-.35l-.14-.07ZM45.46,13.38v.14h.21c0-.09-.05-.14-.14-.14h-.07ZM45.46,13.66v.07h.21v-.07h-.21ZM45.53,25.19c0,.11-.02.2-.07.28.09.05.16.07.21.07h.28v-.07h-.28v-.14l.07-.14h-.21ZM45.47,14.01v.07h.14v-.07h-.14ZM45.47,18.86v.07h.07c.09,0,.14-.05.14-.14v-.14c-.07,0-.14.07-.21.21ZM45.47,23.57c.09.01.14.06.14.14l.02.35c.18,0,.32.05.42.14l-.02-.28h-.28v-.07c.01-.09.06-.14.14-.14.02.09.07.14.14.14h.14v-.07l-.07-.14c.05-.09.07-.16.07-.21h-.14l-.14.07c-.05-.09-.08-.16-.09-.21h-.07c-.07,0-.16.09-.26.28ZM45.49,24.49l.02.07h.14l-.02-.07h-.14ZM45.49,31.1v.07h.14v-.07h-.14ZM45.7,19.28c0,.18-.05.32-.14.42.06.09.09.16.09.21h.14c-.01-.14.03-.3.12-.49l-.21-.14ZM45.56,22.03v.07c.09,0,.14-.05.14-.14v-.07c-.09.01-.14.06-.14.14ZM45.56,24.35v.07h.21v-.21h-.07c-.09.01-.14.06-.14.14ZM45.56,26.6c.23.04.36.15.37.35l.12-.07c0-.19-.09-.28-.28-.28l.05-.35v-.07h-.07c-.07,0-.13.14-.19.42ZM45.56,26.81v.07h.21v-.07h-.21ZM45.58,24.98l.02.14h.07l-.02-.14h-.07ZM45.6,20.69h.14v.14h-.14v-.14ZM45.7,31.17v.07h.14v-.07h-.14ZM45.79,10.92c.01.11,0,.2-.05.28.09.05.16.07.21.07.19-.07.28-.14.28-.21-.08,0-.18-.05-.3-.14h-.14ZM45.74,18.09v.14c.09,0,.14-.05.14-.14h-.14ZM45.75,21.32v.14h.07v-.14h-.07ZM45.75,25.82v.07h.14v-.07h-.14ZM45.77,24.49c.01.07.09.14.23.21h.14c0-.07-.08-.14-.23-.21h-.14ZM45.79,29.41h.14v-.14c-.09.01-.14.06-.14.14ZM45.84,28.99v.21h.07v-.21h-.07ZM45.86,10.78l.14.07v-.21c-.09.01-.14.06-.14.14ZM45.86,24.91v.07c.05.08.08.18.09.28.08-.05.18-.07.28-.07l-.02-.21c-.15,0-.27-.02-.35-.07ZM45.86,29.69v.07h.14v-.07h-.14ZM45.88,13.38c.01.09.06.14.14.14l.07-.14-.02-.07c-.08.05-.15.07-.19.07ZM45.91,9.86l.07.28c-.05.08-.06.18-.05.28h.21c-.06-.25-.09-.48-.11-.7-.09.01-.13.06-.12.14ZM45.91,19.64h.14v-.14c-.09.01-.14.06-.14.14ZM45.95,29.97v.07h.14v-.07h-.14ZM45.98,24.28v.14h.07v-.14h-.07ZM46.04,12.11l.02.14h.07l-.02-.14h-.07ZM46.07,13.03v.14h.07v-.14h-.07ZM46.07,31.73v.07h.14v-.07h-.14ZM46.21,24.7v.07h.14v-.07h-.14ZM46.33,24.28v.14h.07v-.14h-.07ZM46.35,27.02v.07h.14v-.07h-.14ZM46.86,20.9h.07l.02.14h-.07l-.02-.14ZM47.53,31.45h.14v.07h-.14v-.07Z"/>
      <path class="cls-4" d="M58.43,10.88c.02.5.06.8.11.9l-.07.12c-.01.26,0,.63.02,1.11,0,.05-.03.19-.09.44.16.71.21,1.94.14,3.67l.05.35s-.07.02-.07.07c-.01.09.03.15.12.16,0,.05-.02.07-.07.07l.07.14-.02.42c-.01.28,0,.63.02,1.04-.05.11-.07.18-.07.23l.12.42-.09.16c.01.86.02,1.37.02,1.55,0,.05-.05.07-.14.07l-.02.12c.14,0,.21.08.21.23l-.16.28.14.3-.09.16s.07.02.07.07v.09h-.21v.07c.22.26.32.81.28,1.67-.01.14-.06.29-.16.46,0,.07.04.11.12.12-.04.96-.02,1.82.05,2.57-.06.2-.09.37-.11.51l.07.3s-.07.02-.07.05c.08.18.12.33.11.47v.05c0,.09-.09.14-.28.14v.04h1.51v2.5h-7.51v-2.5h1.56v-.11l-.07-.12s.08-.03.09-.09l-.05-.44.07-.16c-.11,0-.14-1.46-.11-4.38l.09-.16h-.07c.02-.63,0-1.29-.07-1.97.05,0,.07-.02.07-.07-.04-.09-.05-.19-.05-.28.04-.89.02-1.82-.04-2.79l.09-.3c-.05-.08-.09-.64-.14-1.67l.07-.12c-.07-.55-.11-1.19-.12-1.92l.07-.14c0-1.2-.02-1.96-.05-2.29.05,0,.07-.03.07-.09l-.11-.7s.07-.03.07-.09c-.07,0-.11-.17-.12-.51l.02-.04c-.09-.02-.22-.06-.39-.12,0,.05-.03.12-.09.21l-.49-.07c-.11,0-.2.02-.28.07-.08-.05-.18-.07-.28-.07h-.05v2.58h-2.6v-6.01h2.6v.02h.32v-.02h7.51v.02h.32v-.02h2.6v6.01h-2.6v-2.58h-.05c-.11,0-.2.02-.28.07-.08-.05-.18-.07-.28-.07l-.49.07c-.06-.09-.09-.16-.09-.21-.28.09-.46.14-.54.14l-.09-.14s.07-.02.07-.07h-.09ZM52.59,9.98l-.07.14v.07c.09-.05.16-.07.21-.07,0-.09-.05-.14-.14-.14ZM52.59,8.58h.07c.09.01.14.06.14.14v.07h-.07c-.09,0-.14-.05-.14-.14v-.07ZM52.87,9.98v.07l.35.07v-.07c0-.07-.07-.14-.21-.21-.09.01-.14.06-.14.14ZM53.54,16.47v-.25h-.07v.25h.07ZM54.63,16.38h.21v.07c0,.09-.05.14-.14.14l-.07-.14v-.07ZM54.65,19.42v.25h.23v-.25h-.23ZM54.65,23.1v.47h.07c.13-.32.23-.47.32-.47v-.12h-.09c-.08.08-.18.12-.3.12ZM54.72,22.15c.3.55.49.83.54.83l.07-.23c-.14-.4-.35-.6-.62-.6ZM54.81,19.78v.12h.14v-.12h-.14ZM54.84,9.07c.01.09.06.14.14.14l.07-.14h-.21ZM54.88,18.72v.23h.16v-.23h-.16ZM54.95,18.25v.12h.16v-.37c-.11.02-.16.11-.16.25ZM55.07,16.82v-.47h-.09v.47h.09ZM55.04,23.22v.11c.01.16.06.25.14.25h.09v-.12c0-.15-.05-.23-.16-.23h-.07ZM55.05,8.72c.01.09.06.14.14.14v-.14h-.14ZM55.11,20.15v.11h.16v-.11h-.16ZM55.26,18.95v.12h.14v-.12h-.14ZM55.33,21.8c0,.08-.02.12-.07.12.05.13.07.29.07.47.09-.08.19-.12.3-.12,0-.12-.1-.28-.3-.47ZM55.33,16.95c.01.15.06.23.16.23h.07c.11,0,.16-.08.16-.23h-.39ZM55.4,20.97v.23h.09v-.23h-.09ZM55.49,20.73v.12h.14v-.12h-.14ZM55.56,16.47v.12h.16v-.12h-.16ZM55.56,19.07v.12h.16v-.12h-.16ZM55.72,20.15v.23h.07v-.23h-.07ZM55.72,23.22v.11h.14v-.11h-.14ZM55.95,17.17h.14v-.23c-.09.01-.14.09-.14.23ZM55.95,18.12h.14v-.23c-.09.01-.14.09-.14.23ZM55.95,19.07v.12h.14v-.12h-.14ZM56.11,27.98l.14.07v-.21c-.09.01-.14.06-.14.14ZM56.18,16.95v.11h.14v-.11h-.14ZM56.18,18.25v.12c.01.15.06.23.14.23v-.12c0-.15-.05-.23-.14-.23ZM56.25,16.12c.01.15.06.23.16.23h.07v-.47h-.07c-.11.02-.16.11-.16.25ZM56.25,30.23v.21h.21v-.14s-.12-.02-.21-.07ZM56.32,21.55v.25h.09v-.25h-.09ZM56.32,29.04v.14h.07v-.14h-.07ZM56.39,9.49v.07h.14v-.07h-.14ZM56.39,18.21v.14h.14c0-.09-.05-.14-.14-.14ZM56.39,30.87v.14h.07v-.14h-.07ZM56.41,23.1c.05.15.07.27.07.35h.14v-.23l.46.23c0-.18.03-.33.09-.47l-.16-.11h-.16v.23h-.14v-.12l.07-.23h-.16c-.07,0-.14.12-.21.35ZM56.53,25.95l-.07.28c.09,0,.14-.07.14-.21v-.07h-.07ZM56.48,18.12v.25h.53c-.05-.16-.07-.29-.07-.37l-.46.12ZM56.53,8.86v.07h.14v-.07h-.14ZM56.55,21.8v.23c.11,0,.16-.08.16-.23h-.16ZM56.6,24.75v.21c.14,0,.21.07.21.21h.07v-.35l-.14.07c0-.09-.05-.14-.14-.14ZM56.67,9.63v.14h.07v-.14h-.07ZM56.74,16.95v.07h.21c.09,0,.14-.05.14-.14v-.14h-.07c-.19.07-.28.14-.28.21ZM56.81,30.8l-.07.28c.05.09.07.16.07.21h.14l.07-.28c-.09,0-.14-.07-.14-.21h-.07ZM56.78,16v.12h.16v-.12h-.16ZM56.78,23.8v.25h.16v-.25h-.16ZM56.81,26.02v.14h.07v-.14h-.07ZM56.85,21.67c.02.16.08.25.16.25h.16c0-.16-.05-.25-.16-.25h-.16ZM56.93,16.95v.35h.23c0-.08.02-.2.07-.35-.05,0-.07-.04-.07-.12-.11.08-.18.12-.23.12ZM56.95,26.16v.14h.14c0-.09-.05-.14-.14-.14ZM56.95,27.42v.07h.14v-.07h-.14ZM57.02,24.96v.14h.14v-.28c-.09.01-.14.06-.14.14ZM57.16,11.53l-.07.28h.07c.07,0,.14-.07.21-.21l-.14-.07h-.07ZM57.09,22.36v.84h.14c-.05-.25-.07-.53-.07-.84h-.07ZM57.16,19.42v.12h.23v-.12h-.23ZM57.23,13.71v.14c.09,0,.14-.05.14-.14h-.14ZM57.3,20.37l-.07.25c.01.15.06.23.16.23,0-.08.02-.2.07-.35l-.16-.12ZM57.23,23.92c0,.18.15.33.46.47v.12c.11,0,.16-.08.16-.25v-.11c-.08,0-.29-.08-.62-.25ZM57.3,10.34v.14h.07v-.14h-.07ZM57.3,17.77v.23h.16v-.23h-.16ZM57.3,19.78c.01.16.06.25.16.25.11,0,.16-.08.16-.25h-.32ZM57.3,24.89v.14h.07v-.14h-.07ZM57.44,13.01v.21h.07v-.21h-.07ZM57.44,26.09v.14c.01.09.06.14.14.14v-.14c0-.09-.05-.14-.14-.14ZM57.44,26.86v.14c.09,0,.14-.05.14-.14v-.14c-.09.01-.14.06-.14.14ZM57.46,23.33v.12l.3.12c-.05-.14-.07-.3-.07-.47h-.07c-.11.02-.16.1-.16.23ZM57.51,25.03v.07c.01.09.06.14.14.14v-.07c0-.09-.05-.14-.14-.14ZM57.51,25.73v.14h.07v-.14h-.07ZM57.69,21.67v.12h.16v-.12h-.16ZM57.76,18.48v.12h.16v-.12h-.16ZM57.76,21.08v.37h.09v-.37h-.09ZM57.76,23.8v.25h.09v-.25h-.09ZM57.8,9.35v.14c.09,0,.14-.05.14-.14h-.14ZM57.8,11.46v.14h.07v-.14h-.07ZM57.8,18.7v.07h.14v-.07h-.14ZM57.87,17.3v.14h.07v-.14h-.07ZM57.94,18.07v.07h.14v-.07h-.14ZM58.01,12.38v.07h.14v-.07h-.14ZM58.57,19.76v.07c.09,0,.14-.05.14-.14v-.07c-.09.01-.14.06-.14.14ZM59.13,18.63v.14h.07v-.14h-.07ZM59.41,11.53v.14h.07v-.14h-.07ZM59.83,10.69v.14c0,.07.07.14.21.21,0-.15.02-.27.07-.35h-.28ZM60.19,9.21v.07c.01.09.06.14.14.14v-.07c0-.09-.05-.14-.14-.14ZM60.75,10.69l.07.42.42-.07c-.09-.23-.26-.35-.49-.35ZM60.96,9.84h.14v-.14c-.09.01-.14.06-.14.14ZM61.38,10.48v.07h.14v-.07h-.14ZM61.8,9.14l.14.07h.07c.09,0,.14-.05.14-.14v-.07h-.21c-.09.01-.14.06-.14.14ZM61.87,10.34v.07h.07c.09,0,.14-.05.14-.14v-.07h-.07c-.09.01-.14.06-.14.14ZM61.94,9.84v.07c.01.09.06.14.14.14h.07v-.21h-.21ZM62.79,9.7s-.02.12-.07.21l.14.07c.09,0,.14-.05.14-.14s-.05-.14-.14-.14h-.07ZM62.72,10.48c.09.01.14.06.14.14.09-.05.16-.07.21-.07v-.28h-.14c-.07,0-.14.07-.21.21Z"/>
      <path class="cls-4" d="M67.13,25.49c-.26,1.78-.43,3.01-.51,3.69h.07l-.02.11h.86v2.57h-6.03v-2.57h1.05c.08-.91.17-1.37.26-1.37l-.07-.16v-.28s.02-.07.07-.07c.47-3.8.8-6.12.98-6.96l-.07-.14c.09-.56.16-.91.21-1.05-.05,0-.07-.02-.07-.07,0-.14.05-.29.14-.44h-.07l.21-1.27h-.07l.28-1.78c.27-2.41.49-4.27.65-5.57h-1.12v-2.55h9.53v2.55h-1.21l.04.53-.07.14c.19,1.35.28,2.34.28,2.99v.07l.07.35-.14.07c.16,0,.3,1.35.42,4.04l-.07.14h.14v.14l-.07.14s.07.02.07.07v.07c0,.11-.05.16-.14.16v.28s.07-.02.07-.07c.08,0,.13.05.14.14v.14l-.07.14s.07.02.07.07l-.07.14s.09.16.14.49l-.07.14.14,1.07-.07.28c.09.2.14.34.14.42l-.07.14.35,2.14-.07.14c.08,0,.13.05.14.14l-.07.14h.07c0,.91.09,1.76.28,2.55l-.07.14s.12.47.21,1.42c-.05,0-.07.02-.07.07.02,0,.06.04.11.11h1.18v2.57h-6.03v-2.57h.95c-.05-.3-.09-.69-.14-1.16,0-.08-.09-.83-.28-2.23-.02-.14-.04-.28-.05-.4h-2.46ZM61.7,32.24h-.14v-.14h.14v.14ZM63.95,27.72v.42h.14v-.42h-.14ZM64.09,30.6v.14h.26v-.14h-.26ZM64.21,28.95v.28h.14v-.28h-.14ZM64.35,25.38v.26h.14v-.26h-.14ZM64.76,26.63v.12h.28v-.12h-.28ZM64.86,23.64h-.07v.14c.14.12.21.23.21.35h.14v-.35c-.07,0-.16-.05-.28-.14ZM65.04,28.95c0,.19-.05.28-.14.28,0,.47.13.7.4.7,0-.16.09-.26.28-.28l-.14-.7h-.4ZM65.85,23.85h-.21l-.14.07-.07-.14c-.07,0-.14.09-.21.28h.21l.14-.07s.14.15.42.37h.14v-.09c-.09-.09-.14-.28-.14-.56-.09,0-.14.05-.14.14ZM65.35,23.57c0,.09.05.14.14.14v-.21l-.14.07ZM65.57,21.31l-.07.49v.35h.21v-.84h-.14ZM65.49,22.87v.07c0,.09.05.14.14.14h.07c-.07-.14-.14-.21-.21-.21ZM65.57,17.61h.14l.14-.07-.07-.14c-.14.07-.21.14-.21.21ZM65.85,15.56h-.07c0,.09-.05.14-.14.14v.21h.28c.08,0,.13-.05.14-.14-.07-.14-.14-.21-.21-.21ZM65.85,24.5v.07h.14v-.07h-.14ZM65.99,21.66v.14h.14v-.14h-.14ZM66.06,23.08h-.07v.42c.08,0,.2.05.35.14h.14c-.22-.38-.36-.56-.42-.56ZM66.13,23.92c0,.09.05.14.14.14h.07v-.07l-.07-.14-.14.07ZM66.2,26.14v.14h.07v-.14h-.07ZM66.41,12.64v.14c.08,0,.13-.05.14-.14h-.14ZM66.41,23.78v.14h.14c0-.08-.05-.13-.14-.14ZM66.62,10.44l-.14.07c0,.09.05.14.14.14h.21c-.05-.09-.07-.16-.07-.21h-.14ZM66.48,18.81c0,.09.05.14.14.14v-.14h-.14ZM66.55,12.5c0,.09.05.14.14.14v-.14h-.14ZM66.76,11.92v.16h.07v-.16h-.07ZM66.83,16.19h-.07c.05.09.07.16.07.21h.28v-.14c-.11,0-.2-.02-.28-.07ZM67.11,17.4v.07h.14v-.07h-.14ZM67.18,9.86v.14h.14c.08,0,.13-.05.14-.14h-.28ZM69.34,22.94c-.05-.32-.09-.89-.12-1.72.05,0,.07-.04.07-.12-.08,0-.18-.87-.28-2.6v-.84c0-.15-.05-.23-.14-.25l.07-.88-.14-.37.07-.25c-.19-1.49-.3-2.89-.35-4.22.05,0,.07-.04.07-.11-.05,0-.09-.29-.14-.86.09-.08.16-.12.21-.12-.12-.34-.21-.51-.28-.51,0,.23-.07.49-.21.76v.12s.12.04.21.12c-.08.18-.15.5-.21.98l.07.25c-.05.69-.07,1.27-.07,1.74v.25l-.14.35v.74c-.09,1.57-.19,2.56-.28,2.97h.07c-.15,1.84-.27,2.91-.35,3.22h.07c-.06.73-.11,1.18-.14,1.35h1.95ZM68.87,15.47v.16h.07v-.16h-.07ZM69.15,11v.21h.14v-.21h-.14ZM69.36,9.72v.07h.14v-.07h-.14ZM69.43,10.23h-.07v.07s.12.02.21.07h.07v-.07s-.12-.02-.21-.07ZM69.64,15.84v.07h.14v-.07h-.14ZM69.92,11.71v.14h.07v-.14h-.07ZM69.99,12.36h.14v-.14c-.09,0-.14.05-.14.14ZM70.56,21.45v.14h.14v-.14h-.14ZM70.84,17.24v.09h.21v-.09h-.21ZM70.98,21.09v.21c0,.09.05.14.14.14h.07c-.05-.08-.07-.2-.07-.35h-.14ZM71.05,21.52l-.07.35v.07h.14v-.42h-.07ZM71.47,8.88v.14h.14v-.14h-.14ZM71.61,10.07v.16h.07v-.16h-.07ZM71.61,10.37v.07h.14v-.07h-.14ZM71.82,10.79v.35l.28-.07v-.07c-.07,0-.16-.07-.28-.21ZM71.82,12.01v.14h.14c0-.08-.05-.13-.14-.14ZM71.82,29.83v.14h.14c0-.08-.05-.13-.14-.14ZM71.89,12.64v.21h.07c.08,0,.13-.05.14-.14-.05,0-.12-.02-.21-.07ZM71.96,29.76l.07.14.14-.07-.07-.14-.14.07ZM72.03,13.41v.37h.14c0-.06.02-.13.07-.23-.09,0-.14-.05-.14-.14h-.07ZM72.1,14.13v.07h.14v-.07h-.14ZM72.1,14.91v.14h.14v-.14h-.14ZM72.32,15.26v.07h.14v-.07h-.14ZM72.32,15.63v.07h.14v-.07h-.14ZM72.32,15.84v.07h.14v-.07h-.14ZM72.39,16.47v.14c.07.14.14.21.21.21v-.28s-.12-.02-.21-.07ZM72.46,16.19v.14h.07v-.14h-.07ZM72.46,16.96v.14h.14v-.14h-.14ZM72.46,29.62v.14h.07v-.14h-.07ZM72.46,30.46v.14c.08,0,.13-.05.14-.14h-.14ZM72.53,17.75v.42l.14-.07-.07-.35h-.07ZM72.53,28.97v.07h.14v-.07h-.14Z"/>
      <path class="cls-4" d="M87.7,14.73c-.05.11-.09.16-.14.18h-.56c-.15,0-.27-.02-.35-.07l-.42.07h-.42c-.12-.08-.21-.12-.28-.12-.25,0-.71.02-1.41.05-.23-.16-.35-.4-.35-.72l-.02-.3c0-.15.03-.23.09-.23l-.09-.35.02-.97c0-.11.02-.2.07-.28-.05-.08-.07-.18-.07-.3l-.02-.74c0-.16-.14-.4-.42-.72.01-.11.06-.16.14-.16l.07.3h.07c.17-.2.34-.3.51-.3,0,.06.02.09.07.09v-.09s-.02-.07-.07-.07l.07-.14c0-.11-.05-.16-.14-.16h-.35l-.02-.21c0-.08.08-.15.23-.21h.21c.09,0,.14.04.14.12h-.14v.16h.21c0-.11.02-.16.07-.16-.09-.14-.14-.26-.14-.35h-.14c-.34,0-.51.08-.51.23h-.35v-.07l.07-.16s-.12-.02-.21-.07v.42h-.14c0,.07.12.17.35.3,0-.2.05-.3.14-.3l.07.16v.07c0,.09-.05.14-.14.14h-.35c-.09,0-.14-.09-.14-.28h-.14l.07.51-.14.07h-.07s.02-.07.07-.07c-.05-.09-.07-.17-.07-.23h-.21v.23l.07.16c-.63,0-.98.49-1.05,1.46v1.02c0,.06-.02.09-.07.09l.07.14v1.39c0,.06-.02.09-.07.09.05.05.09.41.14,1.09h-.07l.07.14v.09c0,.21-.02.47-.07.79,0,.05.02.07.07.07l-.07.53v3.74c0,1.04-.05,2.31-.14,3.8l.07.16-.07.44v1.02c0,.21-.02.49-.07.83.05.08.07.18.07.3-.05.46-.09.72-.14.79.07,0,.16.25.28.74l.56.44.21-.16c.14,0,.21.1.21.3h.28l-.14-.21v-.09c.15,0,.36-.16.63-.49-.05-.11-.07-.18-.07-.23.09-.16.14-.31.14-.44v-.6c0-1.71.12-2.57.35-2.57h.21l-.05.16-.02.14h.16c0-.25.12-.37.35-.37.09.01.14.06.14.14l-.07.16c.07,0,.16.05.28.14.07,0,.14-.07.21-.21h-.14v-.16c.11,0,.2.02.28.07l.14-.07c.25.05.39.07.42.07l.71-.07v.07l.14-.07c.11,0,.2.02.28.07l.14-.07.14.07c.09-.05.17-.07.21-.07.28.11.42.3.42.6l-.02.44-.05.44s.02.07.07.07l-.07.37v1.18c0,1.49-.63,2.67-1.9,3.53-.89.53-1.85.79-2.89.79h-.92c-1.5,0-2.82-.71-3.94-2.13-.14-.22-.28-.67-.42-1.34l.07-.12c-.14-.35-.28-1.53-.42-3.53,0-.05.02-.07.07-.07l-.07-.74v-.51c0-.34.02-.63.07-.88l-.07-.51c.05-.86.07-1.39.07-1.62,0-.07-.02-.32-.07-.74,0-.09.02-.14.07-.14l-.07-1.02c0-.96.02-3.12.07-6.47.07-.79.23-1.18.49-1.18h.14l-.14-.23.14-.35c-.05-.08-.07-.18-.07-.3.16-.29.28-.44.35-.44.09.05.16.07.21.07l-.07-.14v-.16h.14l-.07-.14c.04-.19.08-.28.14-.28l.14.05h.07v-.05h-.14l.35-.44v-.09l-.14.09h-.07v-.16h.14c.35,0,.8-.32,1.34-.95.72-.25,1.23-.37,1.55-.37h.84c.43,0,.86.1,1.27.3l-.14.23.14.05c.29-.11.64,0,1.04.3v-.7h2.96v3.41s.02.05.02.07l-.02.09v.04l-.02.12c.07.02.11.06.11.12l-.02.16c0,.15-.02.23-.05.23l.05.35.02.6c0,.16-.02.39-.07.67l.14.42c-.05.32-.1.57-.16.76v.16h-.05ZM77.41,18.72v.07h.14v-.07h-.14ZM77.55,14.92v.16h.07v-.16h-.07ZM77.55,18.26v.37h.14l-.07-.37h-.07ZM77.62,15.82v.07c.07,0,.16.05.28.14h.14c0-.08-.12-.15-.35-.21h-.07ZM77.62,17.09c.05.09.07.16.07.21h.14v-.07c0-.09-.05-.14-.14-.14h-.07ZM77.83,14.26v.07h.14v-.07h-.14ZM77.83,17.9v.07h.14v-.07h-.14ZM77.83,19.09v.37l.35-.07v-.09c-.08,0-.2-.07-.35-.21ZM77.9,15.15v.07c.11,0,.2.02.28.07v-.21h-.07c-.09.05-.16.07-.21.07ZM77.98,17.39v.07h.14v-.07h-.14ZM77.98,20.43v.14h.14v-.14h-.14ZM78.05,16.93v.07h.14v-.07h-.14ZM78.05,17.23v.07h.14v-.07h-.14ZM78.12,10.25h.14l-.07.14v.07h.28v-.28h-.07l-.14.07v-.16c-.09.01-.14.06-.14.16ZM78.4,10.62c0,.09-.09.24-.28.44v.3s.12.02.21.07c.09-.05.16-.07.21-.07l-.07-.14-.14.07h-.07v-.07c0-.12.16-.24.49-.37-.05-.11-.07-.18-.07-.23h-.28ZM78.12,16.12v.21h.21v-.14s-.12-.02-.21-.07ZM78.19,12.92v.14c.09,0,.14-.05.14-.14h-.14ZM78.19,13.66v.07h.14v-.07h-.14ZM78.19,17.82c.01.09.06.14.14.14v-.14h-.14ZM78.33,9.79v.09h.14v-.09h-.14ZM78.33,9.95v.07h.14v-.07h-.14ZM78.33,14.12h.07l.35-.09v-.07h-.28c-.09.01-.14.06-.14.16ZM78.4,13.22c0,.06.12.16.35.3h.07v-.16h.14v.16h.28c0-.11.05-.16.14-.16v-.07h-.14s-.02.07-.07.07l-.21-.3s-.07.03-.07.09l-.35-.09c-.09.01-.14.06-.14.16ZM78.54,12.48v.07h.14v-.07h-.14ZM78.68,10.25l.07.14h-.14v.07h.14s.02-.07.07-.07v.16h.07c0-.11.12-.23.35-.37h-.07l-.49.07ZM78.68,15.29l-.07.16v.07c.09-.05.16-.07.21-.07,0-.11-.05-.16-.14-.16ZM78.68,11.06v.16h.07c.09,0,.14-.05.14-.16h-.21ZM78.75,14.12s-.02.12-.07.21v.07h.07c0-.09.05-.14.14-.14,0-.09-.05-.14-.14-.14ZM78.75,16.79v.07h.14v-.07h-.14ZM78.82,11.73v.16h.14c.07,0,.14-.08.21-.23h-.14c-.09.05-.16.07-.21.07ZM78.82,16.12v.37c.08,0,.15-.12.21-.37h-.21ZM78.96,11.13v.09h.14v-.09h-.14ZM78.96,19.9h.28c0-.09-.05-.14-.14-.14-.09.01-.14.06-.14.14ZM79.03,12.69v.07h.14v-.07h-.14ZM79.1,9.95v.07h.14v-.07h-.14ZM79.1,12.48v.07h.14v-.07h-.14ZM79.17,16.03v.09h.14v-.09h-.14ZM79.24,8.98v.14h.07v-.14h-.07ZM79.31,12.55l-.07.3v.21h.07l.07-.44v-.07h-.07ZM79.31,9.65c.01.09.06.14.14.14v-.14h-.14ZM79.31,13.52v.07h.14v-.07h-.14ZM79.38,12.18v.07h.14v-.07h-.14ZM79.38,26.74c0,.13.09.35.28.67v.07h.21c.07,0,.14-.07.21-.21v-.16l-.21.16c-.12,0-.21-.2-.28-.6h-.07l-.14.07ZM79.45,15.82v.14h.21v-.14h-.21ZM79.45,16.19v.14l.14-.07c.09.05.16.07.21.07.09-.05.16-.07.21-.07v-.07h-.56ZM79.52,12.62h.14c.09,0,.14-.05.14-.14h-.14c-.09.01-.14.06-.14.14ZM79.59,11.43v.09h.14v-.09h-.14ZM79.59,19.39h.14v-.16c-.09.01-.14.06-.14.16ZM79.73,10.92v.44c.22-.12.41-.34.56-.67h-.07c-.18.15-.34.23-.49.23ZM79.73,11.58v.07h.28v-.07h-.28ZM79.8,12.92v.23l.14-.09h.14v.16h.14c-.09-.13-.14-.23-.14-.3h-.28ZM79.87,24.96c.05.08.07.21.07.37h.14c0-.11.02-.16.07-.16-.05-.09-.07-.16-.07-.21h-.21ZM79.87,25.4v.07l.14.23-.07.14h.07c.09,0,.14-.05.14-.14v-.07c0-.08-.07-.16-.21-.23h-.07ZM79.94,11.29v.14h.14c0-.09-.05-.14-.14-.14ZM80.3,11.43c0,.09-.07.22-.21.39h.14v-.16h.14l.14.07v-.14c0-.11-.05-.16-.14-.16h-.07ZM80.08,12.18v.07h.14v-.07h-.14ZM80.15,10.39v.16h.14v-.16h-.14ZM80.15,12.76v.09h.21c.09,0,.14-.05.14-.16h-.14c-.09.05-.16.07-.21.07ZM80.15,14.7v.09h.14v-.09h-.14ZM80.23,8.98l.21.14h.07v-.3h-.14c-.09.02-.14.08-.14.16ZM80.3,9.21v.14h.07v-.14h-.07ZM80.3,12.25v.07h.21v-.07h-.21ZM80.37,9.65c.01.09.06.14.14.14l.07-.14h-.21ZM80.37,10.02h.07c.09,0,.14-.05.14-.14h-.07c-.09.01-.14.06-.14.14ZM80.37,10.25v.07h.07c.09,0,.14-.05.14-.14v-.09h-.07c-.09.01-.14.06-.14.16ZM80.44,18.63v.09h.07c.09-.06.16-.09.21-.09v-.07h-.07c-.09.05-.16.07-.21.07ZM80.72,8.98h.21v-.23c-.07,0-.14.08-.21.23ZM81,8.54l.14.07h.07c.09,0,.14-.05.14-.16v-.07h-.21c-.09.01-.14.06-.14.16ZM81.07,8.16v.09h.14v-.09h-.14ZM81.07,9.42v.07h.14v-.07h-.14ZM81.28,8.68v.14h.14c0-.09-.05-.14-.14-.14ZM81.56,8.16h.21c.07,0,.14-.07.21-.21h-.14c-.19.07-.28.14-.28.21ZM81.7,8.75c.01.11.06.16.14.16h.07c0-.11-.05-.16-.14-.16h-.07ZM82.33,8.16c0,.11-.09.16-.28.16v.07h.14v.23l-.07.14c.09.01.14.06.14.16-.05,0-.07.02-.07.07.21.2.33.3.35.3,0-.2.05-.38.14-.53-.09,0-.14-.05-.14-.14.11-.11.25-.16.42-.16-.05-.09-.07-.16-.07-.21h-.14c0,.14-.05.21-.14.21h-.07c0-.2-.07-.3-.21-.3ZM82.4,7.72v.07h.14v-.07h-.14ZM82.9,7.95v.07c.09,0,.14-.05.14-.16v-.07c-.09.01-.14.06-.14.16ZM82.9,8.61v.07h.14v-.07h-.14ZM83.11,7.95s-.02.12-.07.21c.13.15.27.23.42.23.01.11.06.16.14.16l.07-.16c-.14-.05-.21-.19-.21-.44h-.35ZM83.18,28.9v.07h.14v-.07h-.14ZM83.53,27.63v.74l-.14.23c.07,0,.17.05.3.14v-1.11h-.16ZM83.53,25.56v.07c.05.09.07.16.07.21h.09v-.28h-.16ZM83.6,25.93v1.11h.09c0-.32.07-.54.21-.67-.14-.2-.21-.35-.21-.44h-.09ZM83.6,27.33v.07h.07l.07-.3c-.09,0-.14.08-.14.23ZM83.69,7.79l-.02.16h.09l-.02-.16h-.05ZM83.83,7.95l-.07.14-.02.23h.09c.09-.05.16-.07.21-.07-.07-.2-.14-.3-.21-.3ZM84.17,10.76l-.07.16c.09,0,.14.07.14.21h.14c0-.14.09-.21.28-.21v-.07s-.12-.03-.21-.09c-.09.06-.16.09-.21.09,0-.06-.02-.09-.07-.09ZM84.23,9.72v.16h.14v-.16h-.14ZM84.38,26.6l.14.07h.07v-.23h-.07c-.09.01-.14.06-.14.16ZM84.45,9.49v.09h.21v-.09h-.21ZM84.65,8.39c0,.15-.05.23-.14.23v.21h.21s.02-.18.07-.44h-.14ZM84.65,25.77v.16c.09,0,.14-.05.14-.16h-.14ZM85.08,9.72v.07h.14v-.07h-.14ZM85.15,10.09v.23c.01.09.06.14.14.14h.07l-.07-.37h-.14ZM85.29,9.65c.01.09.06.14.14.14v-.14h-.14ZM85.51,8.61v.37c.09,0,.14.05.14.14h.14l-.21-.44s.07-.02.07-.07h-.14ZM85.64,12.32v.3c.01.09.06.14.14.14v-.44h-.14ZM85.78,10.92v.07c.01.09.06.14.14.14.09-.05.16-.07.21-.07v-.14h-.35ZM85.85,28.53v.14c.09,0,.14-.05.14-.14h-.14ZM85.86,13.89v.14h.07v-.14h-.07ZM85.92,12.99v.16c.01.09.06.14.14.14v-.3h-.14ZM86.14,12.92v.14h.07v-.14h-.07ZM86.14,29.94v.14h.07v-.14h-.07ZM86.28,13.36v.09h.14v-.09h-.14ZM86.29,12.39s.12.03.21.09h.14v-.09c-.14,0-.21-.05-.21-.14-.09.01-.14.06-.14.14ZM86.85,13.82l-.21-.16-.28.23c.05.09.07.17.07.23h.07c.09,0,.14-.05.14-.16-.05,0-.07-.02-.07-.07h.07l.35.23c0-.08.07-.16.21-.23l.14.07.07-.14c-.09,0-.14-.12-.14-.37-.28.06-.42.18-.42.37ZM86.42,10.85v.07h.21v-.07h-.21ZM86.48,27.77v.16h.14v-.16h-.14ZM86.57,29.5v.07h.14v-.07h-.14ZM86.64,13.06c.05.11.07.18.07.23h.14v-.23h-.21ZM86.64,29.2v.21c.09,0,.14-.05.14-.14l-.14-.07ZM86.71,13.45v.07h.21v-.07h-.21ZM86.71,14.12v.07h.14v-.07h-.14ZM86.78,12.62c.05.09.07.17.07.23h.07c.11,0,.18-.12.21-.37h-.07c-.12.09-.21.14-.28.14ZM86.9,11.65v.23h.14v-.23h-.14ZM86.99,11.06l.21.37s-.07.03-.07.09l.28.14.07-.14c-.13-.05-.25-.18-.35-.39.09,0,.14-.05.14-.14-.05,0-.07-.02-.07-.07-.14.05-.21.09-.21.14ZM87.06,13.66h.07v.16h-.07v-.16ZM87.34,12.09c0,.2-.05.3-.14.3.05.11.07.18.07.23h.21v-.14l-.07-.39h-.07Z"/>
      <path class="cls-4" d="M100.26,10.88c.02.5.06.8.11.9l-.07.12c-.01.26,0,.63.02,1.11,0,.05-.03.19-.09.44.16.71.21,1.94.14,3.67l.05.35s-.07.02-.07.07c-.01.09.03.15.12.16,0,.05-.02.07-.07.07l.07.14-.02.42c-.01.28,0,.63.02,1.04-.05.11-.07.18-.07.23l.12.42-.09.16c.01.86.02,1.37.02,1.55,0,.05-.05.07-.14.07l-.02.12c.14,0,.21.08.21.23l-.16.28.14.3-.09.16s.07.02.07.07v.09h-.21v.07c.22.26.32.81.28,1.67-.01.14-.06.29-.16.46,0,.07.04.11.12.12-.04.96-.02,1.82.05,2.57-.06.2-.09.37-.11.51l.07.3s-.07.02-.07.05c.08.18.12.33.11.47v.05c0,.09-.09.14-.28.14v.04h1.51v2.5h-7.51v-2.5h1.56v-.11l-.07-.12s.08-.03.09-.09l-.05-.44.07-.16c-.11,0-.14-1.46-.11-4.38l.09-.16h-.07c.02-.63,0-1.29-.07-1.97.05,0,.07-.02.07-.07-.04-.09-.05-.19-.05-.28.04-.89.02-1.82-.04-2.79l.09-.3c-.05-.08-.09-.64-.14-1.67l.07-.12c-.07-.55-.11-1.19-.12-1.92l.07-.14c0-1.2-.02-1.96-.05-2.29.05,0,.07-.03.07-.09l-.11-.7s.07-.03.07-.09c-.07,0-.11-.17-.12-.51l.02-.04c-.09-.02-.22-.06-.39-.12,0,.05-.03.12-.09.21l-.49-.07c-.11,0-.2.02-.28.07-.08-.05-.18-.07-.28-.07h-.05v2.58h-2.6v-6.01h2.6v.02h.32v-.02h7.51v.02h.32v-.02h2.6v6.01h-2.6v-2.58h-.05c-.11,0-.2.02-.28.07-.08-.05-.18-.07-.28-.07l-.49.07c-.06-.09-.09-.16-.09-.21-.28.09-.46.14-.54.14l-.09-.14s.07-.02.07-.07h-.09ZM94.43,9.98l-.07.14v.07c.09-.05.16-.07.21-.07,0-.09-.05-.14-.14-.14ZM94.43,8.58h.07c.09.01.14.06.14.14v.07h-.07c-.09,0-.14-.05-.14-.14v-.07ZM94.71,9.98v.07l.35.07v-.07c0-.07-.07-.14-.21-.21-.09.01-.14.06-.14.14ZM95.38,16.47v-.25h-.07v.25h.07ZM96.47,16.38h.21v.07c0,.09-.05.14-.14.14l-.07-.14v-.07ZM96.49,19.42v.25h.23v-.25h-.23ZM96.49,23.1v.47h.07c.13-.32.23-.47.32-.47v-.12h-.09c-.08.08-.18.12-.3.12ZM96.56,22.15c.3.55.49.83.54.83l.07-.23c-.14-.4-.35-.6-.62-.6ZM96.64,19.78v.12h.14v-.12h-.14ZM96.68,9.07c.01.09.06.14.14.14l.07-.14h-.21ZM96.71,18.72v.23h.16v-.23h-.16ZM96.78,18.25v.12h.16v-.37c-.11.02-.16.11-.16.25ZM96.91,16.82v-.47h-.09v.47h.09ZM96.87,23.22v.11c.01.16.06.25.14.25h.09v-.12c0-.15-.05-.23-.16-.23h-.07ZM96.89,8.72c.01.09.06.14.14.14v-.14h-.14ZM96.94,20.15v.11h.16v-.11h-.16ZM97.1,18.95v.12h.14v-.12h-.14ZM97.17,21.8c0,.08-.02.12-.07.12.05.13.07.29.07.47.09-.08.19-.12.3-.12,0-.12-.1-.28-.3-.47ZM97.17,16.95c.01.15.06.23.16.23h.07c.11,0,.16-.08.16-.23h-.39ZM97.24,20.97v.23h.09v-.23h-.09ZM97.33,20.73v.12h.14v-.12h-.14ZM97.4,16.47v.12h.16v-.12h-.16ZM97.4,19.07v.12h.16v-.12h-.16ZM97.56,20.15v.23h.07v-.23h-.07ZM97.56,23.22v.11h.14v-.11h-.14ZM97.79,17.17h.14v-.23c-.09.01-.14.09-.14.23ZM97.79,18.12h.14v-.23c-.09.01-.14.09-.14.23ZM97.79,19.07v.12h.14v-.12h-.14ZM97.94,27.98l.14.07v-.21c-.09.01-.14.06-.14.14ZM98.01,16.95v.11h.14v-.11h-.14ZM98.01,18.25v.12c.01.15.06.23.14.23v-.12c0-.15-.05-.23-.14-.23ZM98.08,16.12c.01.15.06.23.16.23h.07v-.47h-.07c-.11.02-.16.11-.16.25ZM98.08,30.23v.21h.21v-.14s-.12-.02-.21-.07ZM98.15,21.55v.25h.09v-.25h-.09ZM98.15,29.04v.14h.07v-.14h-.07ZM98.23,9.49v.07h.14v-.07h-.14ZM98.23,18.21v.14h.14c0-.09-.05-.14-.14-.14ZM98.23,30.87v.14h.07v-.14h-.07ZM98.24,23.1c.05.15.07.27.07.35h.14v-.23l.46.23c0-.18.03-.33.09-.47l-.16-.11h-.16v.23h-.14v-.12l.07-.23h-.16c-.07,0-.14.12-.21.35ZM98.37,25.95l-.07.28c.09,0,.14-.07.14-.21v-.07h-.07ZM98.31,18.12v.25h.53c-.05-.16-.07-.29-.07-.37l-.46.12ZM98.37,8.86v.07h.14v-.07h-.14ZM98.38,21.8v.23c.11,0,.16-.08.16-.23h-.16ZM98.44,24.75v.21c.14,0,.21.07.21.21h.07v-.35l-.14.07c0-.09-.05-.14-.14-.14ZM98.51,9.63v.14h.07v-.14h-.07ZM98.58,16.95v.07h.21c.09,0,.14-.05.14-.14v-.14h-.07c-.19.07-.28.14-.28.21ZM98.65,30.8l-.07.28c.05.09.07.16.07.21h.14l.07-.28c-.09,0-.14-.07-.14-.21h-.07ZM98.61,16v.12h.16v-.12h-.16ZM98.61,23.8v.25h.16v-.25h-.16ZM98.65,26.02v.14h.07v-.14h-.07ZM98.68,21.67c.02.16.08.25.16.25h.16c0-.16-.05-.25-.16-.25h-.16ZM98.77,16.95v.35h.23c0-.08.02-.2.07-.35-.05,0-.07-.04-.07-.12-.11.08-.18.12-.23.12ZM98.79,26.16v.14h.14c0-.09-.05-.14-.14-.14ZM98.79,27.42v.07h.14v-.07h-.14ZM98.86,24.96v.14h.14v-.28c-.09.01-.14.06-.14.14ZM99,11.53l-.07.28h.07c.07,0,.14-.07.21-.21l-.14-.07h-.07ZM98.93,22.36v.84h.14c-.05-.25-.07-.53-.07-.84h-.07ZM99,19.42v.12h.23v-.12h-.23ZM99.07,13.71v.14c.09,0,.14-.05.14-.14h-.14ZM99.14,20.37l-.07.25c.01.15.06.23.16.23,0-.08.02-.2.07-.35l-.16-.12ZM99.07,23.92c0,.18.15.33.46.47v.12c.11,0,.16-.08.16-.25v-.11c-.08,0-.29-.08-.62-.25ZM99.14,10.34v.14h.07v-.14h-.07ZM99.14,17.77v.23h.16v-.23h-.16ZM99.14,19.78c.01.16.06.25.16.25.11,0,.16-.08.16-.25h-.32ZM99.14,24.89v.14h.07v-.14h-.07ZM99.28,13.01v.21h.07v-.21h-.07ZM99.28,26.09v.14c.01.09.06.14.14.14v-.14c0-.09-.05-.14-.14-.14ZM99.28,26.86v.14c.09,0,.14-.05.14-.14v-.14c-.09.01-.14.06-.14.14ZM99.3,23.33v.12l.3.12c-.05-.14-.07-.3-.07-.47h-.07c-.11.02-.16.1-.16.23ZM99.35,25.03v.07c.01.09.06.14.14.14v-.07c0-.09-.05-.14-.14-.14ZM99.35,25.73v.14h.07v-.14h-.07ZM99.53,21.67v.12h.16v-.12h-.16ZM99.6,18.48v.12h.16v-.12h-.16ZM99.6,21.08v.37h.09v-.37h-.09ZM99.6,23.8v.25h.09v-.25h-.09ZM99.63,9.35v.14c.09,0,.14-.05.14-.14h-.14ZM99.63,11.46v.14h.07v-.14h-.07ZM99.63,18.7v.07h.14v-.07h-.14ZM99.7,17.3v.14h.07v-.14h-.07ZM99.77,18.07v.07h.14v-.07h-.14ZM99.84,12.38v.07h.14v-.07h-.14ZM100.4,19.76v.07c.09,0,.14-.05.14-.14v-.07c-.09.01-.14.06-.14.14ZM100.97,18.63v.14h.07v-.14h-.07ZM101.25,11.53v.14h.07v-.14h-.07ZM101.67,10.69v.14c0,.07.07.14.21.21,0-.15.02-.27.07-.35h-.28ZM102.02,9.21v.07c.01.09.06.14.14.14v-.07c0-.09-.05-.14-.14-.14ZM102.58,10.69l.07.42.42-.07c-.09-.23-.26-.35-.49-.35ZM102.8,9.84h.14v-.14c-.09.01-.14.06-.14.14ZM103.22,10.48v.07h.14v-.07h-.14ZM103.64,9.14l.14.07h.07c.09,0,.14-.05.14-.14v-.07h-.21c-.09.01-.14.06-.14.14ZM103.71,10.34v.07h.07c.09,0,.14-.05.14-.14v-.07h-.07c-.09.01-.14.06-.14.14ZM103.78,9.84v.07c.01.09.06.14.14.14h.07v-.21h-.21ZM104.62,9.7s-.02.12-.07.21l.14.07c.09,0,.14-.05.14-.14s-.05-.14-.14-.14h-.07ZM104.55,10.48c.09.01.14.06.14.14.09-.05.16-.07.21-.07v-.28h-.14c-.07,0-.14.07-.21.21Z"/>
      <path class="cls-4" d="M113.57,34.17c.09.01.14.06.14.14v.07c-.09,0-.14-.05-.14-.14v-.07ZM115.03,27.91v.14h-.14c.01-.09.06-.14.14-.14ZM122.38,10.27v-2.6h6.5v2.51h-1.32v.35c0,.21.02.48.07.81l-.14.58c.05.11.07.22.07.35l-.07.63c.09.02.14.09.14.21v.18c0,.13-.05.19-.14.19l.07.44v.09l-.07.56c.05.12.07.21.07.28-.07.25-.15.37-.23.37-.09-.07-.16-.11-.21-.11v.11l.07.18.14-.09c.12,0,.19.21.23.62l-.02.07h.04l.05.44c-.02.07-.04.14-.05.21.01.07.03.15.05.23-.02.05-.04.09-.05.14.01.06.03.11.05.16-.02.08-.04.16-.05.23.01.07.03.14.05.21l-.05.44h-.04l.02.07c-.04.41-.11.62-.23.62l-.14-.09-.07.18v.11s.12-.04.21-.11c.08,0,.16.12.23.37,0,.08-.02.18-.07.28l.07.56v.09l-.07.44c.09,0,.14.06.14.19v.19c0,.11-.05.17-.14.19l.07.63c0,.13-.02.25-.07.35l.14.58c-.05.33-.07.6-.07.81v.18c0,.26.05.66.14,1.21,0,.11-.05.16-.14.18l.07.46-.07.47c.05.12.07.21.07.28,0,.06-.02.09-.07.09-.13,1.22-.35,2.23-.67,3.02l-.81,1.39c-1.17,1.1-2.46,1.65-3.85,1.65-2.02,0-3.45-.61-4.31-1.83-.94-1.04-1.41-2.67-1.41-4.87v-.67l-.14-.26v-.18l.14-.28v-5.17l-.07-.18s.07-.03.07-.09v-3.81c0-.06-.02-.09-.07-.09l.07-.18v-4.68h-1.32v-2.51h6.5v2.6h-.51v.32c0,.07-.02.11-.07.11l.07.18v.47c0,.27.03.53.09.77-.06.23-.09.49-.09.76v.3l.16.28c-.11.02-.16.09-.16.19v.37c0,.07.03.11.09.11l-.09.18v.11c0,.06.03.09.09.09-.11.33-.16.59-.16.77.11.01.16.08.16.19-.06,0-.16.26-.3.77l.07.65v1.05c0,.06-.02.09-.07.09.02.26.09.39.21.39v.19h-.21v.76l.14.28v.11h-.14v.47c0,.06-.03.09-.09.09l.09.19c0,.06-.03.09-.09.09l.09.49v.19c0,.06-.03.09-.09.09.06.09.11.51.16,1.25v1.62h.07l-.07.46c.01.13.06.19.14.19-.05.19-.09.28-.14.28.13.39.3.58.51.58v.11c-.14,0-.31.09-.51.28v.19c0,.12.08.18.23.18v.28h-.23c0,.47.2.79.6.97v.28c-.06,0-.13.03-.23.09,0-.19-.05-.28-.14-.28h-.16c0,.07.02.11.07.11l-.07.18v.19l.16-.09.28.28-.07.21v.09l.37.09v-.09c0-.11-.05-.27-.14-.49l.14-.09c.08,0,.18.13.3.39-.09.02-.14.09-.14.19v.09c.53-.16.9-.48,1.11-.95v-.56c0-.28-.02-.63-.07-1.05l.07-.19c-.05-.42-.07-.77-.07-1.05,0-.41.02-1.04.07-1.9l-.07-.47c.09-.25.14-.5.14-.77v-.19l-.07-.65h.07c0-.06-.02-.09-.07-.09l.07-.49-.07-.19c.05-.32.1-.47.16-.47-.06-.61-.13-1.18-.23-1.71.05-.19.09-.28.14-.28l-.14-3.36.07-.56h-.07l.07-.19c0-.14-.02-.26-.07-.37.05-.36.07-.65.07-.86v-.28l-.07-.58.07-.19-.07-.19.07-.47c-.01-.18-.02-.35-.04-.51h-.72ZM116.7,10.06l.02.21h.07l-.02-.21h-.07ZM116.95,17.65v.07h.21v-.07h-.21ZM117.24,18l.28-.02v-.14h-.14c-.09.02-.14.08-.14.16ZM117.32,20.18v.14l.28-.02v-.14l-.28.02ZM117.4,20.74v.07l.28-.02v-.07l-.28.02ZM117.42,21.23v.07l.14-.02v-.07l-.14.02ZM117.49,19.25v.07h.21v-.07h-.21ZM117.6,17.84v.35l.35-.02.21-.14c.08.05.18.07.28.07,0-.08-.1-.18-.3-.28h-.07s-.05.02-.05.07l-.14-.05h-.28ZM117.65,15.1v.07h.14v-.07h-.14ZM117.74,20.09v.14l.14-.07.14.05c0-.09.07-.14.21-.14l-.02-.07h-.14l-.33.09ZM117.77,23.68h.21v-.14h-.07c-.09.01-.14.06-.14.14ZM117.82,27.55v.14c.09,0,.14-.05.14-.14h-.14ZM117.84,17.28l.02.07c.16-.01.3.03.42.12.11-.09.2-.15.28-.16-.15-.14-.23-.25-.23-.33h-.07c-.28.13-.42.23-.42.3ZM117.93,22.2l.02.07.28-.02-.02-.14h-.07c-.08.05-.15.08-.21.09ZM117.97,14.52h.07c.07,0,.14-.07.21-.21h-.07c-.07,0-.14.07-.21.21ZM118.65,15.7v.07l.21.28.02.35-.7-.05s-.02.07-.07.07c0,.11.26.24.79.4h.07l-.09-.14c0-.09.14-.15.42-.16v-.07l-.28-.28.12-.21c-.11.01-.22-.08-.35-.26h-.14ZM118.12,21.27v.14c.09-.05.16-.07.21-.07l.14.07c.08-.06.18-.09.28-.09l.07.14c.08-.05.18-.08.28-.09v-.14l-.07.02c-.18,0-.39-.02-.63-.05-.08.05-.18.07-.28.07ZM118.26,14.94l.02.35.21-.02v-.14c-.01-.06-.09-.12-.23-.19ZM118.26,19.3v.14c.09,0,.14-.05.14-.14h-.14ZM118.32,23.03c.01.09.06.14.14.14v-.14h-.14ZM118.35,21.97c.02.09.07.14.14.14l.07-.02v-.14l-.21.02ZM118.39,22.82v.07l.35.05.07-.14h-.14s-.07.02-.07.07l-.14-.05h-.07ZM118.44,13.66c.14,0,.21.07.21.21h.28l-.07-.14c.01-.09.06-.15.14-.16h.21l.21.14.21-.16.14.07c.09-.05.16-.07.21-.07.01.09.06.13.14.12h.07c.09,0,.14-.05.14-.14-.36-.18-.65-.26-.86-.25h-.35c-.4.14-.63.26-.69.37ZM118.6,14.22v.07c.11,0,.25.06.42.19l.07-.14c-.19-.08-.33-.12-.42-.12h-.07ZM118.62,16.82v.14c.09,0,.14-.05.14-.14h-.14ZM118.63,19.92l.02.14h.14l-.02-.14h-.14ZM118.69,17.03l.16.42c.08-.05.15-.08.21-.09l-.02-.21c0-.09-.05-.13-.14-.12h-.21ZM118.7,17.81l.02.07h.21l-.02-.07h-.21ZM118.77,22.1h.14v-.14c-.09.01-.14.06-.14.14ZM119.2,17.51c-.15.34-.26.51-.33.51v.07h.07c.14-.06.21-.11.21-.16l.35.07.28-.02v-.07c0-.06-.17-.17-.51-.33,0-.05-.02-.07-.07-.07ZM118.93,22.73l-.05.14c.09,0,.14.07.14.21l.14-.02c0-.14.09-.21.28-.21h.07v-.07c-.2,0-.39-.02-.58-.05ZM118.91,15.21c.01.09.06.13.14.12h.07c0-.09-.05-.14-.14-.14l-.07.02ZM119,11.6v.07c.02.09.08.14.16.14h.07l-.02-.07c0-.09-.05-.14-.14-.14h-.07ZM119.02,18.65l.14.05v-.21c-.09.02-.14.08-.14.16ZM119.06,26.39l.21-.02v-.14h-.07c-.09.02-.14.08-.14.16ZM119.18,12.38v.28c.02.09.07.14.14.14.08,0,.15-.12.21-.37-.16.01-.28,0-.35-.05ZM119.3,23.13l-.07.14.02.42h.28l-.07-.14.42-.09-.02-.21h-.21l.02.14-.37-.26ZM119.27,12.94c.01.09.06.14.14.14h.07v-.14h-.21ZM119.37,20.6v.07h.21v-.07h-.21ZM119.53,23.34v.07c0,.09-.05.14-.14.14v-.07c.01-.09.06-.14.14-.14ZM119.41,22.08v.07c.09,0,.3-.1.63-.3v-.07h-.07c-.38.09-.56.19-.56.3ZM119.62,26.3h.07c.09-.01.14-.06.14-.16h-.07c-.09.02-.14.08-.14.16ZM119.71,13.48h.14v.07h-.14v-.07ZM119.71,16.01v.07h.14v-.07h-.14ZM119.74,14.89l.02.21h.07l-.02-.21h-.07ZM119.74,25.58v.14h.07l.14-.07c.01.09.06.14.14.14h.14v-.14c-.07,0-.16-.05-.28-.14-.09.05-.16.07-.21.07ZM119.83,10.81v.07h.14v-.07h-.14ZM119.86,16.3v.14l.28.05c-.05-.08-.07-.15-.07-.19h-.21ZM119.95,8.28v.07l.14-.02v-.07l-.14.02ZM120.13,26.77l-.07.14h.07c.09-.05.16-.08.21-.09v-.07l-.21.02ZM120.09,14.94v.07h.14v-.07h-.14ZM120.16,21.22v.07l.14-.02v-.07l-.14.02ZM120.18,21.85v.07l.14-.02v-.07l-.14.02ZM120.25,22.18l.02.07h.21l-.02-.07h-.21ZM120.25,24.08v.07h.21v-.07h-.21ZM120.3,16.98v.14h.21v-.14h-.21ZM120.3,31.36v.07l.14-.02v-.07l-.14.02ZM120.36,30.87c.02.09.08.13.16.12.09,0,.13-.05.12-.14,0-.09-.05-.14-.14-.14-.09.02-.14.08-.14.16ZM120.41,24.65v.07h.14v-.07h-.14ZM120.43,13.96v.07h.14v-.07h-.14ZM120.44,21.2v.21c.09,0,.14-.05.14-.14v-.07h-.14ZM120.48,26.75c.05.09.07.16.07.21h.14c0-.11.02-.2.07-.28h-.07c-.09.05-.16.07-.21.07ZM120.57,16.42v.07l.14-.02v-.07l-.14.02ZM120.64,18.46v.14l.07-.02v-.14l-.07.02ZM120.83,12.27h.14v.28c0,.09-.05.14-.14.14v-.42ZM120.85,30.78v.07l.14-.02v-.07l-.14.02ZM120.92,10.65v.07h.14v-.07h-.14ZM121.01,11.22s-.02.12-.07.21h.07c.09,0,.14-.05.14-.14l-.14-.07ZM120.94,11.57c.05.09.08.16.09.21h.07l-.02-.28-.14.07ZM120.99,25.19h.14v.07h-.14v-.07ZM121.18,10.56l.02.07h.21l-.02-.07h-.21ZM121.29,31.32v.07h.14v-.07h-.14ZM121.34,10.85v.07h.21v-.07h-.21ZM121.5,31.25v.07l.21-.02v-.07l-.21.02ZM121.85,31.38l.21-.02c.01.09-.03.15-.12.16h-.07l-.02-.14ZM121.96,14.84c.02.09.07.14.14.14h.07v-.21c-.09.05-.16.07-.21.07ZM121.99,11.25v.07h.14v-.07h-.14ZM122.11,17.37h.21v-.14h-.07c-.09.01-.14.06-.14.14ZM122.27,20.39l.09.14c-.14,0-.21.05-.21.14h.07c.08,0,.24-.15.47-.44h.07v-.07h-.14c-.18.15-.29.23-.35.23ZM122.24,14.7v.07l.14-.02v-.07l-.14.02ZM122.27,18.21v.07l.14-.02v-.07l-.14.02ZM122.4,17.21c-.05.26-.07.4-.07.44l.21-.02.07-.35-.14-.07h-.07ZM122.59,14.47c0,.07-.05.16-.14.28l.28.21.28-.02c-.13-.29-.25-.45-.35-.47h-.07ZM122.83,15.59c0,.12-.05.23-.14.35.05.08.08.18.09.28l-.21-.14c0,.14-.02.21-.07.21.05.09.07.16.07.21l.35-.02c0-.11.06-.25.19-.42v-.14c-.09-.12-.14-.23-.14-.35l-.14.02ZM122.52,16.72c0,.07.07.14.21.21v-.07c0-.09-.05-.14-.14-.14h-.07ZM122.52,18.9v.14h.07v-.14h-.07ZM122.54,30.8v.07l.14-.02v-.07l-.14.02ZM122.64,18.83l.02.07.07.14c-.09.01-.14.06-.14.14h.14v-.14l.14.07c.11-.11.2-.16.28-.16v-.07h-.07c-.09.06-.16.09-.21.09-.01-.09-.06-.14-.16-.14h-.07ZM122.68,15.38v.07h.14v-.07h-.14ZM122.71,12.08l.42-.02-.14-.21s.07-.02.07-.07h-.07c-.08,0-.18.1-.28.3ZM122.82,13.2c.06.08.09.15.09.19h.14c.11-.09.19-.14.26-.14-.09-.12-.14-.21-.14-.28-.06,0-.18.08-.35.23ZM122.82,30.78v.07h.14v-.07h-.14ZM122.98,20.16v.14l.14-.09h.35l-.07.14v.07l.14-.02-.07-.12c.19-.01.28-.11.28-.3-.07,0-.33.06-.77.18ZM122.99,14.17v.07c0,.07.08.14.23.21-.06-.08-.09-.18-.09-.28h-.14ZM123.2,13.89v.07c0,.07.07.14.21.21l.14-.02s-.02-.07-.07-.07l.07-.14v-.07h-.07c-.09.06-.16.09-.21.09,0-.05-.02-.07-.07-.07ZM123.22,16.91c.02.09.07.14.14.14v-.14h-.14ZM123.24,17.26v.07h.14v-.07h-.14ZM123.27,20.57c0,.07.07.14.21.21v-.07c0-.09-.05-.14-.14-.14h-.07ZM123.45,13.24v.07h.07c.09,0,.14-.05.14-.14v-.07h-.07c-.09.02-.14.07-.14.14ZM123.5,14.5v.14h.14v-.14h-.14ZM123.52,15.42l.02.21h.07c.09,0,.13-.05.12-.14l-.14-.07h-.07ZM123.52,17.31v.07h.14v-.07h-.14ZM123.52,30.48v.14c.09,0,.14-.05.14-.14h-.14ZM123.61,20.41l.02.14c.09,0,.13-.05.12-.14h-.14ZM123.8,12.89c0,.22-.04.39-.12.49h.28c-.01-.09,0-.15.05-.16-.05-.07-.07-.18-.07-.33h-.14ZM123.89,19.99l-.07.14c.05.09.07.16.07.21h.07c.12-.11.21-.16.28-.16v-.14l-.35-.05ZM124.14,12.23v.21h.14v-.21h-.14ZM124.35,8.16v.07c.2.36.35.54.44.54v-.28l.21-.02-.14.23c.14-.01.22.05.23.19h.14l-.02-.49c-.01-.11-.13-.17-.37-.19l-.14.07-.35-.12ZM124.57,13.06v.07s.12.02.21.07h.07v-.07s-.12-.02-.21-.07h-.07ZM124.61,9.48v.07h.14v-.07h-.14ZM124.63,10.18c.01.09.06.14.14.14h.07c0-.09-.05-.14-.14-.14h-.07ZM124.68,9.62v.14h.07c.09,0,.14-.05.14-.14h-.21ZM124.7,10.04v.07h.14v-.07h-.14ZM124.89,14.33l.02.07h.12v-.07h-.14ZM124.89,20.65v.07h.14v-.07h-.14ZM125.05,14.47c0,.09-.05.14-.14.14v.14l.21-.02c0-.11.02-.2.07-.28l-.14.02ZM125.01,13.69c.01.11,0,.2-.05.28l.21-.02-.02-.28-.14.02ZM125.07,14.96v.14l.07-.02v-.14l-.07.02ZM125.23,9.32h.14l.02.49c0,.09-.05.14-.14.14h-.07v-.14s.02-.07.07-.07l-.07-.14c.05-.08.06-.18.05-.28ZM125.23,11.22h.14v.07c0,.09-.05.14-.14.14v-.21ZM125.54,27.88h.14c0,.09-.05.14-.14.14v-.14ZM125.68,27.6l.21-.02v.14l-.07.02c-.09,0-.14-.05-.14-.14Z"/>
      <path class="cls-4" d="M140.75,27.55h.05c-.05.27-.11.47-.19.6-.08.32-.19.63-.32.95v.09c-.05.08-.09.15-.12.21-.08.19-.17.37-.26.54-.06.06-.12.1-.19.12-.04.14-.08.21-.12.21l-.04-.02.02.05c-.12.13-.24.25-.37.35l-.04.05v.09l.14-.09h.07v.16h-.14c-.35,0-.8.32-1.34.95-.71.25-1.23.37-1.55.37h-.84c-.43,0-.86-.1-1.27-.3l.14-.23-.14-.05c-.29.11-.64,0-1.04-.3v.7h-2.95v-3.41s-.02-.05-.02-.07v-.09l.02-.04v-.12c-.06-.02-.09-.06-.09-.12v-.16c0-.15.02-.23.07-.23l-.07-.35v-.6c0-.16.02-.39.07-.67l-.14-.42c.05-.32.1-.57.16-.76v-.16h.05c.05-.11.09-.16.14-.18h.56c.15,0,.27.02.35.07l.42-.07h.42c.12.08.21.12.28.12.25,0,.71-.02,1.41-.05.23.16.35.4.35.72v.3c0,.15-.02.23-.07.23l.07.35v.97c0,.11-.02.2-.07.28.05.08.07.18.07.3v.74c0,.16.14.4.42.72-.01.11-.06.16-.14.16l-.07-.3h-.07c-.16.2-.33.3-.49.3,0-.06-.02-.09-.07-.09v.09s.02.07.07.07l-.07.14c0,.11.05.16.14.16h.35v.21c0,.08-.07.15-.21.21h-.21c-.09,0-.14-.04-.14-.12h.14v-.16h-.21c0,.11-.02.16-.07.16.09.14.14.26.14.35h.14c.33,0,.49-.08.49-.23h.35v.07l-.07.16s.12.02.21.07v-.42h.14c0-.07-.12-.17-.35-.3,0,.2-.05.3-.14.3l-.07-.16v-.07c0-.09.05-.14.14-.14h.35c.09,0,.14.09.14.28h.14l-.07-.51.14-.07h.07s-.02.07-.07.07c.05.09.07.17.07.23h.19v-.26l-.05-.12h.05v-.32l.21-.02c.3-.01.52-.12.63-.32.05-.12.08-.25.11-.39v-.18s.02,0,.04-.02c.01-.07.02-.15.02-.23v-.39h.11c.02-.27.04-.62.05-1.05l-.02-.56s.02-.07.07-.07c-.06-.09-.09-.16-.09-.21s.02-.07.07-.07c-.05-1.24-.75-2.34-2.11-3.3,0-.08-.27-.35-.81-.81-.01-.3-.67-1.07-1.99-2.3-.89-1-1.42-1.89-1.6-2.67h.07c-.09-.16-.21-.59-.33-1.27h.07c-.11-.35-.17-.79-.19-1.32.02-.43.08-.65.18-.65l-.07-.14-.02-.28c0-.09.09-.14.28-.14l-.02-.28h-.21c.2-.66.4-1.22.6-1.69v-.02c.33-.73.65-1.21.97-1.46.05-.05.1-.09.16-.14l-.14.09h-.07v-.16h.14c.06,0,.12,0,.18-.02.29-.25.57-.44.84-.58.11-.11.21-.22.32-.35.71-.25,1.23-.37,1.55-.37h.84c.43,0,.86.1,1.27.3l-.14.23.14.05c.29-.11.64,0,1.04.3v-.7h2.95v3.41s.02.05.02.07v.09l-.02.04v.12c.06.02.09.06.09.12v.16c0,.15-.02.23-.07.23l.07.35v.6c0,.16-.02.39-.07.67l.14.42c-.05.32-.1.57-.16.76v.16h-.05c-.05.11-.09.16-.14.18h-.56c-.15,0-.27-.02-.35-.07l-.42.07h-.42c-.12-.08-.21-.12-.28-.12-.25,0-.71.02-1.41.05-.23-.16-.35-.4-.35-.72v-.3c0-.15.02-.23.07-.23l-.07-.35v-.97c0-.11.02-.2.07-.28-.05-.08-.07-.18-.07-.3v-.74c0-.16-.14-.4-.42-.72.01-.11.06-.16.14-.16l.07.3h.07c.16-.2.33-.3.49-.3,0,.06.02.09.07.09v-.09s-.02-.07-.07-.07l.07-.14c0-.11-.05-.16-.14-.16h-.35v-.21c0-.08.07-.15.21-.21h.21c.09,0,.14.04.14.12h-.14v.16h.21c0-.11.02-.16.07-.16-.09-.14-.14-.26-.14-.35h-.14c-.33,0-.49.08-.49.23h-.35v-.07l.07-.16s-.12-.02-.21-.07v.42h-.14c0,.07.12.17.35.3,0-.2.05-.3.14-.3l.07.16v.07c0,.09-.05.14-.14.14h-.35c-.09,0-.14-.09-.14-.28h-.14l.07.51-.14.07h-.07s.02-.07.07-.07c-.05-.09-.07-.17-.07-.23h-.04v.77s-.09-.04-.12-.05c-.36.02-.65.12-.86.3-.09.21-.15.49-.18.83v.39h-.3c-.02.55-.01,1.45.04,2.71.04.81.9,1.99,2.6,3.53,1.93,1.68,2.94,2.76,3.02,3.25.15,0,.29.3.4.91.18.43.35.75.53.95.09,1.22.19,1.83.28,1.83.04.67-.02,1.34-.16,2ZM130.15,13.96v-.07h-.14v.07h.14ZM130.48,27.46c0-.2.05-.3.14-.3-.05-.11-.07-.18-.07-.23h-.21v.14l.07.39h.07ZM130.83,28.49l-.21-.37s.07-.03.07-.09l-.28-.14-.07.14c.13.05.25.18.35.39-.09,0-.14.05-.14.14.05,0,.07.02.07.07.14-.05.21-.09.21-.14ZM130.97,25.73l.21.16.28-.23c-.05-.09-.07-.17-.07-.23h-.07c-.09,0-.14.05-.14.16.05,0,.07.02.07.07h-.07l-.35-.23c0,.08-.07.16-.21.23l-.14-.07-.07.14c.09,0,.14.12.14.37.28-.06.42-.18.42-.37ZM130.52,12.67v-.14h-.07v.14h.07ZM130.76,25.89h-.07v-.16h.07v.16ZM131.04,26.93c-.05-.09-.07-.17-.07-.23h-.07c-.11,0-.18.12-.21.37h.07c.12-.09.21-.14.28-.14ZM130.9,27.9v-.23h-.14v.23h.14ZM131.11,26.1v-.07h-.21v.07h.21ZM131.11,25.44v-.07h-.14v.07h.14ZM131.18,26.49c-.05-.11-.07-.18-.07-.23h-.14v.23h.21ZM131.18,10.35v-.21c-.09,0-.14.05-.14.14l.14.07ZM131.25,10.06v-.07h-.14v.07h.14ZM131.32,11.78v-.16h-.14v.16h.14ZM131.54,27.16s-.12-.03-.21-.09h-.14v.09c.14,0,.21.05.21.14.09-.01.14-.06.14-.14ZM131.4,28.71v-.07h-.21v.07h.21ZM131.87,26.54v-.21c-.15-.2-.23-.36-.23-.47-.25.01-.39.09-.42.23v.07c.22-.01.37.12.44.4l.21-.02ZM131.54,26.19v-.09h-.14v.09h.14ZM131.68,9.62v-.14h-.07v.14h.07ZM131.68,26.63v-.14h-.07v.14h.07ZM132.03,28.64v-.07c-.01-.09-.06-.14-.14-.14-.09.05-.16.07-.21.07v.14h.35ZM131.89,26.56v-.16c-.01-.09-.06-.14-.14-.14v.3h.14ZM131.96,11.02v-.14c-.09,0-.14.05-.14.14h.14ZM131.96,25.66v-.14h-.07v.14h.07ZM132.17,27.23v-.3c-.01-.09-.06-.14-.14-.14v.44h.14ZM132.31,30.94v-.37c-.09,0-.14-.05-.14-.14h-.14l.21.44s-.07.02-.07.07h.14ZM132.52,29.9c-.01-.09-.06-.14-.14-.14v.14h.14ZM132.66,29.46v-.23c-.01-.09-.06-.14-.14-.14h-.07l.07.37h.14ZM132.73,29.83v-.07h-.14v.07h.14ZM133.15,13.78v-.16c-.09,0-.14.05-.14.16h.14ZM133.15,31.17c0-.15.05-.23.14-.23v-.21h-.21s-.02.18-.07.44h.14ZM133.52,8.82v-.07c-.08,0-.18-.05-.3-.14-.06,0-.12.08-.19.23l.49-.02ZM133.65,28.79l.07-.16c-.09,0-.14-.07-.14-.21h-.14c0,.14-.09.21-.28.21v.07s.12.03.21.09c.09-.06.16-.09.21-.09,0,.06.02.09.07.09ZM133.36,30.06v-.09h-.21v.09h.21ZM133.43,12.96l-.14-.07h-.07v.23h.07c.09-.01.14-.06.14-.16ZM133.57,29.83v-.16h-.14v.16h.14ZM134,31.61l.07-.14v-.23h-.07c-.09.05-.16.07-.21.07.07.2.14.3.21.3ZM134.21,13.62v-1.11h-.07c0,.32-.07.54-.21.67.14.2.21.35.21.44h.07ZM134.21,12.22v-.07h-.07l-.07.3c.09,0,.14-.08.14-.23ZM134.14,31.76v-.16h-.07v.16h.07ZM134.28,11.92v-.74l.14-.23c-.07,0-.16-.05-.28-.14v1.11h.14ZM134.28,13.99v-.07c-.05-.09-.07-.16-.07-.21h-.07v.28h.14ZM134.7,31.61s.02-.12.07-.21c-.13-.15-.27-.23-.42-.23-.01-.11-.06-.16-.14-.16l-.07.16c.14.05.21.19.21.44h.35ZM134.47,26.3h-.14c-.01-.09.03-.14.12-.14l.02.14ZM134.63,10.65v-.07h-.14v.07h.14ZM135.23,20.71l.05-.14h-.07c-.08.05-.15.07-.21.07l-.07-.12v-.07l.35-.02c.13-.2.26-.3.4-.3,0-.13-.17-.22-.51-.26l.09.14v.07h-.07l-.14-.07v.14h.14c-.01.09-.05.14-.12.14-.02-.09-.08-.13-.16-.12,0,.07-.09.14-.26.21.06.23.25.35.58.33ZM134.91,30.94v-.07h-.14v.07h.14ZM134.91,31.61v-.07c-.09,0-.14.05-.14.16v.07c.09-.01.14-.06.14-.16ZM135.47,31.4c0-.11.09-.16.28-.16v-.07h-.14v-.23l.07-.14c-.09-.01-.14-.06-.14-.16.05,0,.07-.02.07-.07-.21-.2-.33-.3-.35-.3,0,.2-.05.38-.14.53.09,0,.14.05.14.14-.11.11-.25.16-.42.16.05.09.07.16.07.21h.14c0-.14.05-.21.14-.21h.07c0,.2.07.3.21.3ZM135.39,21.32l-.07-.12c.09-.02.13-.08.12-.16l-.14-.05h-.07c.01.11,0,.2-.05.28l.14.07.07-.02ZM135.4,31.83v-.07h-.14v.07h.14ZM135.61,20.92v-.09h-.07c-.09.06-.16.09-.21.09v.07h.07c.09-.05.16-.07.21-.07ZM135.63,20.69v-.07h-.21v.07h.21ZM135.79,22.52v-.07h-.14v.07h.14ZM136.25,31.4h-.21c-.07,0-.14.07-.21.21h.14c.19-.07.28-.14.28-.21ZM136.11,30.8c-.01-.11-.06-.16-.14-.16h-.07c0,.11.05.16.14.16h.07ZM136.6,23.36v-.14l-.14.07c-.09-.05-.16-.07-.21-.07-.09.05-.16.07-.21.07v.07h.56ZM136.49,12.57h-.07l-.09-.35-.02-.35.07-.14.14.05s.07-.02.07-.07c.09.05.16.07.21.07v.14c-.14,0-.21.05-.19.14v.07l.42-.02v.07c-.01.09-.06.15-.14.16l-.21-.14c-.05.23-.11.36-.19.37ZM136.46,20.16h-.14v.16c.09-.01.14-.06.14-.16ZM136.53,30.87v-.14h-.14c0,.09.05.14.14.14ZM136.72,11.5h-.14c0-.08-.05-.19-.14-.33l.12-.09h.07l.02.07-.07.14c.09,0,.14.05.14.14v.07ZM136.81,31.01l-.14-.07h-.07c-.09,0-.14.05-.14.16v.07h.21c.09-.01.14-.06.14-.16ZM136.74,30.13v-.07h-.14v.07h.14ZM136.74,31.4v-.09h-.14v.09h.14ZM137.11,13.73c-.05-.08-.08-.18-.09-.28-.07.06-.19.09-.35.09l.02.35h.14c.12-.11.21-.16.28-.16ZM136.84,14.03h-.14v.14c.09-.01.14-.06.14-.14ZM137.07,14.64v-.14l-.09-.12s.07-.04.07-.09l-.14-.05h-.07c-.09,0-.14.05-.14.14.09.05.17.07.23.07l-.07.14v.07l.21-.02ZM136.88,23.52v-.09h-.14v.09h.14ZM136.91,12.62h-.14v-.21c.09,0,.14.05.14.14v.07ZM137.09,19.65h-.28c0,.09.05.14.14.14.09-.01.14-.06.14-.14ZM137.09,30.57h-.21v.23c.07,0,.14-.08.21-.23ZM137.23,23.43v-.37c-.08,0-.15.12-.21.37h.21ZM137.3,22.76v-.07h-.14v.07h.14ZM137.44,29.3v-.07h-.07c-.09,0-.14.05-.14.14v.09h.07c.09-.01.14-.06.14-.16ZM137.44,29.53h-.07c-.09,0-.14.05-.14.14h.07c.09-.01.14-.06.14-.14ZM137.44,29.9c-.01-.09-.06-.14-.14-.14l-.07.14h.21ZM137.65,26.79v-.09h-.21c-.09,0-.14.05-.14.16h.14c.09-.05.16-.07.21-.07ZM137.51,27.3v-.07h-.21v.07h.21ZM137.51,28.13c0-.09.07-.22.21-.39h-.14v.16h-.14l-.14-.07v.14c0,.11.05.16.14.16h.07ZM137.58,30.57l-.21-.14h-.07v.3h.14c.09-.02.14-.08.14-.16ZM137.51,30.34v-.14h-.07v.14h.07ZM137.65,24.86v-.09h-.14v.09h.14ZM138.07,28.64v-.44c-.22.12-.41.34-.56.67h.07c.18-.15.34-.23.49-.23ZM137.65,29.16v-.16h-.14v.16h.14ZM138,26.63v-.23l-.14.09h-.14v-.16h-.14c.09.13.14.23.14.3h.28ZM137.72,27.37v-.07h-.14v.07h.14ZM137.93,14.15v-.07l-.14-.23.07-.14h-.07c-.09,0-.14.05-.14.14v.07c0,.08.07.16.21.23h.07ZM137.93,14.59c-.05-.08-.07-.21-.07-.37h-.14c0,.11-.02.16-.07.16.05.09.07.16.07.21h.21ZM138.43,12.81c0-.13-.09-.35-.28-.67v-.07h-.21c-.07,0-.14.07-.21.21v.16l.21-.16c.12,0,.21.2.28.6h.07l.14-.07ZM137.86,21.73c-.01-.09-.06-.14-.14-.14v.14h.14ZM137.93,23.43v-.21h-.21v.14s.12.02.21.07ZM137.86,28.27v-.14h-.14c0,.09.05.14.14.14ZM138.07,27.97v-.07h-.28v.07h.28ZM138.22,20.46v-.37l-.35.07v.09c.08,0,.2.07.35.21ZM138,22.32v-.07h-.14v.07h.14ZM138,22.62v-.07h-.14v.07h.14ZM138.07,19.13v-.14h-.14v.14h.14ZM138.07,22.17v-.07h-.14v.07h.14ZM138.29,26.93h-.14c-.09,0-.14.05-.14.14h.14c.09-.01.14-.06.14-.14ZM138.22,21.66v-.07h-.14v.07h.14ZM138.22,28.13v-.09h-.14v.09h.14ZM138.36,23.73v-.14h-.21v.14h.21ZM138.43,22.47c-.05-.09-.07-.16-.07-.21h-.14v.07c0,.09.05.14.14.14h.07ZM138.43,27.37v-.07h-.14v.07h.14ZM138.5,21.29v-.37h-.14l.07.37h.07ZM138.5,26.03v-.07h-.14v.07h.14ZM138.5,29.9c-.01-.09-.06-.14-.14-.14v.14h.14ZM139.41,26.33c0-.06-.12-.16-.35-.3h-.07v.16h-.14v-.16h-.28c0,.11-.05.16-.14.16v.07h.14s.02-.07.07-.07l.21.3s.07-.03.07-.09l.35.09c.09-.01.14-.06.14-.16ZM138.5,27l.07-.3v-.21h-.07l-.07.44v.07h.07ZM138.64,20.83v-.07h-.14v.07h.14ZM138.57,30.57v-.14h-.07v.14h.07ZM138.71,27.07v-.07h-.14v.07h.14ZM139.13,29.3l-.07-.14h.14v-.07h-.14s-.02.07-.07.07v-.16h-.07c0,.11-.12.23-.35.37h.07l.49-.07ZM138.71,29.6v-.07h-.14v.07h.14ZM138.78,26.86v-.07h-.14v.07h.14ZM138.99,27.83v-.16h-.14c-.07,0-.14.08-.21.23h.14c.09-.05.16-.07.21-.07ZM138.85,28.42v-.09h-.14v.09h.14ZM139.06,25.44s.02-.12.07-.21v-.07h-.07c0,.09-.05.14-.14.14,0,.09.05.14.14.14ZM139.13,28.49v-.16h-.07c-.09,0-.14.05-.14.16h.21ZM139.13,24.26l.07-.16v-.07c-.09.05-.16.07-.21.07,0,.11.05.16.14.16ZM139.11,16.12l-.09-.14.21-.16c.09,0,.14.05.14.14l-.26.16ZM139.48,25.44h-.07l-.35.09v.07h.28c.09-.01.14-.06.14-.16ZM139.41,28.93c0-.09.09-.24.28-.44v-.3s-.12-.02-.21-.07c-.09.05-.16.07-.21.07l.07.14.14-.07h.07v.07c0,.12-.16.24-.49.37.05.11.07.18.07.23h.28ZM139.27,27.07v-.07h-.14v.07h.14ZM139.69,29.3h-.14l.07-.14v-.07h-.28v.28h.07l.14-.07v.16c.09-.01.14-.06.14-.16ZM139.48,29.6v-.07h-.14v.07h.14ZM139.48,29.76v-.09h-.14v.09h.14ZM139.62,25.89v-.07h-.14v.07h.14ZM139.62,26.63v-.14c-.09,0-.14.05-.14.14h.14ZM139.9,24.4v-.07c-.11,0-.2-.02-.28-.07v.21h.07c.09-.05.16-.07.21-.07ZM140.18,23.73v-.07c-.07,0-.16-.05-.28-.14h-.14c0,.08.12.15.35.21h.07ZM139.97,26.7v-.07h-.21v.07h.21ZM139.97,25.3v-.07h-.14v.07h.14ZM140.15,15.79h-.07v-.14h.07v.14ZM140.25,24.63v-.16h-.07v.16h.07ZM141.63,9.25v-.21h.14v.07c-.01.09-.06.14-.14.14Z"/>
    </g>
    <g>
      <path class="cls-2" d="M3.63,2.79s.06-.04.09-.06c-.03.02-.06.04-.09.06Z"/>
      <path class="cls-2" d="M2.12,3.28c.51-.03,1-.18,1.42-.44-.43.25-.91.41-1.42.44l-.96.06c-.23.01-.44.1-.61.25.16-.15.38-.24.6-.25l.96-.06Z"/>
      <path class="cls-2" d="M2.58,10.27c.03.07.09.12.16.13.02,0,.05,0,.07,0l1.38-.22c2.47-.33,4.4-1.47,5.73-3.37.21-.3.41-.63.59-.97l.7-1.21c.05-.09.03-.19-.04-.26L6.69.28c-.22-.23-.53-.32-.82-.27-.07.01-.14.04-.21.07.07-.03.14-.05.21-.07.29-.05.6.04.82.27l3.29,3-.56.97c-1.31,2.48-3.46,3.96-6.32,4.34l-1.11.18-.15-.38.5,1.29h0l.23.58h0Z"/>
      <path class="cls-1" d="M3.1,8.6c2.86-.38,5.01-1.86,6.32-4.34l.56-.97L6.69.28c-.22-.23-.53-.32-.82-.27-.07.01-.14.04-.21.07-.2.1-.36.27-.45.48l-.4.88c-.24.53-.62.98-1.09,1.3-.03.02-.06.04-.09.06-.03.02-.06.04-.09.05-.43.25-.91.41-1.42.44l-.96.06c-.23.01-.44.1-.6.25-.05.05-.1.11-.14.17-.15.25-.18.57-.04.86l1.47,3.77.15.38,1.11-.18Z"/>
      <path class="cls-3" d="M13.34,6.71c.68-1.49.74-2.92.02-3.97-.82-1.19-1.54-.27-2.66,1.2l.46.42c.07.07.09.17.04.26l-.7,1.21c-.18.34-.38.67-.59.97-1.33,1.9-3.26,3.04-5.73,3.37l-1.38.22s-.05,0-.07,0c-.07-.01-.13-.06-.16-.13l-.23-.58h0c-1.78.51-2.89.86-2.08,2.05.95,1.38,3.03,1.74,5.36,1.13,1.25-.32,2.56-.92,3.82-1.79,1.83-1.26,3.19-2.84,3.88-4.37Z"/>
    </g>
  </g>
</svg>