<?xml version="1.0" encoding="UTF-8"?>
<svg id="Layer_2" data-name="Layer 2" xmlns="http://www.w3.org/2000/svg" viewBox="0 0 117.93 34.15">
  <defs>
    <style>
      .cls-1 {
        fill: #794a48;
      }

      .cls-2 {
        fill: #492807;
      }

      .cls-3 {
        fill: #492807;
      }

      .cls-4 {
        fill: #97635f;
      }
    </style>
  </defs>
  <g id="features">
    <g>
      <path class="cls-3" d="M3.65,10.32h.07v.14h-.07v-.14ZM12.26,31.72h-7.82v-2.65h1.76l-.16-3.02c-.02-.49-.03-1.07-.02-1.74l-.07-.14.11-3.71s-.04-.12-.09-.21c-.02-2.66-.01-5.98.04-9.98h-1.56v-2.69h1.6v-.07l.12-.07c.09,0,.15.02.16.07l.69-.07h.98c.11,0,.21.02.3.07.05,0,.06-.02.05-.07.6.05.91.07.93.07,1.61.02,2.92.04,3.96.05v-.02h2.6v6.01h-2.6v-2.58h-.05c-.11,0-.2.02-.28.07-.08-.05-.18-.07-.28-.07l-.49.07c-.06-.09-.09-.16-.09-.21-.28.09-.46.14-.54.14l-.09-.14s.07-.03.07-.09h-.28l.02.23h-.28l-.23-.14-.62.14.07,1.67-.05.42c.06.09.09.22.11.37h-.07l.07.14v.07s-.02.07-.07.07l.09.16-.05.42c.05.11.08.18.09.23h-.07s.02.07.07.07l-.05.35v.09c.01.14.04.21.09.21l-.05.35.04.88c1.43.05,2.51.07,3.23.07v3.46c-.18-.04-.33-.05-.46-.05-.11,0-.2.02-.28.07-.08-.05-.18-.07-.28-.07h-.07l-.35.07c-.05-.09-.07-.17-.07-.23-.14.06-.33.09-.56.09-.01-.15-.09-.23-.23-.23l-.05.14s.07.03.07.09l-.14.07h-.14c-.12-.11-.21-.16-.28-.16-.09.06-.16.09-.21.09l.02.28c0,.16-.01.38-.04.65,0,.05.02.07.07.07l-.05.37v7.93h1.81v2.53ZM4.92,27.33l.14.07v-.21c-.09.01-.14.06-.14.14ZM5.06,29.58v.21h.21v-.14s-.12-.02-.21-.07ZM5.13,28.38v.14h.07v-.14h-.07ZM5.2,17.55v.14h.14c0-.09-.05-.14-.14-.14ZM5.2,30.21v.14h.07v-.14h-.07ZM5.2,31.05v.07h.14v-.07h-.14ZM5.34,25.29l-.07.28c.09,0,.14-.07.14-.21v-.07h-.07ZM5.34,7.09h.07c.09.05.16.07.21.07-.06.23-.13.35-.21.35h-.07v-.07s.02-.07.07-.07l-.07-.14v-.14ZM5.69,6.72c.05.09.07.16.07.21h-.14c0-.09-.07-.14-.21-.14v-.07h.28ZM5.41,24.09v.21c.14,0,.21.07.21.21h.07v-.35l-.14.07c0-.09-.05-.14-.14-.14ZM5.55,16.29v.07h.21c.09,0,.14-.05.14-.14v-.14h-.07c-.19.07-.28.14-.28.21ZM5.62,30.14l-.07.28c.05.09.07.16.07.21h.14l.07-.28c-.09,0-.14-.07-.14-.21h-.07ZM5.62,25.36v.14h.07v-.14h-.07ZM5.76,25.5v.14h.14c0-.09-.05-.14-.14-.14ZM5.76,26.76v.07h.14v-.07h-.14ZM5.83,24.3v.14h.14v-.28c-.09.01-.14.06-.14.14ZM5.97,10.87l-.07.28h.07c.07,0,.14-.07.21-.21l-.14-.07h-.07ZM5.9,21.7v.84h.14c-.05-.25-.07-.53-.07-.84h-.07ZM6.04,9.4v.14h.14c0-.09-.05-.14-.14-.14ZM6.04,13.05v.14c.09,0,.14-.05.14-.14h-.14ZM6.11,24.23v.14h.07v-.14h-.07ZM6.25,12.35v.21h.07v-.21h-.07ZM6.25,25.43v.14c.01.09.06.14.14.14v-.14c0-.09-.05-.14-.14-.14ZM6.25,26.2v.14c.09,0,.14-.05.14-.14v-.14c-.09.01-.14.06-.14.14ZM6.32,24.37v.07c.01.09.06.14.14.14v-.07c0-.09-.05-.14-.14-.14ZM6.32,25.08v.14h.07v-.14h-.07ZM6.6,10.81v.14h.07v-.14h-.07ZM6.6,18.04v.07h.14v-.07h-.14ZM6.67,16.64v.14h.07v-.14h-.07ZM6.74,10.46v.14h.07v-.14h-.07ZM6.74,17.41v.07h.14v-.07h-.14ZM6.81,11.72v.07h.14v-.07h-.14ZM7.45,21.23l.02-.18c0-.12-.06-.18-.18-.18v.18c-.01.11.04.16.16.18ZM7.38,19.1v.07c.09,0,.14-.05.14-.14v-.07c-.09.01-.14.06-.14.14ZM7.47,22.7c.12,0,.18-.06.19-.18l.18.09h.09v-.26c0-.12-.06-.18-.18-.18,0,.18-.12.26-.35.26l-.02.26h.09ZM7.45,9.9v.07h.14v-.07h-.14ZM7.64,20.87c.12,0,.18-.06.18-.18h-.09c-.09,0-.15.06-.18.18h.09ZM7.59,9.27v.07h.14v-.07h-.14ZM7.99,21.14c0-.08.09-.2.26-.35h-.26c0,.12-.06.18-.18.18v.18h.18ZM7.94,17.97v.14h.07v-.14h-.07ZM8.22,25.67l.04-.44.11-.62h-.26l-.05,1.05h.18ZM8.27,22.61h.09v-.35h-.26v.18c0,.11.06.16.18.18ZM8.31,19.4v-.09h-.18v.09h.18ZM8.34,22.88v-.09h-.18v.09h.18ZM8.22,10.94v.07c.09,0,.14-.05.14-.14v-.07c-.09.01-.14.06-.14.14ZM9.1,23.49c.25-.35.43-.53.54-.53v-.09h-.09l-.18.09c-.08,0-.2-.06-.35-.18.09-.39.2-.64.32-.77v-.18h-.18l.02-.53c.01-.42-.06-.66-.23-.7-.01.18-.08.26-.19.26.11.19.16.36.16.53l-.02.35c.18,0,.26.06.26.18-.11.22-.32.33-.63.33v.26h.09l.26-.18c0,.14.02.26.05.35l-.09.18.25.35-.18.26h.18ZM8.85,27.68h.07v.14h-.21c.01-.09.06-.14.14-.14ZM8.94,25.23v-.09h-.18v.09h.18ZM8.78,9.83v.14h.07v-.14h-.07ZM9.05,28.8h.09v-.09c0-.12-.06-.18-.18-.18h-.07v.09c0,.11.05.16.16.18ZM9.22,20.35l.04-.25c0-.12-.06-.18-.18-.18h-.18l.05.42h.26ZM9.57,22.53v-.18h-.09c-.09,0-.15.06-.18.18h.26ZM9.63,8.15h.07v.14h-.07v-.14ZM9.82,22.7l.02-.18h-.18l-.02.18h.18ZM9.84,19.59v.07h.14v-.07h-.14ZM10.19,17.9v.21h.07v-.21h-.07ZM10.68,11.09v.42h.14v-.35l-.14-.07ZM10.68,19.66v.07c.01.09.06.14.14.14,0-.09.09-.14.28-.14v-.07h-.42ZM10.89,18.47v.07h.14v-.07h-.14ZM11.03,9.76v.21h.07v-.21h-.07ZM11.53,11.23v.35c.01.09.06.14.14.14,0-.09.09-.14.28-.14-.09-.12-.14-.23-.14-.35h-.28ZM11.74,10.32v.07h.14v-.07h-.14ZM12.58,18.47s-.02.12-.07.21l.14.07c.09,0,.14-.05.14-.14s-.05-.14-.14-.14h-.07ZM12.51,19.24v.07s.12.02.21.07l.07-.14v-.21h-.07c-.07,0-.14.07-.21.21Z"/>
      <path class="cls-3" d="M17.31,6.86h.07c.09.05.16.07.21.07-.06.23-.13.35-.21.35h-.07v-.07s.02-.07.07-.07l-.07-.14v-.14ZM17.66,6.51c.05.09.07.16.07.21h-.14c0-.09-.07-.14-.21-.14v-.07h.28ZM26.66,20.07c-.18-.04-.33-.05-.46-.05-.11,0-.2.02-.28.07-.08-.05-.18-.07-.28-.07h-.07l-.35.07c-.05-.11-.07-.18-.07-.23-.14.05-.33.07-.56.07-.01-.14-.09-.21-.23-.21l-.05.14s.07.02.07.07l-.14.09h-.14c-.12-.11-.21-.16-.28-.16-.09.05-.16.07-.21.07l.02.3c0,.16-.01.38-.04.65,0,.05.02.07.07.07l-.05.35.07,1.44c0,.12-.02.22-.05.3,0,.05.02.07.07.07l-.05.51.11,1.86s-.02.07-.07.07c.05.11.08.18.09.23l-.07.14s.02.07.07.07l-.04.51.04.93-.05.35c1.1.05,1.99.08,2.67.09v-2.39h2.6v6.01h-.77s-.1.08-.16.12h-1.37v.11h-9.09v-2.65h1.76l-.16-3.01c-.02-.48-.03-1.05-.02-1.72l-.07-.16.11-3.67s-.04-.12-.09-.21c-.02-2.66-.01-5.98.04-9.95h-1.56v-2.67h1.6v-.07l.12-.07c.09,0,.15.02.16.07l.69-.07h.98c.11,0,.21.02.3.07.05,0,.06-.02.05-.07.6.05.91.07.93.07,1.61.02,2.92.04,3.96.05v-.02h2.6v6.01h-2.6v-2.58h-.05c-.11,0-.2.02-.28.07-.08-.05-.18-.07-.28-.07l-.49.07c-.06-.09-.09-.16-.09-.21-.28.09-.46.14-.54.14l-.09-.14s.07-.02.07-.07h-.28l.02.21h-.28l-.23-.14-.62.14.07,1.65-.05.44c.06.08.09.2.11.35h-.07l.07.16v.07s-.02.07-.07.07l.09.14-.05.44c.05.09.08.16.09.21h-.07s.02.07.07.07l-.05.37v.07c.01.14.04.21.09.21l-.05.35.04.88c1.43.05,2.51.07,3.23.07v3.45ZM18.87,8.62c.02.09.08.14.16.14h.07c-.01-.09-.06-.14-.16-.14h-.07ZM19.28,27.11l.14.07-.02-.21c-.09.01-.13.06-.12.14ZM19.47,28.31l.02.14h.14c-.01-.09-.06-.14-.16-.14ZM19.73,23.05v-.14h-.16v.14h.16ZM20.26,16.37c0-.22-.15-.42-.46-.58v-.16c-.11,0-.16.1-.16.3v.14c.08,0,.29.1.62.3ZM19.73,16.51v-.3h-.09v.3h.09ZM19.81,19.13v-.16h-.16v.16h.16ZM19.73,19.87v-.46h-.09v.46h.09ZM19.66,12.84v.14c.09,0,.14-.05.14-.14h-.14ZM20.03,17.09v-.14l-.3-.16c.05.18.07.37.07.58h.07c.11-.02.16-.12.16-.28ZM19.84,12.14v.21h.07v-.21h-.07ZM20.19,21.45c-.01-.2-.06-.3-.16-.3-.11,0-.16.1-.16.3h.32ZM20.03,10.38v.21h.07v-.21h-.07ZM20.19,20.73l.07-.3c-.01-.19-.06-.28-.16-.28,0,.09-.02.23-.07.42l.16.16ZM20.19,23.92v-.28h-.16v.28h.16ZM20.33,21.89v-.16h-.23v.16h.23ZM20.56,24.93v-.42h-.23c0,.09-.02.23-.07.42.05,0,.07.05.07.16.11-.11.18-.16.23-.16ZM21.09,17.38c-.05-.19-.07-.33-.07-.42h-.14v.28l-.46-.28c0,.21-.03.4-.09.58l.16.12h.16v-.28h.14v.16l-.07.28h.16c.07,0,.14-.15.21-.44ZM20.65,19.13c-.02-.2-.08-.3-.16-.3h-.16c0,.2.05.3.16.3h.16ZM20.37,11.5v.07h.14v-.07h-.14ZM21.02,23.49v-.3h-.53c.05.2.07.35.07.44l.46-.14ZM20.49,30.14v.14h.07v-.14h-.07ZM20.56,8.48v.07h.14v-.07h-.14ZM20.72,16.51v-.3h-.16v.3h.16ZM20.72,26.09v-.14h-.16v.14h.16ZM20.95,18.98v-.28c-.11,0-.16.09-.16.28h.16ZM20.91,28.8v.07h.14v-.07h-.14ZM21.25,25.95c-.01-.19-.06-.28-.16-.28h-.07v.58h.07c.11-.02.16-.12.16-.3ZM21.02,28.17v.07h.14v-.07h-.14ZM21.18,19.27v-.3h-.09v.3h.09ZM21.32,23.33v-.14c-.01-.19-.06-.28-.14-.28v.14c0,.19.05.28.14.28ZM21.32,24.93v-.12h-.14v.12h.14ZM21.25,8.27l.02.14h.14l-.02-.14h-.14ZM21.35,10.17v.07c.09,0,.14-.05.14-.14v-.07c-.09.01-.14.06-.14.14ZM21.55,22.33v-.16h-.14v.16h.14ZM21.55,23.49h-.14v.28c.09-.01.14-.11.14-.28ZM21.55,24.65h-.14v.28c.09-.01.14-.11.14-.28ZM21.77,17.24v-.14h-.14v.14h.14ZM21.77,21.01v-.28h-.07v.28h.07ZM21.74,29.86v.07c.09,0,.14-.05.14-.14l-.02-.07c-.09.01-.13.06-.12.14ZM21.93,22.33v-.16h-.16v.16h.16ZM22.16,24.93c-.01-.19-.06-.28-.16-.28h-.07c-.11,0-.16.09-.16.28h.39ZM21.93,25.51v-.14h-.16v.14h.16ZM21.86,9.04v.07h.14v-.07h-.14ZM22.16,18.98c0-.09.02-.14.07-.14-.05-.16-.07-.36-.07-.58-.09.09-.19.14-.3.14,0,.14.1.33.3.58ZM22,20.29v-.14h-.14v.14h.14ZM22.09,20v-.28h-.09v.28h.09ZM22.02,10.94v.07h.14v-.07h-.14ZM22.23,22.47v-.14h-.14v.14h.14ZM22.78,18.55c-.3-.68-.49-1.02-.54-1.02l-.07.28c.14.49.35.74.62.74ZM22.46,17.24v-.14c-.01-.2-.06-.3-.14-.3h-.09v.16c0,.19.05.28.16.28h.07ZM22.39,21.01v-.14h-.16v.14h.16ZM22.23,28.73l.02.14h.07l-.02-.14h-.07ZM22.55,23.33v-.14h-.16v.44c.11-.02.16-.12.16-.3ZM22.41,30.63v.14h.07v-.14h-.07ZM22.42,25.09v.58h.09v-.58h-.09ZM22.85,17.38v-.58h-.07c-.13.39-.23.58-.32.58v.16h.09c.08-.11.18-.16.3-.16ZM22.62,22.75v-.28h-.16v.28h.16ZM22.69,21.45v-.14h-.14v.14h.14ZM22.85,21.89v-.3h-.23v.3h.23ZM23.95,25.51v.3h.07v-.3h-.07ZM24.2,28.73l.02.14c.01.09.06.14.14.14h.07c0-.09.05-.14.14-.14l-.02-.21c-.08.05-.2.07-.35.07ZM24.23,8.97l.02.07c.01.09.06.14.14.14v-.07c-.01-.09-.06-.14-.16-.14ZM24.32,28.38l.02.21h.07c.09,0,.14-.05.14-.14l-.02-.07h-.21ZM24.78,19.52c.02.09.08.14.16.14l.05-.14h-.21ZM25.52,28.38c-.16.38-.29.56-.39.56,0-.09-.05-.14-.14-.14h-.07v.14c.02.09.08.14.16.14h.07c.11,0,.19-.02.26-.07.09.05.19.07.3.07.13-.13.19-.27.18-.42h.42v-.14h-.28s-.07.02-.07.07l-.44-.21ZM24.94,18.25v.07h.14v-.07h-.14ZM25.04,9.54v.07h.14v-.07h-.14ZM25.22,29.22v.07h.14v-.07h-.14ZM26.63,18.25s-.02.12-.07.21l.16.07c.09,0,.13-.05.12-.14,0-.09-.05-.14-.14-.14h-.07ZM26.59,19.03v.07s.12.02.21.07l.07-.14-.02-.21h-.07c-.07,0-.13.07-.19.21ZM26.94,9.54l.02.21h.14v-.07c-.01-.09-.06-.14-.16-.14ZM26.98,10.1l.02.35c.09,0,.13-.05.12-.14v-.21h-.14Z"/>
      <path class="cls-3" d="M36.22,25.25c-.26,1.78-.43,3.01-.51,3.69h.07l-.02.11h.86v2.57h-6.03v-2.57h1.05c.08-.91.17-1.37.26-1.37l-.07-.16v-.28s.02-.07.07-.07c.47-3.8.8-6.12.98-6.96l-.07-.14c.09-.56.16-.91.21-1.05-.05,0-.07-.02-.07-.07,0-.14.05-.29.14-.44h-.07l.21-1.27h-.07l.28-1.78c.27-2.41.49-4.27.65-5.57h-1.12v-2.55h9.53v2.55h-1.21l.04.53-.07.14c.19,1.35.28,2.34.28,2.99v.07l.07.35-.14.07c.16,0,.3,1.35.42,4.04l-.07.14h.14v.14l-.07.14s.07.02.07.07v.07c0,.11-.05.16-.14.16v.28s.07-.02.07-.07c.08,0,.13.05.14.14v.14l-.07.14s.07.02.07.07l-.07.14s.09.16.14.49l-.07.14.14,1.07-.07.28c.09.2.14.34.14.42l-.07.14.35,2.14-.07.14c.08,0,.13.05.14.14l-.07.14h.07c0,.91.09,1.76.28,2.55l-.07.14s.12.47.21,1.42c-.05,0-.07.02-.07.07.02,0,.06.04.11.11h1.18v2.57h-6.03v-2.57h.95c-.05-.3-.09-.69-.14-1.16,0-.08-.09-.83-.28-2.23-.02-.14-.04-.28-.05-.4h-2.46ZM30.79,32h-.14v-.14h.14v.14ZM33.04,27.48v.42h.14v-.42h-.14ZM33.18,30.37v.14h.26v-.14h-.26ZM33.31,28.71v.28h.14v-.28h-.14ZM33.45,25.15v.26h.14v-.26h-.14ZM33.85,26.39v.12h.28v-.12h-.28ZM33.96,23.41h-.07v.14c.14.12.21.23.21.35h.14v-.35c-.07,0-.16-.05-.28-.14ZM34.13,28.71c0,.19-.05.28-.14.28,0,.47.13.7.4.7,0-.16.09-.26.28-.28l-.14-.7h-.4ZM34.94,23.62h-.21l-.14.07-.07-.14c-.07,0-.14.09-.21.28h.21l.14-.07s.14.15.42.37h.14v-.09c-.09-.09-.14-.28-.14-.56-.09,0-.14.05-.14.14ZM34.45,23.33c0,.09.05.14.14.14v-.21l-.14.07ZM34.66,21.07l-.07.49v.35h.21v-.84h-.14ZM34.59,22.63v.07c0,.09.05.14.14.14h.07c-.07-.14-.14-.21-.21-.21ZM34.66,17.38h.14l.14-.07-.07-.14c-.14.07-.21.14-.21.21ZM34.94,15.32h-.07c0,.09-.05.14-.14.14v.21h.28c.08,0,.13-.05.14-.14-.07-.14-.14-.21-.21-.21ZM34.94,24.27v.07h.14v-.07h-.14ZM35.08,21.42v.14h.14v-.14h-.14ZM35.15,22.84h-.07v.42c.08,0,.2.05.35.14h.14c-.22-.38-.36-.56-.42-.56ZM35.22,23.69c0,.09.05.14.14.14h.07v-.07l-.07-.14-.14.07ZM35.29,25.9v.14h.07v-.14h-.07ZM35.5,12.4v.14c.08,0,.13-.05.14-.14h-.14ZM35.5,23.55v.14h.14c0-.08-.05-.13-.14-.14ZM35.71,10.2l-.14.07c0,.09.05.14.14.14h.21c-.05-.09-.07-.16-.07-.21h-.14ZM35.57,18.57c0,.09.05.14.14.14v-.14h-.14ZM35.64,12.26c0,.09.05.14.14.14v-.14h-.14ZM35.85,11.68v.16h.07v-.16h-.07ZM35.92,15.95h-.07c.05.09.07.16.07.21h.28v-.14c-.11,0-.2-.02-.28-.07ZM36.21,17.17v.07h.14v-.07h-.14ZM36.28,9.62v.14h.14c.08,0,.13-.05.14-.14h-.28ZM38.44,22.7c-.05-.32-.09-.89-.12-1.72.05,0,.07-.04.07-.12-.08,0-.18-.87-.28-2.6v-.84c0-.15-.05-.23-.14-.25l.07-.88-.14-.37.07-.25c-.19-1.49-.3-2.89-.35-4.22.05,0,.07-.04.07-.11-.05,0-.09-.29-.14-.86.09-.08.16-.12.21-.12-.12-.34-.21-.51-.28-.51,0,.23-.07.49-.21.76v.12s.12.04.21.12c-.08.18-.15.5-.21.98l.07.25c-.05.69-.07,1.27-.07,1.74v.25l-.14.35v.74c-.09,1.57-.19,2.56-.28,2.97h.07c-.15,1.84-.27,2.91-.35,3.22h.07c-.06.73-.11,1.18-.14,1.35h1.95ZM37.96,15.23v.16h.07v-.16h-.07ZM38.24,10.77v.21h.14v-.21h-.14ZM38.46,9.48v.07h.14v-.07h-.14ZM38.53,9.99h-.07v.07s.12.02.21.07h.07v-.07s-.12-.02-.21-.07ZM38.74,15.6v.07h.14v-.07h-.14ZM39.02,11.47v.14h.07v-.14h-.07ZM39.09,12.12h.14v-.14c-.09,0-.14.05-.14.14ZM39.65,21.21v.14h.14v-.14h-.14ZM39.93,17.01v.09h.21v-.09h-.21ZM40.07,20.86v.21c0,.09.05.14.14.14h.07c-.05-.08-.07-.2-.07-.35h-.14ZM40.14,21.28l-.07.35v.07h.14v-.42h-.07ZM40.56,8.64v.14h.14v-.14h-.14ZM40.71,9.83v.16h.07v-.16h-.07ZM40.71,10.13v.07h.14v-.07h-.14ZM40.92,10.56v.35l.28-.07v-.07c-.07,0-.16-.07-.28-.21ZM40.92,11.77v.14h.14c0-.08-.05-.13-.14-.14ZM40.92,29.59v.14h.14c0-.08-.05-.13-.14-.14ZM40.99,12.4v.21h.07c.08,0,.13-.05.14-.14-.05,0-.12-.02-.21-.07ZM41.06,29.52l.07.14.14-.07-.07-.14-.14.07ZM41.13,13.17v.37h.14c0-.06.02-.13.07-.23-.09,0-.14-.05-.14-.14h-.07ZM41.2,13.9v.07h.14v-.07h-.14ZM41.2,14.67v.14h.14v-.14h-.14ZM41.41,15.02v.07h.14v-.07h-.14ZM41.41,15.39v.07h.14v-.07h-.14ZM41.41,15.6v.07h.14v-.07h-.14ZM41.48,16.23v.14c.07.14.14.21.21.21v-.28s-.12-.02-.21-.07ZM41.55,15.95v.14h.07v-.14h-.07ZM41.55,16.73v.14h.14v-.14h-.14ZM41.55,29.38v.14h.07v-.14h-.07ZM41.55,30.23v.14c.08,0,.13-.05.14-.14h-.14ZM41.62,17.52v.42l.14-.07-.07-.35h-.07ZM41.62,28.73v.07h.14v-.07h-.14Z"/>
      <path class="cls-3" d="M54.63,10.64c.02.5.06.8.11.9l-.07.12c-.01.26,0,.63.02,1.11,0,.05-.03.19-.09.44.16.71.21,1.94.14,3.67l.05.35s-.07.02-.07.07c-.01.09.03.15.12.16,0,.05-.02.07-.07.07l.07.14-.02.42c-.01.28,0,.63.02,1.04-.05.11-.07.18-.07.23l.12.42-.09.16c.01.86.02,1.37.02,1.55,0,.05-.05.07-.14.07l-.02.12c.14,0,.21.08.21.23l-.16.28.14.3-.09.16s.07.02.07.07v.09h-.21v.07c.22.26.32.81.28,1.67-.01.14-.06.29-.16.46,0,.07.04.11.12.12-.04.96-.02,1.82.05,2.57-.06.2-.09.37-.11.51l.07.3s-.07.02-.07.05c.08.18.12.33.11.47v.05c0,.09-.09.14-.28.14v.04h1.51v2.5h-7.51v-2.5h1.56v-.11l-.07-.12s.08-.03.09-.09l-.05-.44.07-.16c-.11,0-.14-1.46-.11-4.38l.09-.16h-.07c.02-.63,0-1.29-.07-1.97.05,0,.07-.02.07-.07-.04-.09-.05-.19-.05-.28.04-.89.02-1.82-.04-2.79l.09-.3c-.05-.08-.09-.64-.14-1.67l.07-.12c-.07-.55-.11-1.19-.12-1.92l.07-.14c0-1.2-.02-1.96-.05-2.29.05,0,.07-.03.07-.09l-.11-.7s.07-.03.07-.09c-.07,0-.11-.17-.12-.51l.02-.04c-.09-.02-.22-.06-.39-.12,0,.05-.03.12-.09.21l-.49-.07c-.11,0-.2.02-.28.07-.08-.05-.18-.07-.28-.07h-.05v2.58h-2.6v-6.01h2.6v.02h.32v-.02h7.51v.02h.32v-.02h2.6v6.01h-2.6v-2.58h-.05c-.11,0-.2.02-.28.07-.08-.05-.18-.07-.28-.07l-.49.07c-.06-.09-.09-.16-.09-.21-.28.09-.46.14-.54.14l-.09-.14s.07-.02.07-.07h-.09ZM48.79,9.75l-.07.14v.07c.09-.05.16-.07.21-.07,0-.09-.05-.14-.14-.14ZM48.79,8.34h.07c.09.01.14.06.14.14v.07h-.07c-.09,0-.14-.05-.14-.14v-.07ZM49.07,9.75v.07l.35.07v-.07c0-.07-.07-.14-.21-.21-.09.01-.14.06-.14.14ZM49.74,16.23v-.25h-.07v.25h.07ZM50.83,16.15h.21v.07c0,.09-.05.14-.14.14l-.07-.14v-.07ZM50.85,19.19v.25h.23v-.25h-.23ZM50.85,22.86v.47h.07c.13-.32.23-.47.32-.47v-.12h-.09c-.08.08-.18.12-.3.12ZM50.92,21.91c.3.55.49.83.54.83l.07-.23c-.14-.4-.35-.6-.62-.6ZM51.01,19.54v.12h.14v-.12h-.14ZM51.04,8.83c.01.09.06.14.14.14l.07-.14h-.21ZM51.08,18.48v.23h.16v-.23h-.16ZM51.15,18.01v.12h.16v-.37c-.11.02-.16.11-.16.25ZM51.27,16.58v-.47h-.09v.47h.09ZM51.23,22.98v.11c.01.16.06.25.14.25h.09v-.12c0-.15-.05-.23-.16-.23h-.07ZM51.25,8.48c.01.09.06.14.14.14v-.14h-.14ZM51.31,19.91v.11h.16v-.11h-.16ZM51.46,18.71v.12h.14v-.12h-.14ZM51.53,21.56c0,.08-.02.12-.07.12.05.13.07.29.07.47.09-.08.19-.12.3-.12,0-.12-.1-.28-.3-.47ZM51.53,16.71c.01.15.06.23.16.23h.07c.11,0,.16-.08.16-.23h-.39ZM51.6,20.73v.23h.09v-.23h-.09ZM51.69,20.49v.12h.14v-.12h-.14ZM51.76,16.23v.12h.16v-.12h-.16ZM51.76,18.83v.12h.16v-.12h-.16ZM51.92,19.91v.23h.07v-.23h-.07ZM51.92,22.98v.11h.14v-.11h-.14ZM52.15,16.94h.14v-.23c-.09.01-.14.09-.14.23ZM52.15,17.89h.14v-.23c-.09.01-.14.09-.14.23ZM52.15,18.83v.12h.14v-.12h-.14ZM52.31,27.75l.14.07v-.21c-.09.01-.14.06-.14.14ZM52.38,16.71v.11h.14v-.11h-.14ZM52.38,18.01v.12c.01.15.06.23.14.23v-.12c0-.15-.05-.23-.14-.23ZM52.45,15.88c.01.15.06.23.16.23h.07v-.47h-.07c-.11.02-.16.11-.16.25ZM52.45,30v.21h.21v-.14s-.12-.02-.21-.07ZM52.52,21.31v.25h.09v-.25h-.09ZM52.52,28.8v.14h.07v-.14h-.07ZM52.59,9.25v.07h.14v-.07h-.14ZM52.59,17.97v.14h.14c0-.09-.05-.14-.14-.14ZM52.59,30.63v.14h.07v-.14h-.07ZM52.61,22.86c.05.15.07.27.07.35h.14v-.23l.46.23c0-.18.03-.33.09-.47l-.16-.11h-.16v.23h-.14v-.12l.07-.23h-.16c-.07,0-.14.12-.21.35ZM52.73,25.71l-.07.28c.09,0,.14-.07.14-.21v-.07h-.07ZM52.68,17.89v.25h.53c-.05-.16-.07-.29-.07-.37l-.46.12ZM52.73,8.62v.07h.14v-.07h-.14ZM52.75,21.56v.23c.11,0,.16-.08.16-.23h-.16ZM52.8,24.51v.21c.14,0,.21.07.21.21h.07v-.35l-.14.07c0-.09-.05-.14-.14-.14ZM52.87,9.4v.14h.07v-.14h-.07ZM52.94,16.71v.07h.21c.09,0,.14-.05.14-.14v-.14h-.07c-.19.07-.28.14-.28.21ZM53.01,30.56l-.07.28c.05.09.07.16.07.21h.14l.07-.28c-.09,0-.14-.07-.14-.21h-.07ZM52.98,15.76v.12h.16v-.12h-.16ZM52.98,23.56v.25h.16v-.25h-.16ZM53.01,25.78v.14h.07v-.14h-.07ZM53.05,21.44c.02.16.08.25.16.25h.16c0-.16-.05-.25-.16-.25h-.16ZM53.13,16.71v.35h.23c0-.08.02-.2.07-.35-.05,0-.07-.04-.07-.12-.11.08-.18.12-.23.12ZM53.15,25.92v.14h.14c0-.09-.05-.14-.14-.14ZM53.15,27.18v.07h.14v-.07h-.14ZM53.22,24.72v.14h.14v-.28c-.09.01-.14.06-.14.14ZM53.36,11.29l-.07.28h.07c.07,0,.14-.07.21-.21l-.14-.07h-.07ZM53.29,22.12v.84h.14c-.05-.25-.07-.53-.07-.84h-.07ZM53.36,19.19v.12h.23v-.12h-.23ZM53.43,13.47v.14c.09,0,.14-.05.14-.14h-.14ZM53.5,20.14l-.07.25c.01.15.06.23.16.23,0-.08.02-.2.07-.35l-.16-.12ZM53.43,23.69c0,.18.15.33.46.47v.12c.11,0,.16-.08.16-.25v-.11c-.08,0-.29-.08-.62-.25ZM53.5,10.1v.14h.07v-.14h-.07ZM53.5,17.53v.23h.16v-.23h-.16ZM53.5,19.54c.01.16.06.25.16.25.11,0,.16-.08.16-.25h-.32ZM53.5,24.65v.14h.07v-.14h-.07ZM53.64,12.77v.21h.07v-.21h-.07ZM53.64,25.85v.14c.01.09.06.14.14.14v-.14c0-.09-.05-.14-.14-.14ZM53.64,26.62v.14c.09,0,.14-.05.14-.14v-.14c-.09.01-.14.06-.14.14ZM53.66,23.09v.12l.3.12c-.05-.14-.07-.3-.07-.47h-.07c-.11.02-.16.1-.16.23ZM53.71,24.79v.07c.01.09.06.14.14.14v-.07c0-.09-.05-.14-.14-.14ZM53.71,25.5v.14h.07v-.14h-.07ZM53.89,21.44v.12h.16v-.12h-.16ZM53.96,18.24v.12h.16v-.12h-.16ZM53.96,20.84v.37h.09v-.37h-.09ZM53.96,23.56v.25h.09v-.25h-.09ZM53.99,9.11v.14c.09,0,.14-.05.14-.14h-.14ZM53.99,11.22v.14h.07v-.14h-.07ZM53.99,18.47v.07h.14v-.07h-.14ZM54.06,17.06v.14h.07v-.14h-.07ZM54.14,17.83v.07h.14v-.07h-.14ZM54.21,12.14v.07h.14v-.07h-.14ZM54.77,19.52v.07c.09,0,.14-.05.14-.14v-.07c-.09.01-.14.06-.14.14ZM55.33,18.4v.14h.07v-.14h-.07ZM55.61,11.29v.14h.07v-.14h-.07ZM56.03,10.45v.14c0,.07.07.14.21.21,0-.15.02-.27.07-.35h-.28ZM56.39,8.97v.07c.01.09.06.14.14.14v-.07c0-.09-.05-.14-.14-.14ZM56.95,10.45l.07.42.42-.07c-.09-.23-.26-.35-.49-.35ZM57.16,9.61h.14v-.14c-.09.01-.14.06-.14.14ZM57.58,10.24v.07h.14v-.07h-.14ZM58,8.9l.14.07h.07c.09,0,.14-.05.14-.14v-.07h-.21c-.09.01-.14.06-.14.14ZM58.07,10.1v.07h.07c.09,0,.14-.05.14-.14v-.07h-.07c-.09.01-.14.06-.14.14ZM58.14,9.61v.07c.01.09.06.14.14.14h.07v-.21h-.21ZM58.99,9.47s-.02.12-.07.21l.14.07c.09,0,.14-.05.14-.14s-.05-.14-.14-.14h-.07ZM58.92,10.24c.09.01.14.06.14.14.09-.05.16-.07.21-.07v-.28h-.14c-.07,0-.14.07-.21.21Z"/>
      <path class="cls-3" d="M59,33.93c.09.01.14.06.14.14v.07c-.09,0-.14-.05-.14-.14v-.07ZM60.46,27.68v.14h-.14c.01-.09.06-.14.14-.14ZM67.81,10.03v-2.6h6.5v2.51h-1.32v.35c0,.21.02.48.07.81l-.14.58c.05.11.07.22.07.35l-.07.63c.09.02.14.09.14.21v.18c0,.13-.05.19-.14.19l.07.44v.09l-.07.56c.05.12.07.21.07.28-.07.25-.15.37-.23.37-.09-.07-.16-.11-.21-.11v.11l.07.18.14-.09c.12,0,.19.21.23.62l-.02.07h.04l.05.44c-.02.07-.04.14-.05.21.01.07.03.15.05.23-.02.05-.04.09-.05.14.01.06.03.11.05.16-.02.08-.04.16-.05.23.01.07.03.14.05.21l-.05.44h-.04l.02.07c-.04.41-.11.62-.23.62l-.14-.09-.07.18v.11s.12-.04.21-.11c.08,0,.16.12.23.37,0,.08-.02.18-.07.28l.07.56v.09l-.07.44c.09,0,.14.06.14.19v.19c0,.11-.05.17-.14.19l.07.63c0,.13-.02.25-.07.35l.14.58c-.05.33-.07.6-.07.81v.18c0,.26.05.66.14,1.21,0,.11-.05.16-.14.18l.07.46-.07.47c.05.12.07.21.07.28,0,.06-.02.09-.07.09-.13,1.22-.35,2.23-.67,3.02l-.81,1.39c-1.17,1.1-2.46,1.65-3.85,1.65-2.02,0-3.45-.61-4.31-1.83-.94-1.04-1.41-2.67-1.41-4.87v-.67l-.14-.26v-.18l.14-.28v-5.17l-.07-.18s.07-.03.07-.09v-3.81c0-.06-.02-.09-.07-.09l.07-.18v-4.68h-1.32v-2.51h6.5v2.6h-.51v.32c0,.07-.02.11-.07.11l.07.18v.47c0,.27.03.53.09.77-.06.23-.09.49-.09.76v.3l.16.28c-.11.02-.16.09-.16.19v.37c0,.07.03.11.09.11l-.09.18v.11c0,.06.03.09.09.09-.11.33-.16.59-.16.77.11.01.16.08.16.19-.06,0-.16.26-.3.77l.07.65v1.05c0,.06-.02.09-.07.09.02.26.09.39.21.39v.19h-.21v.76l.14.28v.11h-.14v.47c0,.06-.03.09-.09.09l.09.19c0,.06-.03.09-.09.09l.09.49v.19c0,.06-.03.09-.09.09.06.09.11.51.16,1.25v1.62h.07l-.07.46c.01.13.06.19.14.19-.05.19-.09.28-.14.28.13.39.3.58.51.58v.11c-.14,0-.31.09-.51.28v.19c0,.12.08.18.23.18v.28h-.23c0,.47.2.79.6.97v.28c-.06,0-.13.03-.23.09,0-.19-.05-.28-.14-.28h-.16c0,.07.02.11.07.11l-.07.18v.19l.16-.09.28.28-.07.21v.09l.37.09v-.09c0-.11-.05-.27-.14-.49l.14-.09c.08,0,.18.13.3.39-.09.02-.14.09-.14.19v.09c.53-.16.9-.48,1.11-.95v-.56c0-.28-.02-.63-.07-1.05l.07-.19c-.05-.42-.07-.77-.07-1.05,0-.41.02-1.04.07-1.9l-.07-.47c.09-.25.14-.5.14-.77v-.19l-.07-.65h.07c0-.06-.02-.09-.07-.09l.07-.49-.07-.19c.05-.32.1-.47.16-.47-.06-.61-.13-1.18-.23-1.71.05-.19.09-.28.14-.28l-.14-3.36.07-.56h-.07l.07-.19c0-.14-.02-.26-.07-.37.05-.36.07-.65.07-.86v-.28l-.07-.58.07-.19-.07-.19.07-.47c-.01-.18-.02-.35-.04-.51h-.72ZM62.13,9.82l.02.21h.07l-.02-.21h-.07ZM62.38,17.41v.07h.21v-.07h-.21ZM62.68,17.76l.28-.02v-.14h-.14c-.09.02-.14.08-.14.16ZM62.75,19.94v.14l.28-.02v-.14l-.28.02ZM62.84,20.5v.07l.28-.02v-.07l-.28.02ZM62.85,21v.07l.14-.02v-.07l-.14.02ZM62.92,19.01v.07h.21v-.07h-.21ZM63.03,17.6v.35l.35-.02.21-.14c.08.05.18.07.28.07,0-.08-.1-.18-.3-.28h-.07s-.05.02-.05.07l-.14-.05h-.28ZM63.08,14.86v.07h.14v-.07h-.14ZM63.17,19.85v.14l.14-.07.14.05c0-.09.07-.14.21-.14l-.02-.07h-.14l-.33.09ZM63.21,23.44h.21v-.14h-.07c-.09.01-.14.06-.14.14ZM63.26,27.31v.14c.09,0,.14-.05.14-.14h-.14ZM63.28,17.04l.02.07c.16-.01.3.03.42.12.11-.09.2-.15.28-.16-.15-.14-.23-.25-.23-.33h-.07c-.28.13-.42.23-.42.3ZM63.36,21.96l.02.07.28-.02-.02-.14h-.07c-.08.05-.15.08-.21.09ZM63.4,14.28h.07c.07,0,.14-.07.21-.21h-.07c-.07,0-.14.07-.21.21ZM64.08,15.46v.07l.21.28.02.35-.7-.05s-.02.07-.07.07c0,.11.26.24.79.4h.07l-.09-.14c0-.09.14-.15.42-.16v-.07l-.28-.28.12-.21c-.11.01-.22-.08-.35-.26h-.14ZM63.56,21.03v.14c.09-.05.16-.07.21-.07l.14.07c.08-.06.18-.09.28-.09l.07.14c.08-.05.18-.08.28-.09v-.14l-.07.02c-.18,0-.39-.02-.63-.05-.08.05-.18.07-.28.07ZM63.7,14.7l.02.35.21-.02v-.14c-.01-.06-.09-.12-.23-.19ZM63.7,19.06v.14c.09,0,.14-.05.14-.14h-.14ZM63.75,22.79c.01.09.06.14.14.14v-.14h-.14ZM63.79,21.74c.02.09.07.14.14.14l.07-.02v-.14l-.21.02ZM63.82,22.58v.07l.35.05.07-.14h-.14s-.07.02-.07.07l-.14-.05h-.07ZM63.87,13.42c.14,0,.21.07.21.21h.28l-.07-.14c.01-.09.06-.15.14-.16h.21l.21.14.21-.16.14.07c.09-.05.16-.07.21-.07.01.09.06.13.14.12h.07c.09,0,.14-.05.14-.14-.36-.18-.65-.26-.86-.25h-.35c-.4.14-.63.26-.69.37ZM64.03,13.98v.07c.11,0,.25.06.42.19l.07-.14c-.19-.08-.33-.12-.42-.12h-.07ZM64.05,16.58v.14c.09,0,.14-.05.14-.14h-.14ZM64.07,19.68l.02.14h.14l-.02-.14h-.14ZM64.12,16.8l.16.42c.08-.05.15-.08.21-.09l-.02-.21c0-.09-.05-.13-.14-.12h-.21ZM64.14,17.57l.02.07h.21l-.02-.07h-.21ZM64.21,21.86h.14v-.14c-.09.01-.14.06-.14.14ZM64.63,17.27c-.15.34-.26.51-.33.51v.07h.07c.14-.06.21-.11.21-.16l.35.07.28-.02v-.07c0-.06-.17-.17-.51-.33,0-.05-.02-.07-.07-.07ZM64.37,22.49l-.05.14c.09,0,.14.07.14.21l.14-.02c0-.14.09-.21.28-.21h.07v-.07c-.2,0-.39-.02-.58-.05ZM64.35,14.97c.01.09.06.13.14.12h.07c0-.09-.05-.14-.14-.14l-.07.02ZM64.44,11.36v.07c.02.09.08.14.16.14h.07l-.02-.07c0-.09-.05-.14-.14-.14h-.07ZM64.45,18.41l.14.05v-.21c-.09.02-.14.08-.14.16ZM64.49,26.15l.21-.02v-.14h-.07c-.09.02-.14.08-.14.16ZM64.61,12.14v.28c.02.09.07.14.14.14.08,0,.15-.12.21-.37-.16.01-.28,0-.35-.05ZM64.73,22.9l-.07.14.02.42h.28l-.07-.14.42-.09-.02-.21h-.21l.02.14-.37-.26ZM64.7,12.7c.01.09.06.14.14.14h.07v-.14h-.21ZM64.81,20.36v.07h.21v-.07h-.21ZM64.96,23.11v.07c0,.09-.05.14-.14.14v-.07c.01-.09.06-.14.14-.14ZM64.84,21.84v.07c.09,0,.3-.1.63-.3v-.07h-.07c-.38.09-.56.19-.56.3ZM65.05,26.06h.07c.09-.01.14-.06.14-.16h-.07c-.09.02-.14.08-.14.16ZM65.14,13.25h.14v.07h-.14v-.07ZM65.14,15.78v.07h.14v-.07h-.14ZM65.17,14.65l.02.21h.07l-.02-.21h-.07ZM65.17,25.34v.14h.07l.14-.07c.01.09.06.14.14.14h.14v-.14c-.07,0-.16-.05-.28-.14-.09.05-.16.07-.21.07ZM65.26,10.57v.07h.14v-.07h-.14ZM65.3,16.06v.14l.28.05c-.05-.08-.07-.15-.07-.19h-.21ZM65.39,8.04v.07l.14-.02v-.07l-.14.02ZM65.56,26.53l-.07.14h.07c.09-.05.16-.08.21-.09v-.07l-.21.02ZM65.53,14.7v.07h.14v-.07h-.14ZM65.6,20.98v.07l.14-.02v-.07l-.14.02ZM65.61,21.61v.07l.14-.02v-.07l-.14.02ZM65.68,21.95l.02.07h.21l-.02-.07h-.21ZM65.68,23.84v.07h.21v-.07h-.21ZM65.74,16.74v.14h.21v-.14h-.21ZM65.74,31.12v.07l.14-.02v-.07l-.14.02ZM65.79,30.63c.02.09.08.13.16.12.09,0,.13-.05.12-.14,0-.09-.05-.14-.14-.14-.09.02-.14.08-.14.16ZM65.84,24.41v.07h.14v-.07h-.14ZM65.86,13.72v.07h.14v-.07h-.14ZM65.88,20.96v.21c.09,0,.14-.05.14-.14v-.07h-.14ZM65.91,26.52c.05.09.07.16.07.21h.14c0-.11.02-.2.07-.28h-.07c-.09.05-.16.07-.21.07ZM66,16.18v.07l.14-.02v-.07l-.14.02ZM66.07,18.22v.14l.07-.02v-.14l-.07.02ZM66.26,12.03h.14v.28c0,.09-.05.14-.14.14v-.42ZM66.28,30.54v.07l.14-.02v-.07l-.14.02ZM66.35,10.42v.07h.14v-.07h-.14ZM66.44,10.98s-.02.12-.07.21h.07c.09,0,.14-.05.14-.14l-.14-.07ZM66.37,11.33c.05.09.08.16.09.21h.07l-.02-.28-.14.07ZM66.42,24.95h.14v.07h-.14v-.07ZM66.62,10.33l.02.07h.21l-.02-.07h-.21ZM66.72,31.09v.07h.14v-.07h-.14ZM66.77,10.61v.07h.21v-.07h-.21ZM66.93,31.02v.07l.21-.02v-.07l-.21.02ZM67.28,31.14l.21-.02c.01.09-.03.15-.12.16h-.07l-.02-.14ZM67.39,14.6c.02.09.07.14.14.14h.07v-.21c-.09.05-.16.07-.21.07ZM67.42,11.01v.07h.14v-.07h-.14ZM67.55,17.13h.21v-.14h-.07c-.09.01-.14.06-.14.14ZM67.71,20.15l.09.14c-.14,0-.21.05-.21.14h.07c.08,0,.24-.15.47-.44h.07v-.07h-.14c-.18.15-.29.23-.35.23ZM67.67,14.46v.07l.14-.02v-.07l-.14.02ZM67.71,17.97v.07l.14-.02v-.07l-.14.02ZM67.83,16.97c-.05.26-.07.4-.07.44l.21-.02.07-.35-.14-.07h-.07ZM68.02,14.23c0,.07-.05.16-.14.28l.28.21.28-.02c-.13-.29-.25-.45-.35-.47h-.07ZM68.27,15.35c0,.12-.05.23-.14.35.05.08.08.18.09.28l-.21-.14c0,.14-.02.21-.07.21.05.09.07.16.07.21l.35-.02c0-.11.06-.25.19-.42v-.14c-.09-.12-.14-.23-.14-.35l-.14.02ZM67.95,16.48c0,.07.07.14.21.21v-.07c0-.09-.05-.14-.14-.14h-.07ZM67.95,18.66v.14h.07v-.14h-.07ZM67.97,30.56v.07l.14-.02v-.07l-.14.02ZM68.07,18.59l.02.07.07.14c-.09.01-.14.06-.14.14h.14v-.14l.14.07c.11-.11.2-.16.28-.16v-.07h-.07c-.09.06-.16.09-.21.09-.01-.09-.06-.14-.16-.14h-.07ZM68.11,15.14v.07h.14v-.07h-.14ZM68.15,11.84l.42-.02-.14-.21s.07-.02.07-.07h-.07c-.08,0-.18.1-.28.3ZM68.25,12.96c.06.08.09.15.09.19h.14c.11-.09.19-.14.26-.14-.09-.12-.14-.21-.14-.28-.06,0-.18.08-.35.23ZM68.25,30.54v.07h.14v-.07h-.14ZM68.41,19.92v.14l.14-.09h.35l-.07.14v.07l.14-.02-.07-.12c.19-.01.28-.11.28-.3-.07,0-.33.06-.77.18ZM68.43,13.93v.07c0,.07.08.14.23.21-.06-.08-.09-.18-.09-.28h-.14ZM68.64,13.65v.07c0,.07.07.14.21.21l.14-.02s-.02-.07-.07-.07l.07-.14v-.07h-.07c-.09.06-.16.09-.21.09,0-.05-.02-.07-.07-.07ZM68.65,16.67c.02.09.07.14.14.14v-.14h-.14ZM68.67,17.02v.07h.14v-.07h-.14ZM68.71,20.33c0,.07.07.14.21.21v-.07c0-.09-.05-.14-.14-.14h-.07ZM68.88,13v.07h.07c.09,0,.14-.05.14-.14v-.07h-.07c-.09.02-.14.07-.14.14ZM68.94,14.26v.14h.14v-.14h-.14ZM68.95,15.18l.02.21h.07c.09,0,.13-.05.12-.14l-.14-.07h-.07ZM68.95,17.08v.07h.14v-.07h-.14ZM68.95,30.24v.14c.09,0,.14-.05.14-.14h-.14ZM69.04,20.17l.02.14c.09,0,.13-.05.12-.14h-.14ZM69.23,12.65c0,.22-.04.39-.12.49h.28c-.01-.09,0-.15.05-.16-.05-.07-.07-.18-.07-.33h-.14ZM69.32,19.75l-.07.14c.05.09.07.16.07.21h.07c.12-.11.21-.16.28-.16v-.14l-.35-.05ZM69.57,12v.21h.14v-.21h-.14ZM69.78,7.92v.07c.2.36.35.54.44.54v-.28l.21-.02-.14.23c.14-.01.22.05.23.19h.14l-.02-.49c-.01-.11-.13-.17-.37-.19l-.14.07-.35-.12ZM70.01,12.82v.07s.12.02.21.07h.07v-.07s-.12-.02-.21-.07h-.07ZM70.04,9.24v.07h.14v-.07h-.14ZM70.06,9.94c.01.09.06.14.14.14h.07c0-.09-.05-.14-.14-.14h-.07ZM70.11,9.38v.14h.07c.09,0,.14-.05.14-.14h-.21ZM70.13,9.8v.07h.14v-.07h-.14ZM70.32,14.09l.02.07h.12v-.07h-.14ZM70.32,20.42v.07h.14v-.07h-.14ZM70.48,14.23c0,.09-.05.14-.14.14v.14l.21-.02c0-.11.02-.2.07-.28l-.14.02ZM70.45,13.46c.01.11,0,.2-.05.28l.21-.02-.02-.28-.14.02ZM70.5,14.72v.14l.07-.02v-.14l-.07.02ZM70.66,9.08h.14l.02.49c0,.09-.05.14-.14.14h-.07v-.14s.02-.07.07-.07l-.07-.14c.05-.08.06-.18.05-.28ZM70.66,10.98h.14v.07c0,.09-.05.14-.14.14v-.21ZM70.98,27.64h.14c0,.09-.05.14-.14.14v-.14ZM71.12,27.36l.21-.02v.14l-.07.02c-.09,0-.14-.05-.14-.14Z"/>
      <path class="cls-3" d="M76.34,12.21l.02-.07h.14v.21c-.11-.01-.16-.06-.16-.14ZM76.35,13.33v-.07l.16.02v.07l-.16-.02ZM76.39,11.36l.02-.14h.07l-.02.14h-.07ZM76.55,8.69v-.07h.07c.11.01.15.06.14.16v.07h-.07c-.11-.02-.15-.08-.14-.16ZM83.28,19.68c.12,0,.22.02.32.07l.16-.09c.08.09.16.14.25.14.04.28.11.42.23.42-.18.27-.33.41-.46.42-.06.01-.11-.08-.16-.26h.09l-.11-.14v-.14l.09-.14c-.06,0-.09-.02-.09-.07l-.16.07h-.16s.02-.07.07-.07c0-.08-.05-.13-.16-.14h-.07c0,.14-.08.22-.25.23v.07c.13.18.23.26.32.26l.16-.07.04.28c-.08,0-.19.05-.33.14,0,.08.11.34.33.77-.06.08-.08.18-.07.28l.09.35h.23c0-.28.11-.43.33-.44l.07.14v.07l-.63.44.16.28.16-.07c0,.13-.05.27-.14.42.11.55.21.97.32,1.25l-.05.14c.08.19.16.28.23.28,0,.05-.02.12-.07.21.12.75.23,1.12.33,1.12l-.07.14v.42c.45,1.23.67,1.93.67,2.09-.05,0-.07.02-.07.07v.28c.04.08.06.16.09.23l-.79-.02v2.51h3.3l.07.04.09-.04h.16l.09.04.05-.04h.3s.02.02.04.02l.05-.02h.26c.06.01.12.02.18.02.04,0,.07,0,.11-.02h1.67v-2.51l-1.02.02v-.11c-.11-.19-.19-.28-.25-.28,0-.05.03-.07.09-.07,0-.02-.08-.19-.25-.49h-.16v.14h-.09c-.01-.43-.09-.8-.25-1.11h.07c0-.15-.11-.57-.33-1.27h.07c-.22-1.08-.39-1.69-.51-1.83h.07c-.54-2.25-.91-3.87-1.12-4.85.16-.01.25-.09.26-.23.18.11.32.16.44.16l.11-.23c-.08-.05-.14-.07-.18-.07v-.3c.2,0,.3-.09.3-.28l.12.07h.18c.01.09.05.14.12.14h.07c0-.09.04-.14.12-.14v-.14h-.07l-.18.14c-.01-.12-.06-.24-.14-.37h.07l.11.07v-.07l-.23-.28.33-.6c.08-.01.12-.06.12-.14-.04-.09-.05-.16-.05-.21.08,0,.14-.26.18-.79h.25c.01-.07.02-.15.04-.23-.06-.54-.11-.81-.16-.81.05-.07.09-.34.12-.81l-.07-.35c.05-.11.06-.18.05-.23l-.07-.14s.02-.07.07-.07c-.05-2.45-.62-4.01-1.71-4.68,0-.23-.19-.35-.56-.35,0-.21-.71-.43-2.13-.67h-.26v-.14h-7.51v2.48h1.56v.11l-.07.12s.08.03.09.09l-.05.42.07.16c-.11,0-.14,1.45-.11,4.34l.09.16h-.07c.02.63,0,1.28-.07,1.95.05,0,.07.02.07.07-.04.09-.05.19-.05.28.04.88.02,1.8-.04,2.78l.09.28c-.05.08-.09.64-.14,1.67l.07.12c-.07.54-.11,1.17-.12,1.9l.07.14c0,1.18-.02,1.93-.05,2.25.05,0,.07.03.07.09l-.11.7s.07.03.07.09c-.07,0-.11.17-.12.51l.09.14s-.07.02-.07.07l.04.74h-1.3v2.46h6.98v-2.46h-.97c.01-.25.03-.4.05-.46-.05,0-.08-.02-.09-.07.02-.62.06-.98.11-1.09l-.07-.12c-.01-.26,0-.62.02-1.09,0-.05-.03-.19-.09-.44.16-.71.21-1.93.14-3.64l.05-.35s-.07-.02-.07-.07c-.01-.09.03-.15.12-.16,0-.05-.02-.07-.07-.07l.07-.14-.02-.42c-.01-.28,0-.62.02-1.02-.05-.11-.07-.18-.07-.23l.12-.42-.02-.02c.19.01.34.02.46.02v.26ZM77.09,11.05c-.05-.14-.09-.21-.14-.21.08-.28.19-.42.32-.42v.07l-.11.35.16.09.14-.07v.21l-.16-.07-.07-.02-.14.07ZM76.99,26.01h.07l.02-.14h-.07l-.02.14ZM77.18,26.36h.07v-.14h-.07v.14ZM77.29,24.67h.07l.02-.14h-.07l-.02.14ZM77.34,26.01c.09-.01.15-.06.16-.14h-.14l-.02.14ZM77.39,25.3h.14v-.14c-.09,0-.14.05-.14.14ZM77.53,9.66v-.07l.16.02v.07l-.16-.02ZM77.69,30.96l.02.14h-.09v-.14h.07ZM77.73,25.51h.07v-.14h-.07v.14ZM77.92,26.78l.09-.14-.14-.07-.09.14.14.07ZM77.83,26.01h.14v-.07h-.14v.07ZM77.9,26.99h.07l.02-.14h-.07l-.02.14ZM78.13,27.91h.14c.01-.22.07-.39.18-.49h-.28l-.16.07c.08.15.12.29.12.42ZM78.16,27.34v-.14h-.14c.01.09.06.14.14.14ZM78.06,24.6h.07l.02-.14h-.07l-.02.14ZM78.2,9.76l.02-.07h.14v.07h-.16ZM78.46,18.94h.07v.35l-.07.14-.21-.14c.04-.23.11-.35.21-.35ZM78.38,28.33l.09-.14-.21-.14v.14c0,.09.04.14.12.14ZM78.25,30.19c.01-.09.06-.14.14-.14l.07.14h-.21ZM78.29,25.51c.09-.01.14-.06.14-.14h-.14v.14ZM78.46,26.08l.07-.14.14.07h.07l.02-.14h-.28c-.09,0-.15.05-.16.14l.14.07ZM78.34,25.8h.07c.09-.01.14-.06.14-.14l.02-.07h-.07c-.09,0-.15.05-.16.14v.07ZM78.53,21.12l.14.07c0,.09-.05.14-.14.14l-.14-.07c0-.08.05-.13.14-.14ZM78.41,24.81h.07v-.14h-.07v.14ZM78.74,9.31l-.07.14v.21l.14.21h-.14c-.08,0-.15-.12-.21-.35.05,0,.07-.07.07-.21h.21ZM78.74,18.45v.07l-.07.14c-.09-.05-.16-.07-.21-.07v-.21l.28.07ZM78.46,30.54c.01-.09.06-.14.14-.14v.14h-.14ZM78.53,26.92h.07c.11-.01.16-.06.16-.14h-.21l-.02.14ZM78.57,26.64c.09-.05.16-.07.21-.07v-.14h-.07c-.09,0-.14.05-.14.14v.07ZM78.59,26.36h.07v-.14h-.07v.14ZM78.74,20.49v.14h-.14v-.14h.14ZM78.6,28.19h.14v-.14c-.09,0-.14.05-.14.14ZM78.74,29.77v.14h-.14v-.14h.14ZM78.71,27.69h.07c.09-.01.14-.06.14-.14v-.07h-.14l.09-.14v-.07h-.07c-.09,0-.14.05-.14.14.04.08.05.18.05.28ZM78.67,27.13h.21v-.14h-.21v.14ZM78.81,27.73h.14v.14s-.12.02-.21.07h-.07v-.07c0-.08.05-.13.14-.14ZM78.81,18.8c.09,0,.14.05.14.14v.28h-.07c0-.08-.05-.2-.14-.35v-.07h.07ZM78.96,24v.14h-.07v-.14h.07ZM79.11,30.75v.21h-.14l-.02-.07c0-.08.05-.13.16-.14ZM78.97,27.83h.21l.02-.14h-.07c-.09,0-.15.05-.16.14ZM79.17,25.62v.28h-.14v-.28h.14ZM79.03,28.12h.14v-.14h-.14v.14ZM79.32,25.87l.07-.14-.14-.07-.07.14.14.07ZM79.22,25.23h.07l.02-.14h-.07l-.02.14ZM79.66,21.12v.07c0,.09-.05.14-.14.14l.14.21c-.23,0-.38-.07-.42-.21v-.07c.09,0,.23-.05.42-.14ZM79.38,23.79c.09,0,.14.05.14.14v.07c-.08-.05-.18-.07-.28-.07,0-.08.05-.13.14-.14ZM79.25,24.81h.14v-.14h-.14v.14ZM79.29,24.18h.14l.02-.14h-.14l-.02.14ZM79.38,9.38v.14h-.07v-.14h.07ZM79.45,20.42h.07c0,.09-.05.14-.14.14h-.07c0-.08.05-.13.14-.14ZM79.45,20.7v.07h-.14v-.07h.14ZM79.5,9.62c.01-.19.04-.28.09-.28-.04-.09-.05-.16-.05-.21h-.14l-.02.35c0,.09.04.14.12.14ZM79.8,24.85l.14.07c-.09.12-.14.23-.14.35h-.35l.07-.14h-.14v-.07c0-.08.05-.13.14-.14h.07v.07l-.07.14h.07c.09,0,.14-.05.14-.14l-.07-.14h.14ZM79.38,30.44l.07.14.21-.14c-.01-.08-.06-.13-.16-.14-.08,0-.12.05-.12.14ZM79.4,8.22h.14v-.21c-.09,0-.14.05-.14.14v.07ZM79.57,30.16h.07c-.01-.08-.06-.13-.16-.14h-.07c.01.09.06.14.16.14ZM79.5,10.61c.01-.07.13-.16.37-.28.09.05.16.07.21.07-.25.21-.38.35-.39.42-.06,0-.12-.07-.19-.21ZM79.73,18.45v.14h-.21v-.14h.21ZM79.66,20.14v.21c-.08,0-.13-.05-.14-.14v-.07h.14ZM79.73,27.31v.07h-.07l-.14-.07.07-.14c.09,0,.14.05.14.14ZM79.54,11.24h.07l.21-.14s.02.07.07.07l.09-.14-.14-.07h-.07c-.07,0-.15.07-.23.21v.07ZM79.68,10.12c.01-.09-.03-.14-.12-.14v-.14c.11.09.2.14.28.14l-.02.14h-.14ZM79.73,23.3h.14c-.05.09-.07.16-.07.21h-.07l-.14-.07c0-.08.05-.13.14-.14ZM79.73,24.42v.07h-.14v-.07h.14ZM79.75,8.15l.02-.21h-.14l-.02.07c.01.09.06.14.14.14ZM79.69,14.05v-.07h.14l-.02.21c-.08-.01-.12-.06-.12-.14ZM79.71,13.7l.02-.14h.14l-.02.28c-.09-.01-.14-.06-.14-.14ZM79.71,14.76l.02-.21h.14l-.02.35c-.09-.01-.14-.06-.14-.14ZM79.73,9.48c.19-.07.28-.14.28-.21l-.12-.07c-.09,0-.15.05-.16.14v.14ZM79.94,8.04v.07h-.14v-.07h.14ZM80.15,21.47v.07h-.35v-.07h.35ZM80.01,25.76c.09,0,.14.05.14.14v.07c-.11,0-.2.02-.28.07,0-.05-.02-.07-.07-.07.05-.09.07-.16.07-.21h.14ZM80.01,21.19c.09,0,.14.05.14.14h-.28c0-.08.05-.13.14-.14ZM80.08,26.53v.07h-.21v-.07h.21ZM80.15,19.71l.07.35h-.14c-.08,0-.13-.05-.14-.14v-.14s.12-.02.21-.07ZM79.94,30.4v-.07h.14v.07h-.14ZM80.29,20.7l-.14.35-.14-.07.07-.35c.09.05.16.07.21.07ZM80.15,8.18v.14h-.07v-.14h.07ZM80.22,23.23h.07v.14h-.21c0-.08.05-.13.14-.14ZM80.13,9.62h.14v.14c-.09-.01-.14-.06-.14-.14ZM80.29,23.72h.07v.21c-.09-.05-.16-.07-.21-.07,0-.08.05-.13.14-.14ZM80.43,24.07v.21l-.14-.07v.14l-.14-.07s.02-.07.07-.07l-.07-.14h.28ZM80.36,22.67v.07h-.14v-.07h.14ZM80.5,19.78v.21c-.14-.07-.21-.14-.21-.21h.21ZM80.43,25.69h.07v.21h-.21v-.07c0-.08.05-.13.14-.14ZM80.57,19.15c0,.09.12.14.35.14v.14c-.07,0-.16.05-.28.14h-.14c0-.07-.05-.16-.14-.28v-.14h.21ZM80.57,20.56h.07c0,.09-.05.14-.14.14h-.07c0-.08.05-.13.14-.14ZM80.64,26.53v.21s-.12.02-.21.07l.07-.28h.14ZM80.78,8.89v.28h-.14l.07-.28h.07ZM80.71,21.89s.02.12.07.21h-.14v-.21h.07ZM80.92,23.86c.14.07.21.14.21.21l-.49-.07v-.14h.28ZM80.99,24.78c.08,0,.15.14.21.42-.12,0-.28-.09-.49-.28v-.07l.14.07v-.14h.14ZM80.92,20.63h.07v.14l.21-.14h.07v.14c-.12.19-.21.28-.28.28h-.07c0-.08-.05-.2-.14-.35l.14-.07ZM80.92,21.47v.07h-.14v-.07h.14ZM80.84,29.61l.02-.21h.07v.21h-.09ZM81.35,7.9c0,.09-.05.14-.14.14v-.14h.14ZM81.24,16.02l.02-.14c.07,0,.16.09.26.28h-.14c-.09-.01-.14-.06-.14-.14ZM81.42,9.8v.14h-.07v-.14h.07ZM81.63,21.61v.07c-.08-.05-.18-.07-.28-.07v-.07l.07-.14c.14.07.21.14.21.21ZM81.47,19.96l.02-.14h.21l-.02.14h-.21ZM81.52,17.29v-.21h.14v.21h-.14ZM81.56,16.83l.02-.28h.07l-.02.28h-.07ZM81.66,16.34l.02-.35c.09.01.14.06.14.16-.06.08-.09.15-.09.19h-.07ZM81.77,15.64l.02-.14.07.02v.14l-.09-.02ZM81.82,14.81v-.14h.09l-.02.14h-.07ZM81.84,12.58v-.14h.07v.14h-.07ZM81.84,14.93v-.14l.35-.07-.14.21s.07.02.07.07h-.07c-.09-.05-.16-.07-.21-.07ZM81.91,11.14v-.07h.14v.07h-.14ZM81.91,16.34c.05-.07.07-.21.07-.42h.14c0,.09.02.14.07.14-.05.08-.07.18-.07.28h-.21ZM81.91,17.11v-.21h.07s.02.12.07.21h-.14ZM81.91,17.39v-.21h.07v.21h-.07ZM81.91,17.89v-.35h.07c0,.14.05.21.14.21v.14l-.14-.07s-.02.07-.07.07ZM82.05,18.13l.02.28c-.07,0-.12-.05-.14-.14-.01-.08.03-.13.12-.14ZM81.98,11.35l.14-.07s.02.12.07.21h-.07c-.09-.01-.14-.06-.14-.14ZM81.98,12.75v-.07h.14v.07h-.14ZM81.98,13.25l.07-.14-.07-.14h.14s.02.12.07.21l-.14.07h-.07ZM81.98,15.71l.07-.14s-.07-.02-.07-.07c.05,0,.07-.02.07-.07-.05,0-.07-.02-.07-.07h.14l.14.07c.01-.09.06-.14.14-.14l.07.14c-.23,0-.35.09-.35.28h-.14ZM82.05,10.01v-.35c.15,0,.27-.02.35-.07v.14c-.14,0-.21.05-.21.14.05.08.07.18.07.28h-.07c-.09-.01-.14-.06-.14-.14ZM82.12,12.33s-.02-.12-.07-.21l.14-.07.07.14c0,.09-.05.14-.14.14ZM82.05,12.54v-.14h.21v.14h-.21ZM82.05,17.46v-.14c.09,0,.14-.02.14-.07.09.05.16.07.21.07v.07c-.15,0-.27.02-.35.07ZM82.05,18.17l.14-.07h.14v.28h-.07c-.07,0-.14-.07-.21-.21ZM82.05,19.29h.21c0-.09-.05-.14-.14-.14l-.07.14ZM82.21,7.87v.07h-.14v-.07h.14ZM82.23,19.68l-.05.28h-.07l-.02-.28h.14ZM82.12,13.46v-.07c.01-.09.06-.14.14-.14h.07v.07c0,.09-.05.14-.14.14h-.07ZM82.26,16.76v-.07l.07-.14h-.21c.02-.09.14-.19.35-.28v.07l-.14.21c.09.05.16.07.21.07v.07l-.28.07ZM82.26,14.72s-.02-.12-.07-.21v-.07h.07s.02.12.07.21v.07h-.07ZM82.19,17.89c.01-.09.06-.14.14-.14h.07v.14h-.21ZM82.26,10.43c.01-.09.06-.14.14-.14v.14h-.14ZM82.26,15v-.07h.14v.07h-.14ZM82.33,12.75v-.14c.09,0,.14.05.14.14h-.14ZM82.33,12.89v-.07h.14v.07h-.14ZM82.33,17.6v-.14h.07v.14h-.07ZM82.47,10.22l-.07-.14h.21c0,.09-.05.14-.14.14ZM82.68,9.94c.09-.19.14-.33.14-.42.09,0,.14.05.14.14-.05,0-.07.02-.07.07.05,0,.07.02.07.07l.14-.07h.21l-.07.14s.07.02.07.07c-.14,0-.21.02-.21.07-.07-.05-.21-.07-.42-.07ZM84.18,16.74h-1.44c.11-.34.15-.86.12-1.55-.01-.14-.06-.3-.16-.49,0-.08.04-.13.12-.14-.04-1.08-.02-2.03.05-2.87-.06-.22-.09-.41-.11-.56l.04-.19h1.25v-.39c.21.05.42.32.62.81v4.82c-.16.38-.33.56-.49.56ZM82.96,8.53v-.14h.14c0,.09.02.14.07.14.09-.05.16-.07.21-.07l.28.35h-.35c-.16-.19-.28-.28-.35-.28ZM83.03,8.96v-.07h.14c.09.05.16.07.21.07l-.07.14c.09,0,.14.05.14.14v.07h-.07c-.14-.23-.26-.35-.35-.35ZM83.24,20.24l.04.28h-.14l-.02-.14c0-.08.04-.13.12-.14ZM83.39,8.04v-.07h.28l.07.14v.07c-.12-.09-.23-.14-.35-.14ZM84.05,23.44l.14.07-.07.14c-.08,0-.13-.05-.14-.14v-.07h.07ZM84.28,23.56l.11.35v.07l-.32-.12c.05-.09.07-.19.07-.3h.14ZM84.23,17.43v.07h-.14v-.07h.14ZM84.26,23.21l.02.28h-.14l-.02-.28h.14ZM84.28,22.49c.01.09-.03.14-.12.14l-.02-.14h.14ZM84.37,10.1l.28.35-.42.07c0-.15-.02-.27-.07-.35.05,0,.12-.02.21-.07ZM84.3,22.7v.07h-.14v-.07h.14ZM84.39,24.06c.01.19.07.35.18.47-.09.01-.14.09-.14.23-.09-.05-.17-.07-.23-.07v-.14l.05-.49h.14ZM84.44,24.83l.07-.02.11.49s-.02.12-.07.21c-.08.01-.19-.15-.33-.47.07-.14.15-.21.23-.21ZM84.63,25.66v.14c.01.09-.04.15-.14.16-.08,0-.13-.05-.16-.14l-.02-.21.32.05ZM84.72,26.08s-.01.07-.07.07c.01.09.06.14.16.14-.05.07-.06.21-.05.42-.13-.09-.23-.13-.3-.12l.07-.14-.02-.14h-.14l-.02-.28c.08.05.21.06.37.05ZM84.51,9.11v.14h-.14c0-.08.05-.13.14-.14ZM84.6,21.01h.07l.02.14-.05.14c-.15-.07-.23-.14-.23-.21.05,0,.11-.02.19-.07ZM84.53,26.66l.02.14h-.07l-.02-.14h.07ZM84.62,26.92l.02.14c0,.09-.05.15-.14.16l-.02-.14c0-.08.05-.13.14-.16ZM84.65,20.15h.14v-.14c-.08,0-.13.05-.14.14ZM84.74,27.62l.16.07c-.05.08-.07.18-.07.28h-.14l-.02-.35h.07ZM84.86,27.13c0,.09-.05.14-.14.14l-.02-.14h.16ZM84.93,28.4l-.12.63h-.07l-.04-.56.07-.14.16.07ZM84.91,28.12v.07h-.14v-.07h.14ZM85,29.72l.02.35-.14.02.05-.35.07-.02ZM85.02,30.14l.02.07-.16.02v-.07l.14-.02ZM84.9,13.49h.14v-.07h-.14v.07ZM84.97,30.51l.02.14h-.07l-.02-.14h.07ZM85,17.62h-.07v.14h.07v-.14ZM85.35,9.11h.21v.07c0,.09-.05.14-.14.14h-.07l-.14-.07c0-.08.05-.13.14-.14ZM85.42,10.31h.07v.07c0,.09-.05.14-.14.14h-.07v-.07c0-.08.05-.13.14-.14ZM85.56,9.96v.21h-.07c-.08,0-.13-.05-.14-.14v-.07h.21ZM85.35,13.77h.07c.09,0,.13-.05.12-.14v-.07h-.14s-.02.12-.05.21ZM85.58,15.09c-.04.07-.05.12-.05.16h-.11v-.25h.05c.07,0,.11.03.11.09ZM85.49,29.21l.02.14h-.07l-.02-.14h.07ZM85.51,12.16h.14v-.14h-.14v.14ZM85.53,28.57v-.14c0-.07.07-.14.21-.21,0,.15.02.27.07.35h-.28ZM85.55,12.58h.14v-.07h-.14v.07ZM85.58,13.21h.07v-.14h-.07v.14ZM85.6,23.65h.07v-.14h-.07v.14ZM85.64,11.73c0,.09.05.14.14.14l-.02-.21h-.14l.02.07ZM85.74,15.44v.11h-.11v-.11h.11ZM85.79,15.79c0,.14.05.21.16.21-.04.04-.05.13-.05.3h.05v.11h-.05c-.08-.07-.15-.11-.21-.11v-.11l.11-.14s-.1-.05-.16-.16v-.11h.16ZM85.67,11.38h.14c0-.08-.05-.13-.14-.14v.14ZM86,14.79c0,.06.04.13.11.21-.18,0-.26.03-.26.09h.05c-.04.07-.05.12-.05.16h-.05c-.07,0-.11-.04-.11-.11.04-.06.05-.12.05-.19-.04,0-.05-.02-.05-.05.09,0,.18-.04.26-.11h.05ZM85.85,16.44v.11h-.05c-.07,0-.11-.04-.11-.11v-.04c.07.02.12.04.16.04ZM85.85,13.65l.05.09v.11h-.05c-.07,0-.11-.04-.11-.11,0-.06.04-.09.11-.09ZM86.06,31.16c.11-.01.16.03.16.12h-.07c-.08.01-.13-.03-.16-.12h.07ZM86.53,14.9v.25c.07.08.11.18.11.3.11,0,.26-.06.47-.19,0,.04.02.05.05.05-.08.23-.15.35-.21.35h-.16c0-.11-.05-.16-.16-.16-.04.07-.05.12-.05.16h-.11c-.01-.43-.1-.65-.26-.65v-.11l.11.05v-.11c-.08-.16-.13-.25-.16-.25-.07.04-.12.05-.16.05.21-.22.32-.36.32-.4h.05c.11,0,.16.22.16.65ZM86.22,16.55v.05h-.11v-.05h.11ZM86.32,18.2l-.05.25s-.1-.05-.16-.14l.16-.11h.05ZM86.44,29.93c0,.09-.05.15-.14.16-.08,0-.13-.05-.16-.14l.3-.02ZM86.34,9.96v.07h-.14v-.21c.09,0,.14.05.14.14ZM86.48,13.54v.16s-.02.04-.05.04l.05.11v.05h-.16s-.02-.09-.05-.16h.11v-.09l-.11.05-.05-.11.11-.05.11.05s.02-.05.05-.05ZM86.32,14.49c-.07.01-.11.05-.11.11h.11v-.11ZM86.37,16.15c0,.08.02.15.05.21-.04.06-.05.12-.05.19h-.05c-.07,0-.11-.04-.11-.11.04-.06.05-.11.05-.14h-.05c.04-.07.05-.12.05-.16h.11ZM86.37,15.85v.11h-.11v-.11h.11ZM86.48,18.06v.04c-.07,0-.11-.03-.11-.09v-.05c.07.01.11.05.11.11ZM86.85,15.74c0,.07.05.11.16.11l-.05.21c0,.14.05.29.16.44v.05l-.16-.11h-.05l-.11.05c-.13-.16-.23-.25-.32-.25v-.11c.18,0,.26-.03.26-.09v-.05h-.05l-.11.05-.05-.11v-.16s.13-.02.32-.05ZM86.69,19.71l.05.09c0,.06-.07.11-.21.16l-.05-.11v-.05c.06,0,.13-.03.21-.09ZM86.69,13.6v.11h-.11v-.11h.11ZM87.8,14.74v.11h-.21l-.05.25-.11-.04h-.26l-.16.09-.16-.09h-.05v.09c-.06-.04-.13-.05-.21-.05,0-.08.09-.16.26-.25,0,.07.05.11.16.11.27-.14.45-.21.53-.21l-.05-.09v-.3c.07,0,.12.13.16.39h.16ZM86.95,13.65c.11.27.16.42.16.44h-.05s-.09-.01-.16-.04h-.16c0-.08-.02-.15-.05-.21.07,0,.11-.06.11-.19h.16ZM86.88,27.24l.02.28c-.08,0-.13-.05-.16-.14,0-.07.05-.12.14-.14ZM86.9,16.85c-.04.07-.05.12-.05.16h-.05v-.16h.11ZM87.04,31.17v.07l-.23.02v-.07l.23-.02ZM87.06,16.6v.11c-.01.06-.05.09-.11.09h-.11v-.05c.04-.06.05-.11.05-.14h.16ZM87.11,16.85v.16h-.05c-.07,0-.11-.04-.11-.11v-.05h.16ZM87.32,25.6c.13.08.23.12.3.12l-.12.21c-.25.18-.36.32-.35.44l-.16.02c.19-.27.28-.53.26-.79h.07ZM87.2,30.17h.07s0,.12-.05.21l.09.14-.23.16h-.07v-.07c-.01-.23.05-.38.19-.44ZM87.27,23.21v.14l-.05.35h-.16l.05-.49h.16ZM87.25,8.9h.07v.14h-.21c0-.08.05-.13.14-.14ZM87.43,27.57v.05c.01.09-.04.15-.14.16h-.07c.05-.09.07-.16.07-.21h.14ZM87.64,15.25s.04.11.11.19v.35c.09,0,.16.07.21.21h.05c-.01.06-.05.09-.11.09v-.09h-.05s-.05.02-.05.05c-.16-.06-.3-.16-.42-.32h.11v-.04l-.21-.21c.21,0,.32-.08.32-.25h.05ZM87.53,16.25l.05.11c-.07,0-.11.08-.11.25h-.16l-.05-.19.26-.16ZM87.34,27.22c.09-.01.15.03.16.12l-.07.02c-.09,0-.15-.05-.16-.14h.07ZM87.69,28.26v.07c-.07.14-.14.21-.21.21l-.14-.05c.04-.09.05-.16.05-.21l.3-.02ZM87.46,29.54l.02.14h-.09v-.14h.07ZM87.48,15.2v.16h-.05v-.16h.05ZM87.64,16.71v.14h-.16c.04-.06.05-.14.05-.25.07.01.11.05.11.11ZM87.62,31.07l.02.07-.16.02v-.07l.14-.02ZM87.76,29.52l.02.14c-.08,0-.13-.05-.16-.14h.14ZM88.01,14.9c-.04.06-.05.14-.05.25-.14-.05-.21-.09-.21-.14v-.05l.26-.05ZM87.9,16.36v.05h-.11v-.05h.11ZM88.01,25.92l.02.07h-.16v-.07h.14ZM88.11,27.68s.03.11.09.19l-.3.02-.02-.14c.06,0,.13-.02.23-.07ZM88.06,16.41v.04c-.04.07-.05.12-.05.16l-.11-.05c.04-.07.05-.12.05-.14h.11ZM88.17,27.17l-.23.02-.02-.21c.15.07.23.13.25.19ZM88.22,29.56v.07l-.23.02v-.07l.23-.02ZM88.25,27.38v.07l-.23.02v-.07l.23-.02ZM88.15,29.72l.02.14h-.09v-.14h.07ZM88.1,30.44h.07v-.14h-.07v.14ZM88.36,26.75l.02.21h-.16c.05-.09.07-.16.07-.21h.07ZM88.69,30.03l.02.42c.01.07-.08.15-.28.23-.05,0-.1-.07-.16-.21.21-.29.35-.44.42-.44ZM88.48,11.63l.05-.14v.14h-.05Z"/>
      <path class="cls-3" d="M92.14,6.86h.07c.09.05.16.07.21.07-.06.23-.13.35-.21.35h-.07v-.07s.02-.07.07-.07l-.07-.14v-.14ZM92.49,6.51c.05.09.07.16.07.21h-.14c0-.09-.07-.14-.21-.14v-.07h.28ZM101.49,20.07c-.18-.04-.33-.05-.46-.05-.11,0-.2.02-.28.07-.08-.05-.18-.07-.28-.07h-.07l-.35.07c-.05-.11-.07-.18-.07-.23-.14.05-.33.07-.56.07-.01-.14-.09-.21-.23-.21l-.05.14s.07.02.07.07l-.14.09h-.14c-.12-.11-.21-.16-.28-.16-.09.05-.16.07-.21.07l.02.3c0,.16-.01.38-.04.65,0,.05.02.07.07.07l-.05.35.07,1.44c0,.12-.02.22-.05.3,0,.05.02.07.07.07l-.05.51.11,1.86s-.02.07-.07.07c.05.11.08.18.09.23l-.07.14s.02.07.07.07l-.04.51.04.93-.05.35c1.1.05,1.99.08,2.67.09v-2.39h2.6v6.01h-.77s-.1.08-.16.12h-1.37v.11h-9.09v-2.65h1.76l-.16-3.01c-.02-.48-.03-1.05-.02-1.72l-.07-.16.11-3.67s-.04-.12-.09-.21c-.02-2.66-.01-5.98.04-9.95h-1.56v-2.67h1.6v-.07l.12-.07c.09,0,.15.02.16.07l.69-.07h.98c.11,0,.21.02.3.07.05,0,.06-.02.05-.07.6.05.91.07.93.07,1.61.02,2.92.04,3.96.05v-.02h2.6v6.01h-2.6v-2.58h-.05c-.11,0-.2.02-.28.07-.08-.05-.18-.07-.28-.07l-.49.07c-.06-.09-.09-.16-.09-.21-.28.09-.46.14-.54.14l-.09-.14s.07-.02.07-.07h-.28l.02.21h-.28l-.23-.14-.62.14.07,1.65-.05.44c.06.08.09.2.11.35h-.07l.07.16v.07s-.02.07-.07.07l.09.14-.05.44c.05.09.08.16.09.21h-.07s.02.07.07.07l-.05.37v.07c.01.14.04.21.09.21l-.05.35.04.88c1.43.05,2.51.07,3.23.07v3.45ZM93.7,8.62c.02.09.08.14.16.14h.07c-.01-.09-.06-.14-.16-.14h-.07ZM94.11,27.11l.14.07-.02-.21c-.09.01-.13.06-.12.14ZM94.3,28.31l.02.14h.14c-.01-.09-.06-.14-.16-.14ZM94.56,23.05v-.14h-.16v.14h.16ZM95.09,16.37c0-.22-.15-.42-.46-.58v-.16c-.11,0-.16.1-.16.3v.14c.08,0,.29.1.62.3ZM94.56,16.51v-.3h-.09v.3h.09ZM94.64,19.13v-.16h-.16v.16h.16ZM94.56,19.87v-.46h-.09v.46h.09ZM94.49,12.84v.14c.09,0,.14-.05.14-.14h-.14ZM94.86,17.09v-.14l-.3-.16c.05.18.07.37.07.58h.07c.11-.02.16-.12.16-.28ZM94.67,12.14v.21h.07v-.21h-.07ZM95.02,21.45c-.01-.2-.06-.3-.16-.3-.11,0-.16.1-.16.3h.32ZM94.86,10.38v.21h.07v-.21h-.07ZM95.02,20.73l.07-.3c-.01-.19-.06-.28-.16-.28,0,.09-.02.23-.07.42l.16.16ZM95.02,23.92v-.28h-.16v.28h.16ZM95.16,21.89v-.16h-.23v.16h.23ZM95.39,24.93v-.42h-.23c0,.09-.02.23-.07.42.05,0,.07.05.07.16.11-.11.18-.16.23-.16ZM95.92,17.38c-.05-.19-.07-.33-.07-.42h-.14v.28l-.46-.28c0,.21-.03.4-.09.58l.16.12h.16v-.28h.14v.16l-.07.28h.16c.07,0,.14-.15.21-.44ZM95.48,19.13c-.02-.2-.08-.3-.16-.3h-.16c0,.2.05.3.16.3h.16ZM95.2,11.5v.07h.14v-.07h-.14ZM95.85,23.49v-.3h-.53c.05.2.07.35.07.44l.46-.14ZM95.32,30.14v.14h.07v-.14h-.07ZM95.39,8.48v.07h.14v-.07h-.14ZM95.55,16.51v-.3h-.16v.3h.16ZM95.55,26.09v-.14h-.16v.14h.16ZM95.78,18.98v-.28c-.11,0-.16.09-.16.28h.16ZM95.74,28.8v.07h.14v-.07h-.14ZM96.08,25.95c-.01-.19-.06-.28-.16-.28h-.07v.58h.07c.11-.02.16-.12.16-.3ZM95.85,28.17v.07h.14v-.07h-.14ZM96.01,19.27v-.3h-.09v.3h.09ZM96.15,23.33v-.14c-.01-.19-.06-.28-.14-.28v.14c0,.19.05.28.14.28ZM96.15,24.93v-.12h-.14v.12h.14ZM96.08,8.27l.02.14h.14l-.02-.14h-.14ZM96.18,10.17v.07c.09,0,.14-.05.14-.14v-.07c-.09.01-.14.06-.14.14ZM96.38,22.33v-.16h-.14v.16h.14ZM96.38,23.49h-.14v.28c.09-.01.14-.11.14-.28ZM96.38,24.65h-.14v.28c.09-.01.14-.11.14-.28ZM96.6,17.24v-.14h-.14v.14h.14ZM96.6,21.01v-.28h-.07v.28h.07ZM96.57,29.86v.07c.09,0,.14-.05.14-.14l-.02-.07c-.09.01-.13.06-.12.14ZM96.76,22.33v-.16h-.16v.16h.16ZM96.99,24.93c-.01-.19-.06-.28-.16-.28h-.07c-.11,0-.16.09-.16.28h.39ZM96.76,25.51v-.14h-.16v.14h.16ZM96.69,9.04v.07h.14v-.07h-.14ZM96.99,18.98c0-.09.02-.14.07-.14-.05-.16-.07-.36-.07-.58-.09.09-.19.14-.3.14,0,.14.1.33.3.58ZM96.83,20.29v-.14h-.14v.14h.14ZM96.92,20v-.28h-.09v.28h.09ZM96.85,10.94v.07h.14v-.07h-.14ZM97.06,22.47v-.14h-.14v.14h.14ZM97.61,18.55c-.3-.68-.49-1.02-.54-1.02l-.07.28c.14.49.35.74.62.74ZM97.29,17.24v-.14c-.01-.2-.06-.3-.14-.3h-.09v.16c0,.19.05.28.16.28h.07ZM97.22,21.01v-.14h-.16v.14h.16ZM97.06,28.73l.02.14h.07l-.02-.14h-.07ZM97.38,23.33v-.14h-.16v.44c.11-.02.16-.12.16-.3ZM97.24,30.63v.14h.07v-.14h-.07ZM97.25,25.09v.58h.09v-.58h-.09ZM97.68,17.38v-.58h-.07c-.13.39-.23.58-.32.58v.16h.09c.08-.11.18-.16.3-.16ZM97.45,22.75v-.28h-.16v.28h.16ZM97.52,21.45v-.14h-.14v.14h.14ZM97.68,21.89v-.3h-.23v.3h.23ZM98.78,25.51v.3h.07v-.3h-.07ZM99.03,28.73l.02.14c.01.09.06.14.14.14h.07c0-.09.05-.14.14-.14l-.02-.21c-.08.05-.2.07-.35.07ZM99.06,8.97l.02.07c.01.09.06.14.14.14v-.07c-.01-.09-.06-.14-.16-.14ZM99.15,28.38l.02.21h.07c.09,0,.14-.05.14-.14l-.02-.07h-.21ZM99.61,19.52c.02.09.08.14.16.14l.05-.14h-.21ZM100.35,28.38c-.16.38-.29.56-.39.56,0-.09-.05-.14-.14-.14h-.07v.14c.02.09.08.14.16.14h.07c.11,0,.19-.02.26-.07.09.05.19.07.3.07.13-.13.19-.27.18-.42h.42v-.14h-.28s-.07.02-.07.07l-.44-.21ZM99.77,18.25v.07h.14v-.07h-.14ZM99.87,9.54v.07h.14v-.07h-.14ZM100.05,29.22v.07h.14v-.07h-.14ZM101.46,18.25s-.02.12-.07.21l.16.07c.09,0,.13-.05.12-.14,0-.09-.05-.14-.14-.14h-.07ZM101.42,19.03v.07s.12.02.21.07l.07-.14-.02-.21h-.07c-.07,0-.13.07-.19.21ZM101.77,9.54l.02.21h.14v-.07c-.01-.09-.06-.14-.16-.14ZM101.81,10.1l.02.35c.09,0,.13-.05.12-.14v-.21h-.14Z"/>
      <path class="cls-3" d="M116.91,27.31h.05c-.05.27-.11.47-.19.6-.08.32-.19.63-.32.95v.09c-.05.08-.09.15-.12.21-.08.19-.17.37-.26.54-.06.06-.12.1-.19.12-.04.14-.08.21-.12.21l-.04-.02.02.05c-.12.13-.24.25-.37.35l-.04.05v.09l.14-.09h.07v.16h-.14c-.35,0-.8.32-1.34.95-.71.25-1.23.37-1.55.37h-.84c-.43,0-.86-.1-1.27-.3l.14-.23-.14-.05c-.29.11-.64,0-1.04-.3v.7h-2.95v-3.41s-.02-.05-.02-.07v-.09l.02-.04v-.12c-.06-.02-.09-.06-.09-.12v-.16c0-.15.02-.23.07-.23l-.07-.35v-.6c0-.16.02-.39.07-.67l-.14-.42c.05-.32.1-.57.16-.76v-.16h.05c.05-.11.09-.16.14-.18h.56c.15,0,.27.02.35.07l.42-.07h.42c.12.08.21.12.28.12.25,0,.71-.02,1.41-.05.23.16.35.4.35.72v.3c0,.15-.02.23-.07.23l.07.35v.97c0,.11-.02.2-.07.28.05.08.07.18.07.3v.74c0,.16.14.4.42.72-.01.11-.06.16-.14.16l-.07-.3h-.07c-.16.2-.33.3-.49.3,0-.06-.02-.09-.07-.09v.09s.02.07.07.07l-.07.14c0,.11.05.16.14.16h.35v.21c0,.08-.07.15-.21.21h-.21c-.09,0-.14-.04-.14-.12h.14v-.16h-.21c0,.11-.02.16-.07.16.09.14.14.26.14.35h.14c.33,0,.49-.08.49-.23h.35v.07l-.07.16s.12.02.21.07v-.42h.14c0-.07-.12-.17-.35-.3,0,.2-.05.3-.14.3l-.07-.16v-.07c0-.09.05-.14.14-.14h.35c.09,0,.14.09.14.28h.14l-.07-.51.14-.07h.07s-.02.07-.07.07c.05.09.07.17.07.23h.19v-.26l-.05-.12h.05v-.32l.21-.02c.3-.01.52-.12.63-.32.05-.12.08-.25.11-.39v-.18s.02,0,.04-.02c.01-.07.02-.15.02-.23v-.39h.11c.02-.27.04-.62.05-1.05l-.02-.56s.02-.07.07-.07c-.06-.09-.09-.16-.09-.21s.02-.07.07-.07c-.05-1.24-.75-2.34-2.11-3.3,0-.08-.27-.35-.81-.81-.01-.3-.67-1.07-1.99-2.3-.89-1-1.42-1.89-1.6-2.67h.07c-.09-.16-.21-.59-.33-1.27h.07c-.11-.35-.17-.79-.19-1.32.02-.43.08-.65.18-.65l-.07-.14-.02-.28c0-.09.09-.14.28-.14l-.02-.28h-.21c.2-.66.4-1.22.6-1.69v-.02c.33-.73.65-1.21.97-1.46.05-.05.1-.09.16-.14l-.14.09h-.07v-.16h.14c.06,0,.12,0,.18-.02.29-.25.57-.44.84-.58.11-.11.21-.22.32-.35.71-.25,1.23-.37,1.55-.37h.84c.43,0,.86.1,1.27.3l-.14.23.14.05c.29-.11.64,0,1.04.3v-.7h2.95v3.41s.02.05.02.07v.09l-.02.04v.12c.06.02.09.06.09.12v.16c0,.15-.02.23-.07.23l.07.35v.6c0,.16-.02.39-.07.67l.14.42c-.05.32-.1.57-.16.76v.16h-.05c-.05.11-.09.16-.14.18h-.56c-.15,0-.27-.02-.35-.07l-.42.07h-.42c-.12-.08-.21-.12-.28-.12-.25,0-.71.02-1.41.05-.23-.16-.35-.4-.35-.72v-.3c0-.15.02-.23.07-.23l-.07-.35v-.97c0-.11.02-.2.07-.28-.05-.08-.07-.18-.07-.3v-.74c0-.16-.14-.4-.42-.72.01-.11.06-.16.14-.16l.07.3h.07c.16-.2.33-.3.49-.3,0,.06.02.09.07.09v-.09s-.02-.07-.07-.07l.07-.14c0-.11-.05-.16-.14-.16h-.35v-.21c0-.08.07-.15.21-.21h.21c.09,0,.14.04.14.12h-.14v.16h.21c0-.11.02-.16.07-.16-.09-.14-.14-.26-.14-.35h-.14c-.33,0-.49.08-.49.23h-.35v-.07l.07-.16s-.12-.02-.21-.07v.42h-.14c0,.07.12.17.35.3,0-.2.05-.3.14-.3l.07.16v.07c0,.09-.05.14-.14.14h-.35c-.09,0-.14-.09-.14-.28h-.14l.07.51-.14.07h-.07s.02-.07.07-.07c-.05-.09-.07-.17-.07-.23h-.04v.77s-.09-.04-.12-.05c-.36.02-.65.12-.86.3-.09.21-.15.49-.18.83v.39h-.3c-.02.55-.01,1.45.04,2.71.04.81.9,1.99,2.6,3.53,1.93,1.68,2.94,2.76,3.02,3.25.15,0,.29.3.4.91.18.43.35.75.53.95.09,1.22.19,1.83.28,1.83.04.67-.02,1.34-.16,2ZM106.31,13.72v-.07h-.14v.07h.14ZM106.64,27.22c0-.2.05-.3.14-.3-.05-.11-.07-.18-.07-.23h-.21v.14l.07.39h.07ZM106.99,28.26l-.21-.37s.07-.03.07-.09l-.28-.14-.07.14c.13.05.25.18.35.39-.09,0-.14.05-.14.14.05,0,.07.02.07.07.14-.05.21-.09.21-.14ZM107.13,25.5l.21.16.28-.23c-.05-.09-.07-.17-.07-.23h-.07c-.09,0-.14.05-.14.16.05,0,.07.02.07.07h-.07l-.35-.23c0,.08-.07.16-.21.23l-.14-.07-.07.14c.09,0,.14.12.14.37.28-.06.42-.18.42-.37ZM106.68,12.44v-.14h-.07v.14h.07ZM106.92,25.66h-.07v-.16h.07v.16ZM107.2,26.69c-.05-.09-.07-.17-.07-.23h-.07c-.11,0-.18.12-.21.37h.07c.12-.09.21-.14.28-.14ZM107.06,27.66v-.23h-.14v.23h.14ZM107.27,25.87v-.07h-.21v.07h.21ZM107.27,25.2v-.07h-.14v.07h.14ZM107.34,26.25c-.05-.11-.07-.18-.07-.23h-.14v.23h.21ZM107.34,10.12v-.21c-.09,0-.14.05-.14.14l.14.07ZM107.41,9.82v-.07h-.14v.07h.14ZM107.48,11.54v-.16h-.14v.16h.14ZM107.7,26.92s-.12-.03-.21-.09h-.14v.09c.14,0,.21.05.21.14.09-.01.14-.06.14-.14ZM107.56,28.47v-.07h-.21v.07h.21ZM108.03,26.31v-.21c-.15-.2-.23-.36-.23-.47-.25.01-.39.09-.42.23v.07c.22-.01.37.12.44.4l.21-.02ZM107.7,25.95v-.09h-.14v.09h.14ZM107.84,9.38v-.14h-.07v.14h.07ZM107.84,26.39v-.14h-.07v.14h.07ZM108.19,28.4v-.07c-.01-.09-.06-.14-.14-.14-.09.05-.16.07-.21.07v.14h.35ZM108.05,26.32v-.16c-.01-.09-.06-.14-.14-.14v.3h.14ZM108.12,10.78v-.14c-.09,0-.14.05-.14.14h.14ZM108.12,25.43v-.14h-.07v.14h.07ZM108.33,26.99v-.3c-.01-.09-.06-.14-.14-.14v.44h.14ZM108.47,30.7v-.37c-.09,0-.14-.05-.14-.14h-.14l.21.44s-.07.02-.07.07h.14ZM108.68,29.66c-.01-.09-.06-.14-.14-.14v.14h.14ZM108.82,29.22v-.23c-.01-.09-.06-.14-.14-.14h-.07l.07.37h.14ZM108.89,29.59v-.07h-.14v.07h.14ZM109.31,13.54v-.16c-.09,0-.14.05-.14.16h.14ZM109.31,30.93c0-.15.05-.23.14-.23v-.21h-.21s-.02.18-.07.44h.14ZM109.68,8.59v-.07c-.08,0-.18-.05-.3-.14-.06,0-.12.08-.19.23l.49-.02ZM109.81,28.56l.07-.16c-.09,0-.14-.07-.14-.21h-.14c0,.14-.09.21-.28.21v.07s.12.03.21.09c.09-.06.16-.09.21-.09,0,.06.02.09.07.09ZM109.52,29.82v-.09h-.21v.09h.21ZM109.59,12.72l-.14-.07h-.07v.23h.07c.09-.01.14-.06.14-.16ZM109.73,29.59v-.16h-.14v.16h.14ZM110.16,31.37l.07-.14v-.23h-.07c-.09.05-.16.07-.21.07.07.2.14.3.21.3ZM110.37,13.39v-1.11h-.07c0,.32-.07.54-.21.67.14.2.21.35.21.44h.07ZM110.37,11.98v-.07h-.07l-.07.3c.09,0,.14-.08.14-.23ZM110.3,31.53v-.16h-.07v.16h.07ZM110.44,11.68v-.74l.14-.23c-.07,0-.16-.05-.28-.14v1.11h.14ZM110.44,13.75v-.07c-.05-.09-.07-.16-.07-.21h-.07v.28h.14ZM110.86,31.37s.02-.12.07-.21c-.13-.15-.27-.23-.42-.23-.01-.11-.06-.16-.14-.16l-.07.16c.14.05.21.19.21.44h.35ZM110.63,26.06h-.14c-.01-.09.03-.14.12-.14l.02.14ZM110.79,10.42v-.07h-.14v.07h.14ZM111.39,20.47l.05-.14h-.07c-.08.05-.15.07-.21.07l-.07-.12v-.07l.35-.02c.13-.2.26-.3.4-.3,0-.13-.17-.22-.51-.26l.09.14v.07h-.07l-.14-.07v.14h.14c-.01.09-.05.14-.12.14-.02-.09-.08-.13-.16-.12,0,.07-.09.14-.26.21.06.23.25.35.58.33ZM111.07,30.7v-.07h-.14v.07h.14ZM111.07,31.37v-.07c-.09,0-.14.05-.14.16v.07c.09-.01.14-.06.14-.16ZM111.63,31.16c0-.11.09-.16.28-.16v-.07h-.14v-.23l.07-.14c-.09-.01-.14-.06-.14-.16.05,0,.07-.02.07-.07-.21-.2-.33-.3-.35-.3,0,.2-.05.38-.14.53.09,0,.14.05.14.14-.11.11-.25.16-.42.16.05.09.07.16.07.21h.14c0-.14.05-.21.14-.21h.07c0,.2.07.3.21.3ZM111.55,21.08l-.07-.12c.09-.02.13-.08.12-.16l-.14-.05h-.07c.01.11,0,.2-.05.28l.14.07.07-.02ZM111.56,31.6v-.07h-.14v.07h.14ZM111.77,20.68v-.09h-.07c-.09.06-.16.09-.21.09v.07h.07c.09-.05.16-.07.21-.07ZM111.79,20.45v-.07h-.21v.07h.21ZM111.95,22.28v-.07h-.14v.07h.14ZM112.41,31.16h-.21c-.07,0-.14.07-.21.21h.14c.19-.07.28-.14.28-.21ZM112.27,30.56c-.01-.11-.06-.16-.14-.16h-.07c0,.11.05.16.14.16h.07ZM112.76,23.12v-.14l-.14.07c-.09-.05-.16-.07-.21-.07-.09.05-.16.07-.21.07v.07h.56ZM112.65,12.33h-.07l-.09-.35-.02-.35.07-.14.14.05s.07-.02.07-.07c.09.05.16.07.21.07v.14c-.14,0-.21.05-.19.14v.07l.42-.02v.07c-.01.09-.06.15-.14.16l-.21-.14c-.05.23-.11.36-.19.37ZM112.62,19.92h-.14v.16c.09-.01.14-.06.14-.16ZM112.69,30.63v-.14h-.14c0,.09.05.14.14.14ZM112.88,11.26h-.14c0-.08-.05-.19-.14-.33l.12-.09h.07l.02.07-.07.14c.09,0,.14.05.14.14v.07ZM112.97,30.77l-.14-.07h-.07c-.09,0-.14.05-.14.16v.07h.21c.09-.01.14-.06.14-.16ZM112.9,29.89v-.07h-.14v.07h.14ZM112.9,31.16v-.09h-.14v.09h.14ZM113.27,13.49c-.05-.08-.08-.18-.09-.28-.07.06-.19.09-.35.09l.02.35h.14c.12-.11.21-.16.28-.16ZM113,13.79h-.14v.14c.09-.01.14-.06.14-.14ZM113.23,14.41v-.14l-.09-.12s.07-.04.07-.09l-.14-.05h-.07c-.09,0-.14.05-.14.14.09.05.17.07.23.07l-.07.14v.07l.21-.02ZM113.04,23.28v-.09h-.14v.09h.14ZM113.07,12.38h-.14v-.21c.09,0,.14.05.14.14v.07ZM113.25,19.42h-.28c0,.09.05.14.14.14.09-.01.14-.06.14-.14ZM113.25,30.33h-.21v.23c.07,0,.14-.08.21-.23ZM113.39,23.19v-.37c-.08,0-.15.12-.21.37h.21ZM113.46,22.53v-.07h-.14v.07h.14ZM113.6,29.07v-.07h-.07c-.09,0-.14.05-.14.14v.09h.07c.09-.01.14-.06.14-.16ZM113.6,29.29h-.07c-.09,0-.14.05-.14.14h.07c.09-.01.14-.06.14-.14ZM113.6,29.66c-.01-.09-.06-.14-.14-.14l-.07.14h.21ZM113.81,26.55v-.09h-.21c-.09,0-.14.05-.14.16h.14c.09-.05.16-.07.21-.07ZM113.67,27.06v-.07h-.21v.07h.21ZM113.67,27.89c0-.09.07-.22.21-.39h-.14v.16h-.14l-.14-.07v.14c0,.11.05.16.14.16h.07ZM113.74,30.33l-.21-.14h-.07v.3h.14c.09-.02.14-.08.14-.16ZM113.67,30.1v-.14h-.07v.14h.07ZM113.81,24.62v-.09h-.14v.09h.14ZM114.23,28.4v-.44c-.22.12-.41.34-.56.67h.07c.18-.15.34-.23.49-.23ZM113.81,28.92v-.16h-.14v.16h.14ZM114.16,26.39v-.23l-.14.09h-.14v-.16h-.14c.09.13.14.23.14.3h.28ZM113.88,27.13v-.07h-.14v.07h.14ZM114.09,13.91v-.07l-.14-.23.07-.14h-.07c-.09,0-.14.05-.14.14v.07c0,.08.07.16.21.23h.07ZM114.09,14.35c-.05-.08-.07-.21-.07-.37h-.14c0,.11-.02.16-.07.16.05.09.07.16.07.21h.21ZM114.59,12.58c0-.13-.09-.35-.28-.67v-.07h-.21c-.07,0-.14.07-.21.21v.16l.21-.16c.12,0,.21.2.28.6h.07l.14-.07ZM114.02,21.49c-.01-.09-.06-.14-.14-.14v.14h.14ZM114.09,23.19v-.21h-.21v.14s.12.02.21.07ZM114.02,28.03v-.14h-.14c0,.09.05.14.14.14ZM114.23,27.73v-.07h-.28v.07h.28ZM114.38,20.22v-.37l-.35.07v.09c.08,0,.2.07.35.21ZM114.16,22.09v-.07h-.14v.07h.14ZM114.16,22.39v-.07h-.14v.07h.14ZM114.23,18.89v-.14h-.14v.14h.14ZM114.23,21.93v-.07h-.14v.07h.14ZM114.45,26.69h-.14c-.09,0-.14.05-.14.14h.14c.09-.01.14-.06.14-.14ZM114.38,21.42v-.07h-.14v.07h.14ZM114.38,27.89v-.09h-.14v.09h.14ZM114.52,23.49v-.14h-.21v.14h.21ZM114.59,22.23c-.05-.09-.07-.16-.07-.21h-.14v.07c0,.09.05.14.14.14h.07ZM114.59,27.13v-.07h-.14v.07h.14ZM114.66,21.05v-.37h-.14l.07.37h.07ZM114.66,25.8v-.07h-.14v.07h.14ZM114.66,29.66c-.01-.09-.06-.14-.14-.14v.14h.14ZM115.57,26.09c0-.06-.12-.16-.35-.3h-.07v.16h-.14v-.16h-.28c0,.11-.05.16-.14.16v.07h.14s.02-.07.07-.07l.21.3s.07-.03.07-.09l.35.09c.09-.01.14-.06.14-.16ZM114.66,26.76l.07-.3v-.21h-.07l-.07.44v.07h.07ZM114.8,20.59v-.07h-.14v.07h.14ZM114.73,30.33v-.14h-.07v.14h.07ZM114.87,26.83v-.07h-.14v.07h.14ZM115.29,29.07l-.07-.14h.14v-.07h-.14s-.02.07-.07.07v-.16h-.07c0,.11-.12.23-.35.37h.07l.49-.07ZM114.87,29.36v-.07h-.14v.07h.14ZM114.94,26.62v-.07h-.14v.07h.14ZM115.15,27.59v-.16h-.14c-.07,0-.14.08-.21.23h.14c.09-.05.16-.07.21-.07ZM115.01,28.19v-.09h-.14v.09h.14ZM115.22,25.2s.02-.12.07-.21v-.07h-.07c0,.09-.05.14-.14.14,0,.09.05.14.14.14ZM115.29,28.26v-.16h-.07c-.09,0-.14.05-.14.16h.21ZM115.29,24.02l.07-.16v-.07c-.09.05-.16.07-.21.07,0,.11.05.16.14.16ZM115.27,15.88l-.09-.14.21-.16c.09,0,.14.05.14.14l-.26.16ZM115.64,25.2h-.07l-.35.09v.07h.28c.09-.01.14-.06.14-.16ZM115.57,28.7c0-.09.09-.24.28-.44v-.3s-.12-.02-.21-.07c-.09.05-.16.07-.21.07l.07.14.14-.07h.07v.07c0,.12-.16.24-.49.37.05.11.07.18.07.23h.28ZM115.43,26.83v-.07h-.14v.07h.14ZM115.85,29.07h-.14l.07-.14v-.07h-.28v.28h.07l.14-.07v.16c.09-.01.14-.06.14-.16ZM115.64,29.36v-.07h-.14v.07h.14ZM115.64,29.52v-.09h-.14v.09h.14ZM115.78,25.66v-.07h-.14v.07h.14ZM115.78,26.39v-.14c-.09,0-.14.05-.14.14h.14ZM116.06,24.16v-.07c-.11,0-.2-.02-.28-.07v.21h.07c.09-.05.16-.07.21-.07ZM116.34,23.49v-.07c-.07,0-.16-.05-.28-.14h-.14c0,.08.12.15.35.21h.07ZM116.13,26.46v-.07h-.21v.07h.21ZM116.13,25.06v-.07h-.14v.07h.14ZM116.31,15.55h-.07v-.14h.07v.14ZM116.41,24.39v-.16h-.07v.16h.07ZM117.79,9.01v-.21h.14v.07c-.01.09-.06.14-.14.14Z"/>
    </g>
    <g>
      <path class="cls-2" d="M3.63,2.79s.06-.04.09-.06c-.03.02-.06.04-.09.06Z"/>
      <path class="cls-2" d="M2.12,3.28c.51-.03,1-.18,1.42-.44-.43.25-.91.41-1.42.44l-.96.06c-.23.01-.44.1-.61.25.16-.15.38-.24.6-.25,0,0,.96-.06.96-.06Z"/>
      <path class="cls-2" d="M2.58,10.27c.03.07.09.12.16.13.02,0,.05,0,.07,0l1.38-.22c2.47-.33,4.4-1.47,5.73-3.37.21-.3.41-.63.59-.97l.7-1.21c.05-.09.03-.19-.04-.26L6.69.28c-.22-.23-.53-.32-.82-.27-.07.01-.14.04-.21.07.07-.03.14-.05.21-.07.29-.05.6.04.82.27l3.29,3-.56.97c-1.31,2.48-3.46,3.96-6.32,4.34l-1.11.18-.15-.38.5,1.29h0l.23.58h0Z"/>
      <path class="cls-1" d="M3.1,8.6c2.86-.38,5.01-1.86,6.32-4.34l.56-.97L6.69.28c-.22-.23-.53-.32-.82-.27-.07.01-.14.04-.21.07-.2.1-.36.27-.45.48l-.4.88c-.24.53-.62.98-1.09,1.3-.03.02-.06.04-.09.06-.03.02-.06.04-.09.05-.43.25-.91.41-1.42.44l-.96.06c-.23.01-.44.1-.6.25-.05.05-.1.11-.14.17-.15.25-.18.57-.04.86l1.47,3.77.15.38s1.11-.18,1.11-.18Z"/>
      <path class="cls-4" d="M13.34,6.71c.68-1.49.74-2.92.02-3.97-.82-1.19-1.54-.27-2.66,1.2l.46.42c.07.07.09.17.04.26l-.7,1.21c-.18.34-.38.67-.59.97-1.33,1.9-3.26,3.04-5.73,3.37l-1.38.22s-.05,0-.07,0c-.07-.01-.13-.06-.16-.13l-.23-.58h0c-1.78.51-2.89.86-2.08,2.05.95,1.38,3.03,1.74,5.36,1.13,1.25-.32,2.56-.92,3.82-1.79,1.83-1.26,3.19-2.84,3.88-4.37Z"/>
    </g>
  </g>
</svg>