<?xml version="1.0" encoding="UTF-8"?>
<svg id="Layer_2" data-name="Layer 2" xmlns="http://www.w3.org/2000/svg" viewBox="0 0 118.87 33.87">
  <defs>
    <style>
      .cls-1 {
        fill: #794a48;
      }

      .cls-2 {
        fill: #492807;
      }

      .cls-3 {
        fill: #492807;
      }

      .cls-4 {
        fill: #97635f;
      }
    </style>
  </defs>
  <g id="our_team" data-name="our team">
    <g>
      <path class="cls-3" d="M15.37,20.69s.02.07.07.07l-.07.14v4.2l.14.21v.16l-.14.21v.54c0,1.78-.47,3.09-1.41,3.94-.86,1-2.29,1.49-4.31,1.49-1.39,0-2.68-.45-3.85-1.34l-.81-1.12c-.32-.66-.54-1.48-.67-2.46-.05,0-.07-.02-.07-.07,0-.06.02-.13.07-.23l-.07-.39.07-.37c-.09-.01-.14-.06-.14-.14.09-.46.14-.79.14-.98v-.14c0-.18-.02-.4-.07-.67l.14-.46c-.05-.08-.07-.18-.07-.28l.07-.53c-.09-.02-.14-.08-.14-.16v-.14c0-.11.05-.16.14-.16l-.07-.37v-.07l.07-.46c-.05-.08-.07-.16-.07-.23.07-.19.15-.28.23-.28.09.05.16.07.21.07v-.07l-.07-.16-.14.07c-.12,0-.19-.17-.23-.51l.02-.05h-.04l-.05-.35s.04-.1.05-.16c-.01-.06-.03-.12-.05-.19.02-.04.04-.08.05-.12-.01-.05-.03-.09-.05-.12.02-.07.04-.13.05-.19-.01-.06-.03-.11-.05-.16l.05-.35h.04l-.02-.05c.04-.34.11-.51.23-.51l.14.07.07-.16v-.07s-.12.02-.21.07c-.08,0-.16-.09-.23-.28,0-.07.02-.15.07-.23l-.07-.46v-.07l.07-.37c-.09,0-.14-.05-.14-.16v-.14c0-.08.05-.13.14-.16l-.07-.53c0-.11.02-.2.07-.28l-.14-.46c.05-.27.07-.49.07-.67v-.14c0-.2-.05-.53-.14-.98,0-.08.05-.13.14-.14l-.07-.37.07-.39c-.05-.09-.07-.17-.07-.23,0-.05.02-.07.07-.07.13-.98.35-1.8.67-2.46l.81-1.12c1.17-.89,2.46-1.34,3.85-1.34,2.02,0,3.45.5,4.31,1.49.94.84,1.41,2.16,1.41,3.94v.54l.14.21v.16l-.14.21v4.2l.07.14s-.07.02-.07.07v3.09ZM5.93,11.48c-.15.11-.23.18-.23.21h.23v.14h-.23v.3c.11.12.16.21.16.28.19.07.31.21.37.42-.04.14-.23.21-.6.21,0,.06.02.09.07.09l-.14.28v.07l.14-.07h.07v.28h-.14v.07h.07c.35-.06.53-.13.53-.21.08,0,.13.05.14.14l-.07.14h.3v-.14h-.16v-.07l.09-.14.14.07c.08,0,.13-.05.14-.14.06,0,.13.02.23.07.2,0,.32-.09.37-.28-.09,0-.22-.22-.37-.65-.25.19-.42.28-.51.28v.07h.07l.37-.07.07.14c0,.11-.05.16-.14.16h-.23c-.2-.12-.3-.22-.3-.3v-.07h.16c0-.18-.03-.29-.09-.35,0-.14.08-.21.23-.21v-.07s-.12-.02-.23-.07l.09-.51h-.23l-.37-.07ZM6.37,9.7h-.23c-.11.09-.25.14-.44.14.05.09.07.16.07.21.11,0,.36-.07.76-.21,0-.08-.05-.13-.16-.14ZM6.14,10.27h-.14l-.14-.07s-.05.07-.16.07v.07l.07.51h.23c0-.09.18-.26.53-.51v-.14l-.39.07ZM5.7,11.06v.21l.16-.07c0-.08-.05-.13-.16-.14ZM5.7,14.19v.07c0,.11.05.16.16.16l-.16.21v.28h.3c.25,0,.39.07.44.21l.16-.07h.07s.02.12.07.21c.09-.05.17-.07.23-.07v-.07c-.06,0-.13-.02-.23-.07,0-.09.12-.14.37-.14l-.07-.14.07-.14-.51.07-.16-.07.09-.14c0-.08-.05-.13-.16-.14l.07-.16v-.14l-.07-.14c-.45.07-.67.16-.67.28ZM5.7,20.76h.16v-.14c-.11,0-.16.05-.16.14ZM5.77,12.62v.14h.16c0-.08-.05-.13-.16-.14ZM5.83,30.11h.07l.14.07s.03-.07.09-.07l.07.14-.23.14h-.07l-.07-.28ZM5.93,14.98h-.07v.14c0,.06.17.18.51.35v-.21c-.18,0-.32-.09-.44-.28ZM6.37,16.19v.07c-.15.12-.23.21-.23.28h-.07c-.09,0-.14-.05-.14-.14l.07-.14c-.09,0-.14-.05-.14-.14,0-.08.05-.13.14-.14h.14c.15.07.23.14.23.21ZM6.07,14.26h-.14v-.14h.14v.14ZM6.23,14.77h-.23v-.14h.23v.14ZM6.3,17.12v.14c-.13-.14-.23-.21-.3-.21v-.14c.2.07.3.14.3.21ZM6.23,18.62l-.09.14-.14-.07c0-.08.05-.13.14-.14h.09v.07ZM6.56,30.46c0,.14.08.21.23.21v.14c-.16,0-.26.09-.3.28-.2-.07-.3-.14-.3-.21.15,0,.23-.09.23-.28.01-.09.06-.14.14-.14ZM6.3,10.92v.14c.08.18.28.34.6.49h.14c0-.14.05-.21.14-.21l.39.07v-.14c-.22,0-.38-.02-.46-.07-.08.05-.18.07-.3.07h-.07c-.11,0-.18-.12-.21-.35h-.23ZM6.6,20.55c-.11,0-.16-.05-.16-.14h.16v.14ZM6.53,19.55v.21l.37.07h.14v-.21s-.12.02-.23.07c-.07,0-.16-.05-.28-.14ZM6.56,29.76v.07h.23v-.07h-.23ZM6.9,10.27h-.23v.14l.14.21v.16l-.07.14s.07.05.07.14h.23l.23-.14c-.16-.42-.29-.64-.37-.65ZM6.67,14.19v.07h.14v-.07h-.14ZM6.81,18.26h-.14v-.14h.14v.14ZM6.79,29.06c0,.11-.03.2-.09.28h.23c-.05-.08-.07-.18-.07-.28h-.07ZM6.93,29.69c0,.07-.05.16-.14.28h.14c.09-.05.17-.07.23-.07,0-.07-.08-.14-.23-.21ZM7.04,17.54c-.09,0-.14.05-.14.14.05,0,.12-.02.21-.07l.16.07.3-.07v-.07h-.53ZM6.9,20.9v.07h.14v-.07h-.14ZM7.11,10.85h-.14v-.16h.14v.16ZM7.11,15.91c0,.09-.05.14-.14.14,0,.09.05.14.14.14,0-.07.08-.16.23-.28h-.23ZM7.04,9.19h.23l-.09-.14c-.09,0-.14.05-.14.14ZM7.18,15.4h-.07c0,.12-.02.22-.07.3l.3-.07v-.07c0-.08-.05-.13-.16-.16ZM7.04,16.91c.05.15.15.25.3.28v-.28h-.3ZM7.09,29.62v.07h.14v-.07h-.14ZM7.11,20.97v.14h.16c0-.08-.05-.13-.16-.14ZM7.34,14.56v.21c0,.09.05.14.14.14h.09v-.07c-.11-.12-.16-.21-.16-.28h-.07ZM8.11,17.82c0,.06.02.09.07.09,0,.05-.02.12-.07.21l.07.14c-.02.19-.09.28-.21.28l.07.14c0,.09-.22.16-.67.21,0,.11.05.16.14.16,0,.05-.02.07-.07.07l.07.14c.14,0,.29-.05.46-.14,0,.05.02.07.07.07,0,.09-.1.14-.3.14.05.09.07.16.07.21h.07c.09,0,.15-.05.16-.14.05,0,.07.02.07.07h.07l-.07-.14v-.07c.12-.25.24-.37.37-.37l-.14-.21c.12-.19.22-.28.3-.28l-.16-.21.07-.14s-.12.02-.21.07c-.05,0-.07-.1-.07-.3h-.16ZM7.37,30.96h.16v.14c-.11,0-.16-.05-.16-.14ZM7.57,9.77c-.11,0-.16.05-.16.14v.14h.3l-.07-.28h-.07ZM7.41,12.06v.21l.37-.07-.21-.3c-.11,0-.16.05-.16.16ZM7.41,15.7v.14h.07v-.14h-.07ZM7.46,30.39v.07h.21v-.21h-.07c-.09.01-.14.06-.14.14ZM7.6,31.24l.07.14c0,.09-.05.14-.14.14l-.07-.14c.01-.09.06-.14.14-.14ZM7.57,15.77l.07.35c.08,0,.13-.05.14-.14-.07-.14-.14-.21-.21-.21ZM7.83,29.76s-.02.12-.07.21h.14v-.21h-.07ZM7.76,30.25c.05.09.07.16.07.21h.07v-.21h-.14ZM7.83,30.53c0,.09.07.14.21.14h.09v-.07l-.3-.07ZM7.97,31.17h.16c0,.11.02.2.07.28h-.07c-.11,0-.16-.05-.16-.14v-.14ZM8.34,21.76h-.07c0,.08-.05.2-.16.35,0,.14.1.26.3.35l.07-.35h-.14c0-.09.1-.14.3-.14v-.07c-.08,0-.18-.05-.3-.14ZM8.27,29.2v.07h.23v-.07h-.23ZM8.27,31.45h.53s.02.12.07.21c-.4-.05-.6-.12-.6-.21ZM8.43,30.46c0,.15-.03.27-.09.35h.37v-.21c0-.09-.05-.14-.14-.14h-.14ZM9.87,9.32c-.55,0-.94.39-1.18,1.18l.07.14-.07.44c0,.06.05.33.14.81l-.07.14.07.67c0,.32-.02.81-.07,1.48l.07.37-.07.14.07.14-.07.44v.23c0,.18.02.4.07.67-.05.08-.07.18-.07.28l.07.16h-.07l.07.44-.14,2.57s.09.08.14.23c-.09.41-.17.85-.23,1.32.06,0,.11.12.16.37l-.07.14.07.37s-.07.02-.07.07h.07l-.07.53v.14c0,.21.05.4.14.58l-.07.37c.05.67.07,1.16.07,1.48,0,.21-.02.48-.07.81l.07.14c-.05.34-.07.61-.07.81v.44c.21.36.58.61,1.11.74v-.07c0-.08-.05-.13-.14-.14.12-.2.22-.3.3-.3l.14.07c-.09.16-.14.29-.14.37v.07l.37-.07v-.07l-.07-.14.28-.23.16.07v-.14l-.07-.16s.07-.02.07-.07h-.16c-.09,0-.14.08-.14.23-.09-.05-.17-.07-.23-.07v-.23c.4-.13.6-.38.6-.74h-.23v-.21c.15,0,.23-.05.23-.16v-.14c-.2-.15-.37-.23-.51-.23v-.07c.21,0,.38-.15.51-.44-.05,0-.09-.07-.14-.21.08,0,.13-.05.14-.16l-.07-.37h.07v-1.25c.05-.56.1-.88.16-.95-.06,0-.09-.02-.09-.07v-.16l.09-.37c-.06,0-.09-.02-.09-.07l.09-.14c-.06,0-.09-.02-.09-.07v-.37h-.14v-.07l.14-.23v-.58h-.21v-.16c.12,0,.19-.09.21-.28-.05,0-.07-.03-.07-.09v-.81l.07-.51c-.14-.39-.24-.58-.3-.58,0-.09.05-.15.16-.16,0-.14-.05-.33-.16-.58.06,0,.09-.02.09-.07v-.09l-.09-.14c.06,0,.09-.02.09-.07v-.3c0-.08-.05-.13-.16-.14l.16-.23v-.21c0-.21-.03-.41-.09-.6.06-.2.09-.39.09-.58v-.37l.07-.16s-.07-.02-.07-.07v-.65l-.09-.37c.07,0,.12-.39.16-1.18,0-.05-.02-.12-.07-.23.02-.09.07-.56.14-1.39-.19-.59-.51-.88-.97-.88ZM8.64,30.25v.14h.07v-.14h-.07ZM8.64,33.06h.07v.14h-.07v-.14ZM8.87,25.89v.14h.07c.11,0,.16-.05.16-.14h-.23ZM8.87,30.46v.07h.3v-.07h-.3ZM9.01,25.4h.09c.09.01.14.06.14.14v.07c-.07,0-.15-.07-.23-.21ZM9.38,17.03v.07l-.07.14c.2,0,.3.05.3.14-.05,0-.07.02-.07.07-.07-.05-.22-.07-.44-.07v-.28c.11,0,.2-.02.28-.07ZM9.1,30.04v.07h.21v-.07h-.21ZM9.31,31.52h.07v.21h-.21v-.07c.01-.09.06-.14.14-.14ZM9.24,16.82h.07v.14h-.07v-.14ZM9.24,26.6h.23v.14h-.23v-.14ZM10.04,30.25c0,.08-.15.15-.44.21,0-.09-.05-.14-.14-.14h-.09c0,.07-.05.16-.14.28v.07l.14-.07c.16.09.29.14.39.14.01-.09.06-.14.14-.14h.07v.21h.07c0-.19.13-.28.39-.28v-.21l-.16.07-.23-.14ZM9.46,27.16v.14h-.16c.02-.09.08-.14.16-.14ZM9.31,30.81v.07h.23v-.07h-.23ZM9.76,25.75h.07l.3.21c-.06.08-.09.18-.09.28l-.37-.07-.3.07v-.14c.22,0,.38-.09.46-.28-.05,0-.07-.02-.07-.07ZM9.38,29.97v.07h.16v-.07h-.16ZM9.46,17.6h.07c.09.01.14.06.14.14h-.21v-.14ZM9.53,16.96h.14v.14h-.14v-.14ZM9.9,24.49h.07c.11.01.16.06.16.14v.14c-.12,0-.29.09-.53.28h-.07v-.07c.25-.16.37-.33.37-.49ZM9.6,16.47h.16v.07h-.16v-.07ZM9.76,18.44v.14h-.16c.01-.09.06-.14.16-.14ZM9.9,26.24v.14c0,.09-.05.14-.14.14-.11,0-.16-.05-.16-.14v-.07s.12-.02.3-.07ZM9.6,27.3h.23c.09.01.14.06.14.14-.05,0-.07.02-.07.07h.14v.14h-.28c-.11,0-.16-.05-.16-.14v-.21ZM9.83,15.63v.14h-.16c.02-.09.08-.14.16-.14ZM9.76,19.21h.14v.07h-.14v-.07ZM9.76,24.14h.14c.09.01.14.06.14.14l-.14.07c-.09,0-.14-.05-.14-.14v-.07ZM9.76,25.47h.21v.14h-.21v-.14ZM9.76,26.6h.14v.14h-.14v-.14ZM9.83,25.96v.07h.14v-.07h-.14ZM9.9,18.37h.14c0,.09-.05.14-.14.14v-.14ZM10.04,19.56l.09.14v.07h-.09c-.09,0-.14-.05-.14-.14l.14-.07ZM9.9,20.9c.09.01.14.06.14.14h-.14v-.14ZM9.9,23.64h.14v.07h-.14v-.07ZM9.9,28.99v.07h.14v-.07h-.14ZM10.13,29.69c0,.09-.08.14-.23.14.01.09.06.14.14.14.3-.05.46-.12.46-.21v-.07l-.16.07c-.09-.05-.16-.07-.21-.07ZM9.97,18.93c.11.01.16.06.16.14v.28h-.16v-.42ZM9.97,20.62h.16v.14h-.16v-.14ZM9.97,27.16h.07v.21h-.07v-.21ZM9.97,31.73h.16v.14h-.16v-.14ZM10.13,15.42h.21v.07c0,.09-.05.14-.14.14l-.07-.14v-.07ZM10.13,15.77h.07v.14h-.07v-.14ZM10.13,21.11h.14v.14h-.14v-.14ZM10.27,20.55h.23c0,.09-.05.14-.16.14h-.07v-.14ZM10.27,22.59h.07c.11.01.16.06.16.14l-.16.07-.07-.14v-.07ZM10.64,31.45v.28c-.08.05-.18.07-.3.07h-.07s.12-.16.37-.35ZM10.57,16.33h.07v.14h-.07v-.14ZM10.71,28.78c0,.09-.05.14-.14.14l.07.14c-.05.09-.07.16-.07.21.05.09.07.16.07.21h.07c0-.23.13-.35.39-.35v-.14c-.13,0-.26-.07-.39-.21ZM10.64,20.34c.11.01.16.06.16.14h-.16v-.14ZM10.64,29.83v.07h.37c.11,0,.16-.05.16-.14v-.07h-.23c-.12.09-.22.14-.3.14ZM10.71,28.42v.14h.09c.09,0,.14-.05.14-.14h-.23ZM11.01,27.79s-.02.12-.07.21h.16s.02-.12.07-.21h-.16ZM11.01,30.39v.14c.11-.05.18-.07.23-.07v-.07h-.23ZM11.17,19.35c.05.09.07.16.07.21h.14c.08,0,.16-.07.23-.21v-.07h-.07l-.37.07ZM11.31,21.53l.16.21c-.06,0-.09.02-.09.07.06,0,.13.02.23.07v-.07l-.07-.14s.07-.02.07-.07l-.14-.07h-.16ZM11.31,26.95v.21h.07v-.21h-.07ZM11.54,28.99v.21h.07v-.21h-.07ZM11.54,30.39h.3c0-.09-.05-.14-.16-.14-.09.01-.14.06-.14.14ZM11.61,20.13v.21h.37c0-.07-.07-.14-.21-.21h-.16ZM11.61,22.17c.05.09.07.16.07.21.06,0,.09-.02.09-.07l.14.07h.07c.12,0,.22-.02.3-.07.09.05.17.07.23.07.09-.05.16-.07.21-.07v-.14l-.07-.14c-.18.09-.38.14-.6.14h-.07v-.14h-.07c-.12.09-.22.14-.3.14ZM11.61,26.95c.05.09.07.16.07.21h.16c-.05-.09-.07-.16-.07-.21h-.16ZM11.77,20.97l-.09.14c.11-.05.18-.07.23-.07v-.07h-.14ZM11.91,21.32c0,.07-.05.16-.14.28v.14h.07c.08,0,.15-.14.21-.42h-.14ZM11.77,26.24v.28h.07c.09,0,.14-.05.14-.14s-.05-.14-.14-.14h-.07ZM11.77,29.83v.21h.07c.12-.09.22-.14.3-.14v-.14c-.08.05-.21.07-.37.07ZM11.84,20.83v.07h.21v-.07h-.21ZM11.91,31.31h.14v.14h-.14v-.14ZM11.98,27.65v.14c.13-.09.23-.14.3-.14v-.07h-.07c-.09.05-.17.07-.23.07ZM12.14,19.71c0,.11-.03.2-.09.28h.16c0-.11.02-.2.07-.28h-.14ZM12.05,21.11v.14h.09c.09,0,.14-.05.14-.14h-.23ZM12.05,23.78h.3c0-.09-.05-.14-.14-.14-.11.01-.16.06-.16.14ZM12.21,22.59c.01.09.06.14.14.14v-.14h-.14ZM12.21,24.91v.07c.09,0,.14-.05.14-.14v-.07c-.09.01-.14.06-.14.14ZM12.21,28.28v.07l.07.14s-.07.02-.07.07h.07c.11,0,.16-.05.16-.14s-.05-.14-.16-.14h-.07ZM12.65,20.62v.14h-.14l-.16-.07-.07.28h.3c.11-.02.21-.14.3-.35h-.23ZM12.28,26.24v.07h.16v-.07h-.16ZM12.28,29.69v.07c.01.09.06.14.16.14v-.07c0-.09-.05-.14-.16-.14ZM12.8,30.89v.07c-.2.14-.3.26-.3.35h-.23v-.21c0-.09.18-.16.53-.21ZM12.43,21.89v.07h.14v-.07h-.14ZM12.43,23.57v.07h.14v-.07h-.14ZM12.51,27.51v.14h.07c.09-.05.17-.07.23-.07v-.07h-.3ZM12.58,25.47v.21c.01.09.06.14.14.14h.16v-.07c-.11-.12-.16-.21-.16-.28h-.14ZM12.72,19.56h.09c.09,0,.14-.05.14-.14v-.14c-.07,0-.15.09-.23.28ZM12.72,27.02c.06.08.09.18.09.28h.07v-.35l-.16.07ZM12.8,26.31v.07h.14v-.07h-.14ZM12.87,24.28v.14l.37-.07v-.07h-.37ZM12.94,22.94v.14c.11,0,.16-.05.16-.14h-.16ZM12.94,23.43v.07h.23v-.07h-.23ZM13.1,31.1h.07v.21h-.23v-.07c.01-.09.06-.14.16-.14ZM13.17,20.27h.14v-.14c-.09.01-.14.06-.14.14ZM13.17,20.62v.07h.14v-.07h-.14ZM13.24,28.99v.14h.07v-.14h-.07ZM13.38,29.83c0,.14-.05.21-.14.21v.21h.07c0-.07.05-.16.16-.28v-.14h-.09ZM13.38,21.6v.14h.09v-.14h-.09ZM13.47,26.24v.14h.14v-.14h-.14ZM13.54,27.58v.07c.01.09.06.14.14.14v-.21h-.14ZM13.77,21.74v.07h.28v-.07h-.28ZM13.84,23.78v.07h.14v-.07h-.14ZM13.84,26.31v.07h.14v-.07h-.14ZM14.05,21.96v.21h.09c.09,0,.14-.05.14-.14l-.14-.07h-.09ZM14.14,29.27h.14v.07h-.14v-.07ZM14.21,8.17h.07v.14h-.07v-.14ZM14.58,8.03h.14v.14h-.14v-.14ZM14.65,9.16s-.02.07-.07.07c.09.19.14.35.14.49.11,0,.16-.05.16-.14v-.07l-.07-.14h.21v-.21l-.14.07h-.07l-.16-.07ZM14.65,27.79c.09.05.19.07.3.07v.14h-.14c-.11,0-.16-.05-.16-.14v-.07ZM14.88,7.05h.07v.07c0,.09-.05.14-.14.14l-.09-.14.16-.07ZM14.88,29.34h.07c.11.01.16.06.16.14l-.16.07-.07-.14v-.07ZM15.02,28.71h.09v.14h-.09v-.14ZM15.11,15.06h.07v.14h-.07v-.14ZM15.18,8.03h.14v.07h-.14v-.07ZM15.32,14.29h.16c0,.09-.05.14-.16.14v-.14ZM15.48,15.21v.14h-.16c.02-.09.08-.14.16-.14ZM15.48,13.59h.14v.07h-.14v-.07ZM15.85,14.29l.07.14-.14.07h-.16c0-.07.08-.14.23-.21ZM15.77,8.81h.14v.14h-.14v-.14ZM15.92,13.94h.14v.14h-.14v-.14ZM16.06,13.24h.16v.14h-.16v-.14ZM16.72,8.74h.09v.07c0,.09-.05.14-.16.14h-.07v-.07c.01-.09.06-.14.14-.14ZM17.11,31.24h.14v.14c-.09,0-.14-.05-.14-.14Z"/>
      <path class="cls-3" d="M16.25,33.66c.09.01.14.06.14.14v.07c-.09,0-.14-.05-.14-.14v-.07ZM17.71,27.4v.14h-.14c.01-.09.06-.14.14-.14ZM25.06,9.76v-2.6h6.5v2.51h-1.32v.35c0,.21.02.48.07.81l-.14.58c.05.11.07.22.07.35l-.07.63c.09.02.14.09.14.21v.18c0,.13-.05.19-.14.19l.07.44v.09l-.07.56c.05.12.07.21.07.28-.07.25-.15.37-.23.37-.09-.07-.16-.11-.21-.11v.11l.07.18.14-.09c.12,0,.19.21.23.62l-.02.07h.04l.05.44c-.02.07-.04.14-.05.21.01.07.03.15.05.23-.02.05-.04.09-.05.14.01.06.03.11.05.16-.02.08-.04.16-.05.23.01.07.03.14.05.21l-.05.44h-.04l.02.07c-.04.41-.11.62-.23.62l-.14-.09-.07.18v.11s.12-.04.21-.11c.08,0,.16.12.23.37,0,.08-.02.18-.07.28l.07.56v.09l-.07.44c.09,0,.14.06.14.19v.19c0,.11-.05.17-.14.19l.07.63c0,.13-.02.25-.07.35l.14.58c-.05.33-.07.6-.07.81v.18c0,.26.05.66.14,1.21,0,.11-.05.16-.14.18l.07.46-.07.47c.05.12.07.21.07.28,0,.06-.02.09-.07.09-.13,1.22-.35,2.23-.67,3.02l-.81,1.39c-1.17,1.1-2.46,1.65-3.85,1.65-2.02,0-3.45-.61-4.31-1.83-.94-1.04-1.41-2.67-1.41-4.87v-.67l-.14-.26v-.18l.14-.28v-5.17l-.07-.18s.07-.03.07-.09v-3.81c0-.06-.02-.09-.07-.09l.07-.18v-4.68h-1.32v-2.51h6.5v2.6h-.51v.32c0,.07-.02.11-.07.11l.07.18v.47c0,.27.03.53.09.77-.06.23-.09.49-.09.76v.3l.16.28c-.11.02-.16.09-.16.19v.37c0,.07.03.11.09.11l-.09.18v.11c0,.06.03.09.09.09-.11.33-.16.59-.16.77.11.01.16.08.16.19-.06,0-.16.26-.3.77l.07.65v1.05c0,.06-.02.09-.07.09.02.26.09.39.21.39v.19h-.21v.76l.14.28v.11h-.14v.47c0,.06-.03.09-.09.09l.09.19c0,.06-.03.09-.09.09l.09.49v.19c0,.06-.03.09-.09.09.06.09.11.51.16,1.25v1.62h.07l-.07.46c.01.13.06.19.14.19-.05.19-.09.28-.14.28.13.39.3.58.51.58v.11c-.14,0-.31.09-.51.28v.19c0,.12.08.18.23.18v.28h-.23c0,.47.2.79.6.97v.28c-.06,0-.13.03-.23.09,0-.19-.05-.28-.14-.28h-.16c0,.07.02.11.07.11l-.07.18v.19l.16-.09.28.28-.07.21v.09l.37.09v-.09c0-.11-.05-.27-.14-.49l.14-.09c.08,0,.18.13.3.39-.09.02-.14.09-.14.19v.09c.53-.16.9-.48,1.11-.95v-.56c0-.28-.02-.63-.07-1.05l.07-.19c-.05-.42-.07-.77-.07-1.05,0-.41.02-1.04.07-1.9l-.07-.47c.09-.25.14-.5.14-.77v-.19l-.07-.65h.07c0-.06-.02-.09-.07-.09l.07-.49-.07-.19c.05-.32.1-.47.16-.47-.06-.61-.13-1.18-.23-1.71.05-.19.09-.28.14-.28l-.14-3.36.07-.56h-.07l.07-.19c0-.14-.02-.26-.07-.37.05-.36.07-.65.07-.86v-.28l-.07-.58.07-.19-.07-.19.07-.47c-.01-.18-.02-.35-.04-.51h-.72ZM19.38,9.55l.02.21h.07l-.02-.21h-.07ZM19.63,17.14v.07h.21v-.07h-.21ZM19.93,17.49l.28-.02v-.14h-.14c-.09.02-.14.08-.14.16ZM20,19.67v.14l.28-.02v-.14l-.28.02ZM20.08,20.23v.07l.28-.02v-.07l-.28.02ZM20.1,20.73v.07l.14-.02v-.07l-.14.02ZM20.17,18.74v.07h.21v-.07h-.21ZM20.28,17.33v.35l.35-.02.21-.14c.08.05.18.07.28.07,0-.08-.1-.18-.3-.28h-.07s-.05.02-.05.07l-.14-.05h-.28ZM20.33,14.59v.07h.14v-.07h-.14ZM20.42,19.58v.14l.14-.07.14.05c0-.09.07-.14.21-.14l-.02-.07h-.14l-.33.09ZM20.45,23.17h.21v-.14h-.07c-.09.01-.14.06-.14.14ZM20.51,27.04v.14c.09,0,.14-.05.14-.14h-.14ZM20.52,16.77l.02.07c.16-.01.3.03.42.12.11-.09.2-.15.28-.16-.15-.14-.23-.25-.23-.33h-.07c-.28.13-.42.23-.42.3ZM20.61,21.69l.02.07.28-.02-.02-.14h-.07c-.08.05-.15.08-.21.09ZM20.65,14.01h.07c.07,0,.14-.07.21-.21h-.07c-.07,0-.14.07-.21.21ZM21.33,15.19v.07l.21.28.02.35-.7-.05s-.02.07-.07.07c0,.11.26.24.79.4h.07l-.09-.14c0-.09.14-.15.42-.16v-.07l-.28-.28.12-.21c-.11.01-.22-.08-.35-.26h-.14ZM20.8,20.76v.14c.09-.05.16-.07.21-.07l.14.07c.08-.06.18-.09.28-.09l.07.14c.08-.05.18-.08.28-.09v-.14l-.07.02c-.18,0-.39-.02-.63-.05-.08.05-.18.07-.28.07ZM20.94,14.43l.02.35.21-.02v-.14c-.01-.06-.09-.12-.23-.19ZM20.94,18.79v.14c.09,0,.14-.05.14-.14h-.14ZM21,22.52c.01.09.06.14.14.14v-.14h-.14ZM21.03,21.46c.02.09.07.14.14.14l.07-.02v-.14l-.21.02ZM21.07,22.31v.07l.35.05.07-.14h-.14s-.07.02-.07.07l-.14-.05h-.07ZM21.12,13.15c.14,0,.21.07.21.21h.28l-.07-.14c.01-.09.06-.15.14-.16h.21l.21.14.21-.16.14.07c.09-.05.16-.07.21-.07.01.09.06.13.14.12h.07c.09,0,.14-.05.14-.14-.36-.18-.65-.26-.86-.25h-.35c-.4.14-.63.26-.69.37ZM21.28,13.71v.07c.11,0,.25.06.42.19l.07-.14c-.19-.08-.33-.12-.42-.12h-.07ZM21.3,16.31v.14c.09,0,.14-.05.14-.14h-.14ZM21.31,19.41l.02.14h.14l-.02-.14h-.14ZM21.37,16.52l.16.42c.08-.05.15-.08.21-.09l-.02-.21c0-.09-.05-.13-.14-.12h-.21ZM21.38,17.3l.02.07h.21l-.02-.07h-.21ZM21.45,21.59h.14v-.14c-.09.01-.14.06-.14.14ZM21.88,17c-.15.34-.26.51-.33.51v.07h.07c.14-.06.21-.11.21-.16l.35.07.28-.02v-.07c0-.06-.17-.17-.51-.33,0-.05-.02-.07-.07-.07ZM21.61,22.22l-.05.14c.09,0,.14.07.14.21l.14-.02c0-.14.09-.21.28-.21h.07v-.07c-.2,0-.39-.02-.58-.05ZM21.6,14.7c.01.09.06.13.14.12h.07c0-.09-.05-.14-.14-.14l-.07.02ZM21.68,11.09v.07c.02.09.08.14.16.14h.07l-.02-.07c0-.09-.05-.14-.14-.14h-.07ZM21.7,18.14l.14.05v-.21c-.09.02-.14.08-.14.16ZM21.74,25.88l.21-.02v-.14h-.07c-.09.02-.14.08-.14.16ZM21.86,11.87v.28c.02.09.07.14.14.14.08,0,.15-.12.21-.37-.16.01-.28,0-.35-.05ZM21.98,22.62l-.07.14.02.42h.28l-.07-.14.42-.09-.02-.21h-.21l.02.14-.37-.26ZM21.95,12.43c.01.09.06.14.14.14h.07v-.14h-.21ZM22.05,20.09v.07h.21v-.07h-.21ZM22.21,22.83v.07c0,.09-.05.14-.14.14v-.07c.01-.09.06-.14.14-.14ZM22.09,21.57v.07c.09,0,.3-.1.63-.3v-.07h-.07c-.38.09-.56.19-.56.3ZM22.3,25.79h.07c.09-.01.14-.06.14-.16h-.07c-.09.02-.14.08-.14.16ZM22.39,12.97h.14v.07h-.14v-.07ZM22.39,15.5v.07h.14v-.07h-.14ZM22.42,14.38l.02.21h.07l-.02-.21h-.07ZM22.42,25.07v.14h.07l.14-.07c.01.09.06.14.14.14h.14v-.14c-.07,0-.16-.05-.28-.14-.09.05-.16.07-.21.07ZM22.51,10.3v.07h.14v-.07h-.14ZM22.54,15.79v.14l.28.05c-.05-.08-.07-.15-.07-.19h-.21ZM22.63,7.77v.07l.14-.02v-.07l-.14.02ZM22.81,26.26l-.07.14h.07c.09-.05.16-.08.21-.09v-.07l-.21.02ZM22.77,14.43v.07h.14v-.07h-.14ZM22.84,20.71v.07l.14-.02v-.07l-.14.02ZM22.86,21.34v.07l.14-.02v-.07l-.14.02ZM22.93,21.67l.02.07h.21l-.02-.07h-.21ZM22.93,23.57v.07h.21v-.07h-.21ZM22.98,16.47v.14h.21v-.14h-.21ZM22.98,30.85v.07l.14-.02v-.07l-.14.02ZM23.04,30.36c.02.09.08.13.16.12.09,0,.13-.05.12-.14,0-.09-.05-.14-.14-.14-.09.02-.14.08-.14.16ZM23.09,24.14v.07h.14v-.07h-.14ZM23.11,13.45v.07h.14v-.07h-.14ZM23.12,20.69v.21c.09,0,.14-.05.14-.14v-.07h-.14ZM23.16,26.24c.05.09.07.16.07.21h.14c0-.11.02-.2.07-.28h-.07c-.09.05-.16.07-.21.07ZM23.25,15.91v.07l.14-.02v-.07l-.14.02ZM23.32,17.95v.14l.07-.02v-.14l-.07.02ZM23.51,11.76h.14v.28c0,.09-.05.14-.14.14v-.42ZM23.53,30.27v.07l.14-.02v-.07l-.14.02ZM23.6,10.14v.07h.14v-.07h-.14ZM23.69,10.71s-.02.12-.07.21h.07c.09,0,.14-.05.14-.14l-.14-.07ZM23.62,11.06c.05.09.08.16.09.21h.07l-.02-.28-.14.07ZM23.67,24.68h.14v.07h-.14v-.07ZM23.86,10.06l.02.07h.21l-.02-.07h-.21ZM23.97,30.81v.07h.14v-.07h-.14ZM24.02,10.34v.07h.21v-.07h-.21ZM24.18,30.74v.07l.21-.02v-.07l-.21.02ZM24.53,30.87l.21-.02c.01.09-.03.15-.12.16h-.07l-.02-.14ZM24.64,14.33c.02.09.07.14.14.14h.07v-.21c-.09.05-.16.07-.21.07ZM24.67,10.74v.07h.14v-.07h-.14ZM24.79,16.86h.21v-.14h-.07c-.09.01-.14.06-.14.14ZM24.95,19.88l.09.14c-.14,0-.21.05-.21.14h.07c.08,0,.24-.15.47-.44h.07v-.07h-.14c-.18.15-.29.23-.35.23ZM24.92,14.19v.07l.14-.02v-.07l-.14.02ZM24.95,17.7v.07l.14-.02v-.07l-.14.02ZM25.08,16.7c-.05.26-.07.4-.07.44l.21-.02.07-.35-.14-.07h-.07ZM25.27,13.96c0,.07-.05.16-.14.28l.28.21.28-.02c-.13-.29-.25-.45-.35-.47h-.07ZM25.51,15.08c0,.12-.05.23-.14.35.05.08.08.18.09.28l-.21-.14c0,.14-.02.21-.07.21.05.09.07.16.07.21l.35-.02c0-.11.06-.25.19-.42v-.14c-.09-.12-.14-.23-.14-.35l-.14.02ZM25.2,16.21c0,.07.07.14.21.21v-.07c0-.09-.05-.14-.14-.14h-.07ZM25.2,18.39v.14h.07v-.14h-.07ZM25.22,30.29v.07l.14-.02v-.07l-.14.02ZM25.32,18.32l.02.07.07.14c-.09.01-.14.06-.14.14h.14v-.14l.14.07c.11-.11.2-.16.28-.16v-.07h-.07c-.09.06-.16.09-.21.09-.01-.09-.06-.14-.16-.14h-.07ZM25.36,14.87v.07h.14v-.07h-.14ZM25.39,11.57l.42-.02-.14-.21s.07-.02.07-.07h-.07c-.08,0-.18.1-.28.3ZM25.5,12.69c.06.08.09.15.09.19h.14c.11-.09.19-.14.26-.14-.09-.12-.14-.21-.14-.28-.06,0-.18.08-.35.23ZM25.5,30.27v.07h.14v-.07h-.14ZM25.66,19.65v.14l.14-.09h.35l-.07.14v.07l.14-.02-.07-.12c.19-.01.28-.11.28-.3-.07,0-.33.06-.77.18ZM25.67,13.66v.07c0,.07.08.14.23.21-.06-.08-.09-.18-.09-.28h-.14ZM25.88,13.38v.07c0,.07.07.14.21.21l.14-.02s-.02-.07-.07-.07l.07-.14v-.07h-.07c-.09.06-.16.09-.21.09,0-.05-.02-.07-.07-.07ZM25.9,16.4c.02.09.07.14.14.14v-.14h-.14ZM25.92,16.75v.07h.14v-.07h-.14ZM25.95,20.06c0,.07.07.14.21.21v-.07c0-.09-.05-.14-.14-.14h-.07ZM26.13,12.73v.07h.07c.09,0,.14-.05.14-.14v-.07h-.07c-.09.02-.14.07-.14.14ZM26.18,13.99v.14h.14v-.14h-.14ZM26.2,14.91l.02.21h.07c.09,0,.13-.05.12-.14l-.14-.07h-.07ZM26.2,16.81v.07h.14v-.07h-.14ZM26.2,29.97v.14c.09,0,.14-.05.14-.14h-.14ZM26.29,19.9l.02.14c.09,0,.13-.05.12-.14h-.14ZM26.48,12.38c0,.22-.04.39-.12.49h.28c-.01-.09,0-.15.05-.16-.05-.07-.07-.18-.07-.33h-.14ZM26.57,19.48l-.07.14c.05.09.07.16.07.21h.07c.12-.11.21-.16.28-.16v-.14l-.35-.05ZM26.82,11.73v.21h.14v-.21h-.14ZM27.03,7.65v.07c.2.36.35.54.44.54v-.28l.21-.02-.14.23c.14-.01.22.05.23.19h.14l-.02-.49c-.01-.11-.13-.17-.37-.19l-.14.07-.35-.12ZM27.26,12.55v.07s.12.02.21.07h.07v-.07s-.12-.02-.21-.07h-.07ZM27.29,8.97v.07h.14v-.07h-.14ZM27.31,9.67c.01.09.06.14.14.14h.07c0-.09-.05-.14-.14-.14h-.07ZM27.36,9.11v.14h.07c.09,0,.14-.05.14-.14h-.21ZM27.38,9.53v.07h.14v-.07h-.14ZM27.57,13.82l.02.07h.12v-.07h-.14ZM27.57,20.15v.07h.14v-.07h-.14ZM27.73,13.96c0,.09-.05.14-.14.14v.14l.21-.02c0-.11.02-.2.07-.28l-.14.02ZM27.69,13.18c.01.11,0,.2-.05.28l.21-.02-.02-.28-.14.02ZM27.75,14.45v.14l.07-.02v-.14l-.07.02ZM27.91,8.81h.14l.02.49c0,.09-.05.14-.14.14h-.07v-.14s.02-.07.07-.07l-.07-.14c.05-.08.06-.18.05-.28ZM27.91,10.71h.14v.07c0,.09-.05.14-.14.14v-.21ZM28.22,27.37h.14c0,.09-.05.14-.14.14v-.14ZM28.36,27.09l.21-.02v.14l-.07.02c-.09,0-.14-.05-.14-.14Z"/>
      <path class="cls-3" d="M33.58,11.94l.02-.07h.14v.21c-.11-.01-.16-.06-.16-.14ZM33.6,13.06v-.07l.16.02v.07l-.16-.02ZM33.64,11.09l.02-.14h.07l-.02.14h-.07ZM33.79,8.42v-.07h.07c.11.01.15.06.14.16v.07h-.07c-.11-.02-.15-.08-.14-.16ZM40.53,19.41c.12,0,.22.02.32.07l.16-.09c.08.09.16.14.25.14.04.28.11.42.23.42-.18.27-.33.41-.46.42-.06.01-.11-.08-.16-.26h.09l-.11-.14v-.14l.09-.14c-.06,0-.09-.02-.09-.07l-.16.07h-.16s.02-.07.07-.07c0-.08-.05-.13-.16-.14h-.07c0,.14-.08.22-.25.23v.07c.13.18.23.26.32.26l.16-.07.04.28c-.08,0-.19.05-.33.14,0,.08.11.34.33.77-.06.08-.08.18-.07.28l.09.35h.23c0-.28.11-.43.33-.44l.07.14v.07l-.63.44.16.28.16-.07c0,.13-.05.27-.14.42.11.55.21.97.32,1.25l-.05.14c.08.19.16.28.23.28,0,.05-.02.12-.07.21.12.75.23,1.12.33,1.12l-.07.14v.42c.45,1.23.67,1.93.67,2.09-.05,0-.07.02-.07.07v.28c.04.08.06.16.09.23l-.79-.02v2.51h3.3l.07.04.09-.04h.16l.09.04.05-.04h.3s.02.02.04.02l.05-.02h.26c.06.01.12.02.18.02.04,0,.07,0,.11-.02h1.67v-2.51l-1.02.02v-.11c-.11-.19-.19-.28-.25-.28,0-.05.03-.07.09-.07,0-.02-.08-.19-.25-.49h-.16v.14h-.09c-.01-.43-.09-.8-.25-1.11h.07c0-.15-.11-.57-.33-1.27h.07c-.22-1.08-.39-1.69-.51-1.83h.07c-.54-2.25-.91-3.87-1.12-4.85.16-.01.25-.09.26-.23.18.11.32.16.44.16l.11-.23c-.08-.05-.14-.07-.18-.07v-.3c.2,0,.3-.09.3-.28l.12.07h.18c.01.09.05.14.12.14h.07c0-.09.04-.14.12-.14v-.14h-.07l-.18.14c-.01-.12-.06-.24-.14-.37h.07l.11.07v-.07l-.23-.28.33-.6c.08-.01.12-.06.12-.14-.04-.09-.05-.16-.05-.21.08,0,.14-.26.18-.79h.25c.01-.07.02-.15.04-.23-.06-.54-.11-.81-.16-.81.05-.07.09-.34.12-.81l-.07-.35c.05-.11.06-.18.05-.23l-.07-.14s.02-.07.07-.07c-.05-2.45-.62-4.01-1.71-4.68,0-.23-.19-.35-.56-.35,0-.21-.71-.43-2.13-.67h-.26v-.14h-7.51v2.48h1.56v.11l-.07.12s.08.03.09.09l-.05.42.07.16c-.11,0-.14,1.45-.11,4.34l.09.16h-.07c.02.63,0,1.28-.07,1.95.05,0,.07.02.07.07-.04.09-.05.19-.05.28.04.88.02,1.8-.04,2.78l.09.28c-.05.08-.09.64-.14,1.67l.07.12c-.07.54-.11,1.17-.12,1.9l.07.14c0,1.18-.02,1.93-.05,2.25.05,0,.07.03.07.09l-.11.7s.07.03.07.09c-.07,0-.11.17-.12.51l.09.14s-.07.02-.07.07l.04.74h-1.3v2.46h6.98v-2.46h-.97c.01-.25.03-.4.05-.46-.05,0-.08-.02-.09-.07.02-.62.06-.98.11-1.09l-.07-.12c-.01-.26,0-.62.02-1.09,0-.05-.03-.19-.09-.44.16-.71.21-1.93.14-3.64l.05-.35s-.07-.02-.07-.07c-.01-.09.03-.15.12-.16,0-.05-.02-.07-.07-.07l.07-.14-.02-.42c-.01-.28,0-.62.02-1.02-.05-.11-.07-.18-.07-.23l.12-.42-.02-.02c.19.01.34.02.46.02v.26ZM34.34,10.78c-.05-.14-.09-.21-.14-.21.08-.28.19-.42.32-.42v.07l-.11.35.16.09.14-.07v.21l-.16-.07-.07-.02-.14.07ZM34.23,25.73h.07l.02-.14h-.07l-.02.14ZM34.43,26.09h.07v-.14h-.07v.14ZM34.53,24.4h.07l.02-.14h-.07l-.02.14ZM34.59,25.73c.09-.01.15-.06.16-.14h-.14l-.02.14ZM34.64,25.03h.14v-.14c-.09,0-.14.05-.14.14ZM34.78,9.39v-.07l.16.02v.07l-.16-.02ZM34.94,30.69l.02.14h-.09v-.14h.07ZM34.97,25.24h.07v-.14h-.07v.14ZM35.17,26.51l.09-.14-.14-.07-.09.14.14.07ZM35.08,25.73h.14v-.07h-.14v.07ZM35.15,26.72h.07l.02-.14h-.07l-.02.14ZM35.38,27.63h.14c.01-.22.07-.39.18-.49h-.28l-.16.07c.08.15.12.29.12.42ZM35.41,27.07v-.14h-.14c.01.09.06.14.14.14ZM35.31,24.33h.07l.02-.14h-.07l-.02.14ZM35.45,9.49l.02-.07h.14v.07h-.16ZM35.71,18.67h.07v.35l-.07.14-.21-.14c.04-.23.11-.35.21-.35ZM35.62,28.06l.09-.14-.21-.14v.14c0,.09.04.14.12.14ZM35.5,29.92c.01-.09.06-.14.14-.14l.07.14h-.21ZM35.53,25.24c.09-.01.14-.06.14-.14h-.14v.14ZM35.71,25.81l.07-.14.14.07h.07l.02-.14h-.28c-.09,0-.15.05-.16.14l.14.07ZM35.59,25.52h.07c.09-.01.14-.06.14-.14l.02-.07h-.07c-.09,0-.15.05-.16.14v.07ZM35.78,20.85l.14.07c0,.09-.05.14-.14.14l-.14-.07c0-.08.05-.13.14-.14ZM35.66,24.54h.07v-.14h-.07v.14ZM35.99,9.04l-.07.14v.21l.14.21h-.14c-.08,0-.15-.12-.21-.35.05,0,.07-.07.07-.21h.21ZM35.99,18.18v.07l-.07.14c-.09-.05-.16-.07-.21-.07v-.21l.28.07ZM35.71,30.27c.01-.09.06-.14.14-.14v.14h-.14ZM35.78,26.65h.07c.11-.01.16-.06.16-.14h-.21l-.02.14ZM35.82,26.37c.09-.05.16-.07.21-.07v-.14h-.07c-.09,0-.14.05-.14.14v.07ZM35.83,26.09h.07v-.14h-.07v.14ZM35.99,20.22v.14h-.14v-.14h.14ZM35.85,27.91h.14v-.14c-.09,0-.14.05-.14.14ZM35.99,29.5v.14h-.14v-.14h.14ZM35.96,27.42h.07c.09-.01.14-.06.14-.14v-.07h-.14l.09-.14v-.07h-.07c-.09,0-.14.05-.14.14.04.08.05.18.05.28ZM35.92,26.86h.21v-.14h-.21v.14ZM36.06,27.46h.14v.14s-.12.02-.21.07h-.07v-.07c0-.08.05-.13.14-.14ZM36.06,18.53c.09,0,.14.05.14.14v.28h-.07c0-.08-.05-.2-.14-.35v-.07h.07ZM36.2,23.73v.14h-.07v-.14h.07ZM36.36,30.48v.21h-.14l-.02-.07c0-.08.05-.13.16-.14ZM36.22,27.56h.21l.02-.14h-.07c-.09,0-.15.05-.16.14ZM36.41,25.35v.28h-.14v-.28h.14ZM36.27,27.84h.14v-.14h-.14v.14ZM36.57,25.59l.07-.14-.14-.07-.07.14.14.07ZM36.47,24.96h.07l.02-.14h-.07l-.02.14ZM36.91,20.85v.07c0,.09-.05.14-.14.14l.14.21c-.23,0-.38-.07-.42-.21v-.07c.09,0,.23-.05.42-.14ZM36.62,23.52c.09,0,.14.05.14.14v.07c-.08-.05-.18-.07-.28-.07,0-.08.05-.13.14-.14ZM36.5,24.54h.14v-.14h-.14v.14ZM36.54,23.91h.14l.02-.14h-.14l-.02.14ZM36.62,9.11v.14h-.07v-.14h.07ZM36.69,20.15h.07c0,.09-.05.14-.14.14h-.07c0-.08.05-.13.14-.14ZM36.69,20.43v.07h-.14v-.07h.14ZM36.75,9.35c.01-.19.04-.28.09-.28-.04-.09-.05-.16-.05-.21h-.14l-.02.35c0,.09.04.14.12.14ZM37.05,24.57l.14.07c-.09.12-.14.23-.14.35h-.35l.07-.14h-.14v-.07c0-.08.05-.13.14-.14h.07v.07l-.07.14h.07c.09,0,.14-.05.14-.14l-.07-.14h.14ZM36.62,30.16l.07.14.21-.14c-.01-.08-.06-.13-.16-.14-.08,0-.12.05-.12.14ZM36.64,7.95h.14v-.21c-.09,0-.14.05-.14.14v.07ZM36.82,29.88h.07c-.01-.08-.06-.13-.16-.14h-.07c.01.09.06.14.16.14ZM36.75,10.34c.01-.07.13-.16.37-.28.09.05.16.07.21.07-.25.21-.38.35-.39.42-.06,0-.12-.07-.19-.21ZM36.98,18.18v.14h-.21v-.14h.21ZM36.91,19.86v.21c-.08,0-.13-.05-.14-.14v-.07h.14ZM36.98,27.04v.07h-.07l-.14-.07.07-.14c.09,0,.14.05.14.14ZM36.78,10.97h.07l.21-.14s.02.07.07.07l.09-.14-.14-.07h-.07c-.07,0-.15.07-.23.21v.07ZM36.92,9.84c.01-.09-.03-.14-.12-.14v-.14c.11.09.2.14.28.14l-.02.14h-.14ZM36.98,23.03h.14c-.05.09-.07.16-.07.21h-.07l-.14-.07c0-.08.05-.13.14-.14ZM36.98,24.15v.07h-.14v-.07h.14ZM36.99,7.88l.02-.21h-.14l-.02.07c.01.09.06.14.14.14ZM36.94,13.78v-.07h.14l-.02.21c-.08-.01-.12-.06-.12-.14ZM36.96,13.43l.02-.14h.14l-.02.28c-.09-.01-.14-.06-.14-.14ZM36.96,14.48l.02-.21h.14l-.02.35c-.09-.01-.14-.06-.14-.14ZM36.98,9.21c.19-.07.28-.14.28-.21l-.12-.07c-.09,0-.15.05-.16.14v.14ZM37.19,7.77v.07h-.14v-.07h.14ZM37.4,21.2v.07h-.35v-.07h.35ZM37.26,25.49c.09,0,.14.05.14.14v.07c-.11,0-.2.02-.28.07,0-.05-.02-.07-.07-.07.05-.09.07-.16.07-.21h.14ZM37.26,20.92c.09,0,.14.05.14.14h-.28c0-.08.05-.13.14-.14ZM37.33,26.26v.07h-.21v-.07h.21ZM37.4,19.44l.07.35h-.14c-.08,0-.13-.05-.14-.14v-.14s.12-.02.21-.07ZM37.19,30.13v-.07h.14v.07h-.14ZM37.54,20.43l-.14.35-.14-.07.07-.35c.09.05.16.07.21.07ZM37.4,7.91v.14h-.07v-.14h.07ZM37.47,22.96h.07v.14h-.21c0-.08.05-.13.14-.14ZM37.38,9.35h.14v.14c-.09-.01-.14-.06-.14-.14ZM37.54,23.45h.07v.21c-.09-.05-.16-.07-.21-.07,0-.08.05-.13.14-.14ZM37.68,23.8v.21l-.14-.07v.14l-.14-.07s.02-.07.07-.07l-.07-.14h.28ZM37.61,22.4v.07h-.14v-.07h.14ZM37.75,19.51v.21c-.14-.07-.21-.14-.21-.21h.21ZM37.68,25.42h.07v.21h-.21v-.07c0-.08.05-.13.14-.14ZM37.82,18.88c0,.09.12.14.35.14v.14c-.07,0-.16.05-.28.14h-.14c0-.07-.05-.16-.14-.28v-.14h.21ZM37.82,20.29h.07c0,.09-.05.14-.14.14h-.07c0-.08.05-.13.14-.14ZM37.89,26.26v.21s-.12.02-.21.07l.07-.28h.14ZM38.03,8.61v.28h-.14l.07-.28h.07ZM37.96,21.62s.02.12.07.21h-.14v-.21h.07ZM38.17,23.59c.14.07.21.14.21.21l-.49-.07v-.14h.28ZM38.24,24.5c.08,0,.15.14.21.42-.12,0-.28-.09-.49-.28v-.07l.14.07v-.14h.14ZM38.17,20.36h.07v.14l.21-.14h.07v.14c-.12.19-.21.28-.28.28h-.07c0-.08-.05-.2-.14-.35l.14-.07ZM38.17,21.2v.07h-.14v-.07h.14ZM38.08,29.34l.02-.21h.07v.21h-.09ZM38.59,7.63c0,.09-.05.14-.14.14v-.14h.14ZM38.49,15.75l.02-.14c.07,0,.16.09.26.28h-.14c-.09-.01-.14-.06-.14-.14ZM38.66,9.53v.14h-.07v-.14h.07ZM38.87,21.34v.07c-.08-.05-.18-.07-.28-.07v-.07l.07-.14c.14.07.21.14.21.21ZM38.72,19.69l.02-.14h.21l-.02.14h-.21ZM38.77,17.02v-.21h.14v.21h-.14ZM38.8,16.56l.02-.28h.07l-.02.28h-.07ZM38.91,16.07l.02-.35c.09.01.14.06.14.16-.06.08-.09.15-.09.19h-.07ZM39.01,15.36l.02-.14.07.02v.14l-.09-.02ZM39.07,14.54v-.14h.09l-.02.14h-.07ZM39.09,12.31v-.14h.07v.14h-.07ZM39.09,14.66v-.14l.35-.07-.14.21s.07.02.07.07h-.07c-.09-.05-.16-.07-.21-.07ZM39.16,10.86v-.07h.14v.07h-.14ZM39.16,16.07c.05-.07.07-.21.07-.42h.14c0,.09.02.14.07.14-.05.08-.07.18-.07.28h-.21ZM39.16,16.84v-.21h.07s.02.12.07.21h-.14ZM39.16,17.12v-.21h.07v.21h-.07ZM39.16,17.61v-.35h.07c0,.14.05.21.14.21v.14l-.14-.07s-.02.07-.07.07ZM39.3,17.86l.02.28c-.07,0-.12-.05-.14-.14-.01-.08.03-.13.12-.14ZM39.23,11.07l.14-.07s.02.12.07.21h-.07c-.09-.01-.14-.06-.14-.14ZM39.23,12.48v-.07h.14v.07h-.14ZM39.23,12.97l.07-.14-.07-.14h.14s.02.12.07.21l-.14.07h-.07ZM39.23,15.43l.07-.14s-.07-.02-.07-.07c.05,0,.07-.02.07-.07-.05,0-.07-.02-.07-.07h.14l.14.07c.01-.09.06-.14.14-.14l.07.14c-.23,0-.35.09-.35.28h-.14ZM39.3,9.74v-.35c.15,0,.27-.02.35-.07v.14c-.14,0-.21.05-.21.14.05.08.07.18.07.28h-.07c-.09-.01-.14-.06-.14-.14ZM39.37,12.06s-.02-.12-.07-.21l.14-.07.07.14c0,.09-.05.14-.14.14ZM39.3,12.27v-.14h.21v.14h-.21ZM39.3,17.19v-.14c.09,0,.14-.02.14-.07.09.05.16.07.21.07v.07c-.15,0-.27.02-.35.07ZM39.3,17.9l.14-.07h.14v.28h-.07c-.07,0-.14-.07-.21-.21ZM39.3,19.02h.21c0-.09-.05-.14-.14-.14l-.07.14ZM39.45,7.59v.07h-.14v-.07h.14ZM39.47,19.41l-.05.28h-.07l-.02-.28h.14ZM39.37,13.18v-.07c.01-.09.06-.14.14-.14h.07v.07c0,.09-.05.14-.14.14h-.07ZM39.51,16.49v-.07l.07-.14h-.21c.02-.09.14-.19.35-.28v.07l-.14.21c.09.05.16.07.21.07v.07l-.28.07ZM39.51,14.45s-.02-.12-.07-.21v-.07h.07s.02.12.07.21v.07h-.07ZM39.44,17.61c.01-.09.06-.14.14-.14h.07v.14h-.21ZM39.51,10.16c.01-.09.06-.14.14-.14v.14h-.14ZM39.51,14.73v-.07h.14v.07h-.14ZM39.58,12.48v-.14c.09,0,.14.05.14.14h-.14ZM39.58,12.62v-.07h.14v.07h-.14ZM39.58,17.33v-.14h.07v.14h-.07ZM39.72,9.95l-.07-.14h.21c0,.09-.05.14-.14.14ZM39.93,9.67c.09-.19.14-.33.14-.42.09,0,.14.05.14.14-.05,0-.07.02-.07.07.05,0,.07.02.07.07l.14-.07h.21l-.07.14s.07.02.07.07c-.14,0-.21.02-.21.07-.07-.05-.21-.07-.42-.07ZM41.42,16.47h-1.44c.11-.34.15-.86.12-1.55-.01-.14-.06-.3-.16-.49,0-.08.04-.13.12-.14-.04-1.08-.02-2.03.05-2.87-.06-.22-.09-.41-.11-.56l.04-.19h1.25v-.39c.21.05.42.32.62.81v4.82c-.16.38-.33.56-.49.56ZM40.21,8.26v-.14h.14c0,.09.02.14.07.14.09-.05.16-.07.21-.07l.28.35h-.35c-.16-.19-.28-.28-.35-.28ZM40.28,8.68v-.07h.14c.09.05.16.07.21.07l-.07.14c.09,0,.14.05.14.14v.07h-.07c-.14-.23-.26-.35-.35-.35ZM40.49,19.97l.04.28h-.14l-.02-.14c0-.08.04-.13.12-.14ZM40.63,7.77v-.07h.28l.07.14v.07c-.12-.09-.23-.14-.35-.14ZM41.3,23.17l.14.07-.07.14c-.08,0-.13-.05-.14-.14v-.07h.07ZM41.53,23.29l.11.35v.07l-.32-.12c.05-.09.07-.19.07-.3h.14ZM41.48,17.16v.07h-.14v-.07h.14ZM41.51,22.94l.02.28h-.14l-.02-.28h.14ZM41.53,22.22c.01.09-.03.14-.12.14l-.02-.14h.14ZM41.62,9.83l.28.35-.42.07c0-.15-.02-.27-.07-.35.05,0,.12-.02.21-.07ZM41.55,22.43v.07h-.14v-.07h.14ZM41.63,23.78c.01.19.07.35.18.47-.09.01-.14.09-.14.23-.09-.05-.17-.07-.23-.07v-.14l.05-.49h.14ZM41.69,24.56l.07-.02.11.49s-.02.12-.07.21c-.08.01-.19-.15-.33-.47.07-.14.15-.21.23-.21ZM41.88,25.38v.14c.01.09-.04.15-.14.16-.08,0-.13-.05-.16-.14l-.02-.21.32.05ZM41.97,25.81s-.01.07-.07.07c.01.09.06.14.16.14-.05.07-.06.21-.05.42-.13-.09-.23-.13-.3-.12l.07-.14-.02-.14h-.14l-.02-.28c.08.05.21.06.37.05ZM41.76,8.84v.14h-.14c0-.08.05-.13.14-.14ZM41.85,20.74h.07l.02.14-.05.14c-.15-.07-.23-.14-.23-.21.05,0,.11-.02.19-.07ZM41.77,26.39l.02.14h-.07l-.02-.14h.07ZM41.86,26.65l.02.14c0,.09-.05.15-.14.16l-.02-.14c0-.08.05-.13.14-.16ZM41.9,19.88h.14v-.14c-.08,0-.13.05-.14.14ZM41.99,27.35l.16.07c-.05.08-.07.18-.07.28h-.14l-.02-.35h.07ZM42.11,26.86c0,.09-.05.14-.14.14l-.02-.14h.16ZM42.18,28.13l-.12.63h-.07l-.04-.56.07-.14.16.07ZM42.16,27.84v.07h-.14v-.07h.14ZM42.25,29.44l.02.35-.14.02.05-.35.07-.02ZM42.27,29.87l.02.07-.16.02v-.07l.14-.02ZM42.14,13.22h.14v-.07h-.14v.07ZM42.21,30.23l.02.14h-.07l-.02-.14h.07ZM42.25,17.35h-.07v.14h.07v-.14ZM42.6,8.84h.21v.07c0,.09-.05.14-.14.14h-.07l-.14-.07c0-.08.05-.13.14-.14ZM42.67,10.04h.07v.07c0,.09-.05.14-.14.14h-.07v-.07c0-.08.05-.13.14-.14ZM42.81,9.69v.21h-.07c-.08,0-.13-.05-.14-.14v-.07h.21ZM42.6,13.5h.07c.09,0,.13-.05.12-.14v-.07h-.14s-.02.12-.05.21ZM42.83,14.82c-.04.07-.05.12-.05.16h-.11v-.25h.05c.07,0,.11.03.11.09ZM42.74,28.93l.02.14h-.07l-.02-.14h.07ZM42.76,11.88h.14v-.14h-.14v.14ZM42.78,28.3v-.14c0-.07.07-.14.21-.21,0,.15.02.27.07.35h-.28ZM42.79,12.31h.14v-.07h-.14v.07ZM42.83,12.94h.07v-.14h-.07v.14ZM42.85,23.38h.07v-.14h-.07v.14ZM42.88,11.46c0,.09.05.14.14.14l-.02-.21h-.14l.02.07ZM42.99,15.17v.11h-.11v-.11h.11ZM43.04,15.52c0,.14.05.21.16.21-.04.04-.05.13-.05.3h.05v.11h-.05c-.08-.07-.15-.11-.21-.11v-.11l.11-.14s-.1-.05-.16-.16v-.11h.16ZM42.92,11.11h.14c0-.08-.05-.13-.14-.14v.14ZM43.25,14.52c0,.06.04.13.11.21-.18,0-.26.03-.26.09h.05c-.04.07-.05.12-.05.16h-.05c-.07,0-.11-.04-.11-.11.04-.06.05-.12.05-.19-.04,0-.05-.02-.05-.05.09,0,.18-.04.26-.11h.05ZM43.09,16.17v.11h-.05c-.07,0-.11-.04-.11-.11v-.04c.07.02.12.04.16.04ZM43.09,13.38l.05.09v.11h-.05c-.07,0-.11-.04-.11-.11,0-.06.04-.09.11-.09ZM43.3,30.89c.11-.01.16.03.16.12h-.07c-.08.01-.13-.03-.16-.12h.07ZM43.78,14.63v.25c.07.08.11.18.11.3.11,0,.26-.06.47-.19,0,.04.02.05.05.05-.08.23-.15.35-.21.35h-.16c0-.11-.05-.16-.16-.16-.04.07-.05.12-.05.16h-.11c-.01-.43-.1-.65-.26-.65v-.11l.11.05v-.11c-.08-.16-.13-.25-.16-.25-.07.04-.12.05-.16.05.21-.22.32-.36.32-.4h.05c.11,0,.16.22.16.65ZM43.46,16.28v.05h-.11v-.05h.11ZM43.57,17.93l-.05.25s-.1-.05-.16-.14l.16-.11h.05ZM43.69,29.65c0,.09-.05.15-.14.16-.08,0-.13-.05-.16-.14l.3-.02ZM43.59,9.69v.07h-.14v-.21c.09,0,.14.05.14.14ZM43.73,13.27v.16s-.02.04-.05.04l.05.11v.05h-.16s-.02-.09-.05-.16h.11v-.09l-.11.05-.05-.11.11-.05.11.05s.02-.05.05-.05ZM43.57,14.22c-.07.01-.11.05-.11.11h.11v-.11ZM43.62,15.87c0,.08.02.15.05.21-.04.06-.05.12-.05.19h-.05c-.07,0-.11-.04-.11-.11.04-.06.05-.11.05-.14h-.05c.04-.07.05-.12.05-.16h.11ZM43.62,15.57v.11h-.11v-.11h.11ZM43.73,17.79v.04c-.07,0-.11-.03-.11-.09v-.05c.07.01.11.05.11.11ZM44.1,15.47c0,.07.05.11.16.11l-.05.21c0,.14.05.29.16.44v.05l-.16-.11h-.05l-.11.05c-.13-.16-.23-.25-.32-.25v-.11c.18,0,.26-.03.26-.09v-.05h-.05l-.11.05-.05-.11v-.16s.13-.02.32-.05ZM43.94,19.44l.05.09c0,.06-.07.11-.21.16l-.05-.11v-.05c.06,0,.13-.03.21-.09ZM43.94,13.32v.11h-.11v-.11h.11ZM45.04,14.47v.11h-.21l-.05.25-.11-.04h-.26l-.16.09-.16-.09h-.05v.09c-.06-.04-.13-.05-.21-.05,0-.08.09-.16.26-.25,0,.07.05.11.16.11.27-.14.45-.21.53-.21l-.05-.09v-.3c.07,0,.12.13.16.39h.16ZM44.2,13.38c.11.27.16.42.16.44h-.05s-.09-.01-.16-.04h-.16c0-.08-.02-.15-.05-.21.07,0,.11-.06.11-.19h.16ZM44.13,26.97l.02.28c-.08,0-.13-.05-.16-.14,0-.07.05-.12.14-.14ZM44.15,16.58c-.04.07-.05.12-.05.16h-.05v-.16h.11ZM44.29,30.9v.07l-.23.02v-.07l.23-.02ZM44.31,16.33v.11c-.01.06-.05.09-.11.09h-.11v-.05c.04-.06.05-.11.05-.14h.16ZM44.36,16.58v.16h-.05c-.07,0-.11-.04-.11-.11v-.05h.16ZM44.57,25.33c.13.08.23.12.3.12l-.12.21c-.25.18-.36.32-.35.44l-.16.02c.19-.27.28-.53.26-.79h.07ZM44.45,29.9h.07s0,.12-.05.21l.09.14-.23.16h-.07v-.07c-.01-.23.05-.38.19-.44ZM44.52,22.94v.14l-.05.35h-.16l.05-.49h.16ZM44.5,8.63h.07v.14h-.21c0-.08.05-.13.14-.14ZM44.68,27.3v.05c.01.09-.04.15-.14.16h-.07c.05-.09.07-.16.07-.21h.14ZM44.89,14.98s.04.11.11.19v.35c.09,0,.16.07.21.21h.05c-.01.06-.05.09-.11.09v-.09h-.05s-.05.02-.05.05c-.16-.06-.3-.16-.42-.32h.11v-.04l-.21-.21c.21,0,.32-.08.32-.25h.05ZM44.78,15.98l.05.11c-.07,0-.11.08-.11.25h-.16l-.05-.19.26-.16ZM44.59,26.95c.09-.01.15.03.16.12l-.07.02c-.09,0-.15-.05-.16-.14h.07ZM44.94,27.98v.07c-.07.14-.14.21-.21.21l-.14-.05c.04-.09.05-.16.05-.21l.3-.02ZM44.71,29.27l.02.14h-.09v-.14h.07ZM44.73,14.92v.16h-.05v-.16h.05ZM44.89,16.44v.14h-.16c.04-.06.05-.14.05-.25.07.01.11.05.11.11ZM44.87,30.8l.02.07-.16.02v-.07l.14-.02ZM45.01,29.25l.02.14c-.08,0-.13-.05-.16-.14h.14ZM45.26,14.63c-.04.06-.05.14-.05.25-.14-.05-.21-.09-.21-.14v-.05l.26-.05ZM45.15,16.08v.05h-.11v-.05h.11ZM45.26,25.65l.02.07h-.16v-.07h.14ZM45.36,27.4s.03.11.09.19l-.3.02-.02-.14c.06,0,.13-.02.23-.07ZM45.31,16.14v.04c-.04.07-.05.12-.05.16l-.11-.05c.04-.07.05-.12.05-.14h.11ZM45.41,26.9l-.23.02-.02-.21c.15.07.23.13.25.19ZM45.47,29.29v.07l-.23.02v-.07l.23-.02ZM45.5,27.11v.07l-.23.02v-.07l.23-.02ZM45.4,29.44l.02.14h-.09v-.14h.07ZM45.34,30.16h.07v-.14h-.07v.14ZM45.61,26.47l.02.21h-.16c.05-.09.07-.16.07-.21h.07ZM45.94,29.76l.02.42c.01.07-.08.15-.28.23-.05,0-.1-.07-.16-.21.21-.29.35-.44.42-.44ZM45.73,11.36l.05-.14v.14h-.05Z"/>
      <path class="cls-3" d="M66.98,10.37c.02.5.06.8.11.9l-.07.12c-.01.26,0,.63.02,1.11,0,.05-.03.19-.09.44.16.71.21,1.94.14,3.67l.05.35s-.07.02-.07.07c-.01.09.03.15.12.16,0,.05-.02.07-.07.07l.07.14-.02.42c-.01.28,0,.63.02,1.04-.05.11-.07.18-.07.23l.12.42-.09.16c.01.86.02,1.37.02,1.55,0,.05-.05.07-.14.07l-.02.12c.14,0,.21.08.21.23l-.16.28.14.3-.09.16s.07.02.07.07v.09h-.21v.07c.22.26.32.81.28,1.67-.01.14-.06.29-.16.46,0,.07.04.11.12.12-.04.96-.02,1.82.05,2.57-.06.2-.09.37-.11.51l.07.3s-.07.02-.07.05c.08.18.12.33.11.47v.05c0,.09-.09.14-.28.14v.04h1.51v2.5h-7.51v-2.5h1.56v-.11l-.07-.12s.08-.03.09-.09l-.05-.44.07-.16c-.11,0-.14-1.46-.11-4.38l.09-.16h-.07c.02-.63,0-1.29-.07-1.97.05,0,.07-.02.07-.07-.04-.09-.05-.19-.05-.28.04-.89.02-1.82-.04-2.79l.09-.3c-.05-.08-.09-.64-.14-1.67l.07-.12c-.07-.55-.11-1.19-.12-1.92l.07-.14c0-1.2-.02-1.96-.05-2.29.05,0,.07-.03.07-.09l-.11-.7s.07-.03.07-.09c-.07,0-.11-.17-.12-.51l.02-.04c-.09-.02-.22-.06-.39-.12,0,.05-.03.12-.09.21l-.49-.07c-.11,0-.2.02-.28.07-.08-.05-.18-.07-.28-.07h-.05v2.58h-2.6v-6.01h2.6v.02h.32v-.02h7.51v.02h.32v-.02h2.6v6.01h-2.6v-2.58h-.05c-.11,0-.2.02-.28.07-.08-.05-.18-.07-.28-.07l-.49.07c-.06-.09-.09-.16-.09-.21-.28.09-.46.14-.54.14l-.09-.14s.07-.02.07-.07h-.09ZM61.15,9.48l-.07.14v.07c.09-.05.16-.07.21-.07,0-.09-.05-.14-.14-.14ZM61.15,8.07h.07c.09.01.14.06.14.14v.07h-.07c-.09,0-.14-.05-.14-.14v-.07ZM61.43,9.48v.07l.35.07v-.07c0-.07-.07-.14-.21-.21-.09.01-.14.06-.14.14ZM62.1,15.96v-.25h-.07v.25h.07ZM63.18,15.87h.21v.07c0,.09-.05.14-.14.14l-.07-.14v-.07ZM63.2,18.91v.25h.23v-.25h-.23ZM63.2,22.59v.47h.07c.13-.32.23-.47.32-.47v-.12h-.09c-.08.08-.18.12-.3.12ZM63.27,21.64c.3.55.49.83.54.83l.07-.23c-.14-.4-.35-.6-.62-.6ZM63.36,19.27v.12h.14v-.12h-.14ZM63.4,8.56c.01.09.06.14.14.14l.07-.14h-.21ZM63.43,18.21v.23h.16v-.23h-.16ZM63.5,17.74v.12h.16v-.37c-.11.02-.16.11-.16.25ZM63.62,16.31v-.47h-.09v.47h.09ZM63.59,22.71v.11c.01.16.06.25.14.25h.09v-.12c0-.15-.05-.23-.16-.23h-.07ZM63.61,8.21c.01.09.06.14.14.14v-.14h-.14ZM63.66,19.64v.11h.16v-.11h-.16ZM63.82,18.44v.12h.14v-.12h-.14ZM63.89,21.29c0,.08-.02.12-.07.12.05.13.07.29.07.47.09-.08.19-.12.3-.12,0-.12-.1-.28-.3-.47ZM63.89,16.44c.01.15.06.23.16.23h.07c.11,0,.16-.08.16-.23h-.39ZM63.96,20.46v.23h.09v-.23h-.09ZM64.05,20.22v.12h.14v-.12h-.14ZM64.12,15.96v.12h.16v-.12h-.16ZM64.12,18.56v.12h.16v-.12h-.16ZM64.27,19.64v.23h.07v-.23h-.07ZM64.27,22.71v.11h.14v-.11h-.14ZM64.5,16.66h.14v-.23c-.09.01-.14.09-.14.23ZM64.5,17.61h.14v-.23c-.09.01-.14.09-.14.23ZM64.5,18.56v.12h.14v-.12h-.14ZM64.66,27.48l.14.07v-.21c-.09.01-.14.06-.14.14ZM64.73,16.44v.11h.14v-.11h-.14ZM64.73,17.74v.12c.01.15.06.23.14.23v-.12c0-.15-.05-.23-.14-.23ZM64.8,15.61c.01.15.06.23.16.23h.07v-.47h-.07c-.11.02-.16.11-.16.25ZM64.8,29.73v.21h.21v-.14s-.12-.02-.21-.07ZM64.87,21.04v.25h.09v-.25h-.09ZM64.87,28.53v.14h.07v-.14h-.07ZM64.94,8.98v.07h.14v-.07h-.14ZM64.94,17.7v.14h.14c0-.09-.05-.14-.14-.14ZM64.94,30.36v.14h.07v-.14h-.07ZM64.96,22.59c.05.15.07.27.07.35h.14v-.23l.46.23c0-.18.03-.33.09-.47l-.16-.11h-.16v.23h-.14v-.12l.07-.23h-.16c-.07,0-.14.12-.21.35ZM65.08,25.44l-.07.28c.09,0,.14-.07.14-.21v-.07h-.07ZM65.03,17.61v.25h.53c-.05-.16-.07-.29-.07-.37l-.46.12ZM65.08,8.35v.07h.14v-.07h-.14ZM65.1,21.29v.23c.11,0,.16-.08.16-.23h-.16ZM65.15,24.24v.21c.14,0,.21.07.21.21h.07v-.35l-.14.07c0-.09-.05-.14-.14-.14ZM65.22,9.12v.14h.07v-.14h-.07ZM65.29,16.44v.07h.21c.09,0,.14-.05.14-.14v-.14h-.07c-.19.07-.28.14-.28.21ZM65.36,30.29l-.07.28c.05.09.07.16.07.21h.14l.07-.28c-.09,0-.14-.07-.14-.21h-.07ZM65.33,15.49v.12h.16v-.12h-.16ZM65.33,23.29v.25h.16v-.25h-.16ZM65.36,25.51v.14h.07v-.14h-.07ZM65.4,21.16c.02.16.08.25.16.25h.16c0-.16-.05-.25-.16-.25h-.16ZM65.49,16.44v.35h.23c0-.08.02-.2.07-.35-.05,0-.07-.04-.07-.12-.11.08-.18.12-.23.12ZM65.51,25.65v.14h.14c0-.09-.05-.14-.14-.14ZM65.51,26.91v.07h.14v-.07h-.14ZM65.58,24.45v.14h.14v-.28c-.09.01-.14.06-.14.14ZM65.72,11.02l-.07.28h.07c.07,0,.14-.07.21-.21l-.14-.07h-.07ZM65.65,21.85v.84h.14c-.05-.25-.07-.53-.07-.84h-.07ZM65.72,18.91v.12h.23v-.12h-.23ZM65.79,13.2v.14c.09,0,.14-.05.14-.14h-.14ZM65.86,19.86l-.07.25c.01.15.06.23.16.23,0-.08.02-.2.07-.35l-.16-.12ZM65.79,23.41c0,.18.15.33.46.47v.12c.11,0,.16-.08.16-.25v-.11c-.08,0-.29-.08-.62-.25ZM65.86,9.83v.14h.07v-.14h-.07ZM65.86,17.26v.23h.16v-.23h-.16ZM65.86,19.27c.01.16.06.25.16.25.11,0,.16-.08.16-.25h-.32ZM65.86,24.38v.14h.07v-.14h-.07ZM66,12.5v.21h.07v-.21h-.07ZM66,25.58v.14c.01.09.06.14.14.14v-.14c0-.09-.05-.14-.14-.14ZM66,26.35v.14c.09,0,.14-.05.14-.14v-.14c-.09.01-.14.06-.14.14ZM66.01,22.82v.12l.3.12c-.05-.14-.07-.3-.07-.47h-.07c-.11.02-.16.1-.16.23ZM66.07,24.52v.07c.01.09.06.14.14.14v-.07c0-.09-.05-.14-.14-.14ZM66.07,25.23v.14h.07v-.14h-.07ZM66.24,21.16v.12h.16v-.12h-.16ZM66.31,17.97v.12h.16v-.12h-.16ZM66.31,20.57v.37h.09v-.37h-.09ZM66.31,23.29v.25h.09v-.25h-.09ZM66.35,8.84v.14c.09,0,.14-.05.14-.14h-.14ZM66.35,10.95v.14h.07v-.14h-.07ZM66.35,18.19v.07h.14v-.07h-.14ZM66.42,16.79v.14h.07v-.14h-.07ZM66.49,17.56v.07h.14v-.07h-.14ZM66.56,11.87v.07h.14v-.07h-.14ZM67.12,19.25v.07c.09,0,.14-.05.14-.14v-.07c-.09.01-.14.06-.14.14ZM67.68,18.12v.14h.07v-.14h-.07ZM67.97,11.02v.14h.07v-.14h-.07ZM68.39,10.18v.14c0,.07.07.14.21.21,0-.15.02-.27.07-.35h-.28ZM68.74,8.7v.07c.01.09.06.14.14.14v-.07c0-.09-.05-.14-.14-.14ZM69.3,10.18l.07.42.42-.07c-.09-.23-.26-.35-.49-.35ZM69.51,9.33h.14v-.14c-.09.01-.14.06-.14.14ZM69.93,9.97v.07h.14v-.07h-.14ZM70.36,8.63l.14.07h.07c.09,0,.14-.05.14-.14v-.07h-.21c-.09.01-.14.06-.14.14ZM70.43,9.83v.07h.07c.09,0,.14-.05.14-.14v-.07h-.07c-.09.01-.14.06-.14.14ZM70.5,9.33v.07c.01.09.06.14.14.14h.07v-.21h-.21ZM71.34,9.19s-.02.12-.07.21l.14.07c.09,0,.14-.05.14-.14s-.05-.14-.14-.14h-.07ZM71.27,9.97c.09.01.14.06.14.14.09-.05.16-.07.21-.07v-.28h-.14c-.07,0-.14.07-.21.21Z"/>
      <path class="cls-3" d="M72.92,6.59h.07c.09.05.16.07.21.07-.06.23-.13.35-.21.35h-.07v-.07s.02-.07.07-.07l-.07-.14v-.14ZM73.27,6.24c.05.09.07.16.07.21h-.14c0-.09-.07-.14-.21-.14v-.07h.28ZM82.27,19.79c-.18-.04-.33-.05-.46-.05-.11,0-.2.02-.28.07-.08-.05-.18-.07-.28-.07h-.07l-.35.07c-.05-.11-.07-.18-.07-.23-.14.05-.33.07-.56.07-.01-.14-.09-.21-.23-.21l-.05.14s.07.02.07.07l-.14.09h-.14c-.12-.11-.21-.16-.28-.16-.09.05-.16.07-.21.07l.02.3c0,.16-.01.38-.04.65,0,.05.02.07.07.07l-.05.35.07,1.44c0,.12-.02.22-.05.3,0,.05.02.07.07.07l-.05.51.11,1.86s-.02.07-.07.07c.05.11.08.18.09.23l-.07.14s.02.07.07.07l-.04.51.04.93-.05.35c1.1.05,1.99.08,2.67.09v-2.39h2.6v6.01h-.77s-.1.08-.16.12h-1.37v.11h-9.09v-2.65h1.76l-.16-3.01c-.02-.48-.03-1.05-.02-1.72l-.07-.16.11-3.67s-.04-.12-.09-.21c-.02-2.66-.01-5.98.04-9.95h-1.56v-2.67h1.6v-.07l.12-.07c.09,0,.15.02.16.07l.69-.07h.98c.11,0,.21.02.3.07.05,0,.06-.02.05-.07.6.05.91.07.93.07,1.61.02,2.92.04,3.96.05v-.02h2.6v6.01h-2.6v-2.58h-.05c-.11,0-.2.02-.28.07-.08-.05-.18-.07-.28-.07l-.49.07c-.06-.09-.09-.16-.09-.21-.28.09-.46.14-.54.14l-.09-.14s.07-.02.07-.07h-.28l.02.21h-.28l-.23-.14-.62.14.07,1.65-.05.44c.06.08.09.2.11.35h-.07l.07.16v.07s-.02.07-.07.07l.09.14-.05.44c.05.09.08.16.09.21h-.07s.02.07.07.07l-.05.37v.07c.01.14.04.21.09.21l-.05.35.04.88c1.43.05,2.51.07,3.23.07v3.45ZM74.49,8.35c.02.09.08.14.16.14h.07c-.01-.09-.06-.14-.16-.14h-.07ZM74.89,26.84l.14.07-.02-.21c-.09.01-.13.06-.12.14ZM75.09,28.04l.02.14h.14c-.01-.09-.06-.14-.16-.14ZM75.35,22.78v-.14h-.16v.14h.16ZM75.88,16.1c0-.22-.15-.42-.46-.58v-.16c-.11,0-.16.1-.16.3v.14c.08,0,.29.1.62.3ZM75.35,16.24v-.3h-.09v.3h.09ZM75.42,18.86v-.16h-.16v.16h.16ZM75.35,19.6v-.46h-.09v.46h.09ZM75.28,12.57v.14c.09,0,.14-.05.14-.14h-.14ZM75.65,16.82v-.14l-.3-.16c.05.18.07.37.07.58h.07c.11-.02.16-.12.16-.28ZM75.45,11.87v.21h.07v-.21h-.07ZM75.81,21.18c-.01-.2-.06-.3-.16-.3-.11,0-.16.1-.16.3h.32ZM75.65,10.11v.21h.07v-.21h-.07ZM75.81,20.46l.07-.3c-.01-.19-.06-.28-.16-.28,0,.09-.02.23-.07.42l.16.16ZM75.81,23.64v-.28h-.16v.28h.16ZM75.95,21.62v-.16h-.23v.16h.23ZM76.18,24.66v-.42h-.23c0,.09-.02.23-.07.42.05,0,.07.05.07.16.11-.11.18-.16.23-.16ZM76.7,17.1c-.05-.19-.07-.33-.07-.42h-.14v.28l-.46-.28c0,.21-.03.4-.09.58l.16.12h.16v-.28h.14v.16l-.07.28h.16c.07,0,.14-.15.21-.44ZM76.26,18.86c-.02-.2-.08-.3-.16-.3h-.16c0,.2.05.3.16.3h.16ZM75.98,11.23v.07h.14v-.07h-.14ZM76.63,23.22v-.3h-.53c.05.2.07.35.07.44l.46-.14ZM76.1,29.87v.14h.07v-.14h-.07ZM76.18,8.21v.07h.14v-.07h-.14ZM76.33,16.24v-.3h-.16v.3h.16ZM76.33,25.82v-.14h-.16v.14h.16ZM76.56,18.7v-.28c-.11,0-.16.09-.16.28h.16ZM76.53,28.53v.07h.14v-.07h-.14ZM76.86,25.68c-.01-.19-.06-.28-.16-.28h-.07v.58h.07c.11-.02.16-.12.16-.3ZM76.63,27.9v.07h.14v-.07h-.14ZM76.79,19v-.3h-.09v.3h.09ZM76.93,23.06v-.14c-.01-.19-.06-.28-.14-.28v.14c0,.19.05.28.14.28ZM76.93,24.66v-.12h-.14v.12h.14ZM76.86,8l.02.14h.14l-.02-.14h-.14ZM76.97,9.9v.07c.09,0,.14-.05.14-.14v-.07c-.09.01-.14.06-.14.14ZM77.16,22.06v-.16h-.14v.16h.14ZM77.16,23.22h-.14v.28c.09-.01.14-.11.14-.28ZM77.16,24.38h-.14v.28c.09-.01.14-.11.14-.28ZM77.39,16.96v-.14h-.14v.14h.14ZM77.39,20.74v-.28h-.07v.28h.07ZM77.35,29.58v.07c.09,0,.14-.05.14-.14l-.02-.07c-.09.01-.13.06-.12.14ZM77.55,22.06v-.16h-.16v.16h.16ZM77.77,24.66c-.01-.19-.06-.28-.16-.28h-.07c-.11,0-.16.09-.16.28h.39ZM77.55,25.24v-.14h-.16v.14h.16ZM77.48,8.77v.07h.14v-.07h-.14ZM77.77,18.7c0-.09.02-.14.07-.14-.05-.16-.07-.36-.07-.58-.09.09-.19.14-.3.14,0,.14.1.33.3.58ZM77.62,20.02v-.14h-.14v.14h.14ZM77.7,19.72v-.28h-.09v.28h.09ZM77.63,10.67v.07h.14v-.07h-.14ZM77.85,22.2v-.14h-.14v.14h.14ZM78.39,18.28c-.3-.68-.49-1.02-.54-1.02l-.07.28c.14.49.35.74.62.74ZM78.07,16.96v-.14c-.01-.2-.06-.3-.14-.3h-.09v.16c0,.19.05.28.16.28h.07ZM78,20.74v-.14h-.16v.14h.16ZM77.85,28.46l.02.14h.07l-.02-.14h-.07ZM78.16,23.06v-.14h-.16v.44c.11-.02.16-.12.16-.3ZM78.02,30.36v.14h.07v-.14h-.07ZM78.04,24.82v.58h.09v-.58h-.09ZM78.46,17.1v-.58h-.07c-.13.39-.23.58-.32.58v.16h.09c.08-.11.18-.16.3-.16ZM78.23,22.48v-.28h-.16v.28h.16ZM78.3,21.18v-.14h-.14v.14h.14ZM78.46,21.62v-.3h-.23v.3h.23ZM79.57,25.24v.3h.07v-.3h-.07ZM79.81,28.46l.02.14c.01.09.06.14.14.14h.07c0-.09.05-.14.14-.14l-.02-.21c-.08.05-.2.07-.35.07ZM79.85,8.7l.02.07c.01.09.06.14.14.14v-.07c-.01-.09-.06-.14-.16-.14ZM79.94,28.11l.02.21h.07c.09,0,.14-.05.14-.14l-.02-.07h-.21ZM80.39,19.25c.02.09.08.14.16.14l.05-.14h-.21ZM81.13,28.11c-.16.38-.29.56-.39.56,0-.09-.05-.14-.14-.14h-.07v.14c.02.09.08.14.16.14h.07c.11,0,.19-.02.26-.07.09.05.19.07.3.07.13-.13.19-.27.18-.42h.42v-.14h-.28s-.07.02-.07.07l-.44-.21ZM80.55,17.98v.07h.14v-.07h-.14ZM80.66,9.26v.07h.14v-.07h-.14ZM80.83,28.95v.07h.14v-.07h-.14ZM82.24,17.98s-.02.12-.07.21l.16.07c.09,0,.13-.05.12-.14,0-.09-.05-.14-.14-.14h-.07ZM82.2,18.76v.07s.12.02.21.07l.07-.14-.02-.21h-.07c-.07,0-.13.07-.19.21ZM82.56,9.26l.02.21h.14v-.07c-.01-.09-.06-.14-.16-.14ZM82.59,9.83l.02.35c.09,0,.13-.05.12-.14v-.21h-.14Z"/>
      <path class="cls-3" d="M91.84,24.98c-.26,1.78-.43,3.01-.51,3.69h.07l-.02.11h.86v2.57h-6.03v-2.57h1.05c.08-.91.17-1.37.26-1.37l-.07-.16v-.28s.02-.07.07-.07c.47-3.8.8-6.12.98-6.96l-.07-.14c.09-.56.16-.91.21-1.05-.05,0-.07-.02-.07-.07,0-.14.05-.29.14-.44h-.07l.21-1.27h-.07l.28-1.78c.27-2.41.49-4.27.65-5.57h-1.12v-2.55h9.53v2.55h-1.21l.04.53-.07.14c.19,1.35.28,2.34.28,2.99v.07l.07.35-.14.07c.16,0,.3,1.35.42,4.04l-.07.14h.14v.14l-.07.14s.07.02.07.07v.07c0,.11-.05.16-.14.16v.28s.07-.02.07-.07c.08,0,.13.05.14.14v.14l-.07.14s.07.02.07.07l-.07.14s.09.16.14.49l-.07.14.14,1.07-.07.28c.09.2.14.34.14.42l-.07.14.35,2.14-.07.14c.08,0,.13.05.14.14l-.07.14h.07c0,.91.09,1.76.28,2.55l-.07.14s.12.47.21,1.42c-.05,0-.07.02-.07.07.02,0,.06.04.11.11h1.18v2.57h-6.03v-2.57h.95c-.05-.3-.09-.69-.14-1.16,0-.08-.09-.83-.28-2.23-.02-.14-.04-.28-.05-.4h-2.46ZM86.41,31.73h-.14v-.14h.14v.14ZM88.66,27.21v.42h.14v-.42h-.14ZM88.8,30.09v.14h.26v-.14h-.26ZM88.92,28.44v.28h.14v-.28h-.14ZM89.06,24.87v.26h.14v-.26h-.14ZM89.46,26.12v.12h.28v-.12h-.28ZM89.57,23.13h-.07v.14c.14.12.21.23.21.35h.14v-.35c-.07,0-.16-.05-.28-.14ZM89.75,28.44c0,.19-.05.28-.14.28,0,.47.13.7.4.7,0-.16.09-.26.28-.28l-.14-.7h-.4ZM90.55,23.34h-.21l-.14.07-.07-.14c-.07,0-.14.09-.21.28h.21l.14-.07s.14.15.42.37h.14v-.09c-.09-.09-.14-.28-.14-.56-.09,0-.14.05-.14.14ZM90.06,23.06c0,.09.05.14.14.14v-.21l-.14.07ZM90.27,20.8l-.07.49v.35h.21v-.84h-.14ZM90.2,22.36v.07c0,.09.05.14.14.14h.07c-.07-.14-.14-.21-.21-.21ZM90.27,17.1h.14l.14-.07-.07-.14c-.14.07-.21.14-.21.21ZM90.55,15.05h-.07c0,.09-.05.14-.14.14v.21h.28c.08,0,.13-.05.14-.14-.07-.14-.14-.21-.21-.21ZM90.55,23.99v.07h.14v-.07h-.14ZM90.69,21.15v.14h.14v-.14h-.14ZM90.76,22.57h-.07v.42c.08,0,.2.05.35.14h.14c-.22-.38-.36-.56-.42-.56ZM90.84,23.41c0,.09.05.14.14.14h.07v-.07l-.07-.14-.14.07ZM90.91,25.63v.14h.07v-.14h-.07ZM91.12,12.13v.14c.08,0,.13-.05.14-.14h-.14ZM91.12,23.27v.14h.14c0-.08-.05-.13-.14-.14ZM91.33,9.93l-.14.07c0,.09.05.14.14.14h.21c-.05-.09-.07-.16-.07-.21h-.14ZM91.19,18.3c0,.09.05.14.14.14v-.14h-.14ZM91.26,11.99c0,.09.05.14.14.14v-.14h-.14ZM91.47,11.41v.16h.07v-.16h-.07ZM91.54,15.68h-.07c.05.09.07.16.07.21h.28v-.14c-.11,0-.2-.02-.28-.07ZM91.82,16.89v.07h.14v-.07h-.14ZM91.89,9.35v.14h.14c.08,0,.13-.05.14-.14h-.28ZM94.05,22.43c-.05-.32-.09-.89-.12-1.72.05,0,.07-.04.07-.12-.08,0-.18-.87-.28-2.6v-.84c0-.15-.05-.23-.14-.25l.07-.88-.14-.37.07-.25c-.19-1.49-.3-2.89-.35-4.22.05,0,.07-.04.07-.11-.05,0-.09-.29-.14-.86.09-.08.16-.12.21-.12-.12-.34-.21-.51-.28-.51,0,.23-.07.49-.21.76v.12s.12.04.21.12c-.08.18-.15.5-.21.98l.07.25c-.05.69-.07,1.27-.07,1.74v.25l-.14.35v.74c-.09,1.57-.19,2.56-.28,2.97h.07c-.15,1.84-.27,2.91-.35,3.22h.07c-.06.73-.11,1.18-.14,1.35h1.95ZM93.58,14.96v.16h.07v-.16h-.07ZM93.86,10.49v.21h.14v-.21h-.14ZM94.07,9.21v.07h.14v-.07h-.14ZM94.14,9.72h-.07v.07s.12.02.21.07h.07v-.07s-.12-.02-.21-.07ZM94.35,15.33v.07h.14v-.07h-.14ZM94.63,11.2v.14h.07v-.14h-.07ZM94.7,11.85h.14v-.14c-.09,0-.14.05-.14.14ZM95.26,20.94v.14h.14v-.14h-.14ZM95.55,16.73v.09h.21v-.09h-.21ZM95.69,20.58v.21c0,.09.05.14.14.14h.07c-.05-.08-.07-.2-.07-.35h-.14ZM95.76,21.01l-.07.35v.07h.14v-.42h-.07ZM96.18,8.37v.14h.14v-.14h-.14ZM96.32,9.56v.16h.07v-.16h-.07ZM96.32,9.86v.07h.14v-.07h-.14ZM96.53,10.28v.35l.28-.07v-.07c-.07,0-.16-.07-.28-.21ZM96.53,11.5v.14h.14c0-.08-.05-.13-.14-.14ZM96.53,29.32v.14h.14c0-.08-.05-.13-.14-.14ZM96.6,12.13v.21h.07c.08,0,.13-.05.14-.14-.05,0-.12-.02-.21-.07ZM96.67,29.25l.07.14.14-.07-.07-.14-.14.07ZM96.74,12.9v.37h.14c0-.06.02-.13.07-.23-.09,0-.14-.05-.14-.14h-.07ZM96.81,13.62v.07h.14v-.07h-.14ZM96.81,14.4v.14h.14v-.14h-.14ZM97.02,14.75v.07h.14v-.07h-.14ZM97.02,15.12v.07h.14v-.07h-.14ZM97.02,15.33v.07h.14v-.07h-.14ZM97.09,15.96v.14c.07.14.14.21.21.21v-.28s-.12-.02-.21-.07ZM97.16,15.68v.14h.07v-.14h-.07ZM97.16,16.45v.14h.14v-.14h-.14ZM97.16,29.11v.14h.07v-.14h-.07ZM97.16,29.95v.14c.08,0,.13-.05.14-.14h-.14ZM97.23,17.24v.42l.14-.07-.07-.35h-.07ZM97.23,28.46v.07h.14v-.07h-.14Z"/>
      <path class="cls-3" d="M112.63,9.63h-1.27v-2.48h7.51v2.48h-1.56v.11l.07.12s-.08.03-.09.09l.05.42-.07.16c.11,0,.14,1.45.11,4.34l-.09.16h.07c-.02.63,0,1.28.07,1.95-.05,0-.07.02-.07.07.04.09.05.19.05.28-.04.88-.02,1.8.04,2.78l-.09.28c.05.08.09.64.14,1.67l-.07.12c.07.54.11,1.17.12,1.9l-.07.14c0,1.18.02,1.93.05,2.25-.05,0-.07.03-.07.09l.11.7s-.07.03-.07.09c.07,0,.11.17.12.51l-.09.14s.07.02.07.07l-.04.74h1.3v2.46h-7.51v-2.46h1.49c-.01-.25-.03-.4-.05-.46.05,0,.08-.02.09-.07-.02-.62-.06-.98-.11-1.09l.07-.12c.01-.26,0-.62-.02-1.09,0-.05.03-.19.09-.44-.16-.71-.21-2.51-.14-5.4l-.05-.35s.07-.02.07-.07c.01-.09-.03-.15-.12-.16,0-.05.02-.07.07-.07l-.05-.11c-.05.14-.09.21-.12.21l.05.16v.16c0,.06-.02.09-.07.09-.08,1.73-.19,2.6-.32,2.6,0,.06.02.14.05.25-.09.9-.21,1.35-.33,1.34,0,.05.02.08.07.09l-.54,2.85c-.05,1.31-.24,2.05-.58,2.21l-.14-.11c0,.06-.12.11-.35.14-.04,0-.29-.09-.77-.26-.21-1.11-.35-1.71-.4-1.79,0-.05.02-.06.07-.05-.38-1.15-.55-2.03-.53-2.65l.09-.18h-.21v-.39l-.12-.25.07-.16.21.16v-.16h-.14c.01-.22-.07-.44-.25-.65l.02-.25.14-.21c-.07-.01-.16-.07-.28-.18l.09-.4c.01-.2-.07-.42-.25-.65v-.09l.07-.14c-.09-.01-.18-.26-.25-.74.08-.05.18-.06.28-.05l-.32-.49v-.16l.07-.16c-.14-.01-.21-.1-.19-.26,0-.06.05-.08.14-.05v-.09c-.08-.01-.16-.04-.25-.09.01.36.03.74.05,1.12l-.09.28c.05.08.09.64.14,1.67l-.07.12c.07.54.11,1.17.12,1.9l-.07.14c0,1.18.02,1.93.05,2.25-.05,0-.07.03-.07.09l.11.7s-.07.03-.07.09c.07,0,.11.17.12.51l-.09.14s.07.02.07.07l-.04.74h1.3v2.46h-7.51v-2.46h1.49c-.01-.25-.03-.4-.05-.46.05,0,.08-.02.09-.07-.02-.62-.06-.98-.11-1.09l.07-.12c.01-.26,0-.62-.02-1.09,0-.05.03-.19.09-.44-.16-.71-.21-1.93-.14-3.64l-.05-.35s.07-.02.07-.07c.01-.09-.03-.15-.12-.16,0-.05.02-.07.07-.07l-.07-.14.02-.42c.01-.28,0-.62-.02-1.02.05-.11.07-.18.07-.23l-.12-.42.09-.16c-.01-.84-.02-1.35-.02-1.53,0-.05.05-.07.14-.07l.02-.12c-.14,0-.21-.08-.21-.23l.16-.28-.14-.3.09-.14s-.07-.02-.07-.07v-.09h.21v-.07c-.22-.26-.32-.81-.28-1.67.01-.13.06-.28.16-.44,0-.07-.04-.11-.12-.12.04-.96.02-1.81-.05-2.55.06-.2.09-.37.11-.51l-.07-.3s.07-.02.07-.05c-.08-.16-.12-.32-.11-.46v-.05c0-.09.09-.14.28-.14v-.04h-1.51v-2.48h7.51v2.48h-1.11l-.02.04h.07c.4,1.75.69,3.17.88,4.27.49,1.83.89,3.6,1.2,5.31l-.09.16c.08,0,.13.11.14.32h.07c.05-.53.15-.79.3-.77.01-.09-.03-.15-.12-.16.05-.36.12-.54.23-.54.01-.18,0-.31-.05-.4.16-.96.35-1.43.54-1.41.01-.11-.05-.16-.19-.16v-.25c.08-.16.16-.25.23-.25l-.02.25h.07c.01-.06.04-.14.09-.25-.14,0-.21-.18-.19-.54.13-.11.23-.15.3-.14v-.09l-.05-.49.14-.21-.12-.26c.22-.36.39-.54.51-.54l.02-.07-.14-.25v-.07c.01-.11.11-.15.3-.14v-.09s-.12-.03-.21-.09c.01-.38.09-.56.23-.54l-.05-.4.28-.07.02-.09c-.19,0-.28-.05-.28-.16l.07-.16h-.07c.08-.15.16-.23.23-.23,0-.12-.02-.22-.05-.32,0-.05.1-.25.3-.62,0-.06-.02-.15-.05-.26l.07-.32ZM102.4,31.2l-.07.14c-.09,0-.14-.05-.14-.14v-.21c0-.08.05-.13.14-.14h.07v.35ZM102.33,29.37h-.07v-.14h.07v.14ZM102.4,29.58c0,.09-.05.14-.14.14v-.21l.14.07ZM102.4,30.36c0,.09-.05.14-.14.14v-.21l.14.07ZM103.18,21.15h-.14v-.07h.14v.07ZM103.46,13.87v.14c.08,0,.13-.05.14-.14h-.14ZM103.67,8.67h-.14s.02.12.07.21c-.05.08-.07.18-.07.28v.07s.07-.02.07-.07c.05,0,.12.02.21.07h.07c0-.08-.05-.13-.14-.14l.07-.14.35.21s.07-.07.21-.07v-.21l-.49.07v-.14h.14v-.07l-.35-.07ZM103.67,10.21c0,.09-.05.14-.14.14v.07h.07c.14-.07.21-.14.21-.21h-.14ZM103.67,8.24v.14c.14,0,.21.05.21.14h.14c-.09-.12-.14-.21-.14-.28h-.21ZM103.67,10.56c0,.09.05.14.14.14v-.14h-.14ZM103.88,11.69s-.02.12-.07.21l.07.14c.19-.07.28-.14.28-.21v-.07c-.11,0-.2-.02-.28-.07ZM103.88,26.28s-.02.12-.07.21l.07.28h.07v-.49h-.07ZM104.02,30.36c0,.09-.07.14-.21.14.09.12.14.21.14.28h.07c0-.19.12-.28.35-.28v-.07l-.35-.07ZM103.88,9.58v.07h.14v-.07h-.14ZM103.88,11.06v.14h.07v-.14h-.07ZM104.02,28.46h-.07c0,.09.05.14.14.14h.07c0-.08-.05-.13-.14-.14ZM104.02,29.09s-.02.12-.07.21c.14.11.21.22.21.35h.14v-.49c-.11,0-.2-.02-.28-.07ZM106.34,7.96c0,.14-.12.21-.35.21l.14.21v.07l-.07.14c-.09,0-.14-.05-.14-.14-.05,0-.07.02-.07.07l-.14-.07-.14.07v-.07l.14-.21c-.11,0-.2-.02-.28-.07-.02.19-.09.28-.21.28h-.14c-.36-.18-.57-.29-.63-.35-.11.09-.25.14-.42.14v.07s.12.02.21.07l-.07.35h.07c.25,0,.39-.12.42-.35.56.13.84.22.84.28l.14-.07h.07c0,.09-.05.14-.14.14l.07.14.28-.21v.07l-.07.14s.07.02.07.07l-.07.14-.21-.14h-.07l-.14.07s-.02-.07-.07-.07l.07-.14h-.14l-.14.49v.07c.12,0,.3.02.56.07,0-.14.05-.21.14-.21,0,.33-.09.49-.28.49l.07.14v.07h-.07c-.19-.08-.28-.22-.28-.42-.14.07-.21.14-.21.21-.05,0-.12-.02-.21-.07h-.07l.07.14v.07l-.35.07v.07h.21l.35-.07s.07.09.21.14c-.14.15-.21.27-.21.35h-.28l.14-.21v-.07h-.14c-.14.07-.21.14-.21.21.14,0,.21.05.21.14v.07l-.28.07v.07h.28v-.14s.07.02.07.07c.25-.13.5-.32.77-.56l.14.07s.02-.07.07-.07h.07v.14l-.07.14s.07.02.07.07v.07c-.28,0-.42.09-.42.28h-.14v-.07c0-.08.05-.13.14-.14,0-.08-.05-.13-.14-.14,0,.19-.07.28-.21.28v.14l.35.07h.07c0-.19.05-.28.14-.28h.14l.42.07h.07v-.07h-.21v-.14c.14,0,.21-.23.21-.7h-.14l.07.14v.07l-.07.14c-.09-.05-.16-.07-.21-.07l.14-.49-.14-.07s.02-.12.07-.21l-.07-.14s.02-.07.07-.07v-.28l.28.21-.07-.35s.09-.12.28-.21c0,.19.05.28.14.28,0-.14.09-.3.28-.49h-.49c-.09,0-.14.05-.14.14l-.14-.07c0-.09.07-.14.21-.14v-.21h-.07ZM104.02,27.55h.14v-.14c-.09,0-.14.05-.14.14ZM104.09,25.65v.07h.14v-.07h-.14ZM104.16,27.69v.07h.14v-.07h-.14ZM104.16,29.94c.07.14.14.21.21.21v-.21h-.21ZM104.16,30.71v.07c.14,0,.21.07.21.21h.14l-.14-.28h-.21ZM104.23,9.3v.07c.08,0,.2.05.35.14h.14v-.07c-.19,0-.28-.05-.28-.14h-.21ZM104.23,30.22c0,.09.05.14.14.14v-.14h-.14ZM104.3,9.86c0,.09.05.14.14.14v-.28c-.09,0-.14.05-.14.14ZM104.3,24.52v.07h.21v-.07h-.21ZM104.3,27.05c.05.07.07.21.07.42h.14s-.02-.12-.07-.21c0-.05.02-.12.07-.21h-.21ZM104.37,25.86v.21c.21-.09.33-.19.35-.28v-.07c-.12.09-.23.14-.35.14ZM104.37,29.3v.07h.14v-.07h-.14ZM104.44,7.89v.14c.08,0,.13-.05.14-.14h-.14ZM104.44,8.81v.14h.14c0-.08-.05-.13-.14-.14ZM104.44,23.89v.07h.14v-.07h-.14ZM104.44,30.43v.14h.07v-.14h-.07ZM104.51,27.69v.14h.07v-.14h-.07ZM104.58,12.11v.14h.07v-.14h-.07ZM104.58,28.25v.14h.07v-.14h-.07ZM104.58,30.78v.07h.14v-.07h-.14ZM104.65,10.92s.02.07.07.07c0,.05-.02.12-.07.21,0,.05.07.09.21.14v-.42h-.21ZM104.65,12.32v.07h.35v-.07h-.35ZM104.65,25.58v.07h.21v-.07h-.21ZM104.65,29.16c.05.25.07.39.07.42h.07v-.49l-.14.07ZM104.65,29.73c0,.34.07.53.21.56h.07v-.21c-.13-.23-.22-.35-.28-.35ZM104.86,8.81h-.07c.07.14.14.21.21.21v-.07c0-.08-.05-.13-.14-.14ZM104.79,9.37v.07h.14v-.07h-.14ZM104.79,28.46v.14h.07v-.14h-.07ZM104.86,16.15v.14c.08,0,.13-.05.14-.14h-.14ZM105.43,24.87c-.38.13-.56.25-.56.35h.21c.08,0,.13-.05.14-.14l.14.07c.14-.07.21-.14.21-.21v-.07h-.14ZM106.34,11.62v.07s.12.02.21.07c0,.09-.05.14-.14.14h-.07c0-.14-.09-.23-.28-.28l-.07.14v.14l.14-.07s-.02.12-.07.21l.07.14c0,.14-.09.23-.28.28-.08,0-.2-.05-.35-.14,0,.09-.12.14-.35.14v.21h.07l.42-.21.14.07s.12-.02.21-.07v.07l-.07.14c.08.05.2.07.35.07v.14l-.49.07v-.14h-.07v.07h-.21s-.07.05-.07.14h-.14c-.14-.07-.21-.14-.21-.21h-.14v.07c.07,0,.16.05.28.14,0,.09-.07.14-.21.14v.07c.16.05.26.07.28.07v.14h-.14s.02.07.07.07c0,.09-.07.14-.21.14v.14c.19-.05.35-.07.49-.07,0-.05-.02-.07-.07-.07l.07-.14s.12.02.21.07c.14-.07.21-.19.21-.35h.14l-.07.14c.09,0,.23-.05.42-.14.09,0,.23.05.42.14h.07l-.07-.14c.3,0,.47-.07.49-.21v-.07c-.13,0-.25-.12-.35-.35v-.35h-.07l-.14.07s-.02-.12-.07-.21l-.14.07-.14-.07c0-.08.05-.13.14-.14h.35c0-.23-.19-.35-.56-.35ZM104.93,28.53v.21h.07v-.21h-.07ZM104.93,29.16c0,.09.05.14.14.14v-.14h-.14ZM105,8.24v.07h.28v-.07h-.28ZM105,11.06v.14h.07v-.14h-.07ZM105.35,11.55c-.19.16-.28.28-.28.35,0,.09.05.14.14.14v-.21h.07l.14.07-.14.21h.14v-.14l.35.07v-.21c0-.08-.14-.18-.42-.28ZM105.14,12.18h-.07c0,.09.05.14.14.14h.07c0-.08-.05-.13-.14-.14ZM105.07,29.58v.07h.14v-.07h-.14ZM105.14,23.61v.07h.14v-.07h-.14ZM105.14,27.76l.14.21.14-.07-.14-.21-.14.07ZM105.21,23.82v.14h.07v-.14h-.07ZM105.28,10.99c0,.3.09.47.28.49h.07c-.07-.33-.19-.49-.35-.49ZM105.28,29.94v.07l.07.14c.08,0,.13-.05.14-.14-.05,0-.12-.02-.21-.07ZM105.35,12.67v.07h.14v-.07h-.14ZM105.43,26.42h-.07v.14h.21c0-.08-.05-.13-.14-.14ZM105.43,29.37v.07h.14l.14-.07c0,.09.05.14.14.14,0-.05.02-.12.07-.21,0-.05-.02-.12-.07-.21-.19.19-.33.28-.42.28ZM105.57,30.5l-.14.07c.05.08.07.18.07.28h.28c-.09-.12-.14-.23-.14-.35h-.07ZM105.5,13.87v.14s.12.02.21.07c-.07-.14-.14-.21-.21-.21ZM105.57,10.21v.14h.07v-.14h-.07ZM105.78,30.01c0,.07-.05.16-.14.28h.21s.02-.12.07-.21l-.14-.07ZM105.71,11.27v.07h.14v-.07h-.14ZM105.78,15.1s-.02.12-.07.21c.05.09.07.16.07.21l.14-.07c0-.23-.05-.35-.14-.35ZM105.71,24.45v.07h.21v-.07h-.21ZM106.06,10.85v.07h.14v-.07h-.14ZM106.06,13.66v.14h.07v-.14h-.07ZM106.13,15.73h-.07c0,.09.05.14.14.14h.07c0-.08-.05-.13-.14-.14ZM106.06,21.5v.07h.14v-.07h-.14ZM106.13,25.72s-.02.12-.07.21c.05,0,.07.05.07.14h.07l.14-.07c-.07-.19-.14-.28-.21-.28ZM106.34,10.92h-.07c0,.09-.05.14-.14.14v.07c.09.12.14.21.14.28.28-.11.42-.2.42-.28-.08,0-.2-.07-.35-.21ZM106.48,13.73v.21h.14v.14h-.07c-.14-.07-.21-.14-.21-.21h-.21v.07c.09,0,.23.07.42.21h.35v-.07l-.07-.14.14-.07v-.07s-.07.02-.07.07l-.14-.07.07-.14-.35.07ZM106.13,24.52v.07h.14v-.07h-.14ZM106.27,30.64l-.14.07c0,.09.05.14.14.14h.07v-.21h-.07ZM106.2,9.58v.07h.14v-.07h-.14ZM106.34,12.46h-.14v-.14h.14v.14ZM106.34,22.06c-.09,0-.14.05-.14.14v.21h.21s.02-.12.07-.21h-.14l.07-.14h-.07ZM106.34,29.87h-.14v.07c.07.14.14.21.21.21,0-.05.02-.12.07-.21l-.14-.07ZM106.55,12.32h-.21v-.07h.21v.07ZM106.34,15.38v.07c.08,0,.2.07.35.21v-.07l-.14-.21h-.21ZM106.69,15.8v.14l-.35-.07v.07c.12.19.21.28.28.28,0-.06.09-.2.28-.42h-.21ZM106.55,10.21c-.09,0-.14.05-.14.14.19,0,.28.05.28.14v.07l-.07.14s.07.02.07.07c.09-.05.16-.07.21-.07v-.21c0-.08-.05-.13-.14-.14l.07-.14h-.28ZM106.55,13.1h-.14v-.07c0-.08.05-.13.14-.14v.21ZM106.55,28.46h-.07c0,.11-.02.2-.07.28.05,0,.07.05.07.14h.28c-.05-.28-.12-.42-.21-.42ZM106.62,9.65s-.09.07-.14.21v.07h.07v-.07h.21l.35-.07v-.07l-.49-.07ZM106.48,25.23v.07s.12.02.21.07c0-.05.02-.12.07-.21v-.07c-.12.09-.21.14-.28.14ZM106.69,16.51h-.14c.05.08.07.18.07.28h.14l.14-.07c-.07-.14-.14-.21-.21-.21ZM106.62,30.71h.28s.02-.12.07-.21c-.23.04-.35.11-.35.21ZM106.69,9.16v.14h.07v-.14h-.07ZM106.76,11.06v.14c.08,0,.13-.05.14-.14h-.14ZM106.76,11.27v.07h.14v-.07h-.14ZM106.9,12.6l-.07.14s.07.02.07.07v.14c-.09,0-.14-.05-.14-.14v-.28h.14v.07ZM106.76,15.38v.07h.21v-.07h-.21ZM106.9,8.95s.02.07.07.07c0,.09-.05.14-.14.14.05.09.07.16.07.21.11,0,.18-.14.21-.42v-.07c-.09.05-.16.07-.21.07ZM106.83,16.44v.07h.14v-.07h-.14ZM106.83,18.97v.21h.07v-.21h-.07ZM106.83,27.69v.42c.08,0,.13-.05.14-.14v-.28h-.14ZM106.9,17.56v.07h.14v-.07h-.14ZM107.04,15.17h-.07v.07c.09,0,.14.05.14.14.08-.05.18-.07.28-.07v-.07c-.15,0-.27-.02-.35-.07ZM107.6,16.01h-.07c-.09,0-.14-.05-.14-.14-.2.09-.34.14-.42.14v.07c.21,0,.4.07.56.21l.28-.21v.07l-.07.14s.07.02.07.07l.28-.21h.07s-.02.07-.07.07c.05.08.07.18.07.28h.14l.07-.35v-.07l-.14-.21-.14.07h-.07c-.09,0-.14-.05-.14-.14-.19,0-.28.07-.28.21ZM107.04,11.62v.07h.14v-.07h-.14ZM107.18,30.5c0,.07-.05.16-.14.28.05,0,.12.02.21.07.08,0,.13-.05.14-.14-.07-.14-.14-.21-.21-.21ZM107.46,13.66h-.07v.07h-.28l.07.14-.07.14h.14c.15-.14.27-.21.35-.21,0-.08-.05-.13-.14-.14ZM107.46,15.38c-.23.06-.35.13-.35.21.05,0,.12.02.21.07.06-.14.13-.21.21-.21v-.07h-.07ZM107.18,11.76v.21h.21v-.21h-.21ZM107.18,23.89v.07h.14v-.07h-.14ZM107.25,13.24v.14h.07v-.14h-.07ZM107.25,17.14v.07h.21v-.07h-.21ZM107.32,16.65s.02.07.07.07c0,.05-.02.07-.07.07.07.14.14.21.21.21h.14c0-.08-.05-.13-.14-.14,0-.05.02-.12.07-.21v-.07c-.08.05-.18.07-.28.07ZM107.32,17.7v.07h.21v-.07h-.21ZM107.68,13.17c-.14,0-.21.05-.21.14l.28-.07v-.07h-.07ZM107.46,30.01v.07h.14v-.07h-.14ZM107.6,13.87h-.07l.07.14h.21v-.07s-.12-.02-.21-.07ZM107.71,18.14v.62s.08-.02.12-.02l-.07-.16.16-.23-.07-.02s-.09-.06-.14-.19ZM107.75,18.05l.07.35h.21c-.13-.23-.22-.35-.28-.35ZM107.82,13.24v.07h.21v-.07h-.21ZM107.82,19.39c0,.09.05.14.14.14v-.14h-.14ZM107.96,14.08v.07h.14v-.07h-.14ZM107.96,19.6v.14h.07v-.14h-.07ZM108.03,20.65v.07h.14v-.07h-.14ZM108.1,13.1v.07h.14v-.07h-.14ZM108.17,14.75v.14c0,.09.05.14.14.14h.07l-.07-.28h-.14ZM108.31,20.44h.14v-.14c-.09,0-.14.05-.14.14ZM108.31,20.87v.14h.21v-.14h-.21ZM108.38,17.42c0,.23.09.38.28.42h.07l-.07-.14v-.07h.14v-.07c-.14,0-.21-.05-.21-.14h-.21ZM108.52,21.15c0,.09.05.14.14.14v-.14h-.14ZM108.73,21.5h-.14v.21l.07.14c.08-.05.2-.07.35-.07v-.14c-.07,0-.16-.05-.28-.14ZM109.08,23.12h-.07v.14h.21c0-.08-.05-.13-.14-.14ZM109.08,21.5v.07h.14v-.07h-.14ZM109.22,17.84v.21h.07v-.21h-.07ZM109.22,19.53v.21c0,.09.05.14.14.14h.07c-.06-.23-.13-.35-.21-.35ZM109.43,28.95v.07h-.14v-.21c.08,0,.13.05.14.14ZM109.43,22.2c.05.09.07.16.07.21h.07v-.21h-.14ZM109.71,22.98l-.14.07c0,.08.05.27.14.56.12-.09.23-.14.35-.14v-.14c-.11,0-.2-.02-.28-.07l.14-.21s-.12-.02-.21-.07ZM109.64,21.15v.07h.14v-.07h-.14ZM109.93,23.75l-.14-.07s-.05.07-.14.07l.07.49h.14c0-.19.07-.28.21-.28v-.28l-.14.07ZM109.64,25.3v.07c.11,0,.2.02.28.07,0-.05.02-.07.07-.07l-.07-.14s-.12.02-.28.07ZM110.14,27.83c-.09,0-.14.05-.14.14v.14c.09.12.14.23.14.35h.07c0-.14.05-.3.14-.49l-.21-.14ZM110.07,21.01v.21h.07v-.21h-.07ZM110.07,23.05v.14h.14v-.14h-.14ZM110.07,26.56c0,.09.05.14.14.14l.14-.07-.07-.14c-.09.05-.16.07-.21.07ZM110.07,27.12v.14h.07v-.14h-.07ZM110.07,27.4v.07h.14v-.07h-.14ZM110.63,24.8c0,.19-.07.28-.21.28v.21l.14-.07h.07c0,.23.05.35.14.35h.07c-.09-.2-.14-.34-.14-.42l.07-.35h-.14ZM110.42,26.14v.14h.07v-.14h-.07ZM110.49,23.26v.07h.21v-.07h-.21ZM110.56,23.75h-.07c.05.32.09.53.14.63-.05,0-.07.02-.07.07,0,.09.05.14.14.14h.07c0-.11.02-.2.07-.28h-.14v-.07l.07-.14c-.07-.23-.14-.35-.21-.35ZM110.56,29.23l-.07.42h.14l.07-.35v-.07h-.14ZM110.7,23.05v.14s.12.02.21.07v-.21h-.21ZM110.77,26.63v.21h.14v-.07c0-.08-.05-.13-.14-.14ZM110.77,26.91v.56h.21l-.14-.56h-.07ZM111.4,26.07l-.42-.21-.14.21.07.14c.08,0,.13-.05.14-.14.05,0,.12.02.21.07.19,0,.28-.07.28-.21l.21.14h.07l-.14-.28c-.19,0-.28.09-.28.28ZM110.91,23.82v.14c.08,0,.13-.05.14-.14h-.14ZM110.98,24.59v.14h.07v-.14h-.07ZM111.12,29.94h-.07v.14c0,.09.05.14.14.14l.14-.07c-.07-.14-.14-.21-.21-.21ZM111.19,24.52h-.07l.14.21c.08,0,.13-.05.14-.14-.05,0-.12-.02-.21-.07ZM111.12,27.9v.14h.14c0-.08-.05-.13-.14-.14ZM111.47,25.01c0,.09-.09.21-.28.35.14,0,.21.05.21.14.08,0,.15-.16.21-.49h-.14ZM111.26,28.6l.07.28h.07v-.07c0-.14-.05-.21-.14-.21ZM111.33,23.12v.14s.12.02.21.07h.07v-.07c-.07,0-.16-.05-.28-.14ZM111.33,26.91v.07h.21v-.07h-.21ZM111.47,22.41v.07h.14v-.07h-.14ZM111.47,23.61v.21c0,.09.05.14.14.14h.07v-.14c-.07-.14-.14-.21-.21-.21ZM111.47,27.76v.14h.07v-.14h-.07ZM111.54,20.37v.07h.14v-.07h-.14ZM111.82,26.56h-.14l-.14.07.07.14.14-.07c.09,0,.14.09.14.28h.14v-.21c-.07-.14-.14-.21-.21-.21ZM111.61,27.83l-.07.28v.07s.12-.02.21-.07c.05,0,.12.02.21.07v-.28l-.35-.07ZM111.82,21.57c0,.09.05.14.14.14v-.14h-.14ZM112.03,24.59v.07h.14v-.07h-.14ZM112.1,24.73v.14h.14v-.14h-.14ZM112.1,26.56v.21h.07v-.21h-.07ZM112.32,23.12v.14h.07v-.14h-.07ZM112.46,24.45s.02.07.07.07c0,.09-.07.14-.21.14,0,.09.05.14.14.14h.28v-.14c0-.07-.09-.14-.28-.21ZM112.39,27.26v.14h.07v-.14h-.07ZM112.46,18.4v.07h.21v-.07h-.21ZM112.46,18.62v.14c.09-.05.16-.07.21-.07v-.07h-.21ZM112.67,16.3v.14c.09,0,.14.05.14.14h.07v-.07c-.05-.09-.07-.16-.07-.21h-.14ZM112.74,18.79v.07h.12v-.07h-.12ZM112.86,14.36v.14s.09.02.16.07v-.21h-.16ZM112.86,19.49c0,.09.04.14.11.14v-.14h-.11ZM112.97,14.92s-.02.12-.05.21c.13,0,.22.02.28.07l.07-.14v-.07l-.12.07-.18-.14ZM112.97,14.64v.07c0,.09.04.14.12.14h.05c-.06-.14-.12-.21-.18-.21ZM112.97,18.44c.04.09.05.16.05.21h.12s.02-.12.05-.21c-.04,0-.05-.02-.05-.07-.08.05-.14.07-.18.07ZM113.97,11.41c0,.19-.04.28-.12.28v.07h.12v.35h-.07l-.11-.07c0,.09-.04.14-.12.14h-.58v.07c.12,0,.18.05.18.14v.07h-.12c0,.09.04.14.12.14,0,.05-.02.12-.07.21,0,.09.08.14.25.14,0,.23-.08.47-.25.7.05.09.07.16.07.21l.28-.14-.05-.14v-.07c.06,0,.12.09.18.28l.3-.07s.05.05.05.14c.11-.02.18-.14.23-.35-.06-.32-.12-.53-.18-.63-.04,0-.05.02-.05.07-.21-.12-.33-.26-.35-.42.06-.14.12-.21.18-.21v.42c.06-.05.18-.07.35-.07v-.14l-.05-.14.11-.07c.12.07.18.14.18.21l.3-.07v-.28h-.12v.21h-.05c-.12-.07-.18-.14-.18-.21v-.42c-.2-.05-.3-.16-.3-.35h-.11ZM113.09,12.6v.14h.05v-.14h-.05ZM113.09,17.17h.11v-.14c-.07,0-.11.05-.11.14ZM113.19,11.55h-.05c0,.09.04.14.12.14h.05c0-.08-.04-.13-.12-.14ZM113.19,11.9v.21l.12-.07c0-.08-.04-.13-.12-.14ZM113.19,17.95v.28h.07v-.28h-.07ZM113.26,10.35v.14h.05v-.14h-.05ZM113.26,18.65v.07h.11v-.07h-.11ZM113.26,19.21v.14h.05v-.14h-.05ZM113.37,10.92l.07.35s.05-.02.05-.07c.07,0,.17.05.3.14l.11-.28c-.12,0-.18-.09-.18-.28l-.35.14ZM113.44,11.41c0,.11-.02.2-.07.28h.18c-.04-.08-.05-.18-.05-.28h-.05ZM113.49,10.64v.07h.12v-.07h-.12ZM113.85,13.1l-.23.35-.12-.07c0-.08.04-.2.12-.35.06.05.13.07.23.07ZM113.49,16.33v.21l.23-.07v-.14h-.23ZM114.07,9.93l-.18.14h-.11v-.14h-.12l-.05.42.05.35h.05l.12-.07-.12-.21v-.07c0-.08.04-.13.12-.14h.12c0,.14.04.21.11.21h.25c0-.14.05-.21.16-.21v-.07c-.22,0-.36-.02-.4-.07l.07-.14h-.07ZM113.62,14.57v.07h.11v-.07h-.11ZM114.02,9.37s-.09-.02-.18-.07l-.12.07v.28h.07v-.21h.18v.14c.06,0,.09-.05.11-.14v-.14s-.05.02-.05.07ZM113.9,8.6c-.07,0-.11.05-.11.14v.07h.05c.07,0,.11-.05.12-.14v-.07h-.07ZM113.79,14.92v.14h.05c.12-.07.18-.14.18-.21l-.23.07ZM113.85,17.81v.14h.18v-.07s-.09-.02-.18-.07ZM113.97,14.08v.14h.05v-.14h-.05ZM114.25,14.15c-.19.18-.28.29-.28.35v.07c.06,0,.09-.05.11-.14.07,0,.11.05.12.14v.14h-.12v.07h.07l.11-.07.12.07c0,.12-.13.21-.4.28v.21s.09-.02.18-.07c.04,0,.09.02.18.07,0-.08.04-.13.11-.14,0-.05-.02-.07-.05-.07l.05-.28h.12v.14h.11v-.14c-.12,0-.18-.07-.18-.21,0-.05.06-.07.18-.07v-.07l-.4-.28ZM114.14,8.53c0,.22-.04.39-.12.49.15,0,.23.05.23.14v.21h-.11v.07h.05l.12-.07c.09,0,.15.09.16.28h.07c0-.19.04-.28.11-.28l-.18-.28-.11.07c0-.11.06-.25.18-.42v-.07h-.12c-.07,0-.11.05-.11.14l-.12-.07.05-.14v-.07h-.11ZM114.07,8.17v.07h.12v-.07h-.12ZM114.07,9.72v.14h.07v-.14h-.07ZM114.25,10.64l-.11-.07-.07.14.25.28c.08,0,.16-.02.23-.07l.11.07c.06,0,.14-.05.25-.14.07,0,.11.05.11.14h.18c0-.23-.08-.35-.23-.35,0,.08-.12.15-.35.21l-.18-.35-.18.14ZM114.25,7.89c-.07,0-.11.05-.11.14h.18v-.14h-.07ZM114.14,10.99l.05.14h.05l-.05-.14h-.05ZM114.25,18.3c-.07,0-.11.05-.11.14v.21h.05c0-.08.04-.2.12-.35h-.07ZM114.32,13.24v.14c.06,0,.09-.05.11-.14h-.11ZM114.6,7.82s-.09-.02-.18-.07h-.05v.07c.07,0,.21.05.4.14,0-.07.04-.16.12-.28-.07,0-.17.05-.3.14ZM114.55,13.59c-.12.04-.18.18-.18.42v.07h.05c.15-.12.23-.21.23-.28v-.21h-.11ZM114.37,19.21v.14c.07,0,.11-.05.11-.14h-.11ZM114.48,21.32v.14h.12v-.14h-.12ZM114.78,14.78s-.02.12-.05.21c.04,0,.05.02.05.07,0,.09-.06.14-.18.14.04.09.05.16.05.21h.12l.05-.49v-.14h-.05ZM114.72,9.58c0,.11-.02.2-.07.28l.12.07v-.35h-.05ZM114.78,9.02v.21c.07,0,.11-.05.12-.14v-.07h-.12ZM114.95,10.21h-.05c0,.07-.04.16-.12.28.09,0,.17.02.23.07l.07-.14v-.07c0-.08-.04-.13-.12-.14ZM114.83,19.28h-.05v.21c.07-.05.15-.07.23-.07v-.07s-.09-.02-.18-.07ZM114.78,19.92v.21h.05v-.21h-.05ZM114.78,24.7v.14h.05v-.14h-.05ZM114.78,28.99v.07h.23v-.14c-.06.05-.13.07-.23.07ZM114.9,16.4v.21h.11v-.21h-.11ZM115.01,16.96h-.11c0,.07.08.14.23.21h.05c-.06-.14-.12-.21-.18-.21ZM114.9,18.44v.21h.11v-.07c0-.08-.04-.13-.11-.14ZM114.95,12.67v.14h.05v-.14h-.05ZM114.95,15.42v.14h.05v-.14h-.05ZM114.95,16.68v.07h.12v-.07h-.12ZM114.95,22.73v.14h.12c0-.08-.04-.13-.12-.14ZM115.01,9.79v.35h.07s.02-.12.05-.21c0-.08-.04-.13-.12-.14ZM115.08,7.96v.14h.11c0-.08-.04-.13-.11-.14ZM115.08,11.2v.07c.12,0,.18.09.18.28l.11-.07c-.04-.08-.05-.2-.05-.35-.07.05-.15.07-.23.07ZM115.3,12.81l-.12-.07-.11.21v.07c.07.11.11.25.11.42h.07c0-.14.08-.33.23-.56l-.05-.14-.12.07ZM115.08,19.28v.07s.09.02.18.07v-.14h-.18ZM115.08,26.95v.07s.09.02.18.07v-.14l-.07-.14c-.07,0-.11.05-.11.14ZM115.13,8.74v.28l.12-.07c-.05-.09-.07-.16-.07-.21h-.05ZM115.13,17.74l.05.35c.07,0,.11-.05.12-.14v-.35l-.18.14ZM115.13,18.58c0,.09.04.14.12.14v-.14h-.12ZM115.13,21.74c.08.12.12.21.12.28.07,0,.11-.07.11-.21h.12v.14h.12c0-.09.04-.14.11-.14,0-.08-.04-.13-.11-.14v.14h-.07c-.07,0-.11-.07-.11-.21-.11.09-.21.14-.3.14ZM115.13,24.77c0,.09.04.14.12.14v-.14h-.12ZM115.18,11.69v.28l.12-.07.12.07-.07-.35c-.07.05-.13.07-.18.07ZM115.18,27.44v.14h.07v-.14h-.07ZM115.25,9.16v.21h.05v-.21h-.05ZM115.36,15.63h-.11c.02.16.14.3.35.42v-.28c-.06,0-.14-.05-.25-.14ZM115.3,10.78v.14h.12c0-.08-.04-.13-.12-.14ZM115.3,27.93v.07h.12v-.07h-.12ZM115.3,29.48c0,.09.04.14.12.14v-.21l-.12.07ZM115.43,8.03s-.02.12-.07.21l.07.14s-.02.12-.07.21c.05,0,.09.07.12.21l.35-.21.11.07v-.14c-.28,0-.43-.09-.46-.28l.05-.14v-.07h-.11ZM115.6,8.95l-.12-.07-.12.21v.07c.35-.12.53-.21.53-.28l-.28.07ZM115.36,10.28v.07h.12v-.07h-.12ZM115.53,16.12c0,.14-.06.21-.18.21v.07h.07c.07-.05.13-.07.18-.07v-.21h-.07ZM115.36,19v.07h.12v-.07h-.12ZM115.36,28.28v.07h.18v-.07h-.18ZM115.43,9.72v.07h.11v-.07h-.11ZM115.94,12.25c0,.14-.04.21-.11.21h-.12c-.07,0-.11-.05-.11-.14-.08.05-.14.07-.18.07.02.23.16.35.4.35l.18-.28v-.21h-.07ZM115.43,26.03c0,.09.04.14.11.14v-.14h-.11ZM115.53,20.62s-.02.12-.05.21h.12v-.21h-.07ZM115.48,21.04v.14h.12v-.14h-.12ZM115.48,27.79h.12v-.14c-.08,0-.12.05-.12.14ZM115.53,10.85v.42h.3l.05-.49-.35.07ZM115.53,12.96v.21h.07s.02-.12.05-.21h-.12ZM115.53,14.92v.14h.18v-.07s-.09-.02-.18-.07ZM115.53,23.29l.07.42h.05c0-.21.02-.35.05-.42-.04,0-.05-.02-.05-.07l-.12.07ZM115.6,9.65c0,.09.04.14.11.14l-.11.21v.35h.11v-.14l.12.07h.11v-.07c0-.08-.04-.13-.11-.14l.05-.28c0-.13-.04-.27-.12-.42-.05,0-.1.09-.16.28ZM115.71,18.51s-.04.07-.11.07v.14s.05-.02.05-.07l.18.14s.02-.12.05-.21c-.04,0-.09-.02-.18-.07ZM115.6,23.01v.14h.05v-.14h-.05ZM116.01,20.13s-.11-.02-.18-.07c-.08.05-.14.07-.18.07v.14s.09-.02.18-.07l.11.07.12-.07.12.07s.06-.09.18-.14l-.12-.28c-.15.12-.23.21-.23.28ZM115.76,24.42l-.11.07c.04.09.05.16.05.21h.05s.02-.12.07-.21v-.07h-.07ZM115.66,25.47v.14h.18v-.07s-.11-.02-.18-.07ZM115.71,8.03v.14h.12v-.14h-.12ZM115.76,13.59h-.05l.12.21-.07.14c.09,0,.18.02.25.07l.05-.14v-.14c-.09,0-.19-.05-.3-.14ZM115.76,22.1v.14h.07v-.14h-.07ZM115.76,22.38v.14h.07v-.14h-.07ZM115.76,26.03v.07c.06.14.12.21.18.21l-.05-.28h-.12ZM115.94,7.89c.05.08.07.18.07.28h.11l-.11-.28h-.07ZM116.06,9.3s-.08.07-.12.21v.07h.07v-.14h.11l.12.07v-.14s-.09-.02-.18-.07ZM115.94,28.28v.14h.07v-.14h-.07ZM116.53,8.95c.15,0,.23.14.23.42-.04.08-.05.18-.05.28-.08,0-.12-.07-.12-.21l-.12.07v.35h-.18v-.28c-.12.09-.21.14-.28.14v.14c.23,0,.35.05.35.14.12-.07.18-.14.18-.21.04,0,.09.02.18.07h.05l-.05-.14v-.07h.11v-.35l.07-.14-.25-.35c-.07,0-.11.05-.11.14ZM116.01,14.99v.14h.11v-.14h-.11ZM116.01,21.32v.07l.05.14c.08-.05.14-.07.18-.07v-.14h-.23ZM116.01,23.15v.14h.11c0-.08-.04-.13-.11-.14ZM116.18,8.17l-.12.63s.05.02.05.07c.2,0,.36-.12.47-.35v-.07h-.12c0,.14-.04.21-.11.21l-.12-.07s.02-.07.05-.07c0-.05-.02-.12-.05-.21l.05-.14h-.11ZM116.06,16.26v.21c0,.09.04.14.12.14,0-.08.04-.2.11-.35v-.07c-.06.05-.13.07-.23.07ZM116.11,28.92v.21l.12-.07c0-.08-.04-.13-.12-.14ZM116.24,13.31l-.05.35h.11v-.35h-.05ZM116.18,16.68v.14h.05v-.14h-.05ZM116.18,22.73v.14h.05v-.14h-.05ZM116.24,17.39v.14h.05v-.14h-.05ZM116.24,22.52v.07h.12v-.07h-.12ZM116.29,15.14v.28c0,.09.04.14.12.14v-.42h-.12ZM116.29,15.63v.28h.12v-.14c0-.08-.04-.13-.12-.14ZM116.29,23.64v.28l.12-.07c-.04-.09-.05-.16-.05-.21h-.07ZM116.36,7.82v.14h.05v-.14h-.05ZM116.36,12.53v.07h.11v-.07h-.11ZM116.41,13.52v.14h.05v-.14h-.05ZM116.41,19v.07c0,.09.04.14.12.14v-.07c0-.08-.04-.13-.12-.14ZM116.41,23.01v.21h.05v-.21h-.05ZM116.46,13.1c0,.09.04.14.12.14v-.21l-.12.07ZM116.46,14.43v.14h.07v-.14h-.07ZM116.53,15.63c0,.11-.02.2-.07.28.05,0,.07.14.07.42h.05c0-.11.02-.2.05-.28-.04-.07-.05-.21-.05-.42h-.05ZM116.59,17.6l-.05.35h.11v-.35h-.05ZM116.59,19.99v.14h.05v-.14h-.05ZM116.64,10.92v.21h.07s.02-.12.05-.21h-.12ZM116.64,22.03v.14h.07v-.14h-.07ZM116.76,24.06c-.08,0-.12.05-.12.14v.07l.07.14c.06,0,.12-.09.18-.28v-.07h-.12ZM116.71,8.17v.07h.11v-.07h-.11ZM116.82,12.39c-.07,0-.11.05-.11.14v.07h.05c.07,0,.11-.05.12-.14v-.07h-.07ZM116.71,20.55v.21h.18v-.14s-.11-.02-.18-.07ZM116.71,21.04v.07c.06,0,.09-.05.11-.14v-.07c-.07,0-.11.05-.11.14ZM116.71,21.74v.14h.05v-.14h-.05ZM116.76,9.93v.35l.12-.07-.07-.28h-.05ZM116.76,15.7v.14c.06.14.12.21.18.21v-.14c-.06-.14-.12-.21-.18-.21ZM116.76,28.28v.07c0,.09.04.14.12.14h.05v-.14s-.09-.02-.18-.07ZM116.82,10.42v.21h.07v-.21h-.07ZM116.82,20.41v.14h.07v-.14h-.07ZM116.82,21.53v.14h.07v-.14h-.07ZM116.89,16.33v.21h.05v-.21h-.05ZM116.89,16.61v.21h.11v-.07c0-.08-.04-.13-.11-.14ZM117.06,7.89v.07c.06,0,.09-.05.11-.14v-.07c-.07,0-.11.05-.11.14ZM117.11,22.66v.21h.05v-.21h-.05ZM117.11,23.43l.05.14c.07,0,.11-.05.12-.14v-.07c-.08.05-.14.07-.18.07ZM117.17,20.83v.14h.05v-.14h-.05ZM117.52,9.44v-.14h.12c0,.09-.04.14-.12.14ZM117.52,13.45v.14h.05v-.14h-.05ZM117.52,13.66v.21h.05v-.21h-.05ZM117.52,14.29v.21h.05v-.21h-.05ZM117.52,16.54h.18l-.05-.14c-.08,0-.12.05-.12.14ZM118.4,13.1h-.12v-.14h.12v.14Z"/>
    </g>
    <g>
      <path class="cls-2" d="M3.63,2.79s.06-.04.09-.06c-.03.02-.06.04-.09.06Z"/>
      <path class="cls-2" d="M2.12,3.28c.51-.03,1-.18,1.42-.44-.43.25-.91.41-1.42.44l-.96.06c-.23.01-.44.1-.61.25.16-.15.38-.24.6-.25,0,0,.96-.06.96-.06Z"/>
      <path class="cls-2" d="M2.58,10.27c.03.07.09.12.16.13.02,0,.05,0,.07,0l1.38-.22c2.47-.33,4.4-1.47,5.73-3.37.21-.3.41-.63.59-.97l.7-1.21c.05-.09.03-.19-.04-.26L6.69.28c-.22-.23-.53-.32-.82-.27-.07.01-.14.04-.21.07.07-.03.14-.05.21-.07.29-.05.6.04.82.27l3.29,3-.56.97c-1.31,2.48-3.46,3.96-6.32,4.34l-1.11.18-.15-.38.5,1.29h0l.23.58h0Z"/>
      <path class="cls-1" d="M3.1,8.6c2.86-.38,5.01-1.86,6.32-4.34l.56-.97L6.69.28c-.22-.23-.53-.32-.82-.27-.07.01-.14.04-.21.07-.2.1-.36.27-.45.48l-.4.88c-.24.53-.62.98-1.09,1.3-.03.02-.06.04-.09.06-.03.02-.06.04-.09.05-.43.25-.91.41-1.42.44l-.96.06c-.23.01-.44.1-.6.25-.05.05-.1.11-.14.17-.15.25-.18.57-.04.86l1.47,3.77.15.38s1.11-.18,1.11-.18Z"/>
      <path class="cls-4" d="M13.34,6.71c.68-1.49.74-2.92.02-3.97-.82-1.19-1.54-.27-2.66,1.2l.46.42c.07.07.09.17.04.26l-.7,1.21c-.18.34-.38.67-.59.97-1.33,1.9-3.26,3.04-5.73,3.37l-1.38.22s-.05,0-.07,0c-.07-.01-.13-.06-.16-.13l-.23-.58h0c-1.78.51-2.89.86-2.08,2.05.95,1.38,3.03,1.74,5.36,1.13,1.25-.32,2.56-.92,3.82-1.79,1.83-1.26,3.19-2.84,3.88-4.37Z"/>
    </g>
  </g>
</svg>