<?xml version="1.0" encoding="UTF-8"?>
<svg id="Layer_2" data-name="Layer 2" xmlns="http://www.w3.org/2000/svg" viewBox="0 0 113.74 31.88">
  <defs>
    <style>
      .cls-1 {
        fill: #794a48;
      }

      .cls-2 {
        fill: #492807;
      }

      .cls-3 {
        fill: #492807;
      }

      .cls-4 {
        fill: #97635f;
      }
    </style>
  </defs>
  <g id="snippets">
    <g>
      <path class="cls-3" d="M16.92,27.24h.05c-.05.27-.11.47-.19.6-.08.32-.19.63-.32.95v.09c-.05.08-.09.15-.12.21-.08.19-.17.37-.26.54-.06.06-.12.1-.19.12-.04.14-.08.21-.12.21l-.04-.02.02.05c-.12.13-.24.25-.37.35l-.04.05v.09l.14-.09h.07v.16h-.14c-.35,0-.8.32-1.34.95-.71.25-1.23.37-1.55.37h-.84c-.43,0-.86-.1-1.27-.3l.14-.23-.14-.05c-.29.11-.64,0-1.04-.3v.7h-2.95v-3.41s-.02-.05-.02-.07v-.09l.02-.04v-.12c-.06-.02-.09-.06-.09-.12v-.16c0-.15.02-.23.07-.23l-.07-.35v-.6c0-.16.02-.39.07-.67l-.14-.42c.05-.32.1-.57.16-.76v-.16h.05c.05-.11.09-.16.14-.18h.56c.15,0,.27.02.35.07l.42-.07h.42c.12.08.21.12.28.12.25,0,.71-.02,1.41-.05.23.16.35.4.35.72v.3c0,.15-.02.23-.07.23l.07.35v.97c0,.11-.02.2-.07.28.05.08.07.18.07.3v.74c0,.16.14.4.42.72-.01.11-.06.16-.14.16l-.07-.3h-.07c-.16.2-.33.3-.49.3,0-.06-.02-.09-.07-.09v.09s.02.07.07.07l-.07.14c0,.11.05.16.14.16h.35v.21c0,.08-.07.15-.21.21h-.21c-.09,0-.14-.04-.14-.12h.14v-.16h-.21c0,.11-.02.16-.07.16.09.14.14.26.14.35h.14c.33,0,.49-.08.49-.23h.35v.07l-.07.16s.12.02.21.07v-.42h.14c0-.07-.12-.17-.35-.3,0,.2-.05.3-.14.3l-.07-.16v-.07c0-.09.05-.14.14-.14h.35c.09,0,.14.09.14.28h.14l-.07-.51.14-.07h.07s-.02.07-.07.07c.05.09.07.17.07.23h.19v-.26l-.05-.12h.05v-.32l.21-.02c.3-.01.52-.12.63-.32.05-.12.08-.25.11-.39v-.18s.02,0,.04-.02c.01-.07.02-.15.02-.23v-.39h.11c.02-.27.04-.62.05-1.05l-.02-.56s.02-.07.07-.07c-.06-.09-.09-.16-.09-.21s.02-.07.07-.07c-.05-1.24-.75-2.34-2.11-3.3,0-.08-.27-.35-.81-.81-.01-.3-.67-1.07-1.99-2.3-.89-1-1.42-1.89-1.6-2.67h.07c-.09-.16-.21-.59-.33-1.27h.07c-.11-.35-.17-.79-.19-1.32.02-.43.08-.65.18-.65l-.07-.14-.02-.28c0-.09.09-.14.28-.14l-.02-.28h-.21c.2-.66.4-1.22.6-1.69v-.02c.33-.73.65-1.21.97-1.46.05-.05.1-.09.16-.14l-.14.09h-.07v-.16h.14c.06,0,.12,0,.18-.02.29-.25.57-.44.84-.58.11-.11.21-.22.32-.35.71-.25,1.23-.37,1.55-.37h.84c.43,0,.86.1,1.27.3l-.14.23.14.05c.29-.11.64,0,1.04.3v-.7h2.95v3.41s.02.05.02.07v.09l-.02.04v.12c.06.02.09.06.09.12v.16c0,.15-.02.23-.07.23l.07.35v.6c0,.16-.02.39-.07.67l.14.42c-.05.32-.1.57-.16.76v.16h-.05c-.05.11-.09.16-.14.18h-.56c-.15,0-.27-.02-.35-.07l-.42.07h-.42c-.12-.08-.21-.12-.28-.12-.25,0-.71.02-1.41.05-.23-.16-.35-.4-.35-.72v-.3c0-.15.02-.23.07-.23l-.07-.35v-.97c0-.11.02-.2.07-.28-.05-.08-.07-.18-.07-.3v-.74c0-.16-.14-.4-.42-.72.01-.11.06-.16.14-.16l.07.3h.07c.16-.2.33-.3.49-.3,0,.06.02.09.07.09v-.09s-.02-.07-.07-.07l.07-.14c0-.11-.05-.16-.14-.16h-.35v-.21c0-.08.07-.15.21-.21h.21c.09,0,.14.04.14.12h-.14v.16h.21c0-.11.02-.16.07-.16-.09-.14-.14-.26-.14-.35h-.14c-.33,0-.49.08-.49.23h-.35v-.07l.07-.16s-.12-.02-.21-.07v.42h-.14c0,.07.12.17.35.3,0-.2.05-.3.14-.3l.07.16v.07c0,.09-.05.14-.14.14h-.35c-.09,0-.14-.09-.14-.28h-.14l.07.51-.14.07h-.07s.02-.07.07-.07c-.05-.09-.07-.17-.07-.23h-.04v.77s-.09-.04-.12-.05c-.36.02-.65.12-.86.3-.09.21-.15.49-.18.83v.39h-.3c-.02.55-.01,1.45.04,2.71.04.81.9,1.99,2.6,3.53,1.93,1.68,2.94,2.76,3.02,3.25.15,0,.29.3.4.91.18.43.35.75.53.95.09,1.22.19,1.83.28,1.83.04.67-.02,1.34-.16,2ZM6.32,13.65v-.07h-.14v.07h.14ZM6.66,27.15c0-.2.05-.3.14-.3-.05-.11-.07-.18-.07-.23h-.21v.14l.07.39h.07ZM7.01,28.19l-.21-.37s.07-.03.07-.09l-.28-.14-.07.14c.13.05.25.18.35.39-.09,0-.14.05-.14.14.05,0,.07.02.07.07.14-.05.21-.09.21-.14ZM7.15,25.43l.21.16.28-.23c-.05-.09-.07-.17-.07-.23h-.07c-.09,0-.14.05-.14.16.05,0,.07.02.07.07h-.07l-.35-.23c0,.08-.07.16-.21.23l-.14-.07-.07.14c.09,0,.14.12.14.37.28-.06.42-.18.42-.37ZM6.69,12.36v-.14h-.07v.14h.07ZM6.94,25.58h-.07v-.16h.07v.16ZM7.22,26.62c-.05-.09-.07-.17-.07-.23h-.07c-.11,0-.18.12-.21.37h.07c.12-.09.21-.14.28-.14ZM7.08,27.59v-.23h-.14v.23h.14ZM7.29,25.79v-.07h-.21v.07h.21ZM7.29,25.13v-.07h-.14v.07h.14ZM7.36,26.18c-.05-.11-.07-.18-.07-.23h-.14v.23h.21ZM7.36,10.04v-.21c-.09,0-.14.05-.14.14l.14.07ZM7.43,9.75v-.07h-.14v.07h.14ZM7.5,11.47v-.16h-.14v.16h.14ZM7.71,26.85s-.12-.03-.21-.09h-.14v.09c.14,0,.21.05.21.14.09-.01.14-.06.14-.14ZM7.57,28.4v-.07h-.21v.07h.21ZM8.04,26.23v-.21c-.15-.2-.23-.36-.23-.47-.25.01-.39.09-.42.23v.07c.22-.01.37.12.44.4l.21-.02ZM7.71,25.88v-.09h-.14v.09h.14ZM7.85,9.31v-.14h-.07v.14h.07ZM7.85,26.32v-.14h-.07v.14h.07ZM8.2,28.33v-.07c-.01-.09-.06-.14-.14-.14-.09.05-.16.07-.21.07v.14h.35ZM8.06,26.25v-.16c-.01-.09-.06-.14-.14-.14v.3h.14ZM8.13,10.71v-.14c-.09,0-.14.05-.14.14h.14ZM8.13,25.36v-.14h-.07v.14h.07ZM8.34,26.92v-.3c-.01-.09-.06-.14-.14-.14v.44h.14ZM8.48,30.63v-.37c-.09,0-.14-.05-.14-.14h-.14l.21.44s-.07.02-.07.07h.14ZM8.7,29.59c-.01-.09-.06-.14-.14-.14v.14h.14ZM8.84,29.15v-.23c-.01-.09-.06-.14-.14-.14h-.07l.07.37h.14ZM8.91,29.52v-.07h-.14v.07h.14ZM9.33,13.47v-.16c-.09,0-.14.05-.14.16h.14ZM9.33,30.86c0-.15.05-.23.14-.23v-.21h-.21s-.02.18-.07.44h.14ZM9.7,8.52v-.07c-.08,0-.18-.05-.3-.14-.06,0-.12.08-.19.23l.49-.02ZM9.82,28.48l.07-.16c-.09,0-.14-.07-.14-.21h-.14c0,.14-.09.21-.28.21v.07s.12.03.21.09c.09-.06.16-.09.21-.09,0,.06.02.09.07.09ZM9.54,29.75v-.09h-.21v.09h.21ZM9.61,12.65l-.14-.07h-.07v.23h.07c.09-.01.14-.06.14-.16ZM9.75,29.52v-.16h-.14v.16h.14ZM10.17,31.3l.07-.14v-.23h-.07c-.09.05-.16.07-.21.07.07.2.14.3.21.3ZM10.38,13.31v-1.11h-.07c0,.32-.07.54-.21.67.14.2.21.35.21.44h.07ZM10.38,11.91v-.07h-.07l-.07.3c.09,0,.14-.08.14-.23ZM10.31,31.45v-.16h-.07v.16h.07ZM10.45,11.61v-.74l.14-.23c-.07,0-.16-.05-.28-.14v1.11h.14ZM10.45,13.68v-.07c-.05-.09-.07-.16-.07-.21h-.07v.28h.14ZM10.87,31.3s.02-.12.07-.21c-.13-.15-.27-.23-.42-.23-.01-.11-.06-.16-.14-.16l-.07.16c.14.05.21.19.21.44h.35ZM10.65,25.99h-.14c-.01-.09.03-.14.12-.14l.02.14ZM10.8,10.34v-.07h-.14v.07h.14ZM11.4,20.4l.05-.14h-.07c-.08.05-.15.07-.21.07l-.07-.12v-.07l.35-.02c.13-.2.26-.3.4-.3,0-.13-.17-.22-.51-.26l.09.14v.07h-.07l-.14-.07v.14h.14c-.01.09-.05.14-.12.14-.02-.09-.08-.13-.16-.12,0,.07-.09.14-.26.21.06.23.25.35.58.33ZM11.09,30.63v-.07h-.14v.07h.14ZM11.09,31.3v-.07c-.09,0-.14.05-.14.16v.07c.09-.01.14-.06.14-.16ZM11.65,31.09c0-.11.09-.16.28-.16v-.07h-.14v-.23l.07-.14c-.09-.01-.14-.06-.14-.16.05,0,.07-.02.07-.07-.21-.2-.33-.3-.35-.3,0,.2-.05.38-.14.53.09,0,.14.05.14.14-.11.11-.25.16-.42.16.05.09.07.16.07.21h.14c0-.14.05-.21.14-.21h.07c0,.2.07.3.21.3ZM11.56,21.01l-.07-.12c.09-.02.13-.08.12-.16l-.14-.05h-.07c.01.11,0,.2-.05.28l.14.07.07-.02ZM11.58,31.52v-.07h-.14v.07h.14ZM11.79,20.61v-.09h-.07c-.09.06-.16.09-.21.09v.07h.07c.09-.05.16-.07.21-.07ZM11.81,20.38v-.07h-.21v.07h.21ZM11.96,22.21v-.07h-.14v.07h.14ZM12.42,31.09h-.21c-.07,0-.14.07-.21.21h.14c.19-.07.28-.14.28-.21ZM12.28,30.49c-.01-.11-.06-.16-.14-.16h-.07c0,.11.05.16.14.16h.07ZM12.77,23.05v-.14l-.14.07c-.09-.05-.16-.07-.21-.07-.09.05-.16.07-.21.07v.07h.56ZM12.67,12.26h-.07l-.09-.35-.02-.35.07-.14.14.05s.07-.02.07-.07c.09.05.16.07.21.07v.14c-.14,0-.21.05-.19.14v.07l.42-.02v.07c-.01.09-.06.15-.14.16l-.21-.14c-.05.23-.11.36-.19.37ZM12.63,19.85h-.14v.16c.09-.01.14-.06.14-.16ZM12.7,30.56v-.14h-.14c0,.09.05.14.14.14ZM12.9,11.19h-.14c0-.08-.05-.19-.14-.33l.12-.09h.07l.02.07-.07.14c.09,0,.14.05.14.14v.07ZM12.98,30.7l-.14-.07h-.07c-.09,0-.14.05-.14.16v.07h.21c.09-.01.14-.06.14-.16ZM12.91,29.82v-.07h-.14v.07h.14ZM12.91,31.09v-.09h-.14v.09h.14ZM13.28,13.42c-.05-.08-.08-.18-.09-.28-.07.06-.19.09-.35.09l.02.35h.14c.12-.11.21-.16.28-.16ZM13.02,13.72h-.14v.14c.09-.01.14-.06.14-.14ZM13.25,14.33v-.14l-.09-.12s.07-.04.07-.09l-.14-.05h-.07c-.09,0-.14.05-.14.14.09.05.17.07.23.07l-.07.14v.07l.21-.02ZM13.05,23.21v-.09h-.14v.09h.14ZM13.09,12.31h-.14v-.21c.09,0,.14.05.14.14v.07ZM13.27,19.34h-.28c0,.09.05.14.14.14.09-.01.14-.06.14-.14ZM13.27,30.26h-.21v.23c.07,0,.14-.08.21-.23ZM13.41,23.12v-.37c-.08,0-.15.12-.21.37h.21ZM13.48,22.45v-.07h-.14v.07h.14ZM13.62,28.99v-.07h-.07c-.09,0-.14.05-.14.14v.09h.07c.09-.01.14-.06.14-.16ZM13.62,29.22h-.07c-.09,0-.14.05-.14.14h.07c.09-.01.14-.06.14-.14ZM13.62,29.59c-.01-.09-.06-.14-.14-.14l-.07.14h.21ZM13.83,26.48v-.09h-.21c-.09,0-.14.05-.14.16h.14c.09-.05.16-.07.21-.07ZM13.69,26.99v-.07h-.21v.07h.21ZM13.69,27.82c0-.09.07-.22.21-.39h-.14v.16h-.14l-.14-.07v.14c0,.11.05.16.14.16h.07ZM13.76,30.26l-.21-.14h-.07v.3h.14c.09-.02.14-.08.14-.16ZM13.69,30.03v-.14h-.07v.14h.07ZM13.83,24.55v-.09h-.14v.09h.14ZM14.25,28.33v-.44c-.22.12-.41.34-.56.67h.07c.18-.15.34-.23.49-.23ZM13.83,28.85v-.16h-.14v.16h.14ZM14.18,26.32v-.23l-.14.09h-.14v-.16h-.14c.09.13.14.23.14.3h.28ZM13.9,27.06v-.07h-.14v.07h.14ZM14.11,13.84v-.07l-.14-.23.07-.14h-.07c-.09,0-.14.05-.14.14v.07c0,.08.07.16.21.23h.07ZM14.11,14.28c-.05-.08-.07-.21-.07-.37h-.14c0,.11-.02.16-.07.16.05.09.07.16.07.21h.21ZM14.6,12.51c0-.13-.09-.35-.28-.67v-.07h-.21c-.07,0-.14.07-.21.21v.16l.21-.16c.12,0,.21.2.28.6h.07l.14-.07ZM14.04,21.42c-.01-.09-.06-.14-.14-.14v.14h.14ZM14.11,23.12v-.21h-.21v.14s.12.02.21.07ZM14.04,27.96v-.14h-.14c0,.09.05.14.14.14ZM14.25,27.66v-.07h-.28v.07h.28ZM14.39,20.15v-.37l-.35.07v.09c.08,0,.2.07.35.21ZM14.18,22.02v-.07h-.14v.07h.14ZM14.18,22.31v-.07h-.14v.07h.14ZM14.25,18.82v-.14h-.14v.14h.14ZM14.25,21.86v-.07h-.14v.07h.14ZM14.46,26.62h-.14c-.09,0-.14.05-.14.14h.14c.09-.01.14-.06.14-.14ZM14.39,21.35v-.07h-.14v.07h.14ZM14.39,27.82v-.09h-.14v.09h.14ZM14.53,23.42v-.14h-.21v.14h.21ZM14.6,22.16c-.05-.09-.07-.16-.07-.21h-.14v.07c0,.09.05.14.14.14h.07ZM14.6,27.06v-.07h-.14v.07h.14ZM14.67,20.98v-.37h-.14l.07.37h.07ZM14.67,25.72v-.07h-.14v.07h.14ZM14.67,29.59c-.01-.09-.06-.14-.14-.14v.14h.14ZM15.59,26.02c0-.06-.12-.16-.35-.3h-.07v.16h-.14v-.16h-.28c0,.11-.05.16-.14.16v.07h.14s.02-.07.07-.07l.21.3s.07-.03.07-.09l.35.09c.09-.01.14-.06.14-.16ZM14.67,26.69l.07-.3v-.21h-.07l-.07.44v.07h.07ZM14.81,20.52v-.07h-.14v.07h.14ZM14.74,30.26v-.14h-.07v.14h.07ZM14.88,26.76v-.07h-.14v.07h.14ZM15.3,28.99l-.07-.14h.14v-.07h-.14s-.02.07-.07.07v-.16h-.07c0,.11-.12.23-.35.37h.07l.49-.07ZM14.88,29.29v-.07h-.14v.07h.14ZM14.95,26.55v-.07h-.14v.07h.14ZM15.16,27.52v-.16h-.14c-.07,0-.14.08-.21.23h.14c.09-.05.16-.07.21-.07ZM15.02,28.11v-.09h-.14v.09h.14ZM15.23,25.13s.02-.12.07-.21v-.07h-.07c0,.09-.05.14-.14.14,0,.09.05.14.14.14ZM15.3,28.19v-.16h-.07c-.09,0-.14.05-.14.16h.21ZM15.3,23.95l.07-.16v-.07c-.09.05-.16.07-.21.07,0,.11.05.16.14.16ZM15.29,15.81l-.09-.14.21-.16c.09,0,.14.05.14.14l-.26.16ZM15.66,25.13h-.07l-.35.09v.07h.28c.09-.01.14-.06.14-.16ZM15.59,28.62c0-.09.09-.24.28-.44v-.3s-.12-.02-.21-.07c-.09.05-.16.07-.21.07l.07.14.14-.07h.07v.07c0,.12-.16.24-.49.37.05.11.07.18.07.23h.28ZM15.45,26.76v-.07h-.14v.07h.14ZM15.87,28.99h-.14l.07-.14v-.07h-.28v.28h.07l.14-.07v.16c.09-.01.14-.06.14-.16ZM15.66,29.29v-.07h-.14v.07h.14ZM15.66,29.45v-.09h-.14v.09h.14ZM15.8,25.58v-.07h-.14v.07h.14ZM15.8,26.32v-.14c-.09,0-.14.05-.14.14h.14ZM16.08,24.09v-.07c-.11,0-.2-.02-.28-.07v.21h.07c.09-.05.16-.07.21-.07ZM16.36,23.42v-.07c-.07,0-.16-.05-.28-.14h-.14c0,.08.12.15.35.21h.07ZM16.15,26.39v-.07h-.21v.07h.21ZM16.15,24.99v-.07h-.14v.07h.14ZM16.32,15.48h-.07v-.14h.07v.14ZM16.43,24.32v-.16h-.07v.16h.07ZM17.8,8.94v-.21h.14v.07c-.01.09-.06.14-.14.14Z"/>
      <path class="cls-3" d="M19.63,11.73v.14h-.14c0-.09.05-.14.14-.14ZM19.54,12.51c0-.09.05-.14.14-.14,0,.05.02.12.07.21v.07h-.21v-.14ZM19.7,18.83c0-.09.05-.14.14-.14v.21l-.14-.07ZM19.77,12.01h.14v.14h-.14v-.14ZM19.86,11.31l.07-.14.14.07c0,.08-.05.13-.14.14h-.07v-.07ZM26.91,10.11v-2.76h5.96v2.76h-.63s.02,0,.02.02l.02.12c-.14.15-.21.27-.21.35,0,.04.03.21.09.53-.09,0-.14.05-.14.14.06.09.09.16.09.21-.05,0-.07.02-.07.07.09,0,.14.04.14.12l-.26.28c.23,0,.36.43.39,1.28.09,0,.14-.07.14-.21h.14c-.22.4-.33.71-.33.95h.07c-.01.27-.08.47-.19.62l.09.33c0,.09-.02.14-.07.14l.09.69.04.67s-.02.07-.07.07l.07.14c-.02,1.27-.1,1.9-.23,1.9.05.08.08.15.09.19-.05.09-.07.16-.07.21.06,0,.13.13.23.4-.09.63-.16.95-.19.95.06.13.11.19.16.19-.04.32-.12.59-.26.83h.14c.01.29.04.52.09.67l-.07,2.23.16.28h-.14l.04,1.14s-.02.07-.07.07c0,.05.02.07.07.07-.02.83-.03,1.44-.02,1.83l.05,1.23h.65v2.76h-5.96v-2.76h1.07c-.11-.19-.22-.33-.35-.42l.12-.26c-.21-.88-.32-1.38-.32-1.49h.07c.11,0,.2.02.28.07h.07v-.07h-.14l-.02-.14h.14v-.05h-.28v.12h-.07c-.09-.01-.14-.05-.14-.12v-.21h.14v-.07h-.14s-.02.07-.07.07l-.07-.14c-.01-.08.03-.12.12-.12-.19-.28-.29-.49-.3-.62.05-.09.07-.16.07-.21-.11,0-.21-.09-.3-.26l.07-.14c-.13,0-.26-.59-.4-1.76l.28-.21-.07-.12-.02-.21.07-.14h-.35l-.14.07c0-.09-.02-.18-.07-.26.04-.09.05-.16.05-.21-.08,0-.18-.2-.3-.6h-.21l.07-.14-.23-.26-.02-.62c0-.13-.08-.38-.23-.76h-.07l-.14.07.07.14.02.07c-.02.09-.07.14-.14.14l.07.33v.07l-.05.12.14.07-.12.83c.09,0,.14.04.14.12-.04.14-.08.21-.12.21l.07.12c-.01.09-.06.14-.14.14.11.34.16.52.16.54l-.14.07-.14-.07-.05.33c.07,0,.14.07.21.21v.07c-.23,0-.37.06-.4.19v.07h.07l.26-.19.09.12c-.09.01-.28.19-.54.54v.14l.3.54v.07c-.09,0-.14.02-.14.05.08.19.16.28.23.28l.05-.14v-.19s-.02-.07-.07-.07c.05-.09.07-.16.07-.21h.14v.4s-.02.07-.07.07c.06.08.12.31.18.69l-.05.67c.07.67.13,1.12.18,1.35h-.07s.02.07.07.07l-.04.81.02.42h.72v2.76h-6.08v-2.76h.93s-.02-.09-.02-.14v-.14l.14-.19c-.11-.15-.16-.29-.16-.42l-.02-.47s.02-.05.07-.05l-.07-.14-.02-.54c-.01-.11-.04-.19-.09-.26l.14-.28s-.03-.11-.09-.19c.07-.63.13-.95.19-.95,0-.05-.02-.07-.07-.07l.05-.47-.02-.54c0-.11-.03-.19-.09-.26.05-.09.07-.16.07-.21l-.09-.33.07-.35-.07-.12c.08-.15.12-.29.12-.4l-.02-.42c0-.09-.02-.18-.07-.26l-.02-.19h-.14v-.07h.21v-.07s-.02-.07-.07-.07l.07-.14-.02-.19c0-.11-.02-.2-.07-.28l.07-.12c-.06-.09-.09-.16-.09-.21.05,0,.07-.02.07-.07h-.63c0-.09.05-.14.14-.14h.35l.14.07v-.07l-.09-.4c.09-.01.14-.05.14-.12,0-.05-.02-.07-.07-.07l.21-2.18-.09-.4v-.4c-.01-.11,0-.19.05-.26-.05-.08-.08-.2-.09-.35,0-.19.04-.39.12-.6l-.07-.4v-.07c-.01-.11,0-.2.05-.28-.05-.08-.07-.15-.07-.19l.05-.14-.14-.26c.04-.19.08-.28.14-.28-.01-.05-.04-.07-.09-.07l.07-.47-.04-.81.14-.19c-.09-.01-.14-.06-.14-.14l-.02-.14s.02-.07.07-.07l-.07-.12c.02-.8.03-1.27.02-1.42.01,0,.02,0,.04-.02h-1.07v-2.76h6.08v2.76h-.72c.02.16.04.35.05.54-.05,0-.07.02-.07.07.09,0,.3.75.63,2.25l-.12.33c.23,0,.42.5.54,1.49-.09.04-.16.05-.21.05v.07c.14,0,.21.07.21.21,0,.08-.04.22-.12.4h.28s.02.12.07.21l-.12.26c.14,0,.21.05.21.14l-.07.12-.14-.05h-.07v.12c.39.15.59.4.6.76.16.91.32,1.41.46,1.48-.05,0-.07.02-.07.07h.07s0,.07-.05.07c.06.59.18.88.37.88,0-.08.09-.12.28-.12-.2-.26-.3-.51-.3-.76.09,0,.16-.18.19-.54-.09-.01-.15-.05-.16-.12v-.28c0-.08.05-.12.14-.12-.15-.34-.23-.59-.25-.76.08-.45.12-.85.11-1.21l-.02-.95.05-.14c-.09-.01-.14-.06-.14-.14-.01-.32.03-.47.12-.47l-.07-.12v-.07s.02-.07.07-.07l-.16-.4c0-.07.11-.21.33-.4h-.07l-.14.07c-.08-.05-.15-.07-.21-.07v-.07s.02-.07.07-.07l-.07-.14c-.01-.22.03-.33.12-.33l-.07-.14v-.12c-.01-.23.15-.39.47-.47h.14l.21.12h.07l-.07-.12v-.07c.15,0,.27-.02.35-.07l-.09-.14v-.14l.07-.12c-.14,0-.21-.05-.21-.14h-.14c0,.22-.05.33-.14.33-.01-.08-.06-.12-.14-.12-.19.08-.33.12-.42.12l-.07-.12v-.14c0-.07.06-.14.19-.21.01.07.11.16.3.28l-.02-.28h.07v-.07l-.14-.19c.05-.08.07-.17.07-.26l-.16-.07h-.07l.02.26h-.28v-.07l.05-.21h-.77ZM19.96,19.54h.07v.14h-.07v-.14ZM20.05,11.8v-.07h.07l.14.07-.07.14c-.08,0-.13-.05-.14-.14ZM20.74,12.65c0-.09-.05-.14-.14-.14v.14h.14ZM20.79,20.17c.09,0,.14-.05.14-.14v-.21l-.12-.21v-.07l.07-.14-.14-.07h-.07s-.02.12-.07.21l.14.07s-.03.12-.09.21c0,.05.02.12.07.21l-.07.14h.14ZM20.68,12.01v-.14h-.07v.14h.07ZM20.75,13.98h-.14v.14c.09,0,.14-.05.14-.14ZM20.75,16.51c0-.11.03-.2.09-.28l-.07-.35h-.07s-.02.12-.07.21c.05,0,.07.02.07.07l-.02.14-.07.14.14.07ZM20.75,19.19h.07s-.02-.12-.07-.21l.07-.14c-.14.07-.21.14-.21.21,0,.08.05.13.14.14ZM20.77,13.56v-.07h-.14v.07h.14ZM20.77,18.2c.01-.23.06-.35.16-.35,0-.05-.02-.07-.07-.07,0-.05.02-.07.07-.07l-.14-.21c.01-.09.06-.14.16-.14l-.14-.21c-.08,0-.13.05-.14.14l-.04.91h.14ZM20.77,18.55v-.07c0-.09-.05-.14-.14-.14v.21h.14ZM20.77,15.81l.02-.35h-.07s-.02.12-.07.21c-.01.08.03.13.12.14ZM20.82,21.08c.01-.11.04-.2.09-.28-.08,0-.12-.16-.12-.49l-.14.07c-.01.08.03.27.12.56h-.07c-.01.08.03.13.12.14ZM20.72,15.25c.01-.27.04-.43.09-.49l-.14-.07-.02.56h.07ZM20.82,14.47v-.07h-.14v.07h.14ZM20.89,16.65v-.07h-.21v.07h.21ZM20.98,23.26l-.12-.91s.07-.02.07-.07h-.07l-.14.07c.08.45.12.77.12.98l.14-.07ZM20.88,17.01v-.07h-.14v.07h.14ZM20.95,22.07c-.05-.09-.07-.16-.07-.21h-.14v.21h.21ZM21.09,24.18c-.12-.28-.21-.42-.26-.42l-.09.35.07.35c.12-.19.21-.28.28-.28ZM20.96,23.69v-.21h-.07c-.07,0-.12.05-.14.14v.07h.21ZM20.98,30.36v-.07h-.14v.07h.14ZM21.51,26.85v-.07c0-.09-.05-.14-.14-.14h-.21c0,.11-.03.2-.09.28.26-.05.4-.07.44-.07ZM21.25,11.87h-.14v.14c.09,0,.14-.05.14-.14ZM21.26,25.44v-.14h-.07v.14h.07ZM21.9,13.35l.02-.07h-.56l-.02.07h.56ZM21.6,18.83v-.14c-.08.05-.15.07-.21.07v.07h.21ZM21.47,13.7v-.14h-.07v.14h.07ZM21.54,15.74c.01-.09-.03-.14-.12-.14l-.02.14h.14ZM21.56,13.14v-.07h-.14v.07h.14ZM21.65,17.15v-.07h-.21v.14c.09-.05.16-.07.21-.07ZM22.25,11.1l.02-.14h.14l.12.07.09-.14c-.14,0-.21-.05-.21-.14-.11,0-.2.02-.28.07l-.21-.14h-.14v.07h-.28v.07c.07,0,.16.07.26.21h.07l.02-.14h.21v.07l-.09.14h.28ZM22.09,11.59l.02-.07c-.08,0-.18-.05-.28-.14h-.07c-.01.14-.09.21-.23.21l.07.14.49-.14ZM21.72,15.04v-.07h-.14v.07h.14ZM21.83,15.81s.1-.07.16-.21l-.35.07-.02.07c.06,0,.13.02.21.07ZM21.9,13.7v-.07h-.21v.07h.21ZM21.88,12.15h-.14l-.02.14c.09,0,.15-.05.16-.14ZM21.79,17.29v-.14h-.07v.14h.07ZM21.93,10.11v-.07h-.14v.07h.14ZM22,14.61c.01-.12.06-.23.16-.35h-.35l.05.35h.14ZM22,10.4c0-.09-.05-.14-.14-.14v.14h.14ZM22,14.76v-.07h-.14v.07h.14ZM22,12.22l.02-.14h-.07l-.02.14h.07ZM22.04,18.41v-.14h-.07v.14h.07ZM22.42,17.43v-.42h-.07l-.35.07v.07h.21v.14h-.14v.14h.35ZM22.18,18.62v-.07h-.14v.07h.14ZM22.35,10.4s-.02-.07-.07-.07l.14-.21-.35-.07v.07c.09.12.14.21.14.28h.14ZM22.21,12.51v-.07h-.14v.07h.14ZM22.27,17.71v-.07h-.14v.07h.14ZM22.6,8.85v-.14c-.07,0-.16-.05-.26-.14h-.14l-.02.21.42.07ZM22.34,12.93v-.07h-.14v.07h.14ZM22.6,13.77l-.35.07-.02.14c.25-.04.37-.11.37-.21ZM22.51,16.51l.16-.35s-.07-.02-.07-.07l-.14.07s.02.07.07.07c-.01.09-.09.14-.23.14v.07s.12.02.21.07ZM22.58,21.36c0-.09-.05-.14-.14-.14h-.07v.14h.21ZM22.63,9.83c-.04-.09-.05-.16-.05-.21h-.14c.05.09.06.16.05.21h.14ZM22.93,14.33v-.07c-.14,0-.21-.05-.21-.14-.12.09-.21.14-.28.14v.07h.49ZM22.63,12.58c.12-.09.21-.14.28-.14v-.07c-.14,0-.21-.07-.19-.21h-.14s-.04.12-.09.21c0,.14.05.21.14.21ZM23.3,9.13v-.14h.07l.14.07c0-.14.09-.21.28-.21v-.21h-.14c-.07,0-.12.05-.14.14l-.14-.07.09-.14h-.14l-.02.21h-.14v-.14l.09-.14c-.14,0-.3-.02-.49-.07-.09.05-.16.07-.21.07v.07c.23,0,.35.05.33.14.19.19.28.33.28.42h.14ZM22.62,13.07v-.14h-.07v.14h.07ZM22.79,14.05v-.07h-.21v.07h.21ZM22.86,16.44v-.07h-.14v.07h.14ZM22.88,11.52v-.07h-.14v.07h.14ZM22.9,19.96v-.07h-.14v.07h.14ZM23,9.76l.12.07h.14l-.12-.21-.14.07h-.07l-.14-.07-.02.21c.06,0,.13-.02.23-.07ZM22.99,10.19v-.07h-.14v.07h.14ZM22.97,17.71c.09,0,.14-.05.14-.14h-.07c-.07,0-.12.05-.14.14h.07ZM23.14,21.22v-.14h-.07l-.14.07c.05.09.07.16.07.21.09,0,.14-.05.14-.14ZM23.14,16.44v-.07h-.14v.07h.14ZM23.46,13.21v-.21c-.07-.14-.14-.21-.21-.21l-.21.14c0,.09.14.19.42.28ZM23.39,24.6s-.12-.02-.21-.07c0,.05-.05.07-.14.07l.14.21c.14-.07.21-.14.21-.21ZM23.2,10.19v-.07h-.14v.07h.14ZM23.34,12.44v-.07c0-.09-.05-.14-.14-.14h-.14c0,.07.09.14.28.21ZM23.48,24.25v-.07l-.42.07.14.21c.19-.07.28-.14.28-.21ZM23.21,11.59h-.14v.14c.09,0,.14-.05.14-.14ZM23.39,10.96v-.07h-.28v.07h.28ZM23.27,15.04v-.07h-.14v.07h.14ZM23.37,25.58l.35-.07v-.07l-.35-.07-.14.07c0,.08.05.13.14.14ZM23.32,10.54l.02-.14h-.07l-.02.14h.07ZM23.46,15.25s.03-.12.09-.21h-.21s-.04.12-.09.21h.21ZM23.39,15.46v-.07h-.14v.07h.14ZM23.41,17.22v-.07h-.14v.07h.14ZM23.57,11.66c-.04-.08-.05-.18-.05-.28h-.21l.07.14-.09.14h.28ZM23.37,13.84v-.14h-.07v.14h.07ZM23.5,16.86v-.07h-.14v.07h.14ZM23.78,26.15h.07v-.07c-.11-.19-.2-.28-.28-.28h-.21v.07c0,.06.14.15.42.28ZM23.44,11.24v-.14h-.07v.14h.07ZM23.58,16.09v-.07s-.12-.02-.21-.07v.14h.21ZM23.67,24.95c0-.09-.05-.14-.14-.14-.08,0-.13.05-.14.14v.07l.28-.07ZM23.41,31.42h.28v.14h-.28v-.14ZM23.58,15.88h.07c-.05-.09-.06-.16-.05-.21l-.16.07c0,.08.05.13.14.14ZM23.58,23.19v-.07h-.14v.07h.14ZM23.62,17.08v-.07h-.14v.07h.14ZM23.64,9.41v-.07h-.14v.07h.14ZM23.64,23.69h.14c0-.09-.05-.14-.14-.14h-.14c0,.08.05.13.14.14ZM23.64,26.22v-.07h-.14v.07h.14ZM23.65,25.23v-.07h-.14v.07h.14ZM23.69,9.83l.02-.07h-.14l-.02.07h.14ZM23.65,18.13l.02-.14h-.07l-.02.14h.07ZM23.74,17.85v-.07h-.14v.07h.14ZM23.76,10.4v-.14h-.14c0,.08.05.13.14.14ZM23.83,14.61c-.04-.07-.05-.21-.05-.42h-.07l-.09.35v.07h.21ZM23.76,24.18c0-.09-.05-.14-.14-.14v.21l.14-.07ZM23.78,9.62v-.07h-.14v.07h.14ZM23.72,11.17v-.14h-.07v.14h.07ZM23.86,18.41v-.07h-.21v.07h.21ZM24.32,17.15h.14l.14.07v-.14h-.07l-.35.07v-.14c.06,0,.13-.02.21-.07.01-.05,0-.12-.05-.21,0-.05.05-.07.14-.07,0-.05-.02-.07-.07-.07,0-.05.02-.12.07-.21-.07-.14-.13-.21-.19-.21l-.16.35h-.07l-.21-.14v.07c0,.11.12.18.35.21v.14l-.49.07c-.01.08.03.13.12.14l-.07.14c.14,0,.21.05.21.14.23,0,.35-.05.35-.14ZM24.25,10.4v-.14h-.07v-.28h-.07l-.35.07v.07c.19,0,.28.05.28.14l-.07.14h.28ZM24.18,9.9c.12-.09.22-.14.3-.14,0-.05-.02-.07-.07-.07l.07-.14v-.07h-.14v-.07h.21v-.07l-.05-.14-.16.07-.12-.07s-.04.07-.09.07h-.07l.02-.14c.07,0,.16-.07.28-.21h.07v.14h.07v-.21l-.14-.21.09-.14-.21-.14h-.07v.07l.07.14-.16.07-.19-.14v.07l.05.42-.07.14h.07c-.01.08-.06.13-.16.14l.07.14-.02.42.35.07ZM23.9,21.65l.02-.28h-.14l.05.28h.07ZM24.02,15.18l.02-.07h-.21l-.02.07h.21ZM23.95,15.46v-.07h-.14v.07h.14ZM23.95,17.71v-.07h-.14v.07h.14ZM24.62,11.87v-.28l-.05-.14-.14.07h-.07l-.35-.07.05.14h-.21v.14c.21,0,.35.02.42.07v-.07c.08,0,.2.05.35.14ZM24.13,11.94v-.07h-.28v.14c.08-.05.18-.07.28-.07ZM23.99,16.3l.02-.07h-.14l-.02.07h.14ZM24.08,13.77h.14l-.05-.49h-.07c-.01.19-.09.28-.23.28.07.14.14.21.21.21ZM24.15,18.34h.14v-.07c-.11,0-.2-.02-.28-.07h-.07v.07s.12.02.21.07ZM24.2,21.29v-.21c-.09.05-.16.07-.21.07v.07s.12.02.21.07ZM24.13,28.19v-.07h-.14v.07h.14ZM24.18,19.26s.04-.12.09-.21v-.07c-.07,0-.15.09-.23.28h.14ZM24.11,24.18v-.14h-.07v.14h.07ZM24.18,24.46v-.07h-.14v.07h.14ZM24.13,14.19v-.14h-.07v.14h.07ZM24.2,21.51v-.07h-.14v.07h.14ZM24.34,18.76l.23-.42-.42.21-.02.14c.06,0,.13.02.21.07ZM24.34,23.9v-.07h-.21v.07h.21ZM24.3,17.85c0-.09-.05-.14-.14-.14v.14h.14ZM24.16,26.71v.28h.21l.35.07v-.14c-.14,0-.21-.05-.21-.14l-.14.07-.21-.14ZM24.32,12.65h.07v-.14h-.21c0,.08.05.13.14.14ZM24.46,27.34c0,.14-.09.21-.28.21v.07c.23,0,.36.07.37.21h.14v-.07s-.04-.07-.09-.07l.07-.14c0-.07-.07-.14-.21-.21ZM24.2,16.51h.14v.14h-.14v-.14ZM24.34,28.61v-.07h-.14v.07h.14ZM24.37,27.06h.07v-.07c.01-.09-.03-.14-.12-.14h-.07l-.02.07c0,.08.05.13.14.14ZM24.46,15.11v-.07c0-.09-.05-.14-.14-.14h-.07v.14s.12.02.21.07ZM24.25,31.42h.21v.14h-.21v-.14ZM24.53,26.78v-.14h-.21v.07s.12.02.21.07ZM24.5,15.88v-.07h-.14v.07h.14ZM24.5,20.66v-.07h-.14v.07h.14ZM24.5,27.69v-.07c0-.09-.05-.14-.14-.14v.21h.14ZM24.6,19.26l.02-.21h-.21v.14s.11.02.19.07ZM24.5,25.51v-.14h-.07v.14h.07ZM24.55,18.76s-.02.12-.05.21l.14.07.05-.28h-.14ZM24.62,9.69v-.14h-.07v.14h.07ZM24.62,30.58l.02.14h.07l-.02-.14h-.07ZM24.71,14.33v.07h.21v-.07h-.21ZM24.78,18.97v.07c.09.21.19.33.28.35h.07c-.09-.19-.14-.33-.14-.42h-.21ZM25.18,18.55v.07c.14,0,.21.05.21.14,0,.07-.06.14-.19.21l.07.14-.07.14h.07c.08-.05.18-.07.28-.07,0,.19.05.28.14.28-.07.38-.25.56-.54.56l-.14-.21s.07-.02.07-.07h-.28v.35c.07,0,.4-.02.98-.07,0,.05.02.07.07.07v-.14h.07s.07.02.07.07c.23-.06.35-.13.35-.21-.14,0-.21-.05-.21-.14.05,0,.07-.02.07-.07-.19,0-.29-.07-.3-.21,0-.05-.07-.07-.21-.07,0-.07.07-.14.21-.21.09.12.14.23.14.35h.14c.04-.47.1-.7.19-.7l.14.07v-.14h-.07c-.28,0-.42.09-.4.28l-.23-.14h-.14l-.14.07-.07-.14c.09,0,.14-.05.14-.14-.14-.05-.21-.09-.21-.14-.09.05-.16.07-.21.07ZM24.83,18.76v.14c.09,0,.14-.05.14-.14h-.14ZM24.87,15.11v.07h.21l.07-.14h-.07c-.09.05-.16.07-.21.07ZM25.04,16.51l-.12.21h.07c.12-.09.23-.14.35-.14l-.02-.07h-.28ZM25.01,17.43v.07h.28l-.07-.14c-.09.05-.16.07-.21.07ZM25.04,13.7v.07c.09,0,.14-.05.14-.14l-.02-.07c-.09.01-.13.06-.12.14ZM25.13,14.54c0,.09-.02.14-.07.14.06.09.09.16.09.21h.07l-.02-.35h-.07ZM25.11,18.76v.14c.09,0,.14-.05.14-.14h-.14ZM25.31,30.08l.02.14h-.14c.01-.09.05-.14.12-.14ZM25.2,16.86v.28h.14v-.07c-.05-.09-.07-.16-.07-.21h-.07ZM25.32,16.16v.07h.14v-.07h-.14ZM25.39,21.08c0,.09-.02.14-.07.14.11.15.16.27.16.35.07,0,.14-.09.21-.28l-.3-.21ZM25.62,21.58c0,.09-.02.14-.07.14.05.08.08.2.09.35h.07l.05-.35v-.14h-.14ZM25.66,27.55h.07v.14h-.07v-.14ZM25.68,18.41v.07h.14v-.07h-.14ZM25.71,22.42l.02.56h.07c0-.33.02-.52.05-.56h-.14ZM25.73,20.66l.02.07h.21l-.02-.07h-.21ZM26.01,20.24v.07h.14v.07c0,.19-.13.52-.39.98.07,0,.16.05.28.14.23-.06.35-.13.35-.21l-.16-.21.19-.42s-.12-.02-.21-.07c0-.14.09-.21.28-.21v-.14h-.28l.05-.14v-.07c-.18.07-.26.14-.26.21ZM25.9,16.65v.07h.14v-.07h-.14ZM25.94,18.27l.02.07h.21l-.02-.07h-.21ZM26.11,17.15h.14l.02.28c-.09-.05-.16-.07-.21-.07.05-.09.06-.16.05-.21ZM26.1,23.4v.21h.07v-.21h-.07ZM26.13,17.71l.02.07h.14l-.02-.07h-.14ZM26.15,15.95h.21l.02.14h-.21l-.02-.14ZM26.4,21.65c.01.16-.05.28-.19.35.06.23.13.35.21.35.28-.11.42-.2.42-.28l-.14-.07-.14.07v-.07c-.01-.09.05-.14.19-.14v-.07c-.07,0-.16-.05-.28-.14h-.07ZM26.22,22.91v.07h.28v-.07h-.28ZM26.38,23.26v.14h.07v-.14h-.07ZM26.68,23.83c0,.14-.09.21-.28.21v.07c.19.01.29.11.3.28-.05,0-.07.02-.07.07h.28v-.07h-.14v-.07l.12-.21c-.05-.08-.07-.18-.07-.28h-.14ZM26.55,24.67s-.02.12-.05.21h.21l-.09-.14s.07-.02.07-.07h-.14ZM26.52,20.94v.14h.14v-.14h-.14ZM26.54,19.4v.07h.14v-.07h-.14ZM26.99,22.49c0,.23-.14.35-.42.35v.07h.21v.07l-.05.14.14.07c.08-.05.15-.07.21-.07l-.09-.14.21-.42c-.06,0-.13-.02-.21-.07ZM26.73,9.41c.01.09.09.14.23.14v.14l-.35-.07v-.07c.01-.09.05-.14.12-.14ZM26.62,22.42l.02.14h.07l-.02-.14h-.07ZM26.64,20.31v.07h.14v-.07h-.14ZM26.68,26.01v.21c.01.09.06.14.14.14h.07l-.14-.21.07-.14h-.14ZM26.7,26.64v.07h.14v-.07h-.14ZM27.28,20.52s-.02.12-.05.21c.05,0,.07.02.07.07-.38,0-.56.21-.54.63l.21.14h.28v-.07h-.14v-.14h.14c-.01-.09-.06-.14-.16-.14-.07.05-.16.07-.26.07-.01-.11.1-.18.33-.21,0,.05.02.07.07.07.18-.35.26-.56.26-.63h-.21ZM26.85,25.23l-.07.14c.06.09.09.16.09.21-.05,0-.07.02-.07.07.05,0,.07.02.07.07.19-.07.28-.14.28-.21l-.02-.21c-.11,0-.2-.02-.28-.07ZM26.85,18.27h.07l.02.14h-.07l-.02-.14ZM26.85,20.59l.02.21c.09,0,.13-.05.12-.14v-.07h-.14ZM26.91,27.13l.02.07h.14l-.02-.07h-.14ZM26.92,24.95c.07.19.14.28.21.28v-.28h-.21ZM26.92,27.41v.21h.14v-.07c0-.09-.05-.14-.14-.14ZM27.03,26.29v.07h.07c.28-.05.42-.12.42-.21v-.14c-.21.19-.38.28-.49.28ZM27.05,22.07h.14v-.14c-.09.01-.14.06-.14.14ZM27.05,24.53v.14h.14c0-.09-.05-.14-.14-.14ZM27.08,28.11v.07h.14v-.07h-.14ZM27.1,24.04c.05.09.08.16.09.21h.21c-.01-.07-.09-.14-.23-.21h-.07ZM27.17,23.69v.28h.21l-.07-.14v-.14l.05-.14h-.07c-.09.01-.13.06-.12.14ZM27.2,22.91v.07h.14v-.07h-.14ZM27.22,23.26v.14h.14c0-.09-.05-.14-.14-.14ZM27.24,28.75v.07h.07l.07-.28c-.09,0-.14.07-.14.21ZM27.36,28.04v.21h.07s.02-.12.07-.21h-.14ZM27.38,21.79l.16.21s-.07.02-.07.07l.14.07h.07l-.07-.14c.04-.09.05-.16.05-.21h-.28ZM27.4,24.6v.07h.14v-.07h-.14ZM27.4,26.64v.07h.14v-.07h-.14ZM27.5,21.22s0,.12-.05.21h.07c.08-.05.18-.07.28-.07-.01-.09-.06-.14-.16-.14h-.14ZM27.45,26.36v.14h.14v-.14h-.14ZM27.45,28.61v.14h.07v-.14h-.07ZM27.49,22.49v.07c.05.09.07.16.07.21h.07v-.28h-.14ZM27.49,27.27v.14c.09,0,.14.09.14.28h.07c.09,0,.14-.05.14-.14-.05-.09-.07-.16-.07-.21h.07l.14.07h.14v-.07l-.49-.07h-.14ZM27.54,29.45l.02.21h.07l-.02-.21h-.07ZM27.57,18.69v.14h.07v-.14h-.07ZM27.64,23.33l-.05.35h.14c-.01-.15,0-.27.05-.35h-.14ZM27.61,15.39h.07c.11.01.16.06.16.14l-.14.07-.07-.14-.02-.07ZM27.66,26.22c.01.09.06.14.14.14v-.14h-.14ZM27.68,17.64c.02.09.08.14.16.14.09,0,.13-.05.12-.14v-.14h-.14c-.09.01-.14.06-.14.14ZM27.7,20.52l.07.14c-.04.09-.05.16-.05.21h.14c0-.07.04-.16.12-.28,0-.09-.05-.14-.14-.14l-.14.07ZM27.71,21.01v.14h.14c0-.09-.05-.14-.14-.14ZM27.78,14.12l-.05.49v.07h.14c0-.14.02-.3.05-.49l-.14-.07ZM27.77,24.81h.14l-.02-.14c-.09.01-.13.06-.12.14ZM27.8,17.15l.02.21c.09,0,.14-.05.14-.14l-.02-.07h-.14ZM28.03,26.64c0,.09-.07.14-.21.14v.07c.14,0,.3.02.49.07v.07s-.02.07-.07.07l.09.14-.07.14h.07c.08-.05.15-.07.21-.07l-.09-.14.07-.14s-.07-.02-.07-.07c.09,0,.14-.05.14-.14-.18,0-.32-.05-.42-.14h-.14ZM27.84,13.21v.07h.14v-.07h-.14ZM27.86,25.58h.14v-.14c-.09.01-.14.06-.14.14ZM27.87,23.9v.07h.14v-.07h-.14ZM27.89,19.89l.14.07v-.21c-.09.01-.14.06-.14.14ZM27.96,22.07h.21v-.14h-.07c-.09.01-.14.06-.14.14ZM27.96,26.92v.07h.14v-.07h-.14ZM27.98,24.95v.21h.07v-.21h-.07ZM28,30.51v.14h.14v-.14h-.14ZM28.07,11.59l.07.14c-.09.01-.13.06-.12.14.18.19.34.28.49.28l.07-.14c-.23-.06-.36-.13-.37-.21h.07c-.05-.08-.07-.2-.07-.35-.09.01-.14.06-.14.14ZM28.77,25.86v.07h.14v-.07h-.14ZM28.82,11.1v.14h.07v-.14h-.07ZM28.86,19.11v.07h.14c.09-.05.16-.07.21-.07v-.07h-.07c-.08.05-.18.07-.28.07ZM28.98,25.94l-.12.21h.07c.08-.05.15-.07.21-.07-.01-.09-.06-.14-.16-.14ZM28.86,31.07v.07h.14v-.07h-.14ZM28.87,17.29h.28c-.01-.09-.06-.14-.16-.14-.08.01-.12.06-.12.14ZM28.96,27.41v.07h.14v-.07h-.14ZM29.12,25.58s-.02-.07-.07-.07l-.07.28.21.14h.07v-.07h-.14v-.07c.01-.09.06-.14.14-.14v.14c.14-.05.21-.19.19-.42v-.14s-.13.12-.33.35ZM28.98,28.33l.02.07h.14l-.02-.07h-.14ZM29,19.47h.07c.08-.05.18-.07.28-.07v-.28c-.2.11-.32.22-.35.35ZM29.02,19.75c.07,0,.16.05.28.14v-.14c-.09,0-.14-.05-.14-.14-.09.01-.14.06-.14.14ZM29.02,28.96v.07h.14v-.07h-.14ZM29.07,23.9v.07h.14v-.07h-.14ZM29.07,24.04v.07h.14v-.07h-.14ZM29.1,25.16v.14h.07v-.14h-.07ZM29.12,20.94v.07h.28v-.14c-.08.05-.18.07-.28.07ZM29.21,16.72c0,.11-.02.2-.07.28l.14.07c.09-.05.16-.07.21-.07-.09-.12-.14-.21-.14-.28h-.14ZM29.17,22.77v.07h.14v-.07h-.14ZM29.61,27.97h-.42v.07c.01.09.06.14.14.14.01-.09.06-.14.14-.14.01.09.06.14.14.14h.14s-.02-.07-.07-.07l.07-.14v-.07l-.14.07ZM29.21,24.18l.02.07h.14l-.02-.07h-.14ZM29.21,28.54v.14c.09,0,.14-.05.14-.14h-.14ZM29.35,28.75l.07.14c-.08.05-.15.07-.19.07v.07c.08,0,.2.07.35.21l.14-.21v-.07c-.01-.11-.13-.18-.37-.21ZM29.24,20.66l.02.14c.09,0,.13-.05.12-.14h-.14ZM29.26,28.26l.02.14h.07l-.02-.14h-.07ZM29.28,21.36h.07c.09,0,.13-.05.12-.14h-.07c-.09.01-.13.06-.12.14ZM29.28,31.21v.07h.14v-.07h-.14ZM29.3,29.38l.02.14h.21l-.09-.14h.14v-.07h-.07c-.08.05-.15.07-.21.07ZM29.37,26.78c.09.12.14.21.14.28h.07l.07-.28h-.28ZM29.4,18.69v.07h.07c.09,0,.14-.05.14-.14v-.07h-.07c-.09.01-.14.06-.14.14ZM29.42,28.61v.07h.14v-.07h-.14ZM29.42,30.93v.07l.28.07v-.14h-.28ZM29.47,23.47v.14h.07v-.14h-.07ZM29.51,22.35l.02.14h.14l-.02-.14h-.14ZM29.51,24.6v.07h.14v-.07h-.14ZM29.53,29.59v.07h.14v-.07h-.14ZM29.54,23.33v.07h.14v-.07h-.14ZM29.56,24.04h.14v-.14c-.09.01-.14.06-.14.14ZM30.28,17.5c.01.23-.03.35-.12.35l.07.14c0,.14-.12.21-.35.21l.09.14h-.07c-.09-.05-.17-.07-.23-.07l-.05.14c0,.15.19.25.56.28,0-.07.07-.14.21-.21h.07s.07.02.07.07c.28-.09.42-.19.4-.28v-.07h-.07l-.33.21h-.07v-.07l.19-.28c-.12-.09-.21-.14-.28-.14.01-.09.06-.14.14-.14,0,.05.09.14.28.28l.14-.07.21.14h.07c0-.21.02-.35.05-.42l-.14-.07.02.21h-.14l-.02-.35h-.7ZM29.63,28.4v.14h.14v-.14h-.14ZM29.68,21.22l.02.14c.09,0,.13-.05.12-.14h-.14ZM29.72,19.75v.07h.14v-.07h-.14ZM30,22l-.14-.07c-.09.01-.14.06-.14.14h.28c.09,0,.14-.05.14-.14l-.02-.14c-.09,0-.13.07-.12.21ZM30.11,25.94c.01.19-.03.28-.12.28,0-.05-.02-.07-.07-.07,0,.09-.05.14-.14.14l.23.35c-.09.01-.14.06-.14.14.05,0,.07.02.07.07.07-.05.19-.07.35-.07v-.07c-.08,0-.16-.07-.23-.21l.07-.14-.07-.14h.28c-.08-.19-.16-.28-.23-.28ZM29.81,24.81v.14c.08-.05.15-.07.21-.07v-.07h-.21ZM29.84,31v.07h.21v-.07h-.21ZM29.84,31.21v.07h.14v-.07h-.14ZM29.86,29.17c.01.09.06.14.14.14h.07c0-.09-.05-.14-.14-.14h-.07ZM29.91,14.61h.14v-.14c-.09.01-.14.06-.14.14ZM29.93,27.13l.02.07h.14l-.02-.07h-.14ZM29.95,27.41h.14v-.14c-.09.01-.14.06-.14.14ZM29.98,17.01c.05.09.08.16.09.21-.05,0-.07.02-.07.07h.07l.14-.07c0,.07.07.14.21.21h.14v-.07l-.07-.14.12-.28h-.28v.14h-.07c-.09,0-.14-.07-.14-.21-.09.01-.14.06-.14.14ZM30,26.99v.07h.14v-.07h-.14ZM30.02,20.38v.14h.07v-.14h-.07ZM30.02,29.59v.07c.21,0,.35.02.42.07v-.14h-.42ZM30.09,20.59c.06.08.09.18.09.28.06,0,.15-.12.26-.35h-.21l-.14.07ZM30.49,19.89c0,.09-.02.14-.07.14h-.21l.02.21h-.07v.07s.12.02.21.07h.21v.28c.08-.05.18-.07.28-.07,0-.07-.07-.14-.21-.21l.07-.14-.02-.28s-.12-.02-.21-.07ZM30.21,24.74l-.05.28.14.07-.02-.35h-.07ZM30.16,25.3l.02.14h.21l-.02-.14h-.21ZM30.18,28.11v.07h.14v-.07h-.14ZM30.25,16.09v.21h.21c.09,0,.14-.05.14-.14l-.02-.21h-.07c-.11.09-.19.14-.26.14ZM30.26,24.04c0,.07.1.16.3.28.01-.09.05-.14.12-.14.01.15.06.27.16.35-.09.15-.13.29-.12.42.11,0,.2.02.28.07,0-.13.06-.27.19-.42h-.07s-.02.07-.07.07l-.21-.28h.21l-.16-.21c.09-.05.16-.07.21-.07v-.07s-.12-.02-.21-.07l-.28.07-.14-.07c-.09.05-.16.07-.21.07ZM30.33,21.72l-.05.42.14.07c.07,0,.14-.07.21-.21-.08-.19-.16-.28-.23-.28h-.07ZM30.3,10.96v.14h.07v-.14h-.07ZM30.32,21.22l.02.21h.07c.11-.09.2-.14.28-.14l-.02-.07c-.09,0-.14-.02-.14-.07-.08.05-.15.07-.21.07ZM30.32,25.58v.14h.07v-.14h-.07ZM30.4,30.86l-.07.35h.14c0-.07.05-.16.14-.28v-.07h-.21ZM30.39,21.01v.07h.21v-.07h-.21ZM30.39,30.58h.14v-.14c-.09.01-.14.06-.14.14ZM30.61,26.15c0,.21-.06.42-.19.63l.07.14c-.05.09-.07.16-.07.21.23-.09.35-.23.35-.42.19.02.28.09.28.21l.35-.07v.07s-.02.07-.07.07c.04.19.11.28.23.28v.07c0,.09-.05.14-.14.14,0-.09-.05-.14-.14-.14,0,.05-.02.07-.07.07,0-.05-.02-.07-.07-.07l.07-.14-.02-.14h-.14l-.05.42h.35c.09.01.14.06.14.14.01.09-.03.14-.12.14-.09-.05-.17-.07-.23-.07l.02.21c.14,0,.21.05.21.14-.09.01-.14.06-.14.14h.42l-.07.14.02.14h.07c.08-.05.15-.07.21-.07l-.02-.14c0-.06-.14-.18-.42-.35.32-.23.47-.45.47-.63l-.14.07c-.01-.14-.09-.21-.23-.21v-.14h.21l-.07-.14c.09,0,.14-.05.14-.14h-.35v.07h.14v.14h-.07l-.49-.21v-.07l-.14.07h-.07c-.01-.14-.06-.21-.16-.21l.07-.14v-.21h-.14ZM31.12,22c-.02.33-.09.49-.19.49l-.02-.14.07-.14-.14-.07c-.22.25-.33.46-.33.63.09.01.14.06.14.14.23-.02.35-.09.35-.21h.14v.07c-.05.09-.07.16-.07.21h.07c.19-.09.33-.23.42-.42v-.07c-.11,0-.18-.09-.23-.28h-.14l.07-.14v-.07h-.14ZM30.53,23.26v.21h.35v-.07c-.12,0-.23-.05-.35-.14ZM30.54,19.19v.14h.07v-.14h-.07ZM30.7,17.57l.07.14.02.14c-.07,0-.15-.07-.23-.21l.14-.07ZM30.58,15.74v.07h.14v-.07h-.14ZM30.58,30.01l.02.14h.07l-.02-.14h-.07ZM30.6,13.98v.14h.21v-.07s-.12-.02-.21-.07ZM30.6,14.19l.02.14h.07l-.02-.14h-.07ZM30.65,29.52h.07c.09,0,.13-.05.12-.14h-.07c-.09.01-.13.06-.12.14ZM30.65,25.16v.07h.14v-.07h-.14ZM30.67,16.37c.02.09.07.14.14.14.09,0,.14-.05.14-.14v-.07h-.07c-.09.05-.16.07-.21.07ZM30.69,16.65c.01.09.06.14.14.14l.07-.14h-.21ZM30.7,15.18v.07h.07c.08-.05.18-.07.28-.07v-.07h-.14c-.09.05-.16.07-.21.07ZM30.7,19.68v.07h.14v-.07h-.14ZM31.34,19.89l.07.14c-.15.28-.29.42-.4.42l.07.14c-.15.33-.26.49-.33.49.11.19.16.33.16.42h.21c-.01-.19.08-.28.26-.28l-.21-.35c.14,0,.21-.05.21-.14l-.09-.14c.2,0,.34-.12.42-.35v-.07h-.14l.05-.49h-.07c-.07,0-.14.07-.21.21ZM30.74,20.73v.07h.14v-.07h-.14ZM30.74,28.04v.07c0,.07.07.14.21.21,0-.27.02-.43.07-.49h-.07c-.07,0-.14.07-.21.21ZM30.74,30.44h.14v-.14c-.09.01-.14.06-.14.14ZM30.76,28.54v.07h.14v-.07h-.14ZM30.81,16.02v.14c.09,0,.14-.05.14-.14h-.14ZM30.81,18.62c.01.09.06.14.14.14v-.14h-.14ZM30.91,29.38l-.05.35h.28s.02-.12.07-.21l-.23-.14h-.07ZM30.86,30.08c.06.09.09.16.09.21h.07l.21-.14h.07l.21.14h.14c0-.09.05-.14.14-.14l-.09-.14-.14.07h-.14v-.07s.02-.07.07-.07l-.07-.14.07-.14h-.07c-.22.28-.41.42-.56.42ZM31,25.16l-.12.28c.05.09.07.16.07.21.22-.13.33-.22.33-.28l-.28-.21ZM31.04,16.79c0,.09-.05.14-.14.14v.07c.02.09.07.14.14.14,0-.11.02-.2.07-.28v-.07h-.07ZM30.9,26.01c.01.09.06.14.14.14h.07c0-.09-.05-.14-.14-.14h-.07ZM30.9,26.29c.02.09.07.14.14.14h.07c0-.09-.05-.14-.14-.14h-.07ZM30.9,30.93v.07h.14v-.07h-.14ZM31.02,23.33v.07h.14v-.07h-.14ZM31.12,29.1s-.02.12-.07.21h.14s.02-.12.07-.21h-.14ZM31.07,15.6v.07h.07c.08-.05.18-.07.28-.07v-.07h-.14c-.09.05-.16.07-.21.07ZM31.32,28.61c0,.14-.07.21-.21.21.06.09.09.16.09.21h.14c-.01-.12.03-.23.12-.35l-.14-.07ZM31.14,13.07v.14h.21c0-.09-.05-.14-.14-.14h-.07ZM31.14,13.35v.07h.21v-.07h-.21ZM31.21,24.88c0,.11-.02.2-.07.28.09.05.16.07.21.07h.28v-.07h-.28v-.14l.07-.14h-.21ZM31.16,13.7v.07h.14v-.07h-.14ZM31.16,18.55v.07h.07c.09,0,.14-.05.14-.14v-.14c-.07,0-.14.07-.21.21ZM31.16,23.26c.09.01.14.06.14.14l.02.35c.18,0,.32.05.42.14l-.02-.28h-.28v-.07c.01-.09.06-.14.14-.14.02.09.07.14.14.14h.14v-.07l-.07-.14c.05-.09.07-.16.07-.21h-.14l-.14.07c-.05-.09-.08-.16-.09-.21h-.07c-.07,0-.16.09-.26.28ZM31.18,24.18l.02.07h.14l-.02-.07h-.14ZM31.18,30.79v.07h.14v-.07h-.14ZM31.39,18.97c0,.18-.05.32-.14.42.06.09.09.16.09.21h.14c-.01-.14.03-.3.12-.49l-.21-.14ZM31.25,21.72v.07c.09,0,.14-.05.14-.14v-.07c-.09.01-.14.06-.14.14ZM31.25,24.04v.07h.21v-.21h-.07c-.09.01-.14.06-.14.14ZM31.25,26.29c.23.04.36.15.37.35l.12-.07c0-.19-.09-.28-.28-.28l.05-.35v-.07h-.07c-.07,0-.13.14-.19.42ZM31.25,26.5v.07h.21v-.07h-.21ZM31.27,24.67l.02.14h.07l-.02-.14h-.07ZM31.28,20.38h.14v.14h-.14v-.14ZM31.39,30.86v.07h.14v-.07h-.14ZM31.48,10.61c.01.11,0,.2-.05.28.09.05.16.07.21.07.19-.07.28-.14.28-.21-.08,0-.18-.05-.3-.14h-.14ZM31.42,17.78v.14c.09,0,.14-.05.14-.14h-.14ZM31.44,21.01v.14h.07v-.14h-.07ZM31.44,25.51v.07h.14v-.07h-.14ZM31.46,24.18c.01.07.09.14.23.21h.14c0-.07-.08-.14-.23-.21h-.14ZM31.48,29.1h.14v-.14c-.09.01-.14.06-.14.14ZM31.53,28.68v.21h.07v-.21h-.07ZM31.55,10.47l.14.07v-.21c-.09.01-.14.06-.14.14ZM31.55,24.6v.07c.05.08.08.18.09.28.08-.05.18-.07.28-.07l-.02-.21c-.15,0-.27-.02-.35-.07ZM31.55,29.38v.07h.14v-.07h-.14ZM31.56,13.07c.01.09.06.14.14.14l.07-.14-.02-.07c-.08.05-.15.07-.19.07ZM31.6,9.55l.07.28c-.05.08-.06.18-.05.28h.21c-.06-.25-.09-.48-.11-.7-.09.01-.13.06-.12.14ZM31.6,19.33h.14v-.14c-.09.01-.14.06-.14.14ZM31.63,29.66v.07h.14v-.07h-.14ZM31.67,23.97v.14h.07v-.14h-.07ZM31.72,11.8l.02.14h.07l-.02-.14h-.07ZM31.76,12.72v.14h.07v-.14h-.07ZM31.76,31.42v.07h.14v-.07h-.14ZM31.9,24.39v.07h.14v-.07h-.14ZM32.02,23.97v.14h.07v-.14h-.07ZM32.04,26.71v.07h.14v-.07h-.14ZM32.55,20.59h.07l.02.14h-.07l-.02-.14ZM33.22,31.14h.14v.07h-.14v-.07Z"/>
      <path class="cls-3" d="M37.03,9.83h-1.56v-2.46h7.51v2.46h-1.51v.04c.19,0,.28.05.28.14v.05c.01.14-.02.29-.11.46,0,.04.02.05.07.05l-.07.3c.01.14.05.31.11.51-.07.74-.09,1.59-.05,2.55-.08.01-.12.05-.12.12.09.16.15.31.16.44.04.86-.06,1.41-.28,1.67v.07h.21v.09s-.02.07-.07.07l.09.14-.14.3.16.28c0,.15-.07.23-.21.23l.02.12c.09,0,.14.02.14.07,0,.18,0,.69-.02,1.53l.09.16-.12.42s.02.12.07.23c-.02.4-.03.74-.02,1.02l.02.42-.07.14s.07.02.07.07c-.09.01-.13.06-.12.16,0,.05.02.07.07.07l-.05.35c.07,1.71.02,2.92-.14,3.64.06.25.09.39.09.44-.02.47-.03.83-.02,1.09l.07.12c-.05.11-.08.47-.11,1.09.01.05.04.07.09.07-.02.06-.04.21-.05.46h1.49v2.46h-7.51v-2.46h1.3l-.04-.74s.02-.07.07-.07l-.09-.14c.01-.34.05-.51.12-.51,0-.06-.02-.09-.07-.09l.11-.7c0-.06-.02-.09-.07-.09.04-.32.05-1.07.05-2.25l-.07-.14c.01-.73.05-1.36.12-1.9l-.07-.12c.05-1.03.09-1.59.14-1.67l-.09-.28c.06-.97.07-1.9.04-2.78,0-.09.02-.19.05-.28,0-.05-.02-.07-.07-.07.07-.67.09-1.32.07-1.95h.07l-.09-.16c-.04-2.89,0-4.34.11-4.34l-.07-.16.05-.42c-.01-.06-.04-.09-.09-.09l.07-.12v-.11ZM36.86,7.72h.14v.07h-.14v-.07ZM37.21,7.79h.07v.14h-.07v-.14ZM37.33,27.25l-.07.14.14.07.07-.14-.14-.07ZM37.28,7.93h.07l.02.14h-.07l-.02-.14ZM37.51,29.64v.07c.01.09.06.14.14.14h.14v-.14l-.28-.07ZM37.59,28.45v.14h.07v-.14h-.07ZM37.77,16.07l.07.14c-.14,0-.21.05-.19.14v.07h.28c.07,0,.13-.07.19-.21-.15-.09-.27-.14-.35-.14ZM37.68,25.5v.14c.09,0,.14-.05.14-.14l-.02-.14c-.09.01-.13.06-.12.14ZM37.73,30.28l.02.14h.14l-.02-.14h-.14ZM37.75,24.16l.02.21c.19,0,.28.07.28.21.09,0,.14-.05.14-.14v-.21h-.07l-.14.07c-.01-.09-.06-.14-.16-.14h-.07ZM37.77,31.12c.02.09.08.14.16.14l.05-.14h-.21ZM37.84,11.15v.07l.35-.07v-.07c0-.09-.05-.14-.14-.14-.07,0-.14.07-.21.21ZM37.84,17.9l.02.21h.07c.09,0,.14-.05.14-.14l-.02-.07h-.21ZM37.89,25.64c.02.09.07.14.14.14h.07c0-.09-.05-.14-.14-.14h-.07ZM37.96,29.08v.07h.14v-.07h-.14ZM38.1,25.43v.14c.09,0,.14.05.14.14h.21c-.14-.12-.21-.21-.21-.28h-.14ZM38.14,13.12v.14c.12-.09.21-.14.28-.14v-.07h-.07c-.09.05-.16.07-.21.07ZM38.17,30.42c.07.19.14.28.21.28h.14l.07-.28c-.09,0-.15-.07-.16-.21h-.07c-.07,0-.13.07-.19.21ZM38.3,21.77l.04.84h.21l-.09-.49-.02-.35h-.14ZM38.33,24.37v.14h.21v-.28h-.07c-.09.01-.14.06-.14.14ZM38.37,26.83v.07h.14v-.07h-.14ZM38.38,12.42l.02.21c.09,0,.13-.05.12-.14l-.14-.07ZM38.38,24.02v.07h.14v-.07h-.14ZM38.63,29.64v.07h.14v-.07h-.14ZM38.72,10.17l-.07.14.02.21h.07c.09,0,.13-.05.12-.14v-.07c0-.09-.05-.14-.14-.14ZM38.68,11.01h.21l-.02-.14h-.07c-.08.01-.12.06-.12.14ZM39,23.53l.14.21-.19.28.07.14c-.04.08-.05.18-.05.28l-.21-.14h-.07v.21c.26,0,.43.09.51.28,0,.09-.07.14-.21.14l.02.28c0,.13-.04.27-.12.42.09,0,.15.07.16.21.13-.04.19-.22.18-.56l-.02-.42h.14v-.14c-.09-.11-.18-.32-.25-.63.12-.09.21-.14.28-.14l.14.07h.07v-.07c-.09,0-.24-.14-.44-.42h-.14ZM38.88,22.12v.07h.14v-.07h-.14ZM38.95,10.52v.14c.09,0,.14-.05.14-.14h-.14ZM38.96,19.38v.07h.07c.09,0,.14-.05.14-.14v-.07h-.07c-.09.01-.14.06-.14.14ZM39.03,26.06l-.05.35h.14c.09,0,.14-.05.14-.14l-.02-.21h-.21ZM39.07,11.86h.21v-.14h-.07c-.09.01-.14.06-.14.14ZM39.14,16.71v.21c.19-.07.28-.14.28-.21h-.28ZM39.32,24.3c.01.09.06.14.14.14h.07v-.14h-.21ZM39.53,17.9l.02.07h.21l-.02-.21h-.07c-.09.01-.14.06-.14.14ZM39.58,24.16l.02.14h.14l-.02-.14h-.14ZM40.32,13.19v.07h.28v-.07h-.28ZM40.39,9.82c0,.06.12.18.37.35l-.02-.14-.14-.28c-.09.05-.16.07-.21.07ZM40.53,11.36v.14h.21v-.14h-.21ZM40.55,13.47v.07h.14v-.07h-.14ZM40.58,12.7v.07h.21v-.07h-.21ZM40.62,12v.07h.14v-.07h-.14ZM40.65,14.25v.07h.14v-.07h-.14ZM41.28,14.53h.14v.07h-.14v-.07Z"/>
      <path class="cls-3" d="M57.3,15.95c-.04.53-.09.79-.18.79,0,.05.02.12.05.21,0,.08-.04.13-.12.14l-.33.6.23.28v.07l-.11-.07h-.07c.08.13.13.25.14.37l.18-.14h.07v.14c-.08,0-.12.05-.12.14h-.07c-.07,0-.11-.05-.12-.14h-.18l-.12-.07c0,.19-.1.28-.3.28v.3s.09.02.18.07l-.11.23c-.12,0-.26-.05-.44-.16-.01.15-.12.23-.32.23h-1.21l-.18.14c-.33,0-.76-.02-1.28-.07-.08.05-.14.07-.18.07,0-.05-.02-.07-.05-.07-.13,0-.28.02-.44.07-.09-.01-.3-.02-.63-.04l.02.02-.12.42s.02.12.07.23c-.02.4-.03.74-.02,1.02l.02.42-.07.14s.07.02.07.07c-.09.01-.13.06-.12.16,0,.05.02.07.07.07l-.05.35c.07,1.71.02,2.92-.14,3.64.06.25.09.39.09.44-.02.47-.03.83-.02,1.09l.07.12c-.05.11-.08.47-.11,1.09.01.05.04.07.09.07-.02.06-.04.21-.05.46h1.49v2.46h-7.51v-2.46h1.3l-.04-.74s.02-.07.07-.07l-.09-.14c.01-.34.05-.51.12-.51,0-.06-.02-.09-.07-.09l.11-.7c0-.06-.02-.09-.07-.09.04-.32.05-1.07.05-2.25l-.07-.14c.01-.73.05-1.36.12-1.9l-.07-.12c.05-1.03.09-1.59.14-1.67l-.09-.28c.06-.97.07-1.9.04-2.78,0-.09.02-.19.05-.28,0-.05-.02-.07-.07-.07.07-.67.09-1.32.07-1.95h.07l-.09-.16c-.04-2.89,0-4.34.11-4.34l-.07-.16.05-.42c-.01-.06-.04-.09-.09-.09l.07-.12v-.11h-1.56v-2.48h7.51v.14h.26c1.42.23,2.13.46,2.13.67.38,0,.56.12.56.35,1.09.67,1.66,2.23,1.71,4.68-.05,0-.07.02-.07.07l.07.14s0,.12-.05.23l.07.35c-.04.47-.08.74-.12.81.05,0,.1.27.16.81-.01.08-.02.16-.04.23h-.25ZM45.75,11.73h.07l.02.14h-.07l-.02-.14ZM45.94,11.38h.07v.14h-.07v-.14ZM46.05,13.07h.07l.02.14h-.07l-.02-.14ZM46.1,11.73c.09.01.15.06.16.14h-.14l-.02-.14ZM46.15,12.44h.14v.14c-.09,0-.14-.05-.14-.14ZM46.49,12.22h.07v.14h-.07v-.14ZM46.68,10.96l.09.14-.14.07-.09-.14.14-.07ZM46.59,11.73h.14v.07h-.14v-.07ZM46.66,10.75h.07l.02.14h-.07l-.02-.14ZM46.89,9.83h.14c.01.22.07.39.18.49h-.28l-.16-.07c.08-.15.12-.29.12-.42ZM46.93,10.4v.14h-.14c.01-.09.06-.14.14-.14ZM46.82,13.14h.07l.02.14h-.07l-.02-.14ZM47.14,9.41l.09.14-.21.14v-.14c0-.09.04-.14.12-.14ZM47.23,18.8h.07v-.35l-.07-.14-.21.14c.04.23.11.35.21.35ZM47.23,30.12l-.07-.14c-.08,0-.13.05-.14.14h.21ZM47.05,12.22c.09.01.14.06.14.14h-.14v-.14ZM47.23,11.66l.07.14.14-.07h.07l.02.14h-.28c-.09,0-.15-.05-.16-.14l.14-.07ZM47.1,11.94h.07c.09.01.14.06.14.14l.02.07h-.07c-.09,0-.15-.05-.16-.14v-.07ZM47.3,16.62l.14-.07c0-.09-.05-.14-.14-.14l-.14.07c0,.08.05.13.14.14ZM47.17,12.93h.07v.14h-.07v-.14ZM47.51,19.29v-.07l-.07-.14c-.09.05-.16.07-.21.07v.21l.28-.07ZM47.51,28.43l-.07-.14v-.21l.14-.21h-.14c-.08,0-.15.12-.21.35.05,0,.07.07.07.21h.21ZM47.37,30.47v-.14c-.08,0-.13.05-.14.14h.14ZM47.3,10.82h.07c.11.01.16.06.16.14h-.21l-.02-.14ZM47.33,11.1c.09.05.16.07.21.07v.14h-.07c-.09,0-.14-.05-.14-.14v-.07ZM47.35,11.38h.07v.14h-.07v-.14ZM47.51,7.97v-.14h-.14v.14h.14ZM47.37,9.55h.14v.14c-.09,0-.14-.05-.14-.14ZM47.51,17.25v-.14h-.14v.14h.14ZM47.47,10.04h.07c.09.01.14.06.14.14v.07h-.14l.09.14v.07h-.07c-.09,0-.14-.05-.14-.14.04-.08.05-.18.05-.28ZM47.58,10.01h.14v-.14s-.12-.02-.21-.07h-.07v.07c0,.08.05.13.14.14ZM47.44,10.61h.21v.14h-.21v-.14ZM47.58,18.94c.09,0,.14-.05.14-.14v-.28h-.07c0,.08-.05.2-.14.35v.07h.07ZM47.72,13.74v-.14h-.07v.14h.07ZM47.74,9.9h.21l.02.14h-.07c-.09,0-.15-.05-.16-.14ZM47.79,9.62h.14v.14h-.14v-.14ZM47.93,12.12v-.28h-.14v.28h.14ZM48.09,11.87l.07.14-.14.07-.07-.14.14-.07ZM47.98,12.51h.07l.02.14h-.07l-.02-.14ZM48.14,13.95c.09,0,.14-.05.14-.14v-.07c-.08.05-.18.07-.28.07,0,.08.05.13.14.14ZM48.42,16.62v-.07c0-.09-.05-.14-.14-.14l.14-.21c-.23,0-.38.07-.42.21v.07c.09,0,.23.05.42.14ZM48.02,12.93h.14v.14h-.14v-.14ZM48.05,13.56h.14l.02.14h-.14l-.02-.14ZM48.21,17.04v-.07h-.14v.07h.14ZM48.21,17.32h.07c0-.09-.05-.14-.14-.14h-.07c0,.08.05.13.14.14ZM48.14,28.36v-.14h-.07v.14h.07ZM48.56,12.89l.14-.07c-.09-.12-.14-.23-.14-.35h-.35l.07.14h-.14v.07c0,.08.05.13.14.14h.07v-.07l-.07-.14h.07c.09,0,.14.05.14.14l-.07.14h.14ZM48.26,28.11c.01.19.04.28.09.28-.04.09-.05.16-.05.21h-.14l-.02-.35c0-.09.04-.14.12-.14ZM48.26,30.22c.09.01.15.06.16.14l-.21.14-.07-.14c0-.09.04-.14.12-.14ZM48.16,29.52h.14v.21c-.09,0-.14-.05-.14-.14v-.07ZM48.18,29.94h.07c.09.01.15.06.16.14h-.07c-.09,0-.15-.05-.16-.14ZM48.26,27.13c.01.07.13.16.37.28.09-.05.16-.07.21-.07-.25-.21-.38-.35-.39-.42-.06,0-.12.07-.19.21ZM48.49,10.43v-.07h-.07l-.14.07.07.14c.09,0,.14-.05.14-.14ZM48.42,17.6v-.21c-.08,0-.13.05-.14.14v.07h.14ZM48.49,19.29v-.14h-.21v.14h.21ZM48.3,26.5h.07l.21.14s.02-.07.07-.07l.09.14-.14.07h-.07c-.07,0-.15-.07-.23-.21v-.07ZM48.44,27.62c.01.09-.03.14-.12.14v.14c.11-.09.2-.14.28-.14l-.02-.14h-.14ZM48.49,13.31v-.07h-.14v.07h.14ZM48.49,14.44h.14c-.05-.09-.07-.16-.07-.21h-.07l-.14.07c0,.08.05.13.14.14ZM48.51,29.59l.02.21h-.14l-.02-.07c.01-.09.06-.14.14-.14ZM48.46,23.69v.07h.14l-.02-.21c-.08.01-.12.06-.12.14ZM48.47,22.98l.02.21h.14l-.02-.35c-.09.01-.14.06-.14.14ZM48.47,24.04l.02.14h.14l-.02-.28c-.09.01-.14.06-.14.14ZM48.49,28.26c.19.07.28.14.28.21l-.12.07c-.09,0-.15-.05-.16-.14v-.14ZM48.77,11.98c.09,0,.14-.05.14-.14v-.07c-.11,0-.2-.02-.28-.07,0,.05-.02.07-.07.07.05.09.07.16.07.21h.14ZM48.91,16.27v-.07h-.35v.07h.35ZM48.7,29.7v-.07h-.14v.07h.14ZM48.84,11.2v-.07h-.21v.07h.21ZM48.77,16.55c.09,0,.14-.05.14-.14h-.28c0,.08.05.13.14.14ZM48.91,18.02l.07-.35h-.14c-.08,0-.13.05-.14.14v.14s.12.02.21.07ZM48.84,30.33v-.07h-.14v.07h.14ZM49.05,17.04l-.14-.35-.14.07.07.35c.09-.05.16-.07.21-.07ZM48.98,14.51h.07v-.14h-.21c0,.08.05.13.14.14ZM48.91,29.56v-.14h-.07v.14h.07ZM48.9,28.11h.14v-.14c-.09.01-.14.06-.14.14ZM49.2,13.67v-.21l-.14.07v-.14l-.14.07s.02.07.07.07l-.07.14h.28ZM49.05,14.02h.07v-.21c-.09.05-.16.07-.21.07,0,.08.05.13.14.14ZM49.12,15.07v-.07h-.14v.07h.14ZM49.2,12.05h.07v-.21h-.21v.07c0,.08.05.13.14.14ZM49.27,17.95v-.21c-.14.07-.21.14-.21.21h.21ZM49.34,18.59c0-.09.12-.14.35-.14v-.14c-.07,0-.16-.05-.28-.14h-.14c0,.07-.05.16-.14.28v.14h.21ZM49.41,11.2v-.21s-.12-.02-.21-.07l.07.28h.14ZM49.34,17.18h.07c0-.09-.05-.14-.14-.14h-.07c0,.08.05.13.14.14ZM49.69,13.88c.14-.07.21-.14.21-.21l-.49.07v.14h.28ZM49.48,15.85s.02-.12.07-.21h-.14v.21h.07ZM49.55,28.85v-.28h-.14l.07.28h.07ZM49.76,12.96c.08,0,.15-.14.21-.42-.12,0-.28.09-.49.28v.07l.14-.07v.14h.14ZM49.69,16.27v-.07h-.14v.07h.14ZM49.69,17.11h.07v-.14l.21.14h.07v-.14c-.12-.19-.21-.28-.28-.28h-.07c0,.08-.05.2-.14.35l.14.07ZM50.11,29.84c0-.09-.05-.14-.14-.14v.14h.14ZM50,21.72l.02.14c.07,0,.16-.09.26-.28h-.14c-.09.01-.14.06-.14.14ZM50.39,16.13v-.07c-.08.05-.18.07-.28.07v.07l.07.14c.14-.07.21-.14.21-.21ZM50.18,27.94v-.14h-.07v.14h.07ZM50.23,17.78l.02.14h.21l-.02-.14h-.21ZM50.28,20.45v.21h.14v-.21h-.14ZM50.53,14.3l.14-.07-.07-.14c-.08,0-.13.05-.14.14v.07h.07ZM50.81,14.93h.07s-.02-.07-.07-.07l.14-.21-.35.07v.14s.12.02.21.07ZM50.6,25.16v.14h.07v-.14h-.07ZM50.62,22.42l.02.14c.09,0,.13-.05.12-.14h-.14ZM50.64,22.63v.07h.14v-.07h-.14ZM50.81,11.06v-.07h-.14v.07h.14ZM50.88,16.27c0-.11.02-.2.07-.28-.05,0-.07-.05-.07-.14h-.14c0,.21-.02.35-.07.42h.21ZM50.81,17.04c-.05-.09-.07-.16-.07-.21h-.07v.21h.14ZM50.74,17.32v-.21h-.07v.21h.07ZM50.74,17.74l.14.07v-.14c-.09,0-.14-.07-.14-.21h-.07v.35s.07-.02.07-.07ZM50.69,18.2c.02.09.07.14.14.14l-.02-.28c-.09.01-.13.06-.12.14ZM50.88,11.42h.07c-.05-.09-.07-.16-.07-.21l-.14.07c0,.08.05.13.14.14ZM50.88,12.68v-.07h-.14v.07h.14ZM50.81,13.17l.14-.07c-.05-.09-.07-.16-.07-.21h-.14l.07.14-.07.14h.07ZM50.88,15.63c0-.19.12-.28.35-.28l-.07-.14c-.08,0-.13.05-.14.14l-.14-.07h-.14s.02.07.07.07c0,.05-.02.07-.07.07,0,.05.02.07.07.07l-.07.14h.14ZM50.95,10.08h.07c0-.11-.02-.2-.07-.28,0-.09.07-.14.21-.14v-.14c-.08.05-.2.07-.35.07v.35c0,.08.05.13.14.14ZM51.02,12.12l-.07-.14-.14.07c.05.09.07.16.07.21.09,0,.14-.05.14-.14ZM51.02,12.47v-.14h-.21v.14h.21ZM51.16,17.32v-.07s-.12-.02-.21-.07c0,.05-.05.07-.14.07v.14c.08-.05.2-.07.35-.07ZM51.02,18.31h.07v-.28h-.14l-.14.07c.07.14.14.21.21.21ZM50.88,19.08c.09,0,.14.05.14.14h-.21l.07-.14ZM50.83,7.79v.07h.14v-.07h-.14ZM50.85,19.61l.02.28h.07l.05-.28h-.14ZM50.95,13.38c.09,0,.14-.05.14-.14v-.07h-.07c-.08,0-.13.05-.14.14v.07h.07ZM51.3,16.62v-.07s-.12-.02-.21-.07l.14-.21v-.07c-.21.09-.33.19-.35.28h.21l-.07.14v.07l.28-.07ZM50.88,21.01c0,.07.08.14.23.21l.05-.14-.02-.14h-.07c-.08.05-.15.07-.19.07ZM51.09,14.65v-.07c-.05-.09-.07-.16-.07-.21h-.07v.07c.05.09.07.16.07.21h.07ZM51.16,17.81v-.14h-.07c-.08,0-.13.05-.14.14h.21ZM51.16,10.36v-.14c-.08,0-.13.05-.14.14h.14ZM51.16,14.93v-.07h-.14v.07h.14ZM51.23,12.68c0-.09-.05-.14-.14-.14v.14h.14ZM51.23,12.82v-.07h-.14v.07h.14ZM51.16,17.53v-.14h-.07v.14h.07ZM51.37,10.01h-.21l.07.14c.09,0,.14-.05.14-.14ZM51.87,9.94s.07-.07.21-.07c0-.05-.02-.07-.07-.07l.07-.14h-.21l-.14.07s-.02-.07-.07-.07c0-.05.02-.07.07-.07,0-.09-.05-.14-.14-.14,0,.09-.05.23-.14.42.21,0,.35.02.42.07ZM53.43,16.11v-4.82c-.2-.49-.4-.76-.62-.81v.39h-1.25l-.04.19c.01.15.05.34.11.56-.07.83-.09,1.79-.05,2.87-.08.01-.12.06-.12.14.09.19.15.35.16.49.02.69-.02,1.21-.12,1.55h1.44c.16,0,.33-.19.49-.56ZM52.08,8.74h.35l-.28-.35s-.12.02-.21.07c-.05,0-.07-.05-.07-.14h-.14v.14c.07,0,.19.09.35.28ZM52.15,9.24h.07v-.07c0-.09-.05-.14-.14-.14l.07-.14s-.12-.02-.21-.07h-.14v.07c.09,0,.21.12.35.35ZM51.88,20.31l.02.14h.14l-.04-.28c-.08.01-.12.06-.12.14ZM52.29,28.5c-.05-.08-.07-.2-.07-.35-.14.07-.21.14-.21.21v.14h.28ZM52.08,23.44h.07v.14h-.07v-.14ZM52.5,8.11v-.07l-.07-.14h-.28v.07c.12,0,.23.05.35.14ZM52.85,17.36v.07h.14v-.07h-.14ZM52.92,10.1c.05.08.07.2.07.35l.42-.07-.28-.35c-.09.05-.16.07-.21.07ZM53.13,9.18h.14v-.14c-.09.01-.14.06-.14.14ZM53.55,19.94v.14h-.14c.01-.09.06-.14.14-.14ZM53.66,13.35h.14v.07h-.14v-.07ZM53.77,17.69h-.07v-.14h.07v.14ZM53.98,9.18l.14.07h.07c.09,0,.14-.05.14-.14v-.07h-.21c-.09.01-.14.06-.14.14ZM54.05,10.38v.07h.07c.09,0,.14-.05.14-.14v-.07h-.07c-.09.01-.14.06-.14.14ZM54.12,9.89v.07c.01.09.06.14.14.14h.07v-.21h-.21ZM54.17,13.49h.14v.07c.01.09-.03.14-.12.14h-.07c.04-.09.05-.16.05-.21ZM54.24,14.93h-.05v.25h.11s.02-.09.05-.16c0-.06-.04-.09-.11-.09ZM54.28,11.94h.14v.14h-.14v-.14ZM54.31,12.44h.14v.07h-.14v-.07ZM54.35,13h.07v.14h-.07v-.14ZM54.38,11.59h.14l.02.21c-.09,0-.14-.05-.14-.14l-.02-.07ZM54.4,15.37v.11h.11v-.11h-.11ZM54.4,15.72v.11c.06.11.11.16.16.16l-.11.14v.11c.06,0,.13.04.21.11h.05v-.11h-.05c0-.16.02-.26.05-.3-.11,0-.16-.07-.16-.21h-.16ZM54.43,11.17c.09.01.14.06.14.14h-.14v-.14ZM54.71,14.72c-.08.07-.17.11-.26.11,0,.04.02.05.05.05,0,.07-.02.13-.05.19,0,.07.04.11.11.11h.05s.02-.09.05-.16h-.05c0-.06.09-.09.26-.09-.07-.08-.11-.15-.11-.21h-.05ZM54.45,16.34v.04c0,.07.04.11.11.11h.05v-.11s-.09-.01-.16-.04ZM54.5,13.67c0,.07.04.11.11.11h.05v-.11l-.05-.09c-.07,0-.11.03-.11.09ZM54.57,30.22h.07v.14h-.07v-.14ZM55.14,14.18h-.05s-.11.18-.32.4c.04,0,.09-.02.16-.05.02,0,.08.08.16.25v.11l-.11-.05v.11c.16,0,.25.22.26.65h.11s.02-.09.05-.16c.11,0,.16.05.16.16h.16c.06,0,.13-.12.21-.35-.04,0-.05-.02-.05-.05-.21.13-.37.19-.47.19,0-.12-.04-.22-.11-.3v-.25c0-.43-.05-.65-.16-.65ZM54.87,16.48v.05h.11v-.05h-.11ZM55.03,18.13l-.16.11c.06.09.11.14.16.14l.05-.25h-.05ZM54.96,9.75v.21h.14v-.07c0-.09-.05-.14-.14-.14ZM55.19,13.52l-.11-.05-.11.05.05.11.11-.05v.09h-.11c.04.07.05.12.05.16h.16v-.05l-.05-.11s.05-.01.05-.04v-.16s-.05.02-.05.05ZM55.08,14.53h-.11c0-.06.04-.09.11-.11v.11ZM55.03,16.07s-.02.09-.05.16h.05s-.02.08-.05.14c0,.07.04.11.11.11h.05c0-.07.02-.13.05-.19-.04-.06-.05-.13-.05-.21h-.11ZM55.03,15.77v.11h.11v-.11h-.11ZM55.14,17.88v.05c0,.06.04.09.11.09v-.04c0-.06-.04-.09-.11-.11ZM55.29,15.72v.16l.05.11.11-.05h.05v.05c0,.06-.09.09-.26.09v.11c.08,0,.19.08.32.25l.11-.05h.05l.16.11v-.05c-.11-.15-.16-.3-.16-.44l.05-.21c-.11,0-.16-.04-.16-.11-.19.04-.29.05-.32.05ZM55.24,19.73v.05l.05.11c.14-.05.21-.1.21-.16l-.05-.09c-.08.06-.15.09-.21.09ZM55.35,13.52v.11h.11v-.11h-.11ZM56.4,14.67c-.04-.26-.09-.39-.16-.39v.3l.05.09c-.08,0-.26.07-.53.21-.11,0-.16-.04-.16-.11-.18.08-.26.16-.26.25.08,0,.15.02.21.05v-.09h.05l.16.09.16-.09h.26l.11.04.05-.25h.21v-.11h-.16ZM55.56,13.58c0,.13-.04.19-.11.19.04.06.05.13.05.21h.16c.07.02.12.04.16.04h.05s-.05-.17-.16-.44h-.16ZM55.56,16.78v.16h.05s.02-.09.05-.16h-.11ZM55.66,16.53s-.02.08-.05.14v.05h.11c.06,0,.09-.03.11-.09v-.11h-.16ZM55.72,16.78v.05c0,.07.04.11.11.11h.05v-.16h-.16ZM55.87,8.97h.21v-.14h-.07c-.09.01-.14.06-.14.14ZM56.35,15.18c0,.16-.11.25-.32.25l.21.21v.04h-.11c.12.15.26.26.42.32,0-.04.02-.05.05-.05h.05v.09c.06,0,.09-.03.11-.09h-.05c-.05-.14-.12-.21-.21-.21v-.35c-.07-.08-.11-.15-.11-.19h-.05ZM56.03,16.34l.05.19h.16c0-.16.04-.25.11-.25l-.05-.11-.26.16ZM56.19,15.12v.16h.05v-.16h-.05ZM56.3,16.53c0,.11-.02.19-.05.25h.16v-.14c0-.06-.04-.09-.11-.11ZM56.51,14.88v.05s.07.09.21.14c0-.11.02-.19.05-.25l-.26.05ZM56.56,16.28v.05h.11v-.05h-.11ZM56.72,16.34s-.02.07-.05.14l.11.05s.02-.09.05-.16v-.04h-.11ZM57.3,11.56v-.14l-.05.14h.05Z"/>
      <path class="cls-3" d="M71.33,15.95c-.04.53-.09.79-.18.79,0,.05.02.12.05.21,0,.08-.04.13-.12.14l-.33.6.23.28v.07l-.11-.07h-.07c.08.13.13.25.14.37l.18-.14h.07v.14c-.08,0-.12.05-.12.14h-.07c-.07,0-.11-.05-.12-.14h-.18l-.12-.07c0,.19-.1.28-.3.28v.3s.09.02.18.07l-.11.23c-.12,0-.26-.05-.44-.16-.01.15-.12.23-.32.23h-1.21l-.18.14c-.33,0-.76-.02-1.28-.07-.08.05-.14.07-.18.07,0-.05-.02-.07-.05-.07-.13,0-.28.02-.44.07-.09-.01-.3-.02-.63-.04l.02.02-.12.42s.02.12.07.23c-.02.4-.03.74-.02,1.02l.02.42-.07.14s.07.02.07.07c-.09.01-.13.06-.12.16,0,.05.02.07.07.07l-.05.35c.07,1.71.02,2.92-.14,3.64.06.25.09.39.09.44-.02.47-.03.83-.02,1.09l.07.12c-.05.11-.08.47-.11,1.09.01.05.04.07.09.07-.02.06-.04.21-.05.46h1.49v2.46h-7.51v-2.46h1.3l-.04-.74s.02-.07.07-.07l-.09-.14c.01-.34.05-.51.12-.51,0-.06-.02-.09-.07-.09l.11-.7c0-.06-.02-.09-.07-.09.04-.32.05-1.07.05-2.25l-.07-.14c.01-.73.05-1.36.12-1.9l-.07-.12c.05-1.03.09-1.59.14-1.67l-.09-.28c.06-.97.07-1.9.04-2.78,0-.09.02-.19.05-.28,0-.05-.02-.07-.07-.07.07-.67.09-1.32.07-1.95h.07l-.09-.16c-.04-2.89,0-4.34.11-4.34l-.07-.16.05-.42c-.01-.06-.04-.09-.09-.09l.07-.12v-.11h-1.56v-2.48h7.51v.14h.26c1.42.23,2.13.46,2.13.67.38,0,.56.12.56.35,1.09.67,1.66,2.23,1.71,4.68-.05,0-.07.02-.07.07l.07.14s0,.12-.05.23l.07.35c-.04.47-.08.74-.12.81.05,0,.1.27.16.81-.01.08-.02.16-.04.23h-.25ZM59.78,11.73h.07l.02.14h-.07l-.02-.14ZM59.97,11.38h.07v.14h-.07v-.14ZM60.08,13.07h.07l.02.14h-.07l-.02-.14ZM60.13,11.73c.09.01.15.06.16.14h-.14l-.02-.14ZM60.18,12.44h.14v.14c-.09,0-.14-.05-.14-.14ZM60.52,12.22h.07v.14h-.07v-.14ZM60.71,10.96l.09.14-.14.07-.09-.14.14-.07ZM60.62,11.73h.14v.07h-.14v-.07ZM60.69,10.75h.07l.02.14h-.07l-.02-.14ZM60.92,9.83h.14c.01.22.07.39.18.49h-.28l-.16-.07c.08-.15.12-.29.12-.42ZM60.95,10.4v.14h-.14c.01-.09.06-.14.14-.14ZM60.85,13.14h.07l.02.14h-.07l-.02-.14ZM61.17,9.41l.09.14-.21.14v-.14c0-.09.04-.14.12-.14ZM61.25,18.8h.07v-.35l-.07-.14-.21.14c.04.23.11.35.21.35ZM61.25,30.12l-.07-.14c-.08,0-.13.05-.14.14h.21ZM61.08,12.22c.09.01.14.06.14.14h-.14v-.14ZM61.25,11.66l.07.14.14-.07h.07l.02.14h-.28c-.09,0-.15-.05-.16-.14l.14-.07ZM61.13,11.94h.07c.09.01.14.06.14.14l.02.07h-.07c-.09,0-.15-.05-.16-.14v-.07ZM61.32,16.62l.14-.07c0-.09-.05-.14-.14-.14l-.14.07c0,.08.05.13.14.14ZM61.2,12.93h.07v.14h-.07v-.14ZM61.53,19.29v-.07l-.07-.14c-.09.05-.16.07-.21.07v.21l.28-.07ZM61.53,28.43l-.07-.14v-.21l.14-.21h-.14c-.08,0-.15.12-.21.35.05,0,.07.07.07.21h.21ZM61.39,30.47v-.14c-.08,0-.13.05-.14.14h.14ZM61.32,10.82h.07c.11.01.16.06.16.14h-.21l-.02-.14ZM61.36,11.1c.09.05.16.07.21.07v.14h-.07c-.09,0-.14-.05-.14-.14v-.07ZM61.38,11.38h.07v.14h-.07v-.14ZM61.53,7.97v-.14h-.14v.14h.14ZM61.39,9.55h.14v.14c-.09,0-.14-.05-.14-.14ZM61.53,17.25v-.14h-.14v.14h.14ZM61.5,10.04h.07c.09.01.14.06.14.14v.07h-.14l.09.14v.07h-.07c-.09,0-.14-.05-.14-.14.04-.08.05-.18.05-.28ZM61.61,10.01h.14v-.14s-.12-.02-.21-.07h-.07v.07c0,.08.05.13.14.14ZM61.46,10.61h.21v.14h-.21v-.14ZM61.61,18.94c.09,0,.14-.05.14-.14v-.28h-.07c0,.08-.05.2-.14.35v.07h.07ZM61.75,13.74v-.14h-.07v.14h.07ZM61.76,9.9h.21l.02.14h-.07c-.09,0-.15-.05-.16-.14ZM61.82,9.62h.14v.14h-.14v-.14ZM61.96,12.12v-.28h-.14v.28h.14ZM62.11,11.87l.07.14-.14.07-.07-.14.14-.07ZM62.01,12.51h.07l.02.14h-.07l-.02-.14ZM62.17,13.95c.09,0,.14-.05.14-.14v-.07c-.08.05-.18.07-.28.07,0,.08.05.13.14.14ZM62.45,16.62v-.07c0-.09-.05-.14-.14-.14l.14-.21c-.23,0-.38.07-.42.21v.07c.09,0,.23.05.42.14ZM62.04,12.93h.14v.14h-.14v-.14ZM62.08,13.56h.14l.02.14h-.14l-.02-.14ZM62.24,17.04v-.07h-.14v.07h.14ZM62.24,17.32h.07c0-.09-.05-.14-.14-.14h-.07c0,.08.05.13.14.14ZM62.17,28.36v-.14h-.07v.14h.07ZM62.59,12.89l.14-.07c-.09-.12-.14-.23-.14-.35h-.35l.07.14h-.14v.07c0,.08.05.13.14.14h.07v-.07l-.07-.14h.07c.09,0,.14.05.14.14l-.07.14h.14ZM62.29,28.11c.01.19.04.28.09.28-.04.09-.05.16-.05.21h-.14l-.02-.35c0-.09.04-.14.12-.14ZM62.29,30.22c.09.01.15.06.16.14l-.21.14-.07-.14c0-.09.04-.14.12-.14ZM62.19,29.52h.14v.21c-.09,0-.14-.05-.14-.14v-.07ZM62.2,29.94h.07c.09.01.15.06.16.14h-.07c-.09,0-.15-.05-.16-.14ZM62.29,27.13c.01.07.13.16.37.28.09-.05.16-.07.21-.07-.25-.21-.38-.35-.39-.42-.06,0-.12.07-.19.21ZM62.52,10.43v-.07h-.07l-.14.07.07.14c.09,0,.14-.05.14-.14ZM62.45,17.6v-.21c-.08,0-.13.05-.14.14v.07h.14ZM62.52,19.29v-.14h-.21v.14h.21ZM62.33,26.5h.07l.21.14s.02-.07.07-.07l.09.14-.14.07h-.07c-.07,0-.15-.07-.23-.21v-.07ZM62.47,27.62c.01.09-.03.14-.12.14v.14c.11-.09.2-.14.28-.14l-.02-.14h-.14ZM62.52,13.31v-.07h-.14v.07h.14ZM62.52,14.44h.14c-.05-.09-.07-.16-.07-.21h-.07l-.14.07c0,.08.05.13.14.14ZM62.54,29.59l.02.21h-.14l-.02-.07c.01-.09.06-.14.14-.14ZM62.48,23.69v.07h.14l-.02-.21c-.08.01-.12.06-.12.14ZM62.5,22.98l.02.21h.14l-.02-.35c-.09.01-.14.06-.14.14ZM62.5,24.04l.02.14h.14l-.02-.28c-.09.01-.14.06-.14.14ZM62.52,28.26c.19.07.28.14.28.21l-.12.07c-.09,0-.15-.05-.16-.14v-.14ZM62.8,11.98c.09,0,.14-.05.14-.14v-.07c-.11,0-.2-.02-.28-.07,0,.05-.02.07-.07.07.05.09.07.16.07.21h.14ZM62.94,16.27v-.07h-.35v.07h.35ZM62.73,29.7v-.07h-.14v.07h.14ZM62.87,11.2v-.07h-.21v.07h.21ZM62.8,16.55c.09,0,.14-.05.14-.14h-.28c0,.08.05.13.14.14ZM62.94,18.02l.07-.35h-.14c-.08,0-.13.05-.14.14v.14s.12.02.21.07ZM62.87,30.33v-.07h-.14v.07h.14ZM63.08,17.04l-.14-.35-.14.07.07.35c.09-.05.16-.07.21-.07ZM63.01,14.51h.07v-.14h-.21c0,.08.05.13.14.14ZM62.94,29.56v-.14h-.07v.14h.07ZM62.92,28.11h.14v-.14c-.09.01-.14.06-.14.14ZM63.22,13.67v-.21l-.14.07v-.14l-.14.07s.02.07.07.07l-.07.14h.28ZM63.08,14.02h.07v-.21c-.09.05-.16.07-.21.07,0,.08.05.13.14.14ZM63.15,15.07v-.07h-.14v.07h.14ZM63.22,12.05h.07v-.21h-.21v.07c0,.08.05.13.14.14ZM63.29,17.95v-.21c-.14.07-.21.14-.21.21h.21ZM63.36,18.59c0-.09.12-.14.35-.14v-.14c-.07,0-.16-.05-.28-.14h-.14c0,.07-.05.16-.14.28v.14h.21ZM63.43,11.2v-.21s-.12-.02-.21-.07l.07.28h.14ZM63.36,17.18h.07c0-.09-.05-.14-.14-.14h-.07c0,.08.05.13.14.14ZM63.71,13.88c.14-.07.21-.14.21-.21l-.49.07v.14h.28ZM63.5,15.85s.02-.12.07-.21h-.14v.21h.07ZM63.57,28.85v-.28h-.14l.07.28h.07ZM63.78,12.96c.08,0,.15-.14.21-.42-.12,0-.28.09-.49.28v.07l.14-.07v.14h.14ZM63.71,16.27v-.07h-.14v.07h.14ZM63.71,17.11h.07v-.14l.21.14h.07v-.14c-.12-.19-.21-.28-.28-.28h-.07c0,.08-.05.2-.14.35l.14.07ZM64.14,29.84c0-.09-.05-.14-.14-.14v.14h.14ZM64.03,21.72l.02.14c.07,0,.16-.09.26-.28h-.14c-.09.01-.14.06-.14.14ZM64.42,16.13v-.07c-.08.05-.18.07-.28.07v.07l.07.14c.14-.07.21-.14.21-.21ZM64.21,27.94v-.14h-.07v.14h.07ZM64.26,17.78l.02.14h.21l-.02-.14h-.21ZM64.31,20.45v.21h.14v-.21h-.14ZM64.56,14.3l.14-.07-.07-.14c-.08,0-.13.05-.14.14v.07h.07ZM64.84,14.93h.07s-.02-.07-.07-.07l.14-.21-.35.07v.14s.12.02.21.07ZM64.63,25.16v.14h.07v-.14h-.07ZM64.65,22.42l.02.14c.09,0,.13-.05.12-.14h-.14ZM64.66,22.63v.07h.14v-.07h-.14ZM64.84,11.06v-.07h-.14v.07h.14ZM64.91,16.27c0-.11.02-.2.07-.28-.05,0-.07-.05-.07-.14h-.14c0,.21-.02.35-.07.42h.21ZM64.84,17.04c-.05-.09-.07-.16-.07-.21h-.07v.21h.14ZM64.77,17.32v-.21h-.07v.21h.07ZM64.77,17.74l.14.07v-.14c-.09,0-.14-.07-.14-.21h-.07v.35s.07-.02.07-.07ZM64.72,18.2c.02.09.07.14.14.14l-.02-.28c-.09.01-.13.06-.12.14ZM64.91,11.42h.07c-.05-.09-.07-.16-.07-.21l-.14.07c0,.08.05.13.14.14ZM64.91,12.68v-.07h-.14v.07h.14ZM64.84,13.17l.14-.07c-.05-.09-.07-.16-.07-.21h-.14l.07.14-.07.14h.07ZM64.91,15.63c0-.19.12-.28.35-.28l-.07-.14c-.08,0-.13.05-.14.14l-.14-.07h-.14s.02.07.07.07c0,.05-.02.07-.07.07,0,.05.02.07.07.07l-.07.14h.14ZM64.98,10.08h.07c0-.11-.02-.2-.07-.28,0-.09.07-.14.21-.14v-.14c-.08.05-.2.07-.35.07v.35c0,.08.05.13.14.14ZM65.05,12.12l-.07-.14-.14.07c.05.09.07.16.07.21.09,0,.14-.05.14-.14ZM65.05,12.47v-.14h-.21v.14h.21ZM65.19,17.32v-.07s-.12-.02-.21-.07c0,.05-.05.07-.14.07v.14c.08-.05.2-.07.35-.07ZM65.05,18.31h.07v-.28h-.14l-.14.07c.07.14.14.21.21.21ZM64.91,19.08c.09,0,.14.05.14.14h-.21l.07-.14ZM64.86,7.79v.07h.14v-.07h-.14ZM64.87,19.61l.02.28h.07l.05-.28h-.14ZM64.98,13.38c.09,0,.14-.05.14-.14v-.07h-.07c-.08,0-.13.05-.14.14v.07h.07ZM65.33,16.62v-.07s-.12-.02-.21-.07l.14-.21v-.07c-.21.09-.33.19-.35.28h.21l-.07.14v.07l.28-.07ZM64.91,21.01c0,.07.08.14.23.21l.05-.14-.02-.14h-.07c-.08.05-.15.07-.19.07ZM65.12,14.65v-.07c-.05-.09-.07-.16-.07-.21h-.07v.07c.05.09.07.16.07.21h.07ZM65.19,17.81v-.14h-.07c-.08,0-.13.05-.14.14h.21ZM65.19,10.36v-.14c-.08,0-.13.05-.14.14h.14ZM65.19,14.93v-.07h-.14v.07h.14ZM65.26,12.68c0-.09-.05-.14-.14-.14v.14h.14ZM65.26,12.82v-.07h-.14v.07h.14ZM65.19,17.53v-.14h-.07v.14h.07ZM65.4,10.01h-.21l.07.14c.09,0,.14-.05.14-.14ZM65.89,9.94s.07-.07.21-.07c0-.05-.02-.07-.07-.07l.07-.14h-.21l-.14.07s-.02-.07-.07-.07c0-.05.02-.07.07-.07,0-.09-.05-.14-.14-.14,0,.09-.05.23-.14.42.21,0,.35.02.42.07ZM67.46,16.11v-4.82c-.2-.49-.4-.76-.62-.81v.39h-1.25l-.04.19c.01.15.05.34.11.56-.07.83-.09,1.79-.05,2.87-.08.01-.12.06-.12.14.09.19.15.35.16.49.02.69-.02,1.21-.12,1.55h1.44c.16,0,.33-.19.49-.56ZM66.11,8.74h.35l-.28-.35s-.12.02-.21.07c-.05,0-.07-.05-.07-.14h-.14v.14c.07,0,.19.09.35.28ZM66.18,9.24h.07v-.07c0-.09-.05-.14-.14-.14l.07-.14s-.12-.02-.21-.07h-.14v.07c.09,0,.21.12.35.35ZM65.91,20.31l.02.14h.14l-.04-.28c-.08.01-.12.06-.12.14ZM66.32,28.5c-.05-.08-.07-.2-.07-.35-.14.07-.21.14-.21.21v.14h.28ZM66.11,23.44h.07v.14h-.07v-.14ZM66.53,8.11v-.07l-.07-.14h-.28v.07c.12,0,.23.05.35.14ZM66.88,17.36v.07h.14v-.07h-.14ZM66.95,10.1c.05.08.07.2.07.35l.42-.07-.28-.35c-.09.05-.16.07-.21.07ZM67.16,9.18h.14v-.14c-.09.01-.14.06-.14.14ZM67.58,19.94v.14h-.14c.01-.09.06-.14.14-.14ZM67.69,13.35h.14v.07h-.14v-.07ZM67.79,17.69h-.07v-.14h.07v.14ZM68,9.18l.14.07h.07c.09,0,.14-.05.14-.14v-.07h-.21c-.09.01-.14.06-.14.14ZM68.07,10.38v.07h.07c.09,0,.14-.05.14-.14v-.07h-.07c-.09.01-.14.06-.14.14ZM68.14,9.89v.07c.01.09.06.14.14.14h.07v-.21h-.21ZM68.2,13.49h.14v.07c.01.09-.03.14-.12.14h-.07c.04-.09.05-.16.05-.21ZM68.27,14.93h-.05v.25h.11s.02-.09.05-.16c0-.06-.04-.09-.11-.09ZM68.3,11.94h.14v.14h-.14v-.14ZM68.34,12.44h.14v.07h-.14v-.07ZM68.37,13h.07v.14h-.07v-.14ZM68.41,11.59h.14l.02.21c-.09,0-.14-.05-.14-.14l-.02-.07ZM68.43,15.37v.11h.11v-.11h-.11ZM68.43,15.72v.11c.06.11.11.16.16.16l-.11.14v.11c.06,0,.13.04.21.11h.05v-.11h-.05c0-.16.02-.26.05-.3-.11,0-.16-.07-.16-.21h-.16ZM68.46,11.17c.09.01.14.06.14.14h-.14v-.14ZM68.74,14.72c-.08.07-.17.11-.26.11,0,.04.02.05.05.05,0,.07-.02.13-.05.19,0,.07.04.11.11.11h.05s.02-.09.05-.16h-.05c0-.06.09-.09.26-.09-.07-.08-.11-.15-.11-.21h-.05ZM68.48,16.34v.04c0,.07.04.11.11.11h.05v-.11s-.09-.01-.16-.04ZM68.53,13.67c0,.07.04.11.11.11h.05v-.11l-.05-.09c-.07,0-.11.03-.11.09ZM68.6,30.22h.07v.14h-.07v-.14ZM69.16,14.18h-.05s-.11.18-.32.4c.04,0,.09-.02.16-.05.02,0,.08.08.16.25v.11l-.11-.05v.11c.16,0,.25.22.26.65h.11s.02-.09.05-.16c.11,0,.16.05.16.16h.16c.06,0,.13-.12.21-.35-.04,0-.05-.02-.05-.05-.21.13-.37.19-.47.19,0-.12-.04-.22-.11-.3v-.25c0-.43-.05-.65-.16-.65ZM68.9,16.48v.05h.11v-.05h-.11ZM69.06,18.13l-.16.11c.06.09.11.14.16.14l.05-.25h-.05ZM68.99,9.75v.21h.14v-.07c0-.09-.05-.14-.14-.14ZM69.22,13.52l-.11-.05-.11.05.05.11.11-.05v.09h-.11c.04.07.05.12.05.16h.16v-.05l-.05-.11s.05-.01.05-.04v-.16s-.05.02-.05.05ZM69.11,14.53h-.11c0-.06.04-.09.11-.11v.11ZM69.06,16.07s-.02.09-.05.16h.05s-.02.08-.05.14c0,.07.04.11.11.11h.05c0-.07.02-.13.05-.19-.04-.06-.05-.13-.05-.21h-.11ZM69.06,15.77v.11h.11v-.11h-.11ZM69.16,17.88v.05c0,.06.04.09.11.09v-.04c0-.06-.04-.09-.11-.11ZM69.32,15.72v.16l.05.11.11-.05h.05v.05c0,.06-.09.09-.26.09v.11c.08,0,.19.08.32.25l.11-.05h.05l.16.11v-.05c-.11-.15-.16-.3-.16-.44l.05-.21c-.11,0-.16-.04-.16-.11-.19.04-.29.05-.32.05ZM69.27,19.73v.05l.05.11c.14-.05.21-.1.21-.16l-.05-.09c-.08.06-.15.09-.21.09ZM69.37,13.52v.11h.11v-.11h-.11ZM70.43,14.67c-.04-.26-.09-.39-.16-.39v.3l.05.09c-.08,0-.26.07-.53.21-.11,0-.16-.04-.16-.11-.18.08-.26.16-.26.25.08,0,.15.02.21.05v-.09h.05l.16.09.16-.09h.26l.11.04.05-.25h.21v-.11h-.16ZM69.59,13.58c0,.13-.04.19-.11.19.04.06.05.13.05.21h.16c.07.02.12.04.16.04h.05s-.05-.17-.16-.44h-.16ZM69.59,16.78v.16h.05s.02-.09.05-.16h-.11ZM69.69,16.53s-.02.08-.05.14v.05h.11c.06,0,.09-.03.11-.09v-.11h-.16ZM69.74,16.78v.05c0,.07.04.11.11.11h.05v-.16h-.16ZM69.9,8.97h.21v-.14h-.07c-.09.01-.14.06-.14.14ZM70.38,15.18c0,.16-.11.25-.32.25l.21.21v.04h-.11c.12.15.26.26.42.32,0-.04.02-.05.05-.05h.05v.09c.06,0,.09-.03.11-.09h-.05c-.05-.14-.12-.21-.21-.21v-.35c-.07-.08-.11-.15-.11-.19h-.05ZM70.06,16.34l.05.19h.16c0-.16.04-.25.11-.25l-.05-.11-.26.16ZM70.22,15.12v.16h.05v-.16h-.05ZM70.32,16.53c0,.11-.02.19-.05.25h.16v-.14c0-.06-.04-.09-.11-.11ZM70.53,14.88v.05s.07.09.21.14c0-.11.02-.19.05-.25l-.26.05ZM70.59,16.28v.05h.11v-.05h-.11ZM70.75,16.34s-.02.07-.05.14l.11.05s.02-.09.05-.16v-.04h-.11ZM71.33,11.56v-.14l-.05.14h.05Z"/>
      <path class="cls-3" d="M73.35,6.79h.07c.09.05.16.07.21.07-.06.23-.13.35-.21.35h-.07v-.07s.02-.07.07-.07l-.07-.14v-.14ZM73.7,6.44c.05.09.07.16.07.21h-.14c0-.09-.07-.14-.21-.14v-.07h.28ZM82.7,19.99c-.18-.04-.33-.05-.46-.05-.11,0-.2.02-.28.07-.08-.05-.18-.07-.28-.07h-.07l-.35.07c-.05-.11-.07-.18-.07-.23-.14.05-.33.07-.56.07-.01-.14-.09-.21-.23-.21l-.05.14s.07.02.07.07l-.14.09h-.14c-.12-.11-.21-.16-.28-.16-.09.05-.16.07-.21.07l.02.3c0,.16-.01.38-.04.65,0,.05.02.07.07.07l-.05.35.07,1.44c0,.12-.02.22-.05.3,0,.05.02.07.07.07l-.05.51.11,1.86s-.02.07-.07.07c.05.11.08.18.09.23l-.07.14s.02.07.07.07l-.04.51.04.93-.05.35c1.1.05,1.99.08,2.67.09v-2.39h2.6v6.01h-.77s-.1.08-.16.12h-1.37v.11h-9.09v-2.65h1.76l-.16-3.01c-.02-.48-.03-1.05-.02-1.72l-.07-.16.11-3.67s-.04-.12-.09-.21c-.02-2.66-.01-5.98.04-9.95h-1.56v-2.67h1.6v-.07l.12-.07c.09,0,.15.02.16.07l.69-.07h.98c.11,0,.21.02.3.07.05,0,.06-.02.05-.07.6.05.91.07.93.07,1.61.02,2.92.04,3.96.05v-.02h2.6v6.01h-2.6v-2.58h-.05c-.11,0-.2.02-.28.07-.08-.05-.18-.07-.28-.07l-.49.07c-.06-.09-.09-.16-.09-.21-.28.09-.46.14-.54.14l-.09-.14s.07-.02.07-.07h-.28l.02.21h-.28l-.23-.14-.62.14.07,1.65-.05.44c.06.08.09.2.11.35h-.07l.07.16v.07s-.02.07-.07.07l.09.14-.05.44c.05.09.08.16.09.21h-.07s.02.07.07.07l-.05.37v.07c.01.14.04.21.09.21l-.05.35.04.88c1.43.05,2.51.07,3.23.07v3.45ZM74.91,8.55c.02.09.08.14.16.14h.07c-.01-.09-.06-.14-.16-.14h-.07ZM75.32,27.04l.14.07-.02-.21c-.09.01-.13.06-.12.14ZM75.51,28.24l.02.14h.14c-.01-.09-.06-.14-.16-.14ZM75.77,22.98v-.14h-.16v.14h.16ZM76.3,16.3c0-.22-.15-.42-.46-.58v-.16c-.11,0-.16.1-.16.3v.14c.08,0,.29.1.62.3ZM75.77,16.44v-.3h-.09v.3h.09ZM75.84,19.06v-.16h-.16v.16h.16ZM75.77,19.8v-.46h-.09v.46h.09ZM75.7,12.77v.14c.09,0,.14-.05.14-.14h-.14ZM76.07,17.02v-.14l-.3-.16c.05.18.07.37.07.58h.07c.11-.02.16-.12.16-.28ZM75.88,12.07v.21h.07v-.21h-.07ZM76.23,21.38c-.01-.2-.06-.3-.16-.3-.11,0-.16.1-.16.3h.32ZM76.07,10.31v.21h.07v-.21h-.07ZM76.23,20.66l.07-.3c-.01-.19-.06-.28-.16-.28,0,.09-.02.23-.07.42l.16.16ZM76.23,23.84v-.28h-.16v.28h.16ZM76.37,21.82v-.16h-.23v.16h.23ZM76.6,24.86v-.42h-.23c0,.09-.02.23-.07.42.05,0,.07.05.07.16.11-.11.18-.16.23-.16ZM77.13,17.3c-.05-.19-.07-.33-.07-.42h-.14v.28l-.46-.28c0,.21-.03.4-.09.58l.16.12h.16v-.28h.14v.16l-.07.28h.16c.07,0,.14-.15.21-.44ZM76.69,19.06c-.02-.2-.08-.3-.16-.3h-.16c0,.2.05.3.16.3h.16ZM76.41,11.43v.07h.14v-.07h-.14ZM77.06,23.42v-.3h-.53c.05.2.07.35.07.44l.46-.14ZM76.53,30.07v.14h.07v-.14h-.07ZM76.6,8.41v.07h.14v-.07h-.14ZM76.76,16.44v-.3h-.16v.3h.16ZM76.76,26.02v-.14h-.16v.14h.16ZM76.99,18.9v-.28c-.11,0-.16.09-.16.28h.16ZM76.95,28.73v.07h.14v-.07h-.14ZM77.28,25.88c-.01-.19-.06-.28-.16-.28h-.07v.58h.07c.11-.02.16-.12.16-.3ZM77.06,28.1v.07h.14v-.07h-.14ZM77.21,19.2v-.3h-.09v.3h.09ZM77.36,23.26v-.14c-.01-.19-.06-.28-.14-.28v.14c0,.19.05.28.14.28ZM77.36,24.86v-.12h-.14v.12h.14ZM77.28,8.2l.02.14h.14l-.02-.14h-.14ZM77.39,10.1v.07c.09,0,.14-.05.14-.14v-.07c-.09.01-.14.06-.14.14ZM77.58,22.26v-.16h-.14v.16h.14ZM77.58,23.42h-.14v.28c.09-.01.14-.11.14-.28ZM77.58,24.58h-.14v.28c.09-.01.14-.11.14-.28ZM77.81,17.16v-.14h-.14v.14h.14ZM77.81,20.94v-.28h-.07v.28h.07ZM77.78,29.78v.07c.09,0,.14-.05.14-.14l-.02-.07c-.09.01-.13.06-.12.14ZM77.97,22.26v-.16h-.16v.16h.16ZM78.2,24.86c-.01-.19-.06-.28-.16-.28h-.07c-.11,0-.16.09-.16.28h.39ZM77.97,25.44v-.14h-.16v.14h.16ZM77.9,8.97v.07h.14v-.07h-.14ZM78.2,18.9c0-.09.02-.14.07-.14-.05-.16-.07-.36-.07-.58-.09.09-.19.14-.3.14,0,.14.1.33.3.58ZM78.04,20.22v-.14h-.14v.14h.14ZM78.13,19.92v-.28h-.09v.28h.09ZM78.06,10.87v.07h.14v-.07h-.14ZM78.27,22.4v-.14h-.14v.14h.14ZM78.81,18.48c-.3-.68-.49-1.02-.54-1.02l-.07.28c.14.49.35.74.62.74ZM78.5,17.16v-.14c-.01-.2-.06-.3-.14-.3h-.09v.16c0,.19.05.28.16.28h.07ZM78.43,20.94v-.14h-.16v.14h.16ZM78.27,28.66l.02.14h.07l-.02-.14h-.07ZM78.59,23.26v-.14h-.16v.44c.11-.02.16-.12.16-.3ZM78.45,30.56v.14h.07v-.14h-.07ZM78.46,25.02v.58h.09v-.58h-.09ZM78.88,17.3v-.58h-.07c-.13.39-.23.58-.32.58v.16h.09c.08-.11.18-.16.3-.16ZM78.66,22.68v-.28h-.16v.28h.16ZM78.73,21.38v-.14h-.14v.14h.14ZM78.88,21.82v-.3h-.23v.3h.23ZM79.99,25.44v.3h.07v-.3h-.07ZM80.24,28.66l.02.14c.01.09.06.14.14.14h.07c0-.09.05-.14.14-.14l-.02-.21c-.08.05-.2.07-.35.07ZM80.27,8.9l.02.07c.01.09.06.14.14.14v-.07c-.01-.09-.06-.14-.16-.14ZM80.36,28.31l.02.21h.07c.09,0,.14-.05.14-.14l-.02-.07h-.21ZM80.82,19.45c.02.09.08.14.16.14l.05-.14h-.21ZM81.56,28.31c-.16.38-.29.56-.39.56,0-.09-.05-.14-.14-.14h-.07v.14c.02.09.08.14.16.14h.07c.11,0,.19-.02.26-.07.09.05.19.07.3.07.13-.13.19-.27.18-.42h.42v-.14h-.28s-.07.02-.07.07l-.44-.21ZM80.98,18.18v.07h.14v-.07h-.14ZM81.08,9.46v.07h.14v-.07h-.14ZM81.26,29.15v.07h.14v-.07h-.14ZM82.66,18.18s-.02.12-.07.21l.16.07c.09,0,.13-.05.12-.14,0-.09-.05-.14-.14-.14h-.07ZM82.63,18.96v.07s.12.02.21.07l.07-.14-.02-.21h-.07c-.07,0-.13.07-.19.21ZM82.98,9.46l.02.21h.14v-.07c-.01-.09-.06-.14-.16-.14ZM83.02,10.03l.02.35c.09,0,.13-.05.12-.14v-.21h-.14Z"/>
      <path class="cls-3" d="M95.99,10.57c.02.5.06.8.11.9l-.07.12c-.01.26,0,.63.02,1.11,0,.05-.03.19-.09.44.16.71.21,1.94.14,3.67l.05.35s-.07.02-.07.07c-.01.09.03.15.12.16,0,.05-.02.07-.07.07l.07.14-.02.42c-.01.28,0,.63.02,1.04-.05.11-.07.18-.07.23l.12.42-.09.16c.01.86.02,1.37.02,1.55,0,.05-.05.07-.14.07l-.02.12c.14,0,.21.08.21.23l-.16.28.14.3-.09.16s.07.02.07.07v.09h-.21v.07c.22.26.32.81.28,1.67-.01.14-.06.29-.16.46,0,.07.04.11.12.12-.04.96-.02,1.82.05,2.57-.06.2-.09.37-.11.51l.07.3s-.07.02-.07.05c.08.18.12.33.11.47v.05c0,.09-.09.14-.28.14v.04h1.51v2.5h-7.51v-2.5h1.56v-.11l-.07-.12s.08-.03.09-.09l-.05-.44.07-.16c-.11,0-.14-1.46-.11-4.38l.09-.16h-.07c.02-.63,0-1.29-.07-1.97.05,0,.07-.02.07-.07-.04-.09-.05-.19-.05-.28.04-.89.02-1.82-.04-2.79l.09-.3c-.05-.08-.09-.64-.14-1.67l.07-.12c-.07-.55-.11-1.19-.12-1.92l.07-.14c0-1.2-.02-1.96-.05-2.29.05,0,.07-.03.07-.09l-.11-.7s.07-.03.07-.09c-.07,0-.11-.17-.12-.51l.02-.04c-.09-.02-.22-.06-.39-.12,0,.05-.03.12-.09.21l-.49-.07c-.11,0-.2.02-.28.07-.08-.05-.18-.07-.28-.07h-.05v2.58h-2.6v-6.01h2.6v.02h.32v-.02h7.51v.02h.32v-.02h2.6v6.01h-2.6v-2.58h-.05c-.11,0-.2.02-.28.07-.08-.05-.18-.07-.28-.07l-.49.07c-.06-.09-.09-.16-.09-.21-.28.09-.46.14-.54.14l-.09-.14s.07-.02.07-.07h-.09ZM90.15,9.68l-.07.14v.07c.09-.05.16-.07.21-.07,0-.09-.05-.14-.14-.14ZM90.15,8.27h.07c.09.01.14.06.14.14v.07h-.07c-.09,0-.14-.05-.14-.14v-.07ZM90.43,9.68v.07l.35.07v-.07c0-.07-.07-.14-.21-.21-.09.01-.14.06-.14.14ZM91.1,16.16v-.25h-.07v.25h.07ZM92.19,16.07h.21v.07c0,.09-.05.14-.14.14l-.07-.14v-.07ZM92.21,19.11v.25h.23v-.25h-.23ZM92.21,22.79v.47h.07c.13-.32.23-.47.32-.47v-.12h-.09c-.08.08-.18.12-.3.12ZM92.28,21.84c.3.55.49.83.54.83l.07-.23c-.14-.4-.35-.6-.62-.6ZM92.37,19.47v.12h.14v-.12h-.14ZM92.4,8.76c.01.09.06.14.14.14l.07-.14h-.21ZM92.44,18.41v.23h.16v-.23h-.16ZM92.51,17.94v.12h.16v-.37c-.11.02-.16.11-.16.25ZM92.63,16.51v-.47h-.09v.47h.09ZM92.6,22.91v.11c.01.16.06.25.14.25h.09v-.12c0-.15-.05-.23-.16-.23h-.07ZM92.61,8.41c.01.09.06.14.14.14v-.14h-.14ZM92.67,19.84v.11h.16v-.11h-.16ZM92.82,18.64v.12h.14v-.12h-.14ZM92.89,21.49c0,.08-.02.12-.07.12.05.13.07.29.07.47.09-.08.19-.12.3-.12,0-.12-.1-.28-.3-.47ZM92.89,16.64c.01.15.06.23.16.23h.07c.11,0,.16-.08.16-.23h-.39ZM92.96,20.66v.23h.09v-.23h-.09ZM93.05,20.42v.12h.14v-.12h-.14ZM93.12,16.16v.12h.16v-.12h-.16ZM93.12,18.76v.12h.16v-.12h-.16ZM93.28,19.84v.23h.07v-.23h-.07ZM93.28,22.91v.11h.14v-.11h-.14ZM93.51,16.86h.14v-.23c-.09.01-.14.09-.14.23ZM93.51,17.81h.14v-.23c-.09.01-.14.09-.14.23ZM93.51,18.76v.12h.14v-.12h-.14ZM93.67,27.68l.14.07v-.21c-.09.01-.14.06-.14.14ZM93.74,16.64v.11h.14v-.11h-.14ZM93.74,17.94v.12c.01.15.06.23.14.23v-.12c0-.15-.05-.23-.14-.23ZM93.81,15.81c.01.15.06.23.16.23h.07v-.47h-.07c-.11.02-.16.11-.16.25ZM93.81,29.93v.21h.21v-.14s-.12-.02-.21-.07ZM93.88,21.24v.25h.09v-.25h-.09ZM93.88,28.73v.14h.07v-.14h-.07ZM93.95,9.18v.07h.14v-.07h-.14ZM93.95,17.9v.14h.14c0-.09-.05-.14-.14-.14ZM93.95,30.56v.14h.07v-.14h-.07ZM93.97,22.79c.05.15.07.27.07.35h.14v-.23l.46.23c0-.18.03-.33.09-.47l-.16-.11h-.16v.23h-.14v-.12l.07-.23h-.16c-.07,0-.14.12-.21.35ZM94.09,25.64l-.07.28c.09,0,.14-.07.14-.21v-.07h-.07ZM94.04,17.81v.25h.53c-.05-.16-.07-.29-.07-.37l-.46.12ZM94.09,8.55v.07h.14v-.07h-.14ZM94.11,21.49v.23c.11,0,.16-.08.16-.23h-.16ZM94.16,24.44v.21c.14,0,.21.07.21.21h.07v-.35l-.14.07c0-.09-.05-.14-.14-.14ZM94.23,9.32v.14h.07v-.14h-.07ZM94.3,16.64v.07h.21c.09,0,.14-.05.14-.14v-.14h-.07c-.19.07-.28.14-.28.21ZM94.37,30.49l-.07.28c.05.09.07.16.07.21h.14l.07-.28c-.09,0-.14-.07-.14-.21h-.07ZM94.34,15.69v.12h.16v-.12h-.16ZM94.34,23.49v.25h.16v-.25h-.16ZM94.37,25.71v.14h.07v-.14h-.07ZM94.41,21.36c.02.16.08.25.16.25h.16c0-.16-.05-.25-.16-.25h-.16ZM94.49,16.64v.35h.23c0-.08.02-.2.07-.35-.05,0-.07-.04-.07-.12-.11.08-.18.12-.23.12ZM94.51,25.85v.14h.14c0-.09-.05-.14-.14-.14ZM94.51,27.11v.07h.14v-.07h-.14ZM94.58,24.65v.14h.14v-.28c-.09.01-.14.06-.14.14ZM94.72,11.22l-.07.28h.07c.07,0,.14-.07.21-.21l-.14-.07h-.07ZM94.65,22.05v.84h.14c-.05-.25-.07-.53-.07-.84h-.07ZM94.72,19.11v.12h.23v-.12h-.23ZM94.79,13.4v.14c.09,0,.14-.05.14-.14h-.14ZM94.86,20.06l-.07.25c.01.15.06.23.16.23,0-.08.02-.2.07-.35l-.16-.12ZM94.79,23.61c0,.18.15.33.46.47v.12c.11,0,.16-.08.16-.25v-.11c-.08,0-.29-.08-.62-.25ZM94.86,10.03v.14h.07v-.14h-.07ZM94.86,17.46v.23h.16v-.23h-.16ZM94.86,19.47c.01.16.06.25.16.25.11,0,.16-.08.16-.25h-.32ZM94.86,24.58v.14h.07v-.14h-.07ZM95,12.7v.21h.07v-.21h-.07ZM95,25.78v.14c.01.09.06.14.14.14v-.14c0-.09-.05-.14-.14-.14ZM95,26.55v.14c.09,0,.14-.05.14-.14v-.14c-.09.01-.14.06-.14.14ZM95.02,23.02v.12l.3.12c-.05-.14-.07-.3-.07-.47h-.07c-.11.02-.16.1-.16.23ZM95.07,24.72v.07c.01.09.06.14.14.14v-.07c0-.09-.05-.14-.14-.14ZM95.07,25.43v.14h.07v-.14h-.07ZM95.25,21.36v.12h.16v-.12h-.16ZM95.32,18.17v.12h.16v-.12h-.16ZM95.32,20.77v.37h.09v-.37h-.09ZM95.32,23.49v.25h.09v-.25h-.09ZM95.36,9.04v.14c.09,0,.14-.05.14-.14h-.14ZM95.36,11.15v.14h.07v-.14h-.07ZM95.36,18.39v.07h.14v-.07h-.14ZM95.43,16.99v.14h.07v-.14h-.07ZM95.5,17.76v.07h.14v-.07h-.14ZM95.57,12.07v.07h.14v-.07h-.14ZM96.13,19.45v.07c.09,0,.14-.05.14-.14v-.07c-.09.01-.14.06-.14.14ZM96.69,18.32v.14h.07v-.14h-.07ZM96.97,11.22v.14h.07v-.14h-.07ZM97.39,10.38v.14c0,.07.07.14.21.21,0-.15.02-.27.07-.35h-.28ZM97.75,8.9v.07c.01.09.06.14.14.14v-.07c0-.09-.05-.14-.14-.14ZM98.31,10.38l.07.42.42-.07c-.09-.23-.26-.35-.49-.35ZM98.52,9.53h.14v-.14c-.09.01-.14.06-.14.14ZM98.94,10.17v.07h.14v-.07h-.14ZM99.36,8.83l.14.07h.07c.09,0,.14-.05.14-.14v-.07h-.21c-.09.01-.14.06-.14.14ZM99.43,10.03v.07h.07c.09,0,.14-.05.14-.14v-.07h-.07c-.09.01-.14.06-.14.14ZM99.5,9.53v.07c.01.09.06.14.14.14h.07v-.21h-.21ZM100.35,9.39s-.02.12-.07.21l.14.07c.09,0,.14-.05.14-.14s-.05-.14-.14-.14h-.07ZM100.28,10.17c.09.01.14.06.14.14.09-.05.16-.07.21-.07v-.28h-.14c-.07,0-.14.07-.21.21Z"/>
      <path class="cls-3" d="M112.72,27.24h.05c-.05.27-.11.47-.19.6-.08.32-.19.63-.32.95v.09c-.05.08-.09.15-.12.21-.08.19-.17.37-.26.54-.06.06-.12.1-.19.12-.04.14-.08.21-.12.21l-.04-.02.02.05c-.12.13-.24.25-.37.35l-.04.05v.09l.14-.09h.07v.16h-.14c-.35,0-.8.32-1.34.95-.71.25-1.23.37-1.55.37h-.84c-.43,0-.86-.1-1.27-.3l.14-.23-.14-.05c-.29.11-.64,0-1.04-.3v.7h-2.95v-3.41s-.02-.05-.02-.07v-.09l.02-.04v-.12c-.06-.02-.09-.06-.09-.12v-.16c0-.15.02-.23.07-.23l-.07-.35v-.6c0-.16.02-.39.07-.67l-.14-.42c.05-.32.1-.57.16-.76v-.16h.05c.05-.11.09-.16.14-.18h.56c.15,0,.27.02.35.07l.42-.07h.42c.12.08.21.12.28.12.25,0,.71-.02,1.41-.05.23.16.35.4.35.72v.3c0,.15-.02.23-.07.23l.07.35v.97c0,.11-.02.2-.07.28.05.08.07.18.07.3v.74c0,.16.14.4.42.72-.01.11-.06.16-.14.16l-.07-.3h-.07c-.16.2-.33.3-.49.3,0-.06-.02-.09-.07-.09v.09s.02.07.07.07l-.07.14c0,.11.05.16.14.16h.35v.21c0,.08-.07.15-.21.21h-.21c-.09,0-.14-.04-.14-.12h.14v-.16h-.21c0,.11-.02.16-.07.16.09.14.14.26.14.35h.14c.33,0,.49-.08.49-.23h.35v.07l-.07.16s.12.02.21.07v-.42h.14c0-.07-.12-.17-.35-.3,0,.2-.05.3-.14.3l-.07-.16v-.07c0-.09.05-.14.14-.14h.35c.09,0,.14.09.14.28h.14l-.07-.51.14-.07h.07s-.02.07-.07.07c.05.09.07.17.07.23h.19v-.26l-.05-.12h.05v-.32l.21-.02c.3-.01.52-.12.63-.32.05-.12.08-.25.11-.39v-.18s.02,0,.04-.02c.01-.07.02-.15.02-.23v-.39h.11c.02-.27.04-.62.05-1.05l-.02-.56s.02-.07.07-.07c-.06-.09-.09-.16-.09-.21s.02-.07.07-.07c-.05-1.24-.75-2.34-2.11-3.3,0-.08-.27-.35-.81-.81-.01-.3-.67-1.07-1.99-2.3-.89-1-1.42-1.89-1.6-2.67h.07c-.09-.16-.21-.59-.33-1.27h.07c-.11-.35-.17-.79-.19-1.32.02-.43.08-.65.18-.65l-.07-.14-.02-.28c0-.09.09-.14.28-.14l-.02-.28h-.21c.2-.66.4-1.22.6-1.69v-.02c.33-.73.65-1.21.97-1.46.05-.05.1-.09.16-.14l-.14.09h-.07v-.16h.14c.06,0,.12,0,.18-.02.29-.25.57-.44.84-.58.11-.11.21-.22.32-.35.71-.25,1.23-.37,1.55-.37h.84c.43,0,.86.1,1.27.3l-.14.23.14.05c.29-.11.64,0,1.04.3v-.7h2.95v3.41s.02.05.02.07v.09l-.02.04v.12c.06.02.09.06.09.12v.16c0,.15-.02.23-.07.23l.07.35v.6c0,.16-.02.39-.07.67l.14.42c-.05.32-.1.57-.16.76v.16h-.05c-.05.11-.09.16-.14.18h-.56c-.15,0-.27-.02-.35-.07l-.42.07h-.42c-.12-.08-.21-.12-.28-.12-.25,0-.71.02-1.41.05-.23-.16-.35-.4-.35-.72v-.3c0-.15.02-.23.07-.23l-.07-.35v-.97c0-.11.02-.2.07-.28-.05-.08-.07-.18-.07-.3v-.74c0-.16-.14-.4-.42-.72.01-.11.06-.16.14-.16l.07.3h.07c.16-.2.33-.3.49-.3,0,.06.02.09.07.09v-.09s-.02-.07-.07-.07l.07-.14c0-.11-.05-.16-.14-.16h-.35v-.21c0-.08.07-.15.21-.21h.21c.09,0,.14.04.14.12h-.14v.16h.21c0-.11.02-.16.07-.16-.09-.14-.14-.26-.14-.35h-.14c-.33,0-.49.08-.49.23h-.35v-.07l.07-.16s-.12-.02-.21-.07v.42h-.14c0,.07.12.17.35.3,0-.2.05-.3.14-.3l.07.16v.07c0,.09-.05.14-.14.14h-.35c-.09,0-.14-.09-.14-.28h-.14l.07.51-.14.07h-.07s.02-.07.07-.07c-.05-.09-.07-.17-.07-.23h-.04v.77s-.09-.04-.12-.05c-.36.02-.65.12-.86.3-.09.21-.15.49-.18.83v.39h-.3c-.02.55-.01,1.45.04,2.71.04.81.9,1.99,2.6,3.53,1.93,1.68,2.94,2.76,3.02,3.25.15,0,.29.3.4.91.18.43.35.75.53.95.09,1.22.19,1.83.28,1.83.04.67-.02,1.34-.16,2ZM102.12,13.65v-.07h-.14v.07h.14ZM102.46,27.15c0-.2.05-.3.14-.3-.05-.11-.07-.18-.07-.23h-.21v.14l.07.39h.07ZM102.81,28.19l-.21-.37s.07-.03.07-.09l-.28-.14-.07.14c.13.05.25.18.35.39-.09,0-.14.05-.14.14.05,0,.07.02.07.07.14-.05.21-.09.21-.14ZM102.95,25.43l.21.16.28-.23c-.05-.09-.07-.17-.07-.23h-.07c-.09,0-.14.05-.14.16.05,0,.07.02.07.07h-.07l-.35-.23c0,.08-.07.16-.21.23l-.14-.07-.07.14c.09,0,.14.12.14.37.28-.06.42-.18.42-.37ZM102.49,12.36v-.14h-.07v.14h.07ZM102.74,25.58h-.07v-.16h.07v.16ZM103.02,26.62c-.05-.09-.07-.17-.07-.23h-.07c-.11,0-.18.12-.21.37h.07c.12-.09.21-.14.28-.14ZM102.88,27.59v-.23h-.14v.23h.14ZM103.09,25.79v-.07h-.21v.07h.21ZM103.09,25.13v-.07h-.14v.07h.14ZM103.16,26.18c-.05-.11-.07-.18-.07-.23h-.14v.23h.21ZM103.16,10.04v-.21c-.09,0-.14.05-.14.14l.14.07ZM103.23,9.75v-.07h-.14v.07h.14ZM103.3,11.47v-.16h-.14v.16h.14ZM103.51,26.85s-.12-.03-.21-.09h-.14v.09c.14,0,.21.05.21.14.09-.01.14-.06.14-.14ZM103.37,28.4v-.07h-.21v.07h.21ZM103.85,26.23v-.21c-.15-.2-.23-.36-.23-.47-.25.01-.39.09-.42.23v.07c.22-.01.37.12.44.4l.21-.02ZM103.51,25.88v-.09h-.14v.09h.14ZM103.65,9.31v-.14h-.07v.14h.07ZM103.65,26.32v-.14h-.07v.14h.07ZM104,28.33v-.07c-.01-.09-.06-.14-.14-.14-.09.05-.16.07-.21.07v.14h.35ZM103.86,26.25v-.16c-.01-.09-.06-.14-.14-.14v.3h.14ZM103.93,10.71v-.14c-.09,0-.14.05-.14.14h.14ZM103.93,25.36v-.14h-.07v.14h.07ZM104.14,26.92v-.3c-.01-.09-.06-.14-.14-.14v.44h.14ZM104.28,30.63v-.37c-.09,0-.14-.05-.14-.14h-.14l.21.44s-.07.02-.07.07h.14ZM104.5,29.59c-.01-.09-.06-.14-.14-.14v.14h.14ZM104.64,29.15v-.23c-.01-.09-.06-.14-.14-.14h-.07l.07.37h.14ZM104.71,29.52v-.07h-.14v.07h.14ZM105.13,13.47v-.16c-.09,0-.14.05-.14.16h.14ZM105.13,30.86c0-.15.05-.23.14-.23v-.21h-.21s-.02.18-.07.44h.14ZM105.5,8.52v-.07c-.08,0-.18-.05-.3-.14-.06,0-.12.08-.19.23l.49-.02ZM105.62,28.48l.07-.16c-.09,0-.14-.07-.14-.21h-.14c0,.14-.09.21-.28.21v.07s.12.03.21.09c.09-.06.16-.09.21-.09,0,.06.02.09.07.09ZM105.34,29.75v-.09h-.21v.09h.21ZM105.41,12.65l-.14-.07h-.07v.23h.07c.09-.01.14-.06.14-.16ZM105.55,29.52v-.16h-.14v.16h.14ZM105.97,31.3l.07-.14v-.23h-.07c-.09.05-.16.07-.21.07.07.2.14.3.21.3ZM106.18,13.31v-1.11h-.07c0,.32-.07.54-.21.67.14.2.21.35.21.44h.07ZM106.18,11.91v-.07h-.07l-.07.3c.09,0,.14-.08.14-.23ZM106.11,31.45v-.16h-.07v.16h.07ZM106.25,11.61v-.74l.14-.23c-.07,0-.16-.05-.28-.14v1.11h.14ZM106.25,13.68v-.07c-.05-.09-.07-.16-.07-.21h-.07v.28h.14ZM106.68,31.3s.02-.12.07-.21c-.13-.15-.27-.23-.42-.23-.01-.11-.06-.16-.14-.16l-.07.16c.14.05.21.19.21.44h.35ZM106.45,25.99h-.14c-.01-.09.03-.14.12-.14l.02.14ZM106.61,10.34v-.07h-.14v.07h.14ZM107.2,20.4l.05-.14h-.07c-.08.05-.15.07-.21.07l-.07-.12v-.07l.35-.02c.13-.2.26-.3.4-.3,0-.13-.17-.22-.51-.26l.09.14v.07h-.07l-.14-.07v.14h.14c-.01.09-.05.14-.12.14-.02-.09-.08-.13-.16-.12,0,.07-.09.14-.26.21.06.23.25.35.58.33ZM106.89,30.63v-.07h-.14v.07h.14ZM106.89,31.3v-.07c-.09,0-.14.05-.14.16v.07c.09-.01.14-.06.14-.16ZM107.45,31.09c0-.11.09-.16.28-.16v-.07h-.14v-.23l.07-.14c-.09-.01-.14-.06-.14-.16.05,0,.07-.02.07-.07-.21-.2-.33-.3-.35-.3,0,.2-.05.38-.14.53.09,0,.14.05.14.14-.11.11-.25.16-.42.16.05.09.07.16.07.21h.14c0-.14.05-.21.14-.21h.07c0,.2.07.3.21.3ZM107.36,21.01l-.07-.12c.09-.02.13-.08.12-.16l-.14-.05h-.07c.01.11,0,.2-.05.28l.14.07.07-.02ZM107.38,31.52v-.07h-.14v.07h.14ZM107.59,20.61v-.09h-.07c-.09.06-.16.09-.21.09v.07h.07c.09-.05.16-.07.21-.07ZM107.61,20.38v-.07h-.21v.07h.21ZM107.77,22.21v-.07h-.14v.07h.14ZM108.22,31.09h-.21c-.07,0-.14.07-.21.21h.14c.19-.07.28-.14.28-.21ZM108.08,30.49c-.01-.11-.06-.16-.14-.16h-.07c0,.11.05.16.14.16h.07ZM108.57,23.05v-.14l-.14.07c-.09-.05-.16-.07-.21-.07-.09.05-.16.07-.21.07v.07h.56ZM108.47,12.26h-.07l-.09-.35-.02-.35.07-.14.14.05s.07-.02.07-.07c.09.05.16.07.21.07v.14c-.14,0-.21.05-.19.14v.07l.42-.02v.07c-.01.09-.06.15-.14.16l-.21-.14c-.05.23-.11.36-.19.37ZM108.43,19.85h-.14v.16c.09-.01.14-.06.14-.16ZM108.5,30.56v-.14h-.14c0,.09.05.14.14.14ZM108.7,11.19h-.14c0-.08-.05-.19-.14-.33l.12-.09h.07l.02.07-.07.14c.09,0,.14.05.14.14v.07ZM108.78,30.7l-.14-.07h-.07c-.09,0-.14.05-.14.16v.07h.21c.09-.01.14-.06.14-.16ZM108.71,29.82v-.07h-.14v.07h.14ZM108.71,31.09v-.09h-.14v.09h.14ZM109.08,13.42c-.05-.08-.08-.18-.09-.28-.07.06-.19.09-.35.09l.02.35h.14c.12-.11.21-.16.28-.16ZM108.82,13.72h-.14v.14c.09-.01.14-.06.14-.14ZM109.05,14.33v-.14l-.09-.12s.07-.04.07-.09l-.14-.05h-.07c-.09,0-.14.05-.14.14.09.05.17.07.23.07l-.07.14v.07l.21-.02ZM108.86,23.21v-.09h-.14v.09h.14ZM108.89,12.31h-.14v-.21c.09,0,.14.05.14.14v.07ZM109.07,19.34h-.28c0,.09.05.14.14.14.09-.01.14-.06.14-.14ZM109.07,30.26h-.21v.23c.07,0,.14-.08.21-.23ZM109.21,23.12v-.37c-.08,0-.15.12-.21.37h.21ZM109.28,22.45v-.07h-.14v.07h.14ZM109.42,28.99v-.07h-.07c-.09,0-.14.05-.14.14v.09h.07c.09-.01.14-.06.14-.16ZM109.42,29.22h-.07c-.09,0-.14.05-.14.14h.07c.09-.01.14-.06.14-.14ZM109.42,29.59c-.01-.09-.06-.14-.14-.14l-.07.14h.21ZM109.63,26.48v-.09h-.21c-.09,0-.14.05-.14.16h.14c.09-.05.16-.07.21-.07ZM109.49,26.99v-.07h-.21v.07h.21ZM109.49,27.82c0-.09.07-.22.21-.39h-.14v.16h-.14l-.14-.07v.14c0,.11.05.16.14.16h.07ZM109.56,30.26l-.21-.14h-.07v.3h.14c.09-.02.14-.08.14-.16ZM109.49,30.03v-.14h-.07v.14h.07ZM109.63,24.55v-.09h-.14v.09h.14ZM110.05,28.33v-.44c-.22.12-.41.34-.56.67h.07c.18-.15.34-.23.49-.23ZM109.63,28.85v-.16h-.14v.16h.14ZM109.98,26.32v-.23l-.14.09h-.14v-.16h-.14c.09.13.14.23.14.3h.28ZM109.7,27.06v-.07h-.14v.07h.14ZM109.91,13.84v-.07l-.14-.23.07-.14h-.07c-.09,0-.14.05-.14.14v.07c0,.08.07.16.21.23h.07ZM109.91,14.28c-.05-.08-.07-.21-.07-.37h-.14c0,.11-.02.16-.07.16.05.09.07.16.07.21h.21ZM110.4,12.51c0-.13-.09-.35-.28-.67v-.07h-.21c-.07,0-.14.07-.21.21v.16l.21-.16c.12,0,.21.2.28.6h.07l.14-.07ZM109.84,21.42c-.01-.09-.06-.14-.14-.14v.14h.14ZM109.91,23.12v-.21h-.21v.14s.12.02.21.07ZM109.84,27.96v-.14h-.14c0,.09.05.14.14.14ZM110.05,27.66v-.07h-.28v.07h.28ZM110.19,20.15v-.37l-.35.07v.09c.08,0,.2.07.35.21ZM109.98,22.02v-.07h-.14v.07h.14ZM109.98,22.31v-.07h-.14v.07h.14ZM110.05,18.82v-.14h-.14v.14h.14ZM110.05,21.86v-.07h-.14v.07h.14ZM110.26,26.62h-.14c-.09,0-.14.05-.14.14h.14c.09-.01.14-.06.14-.14ZM110.19,21.35v-.07h-.14v.07h.14ZM110.19,27.82v-.09h-.14v.09h.14ZM110.33,23.42v-.14h-.21v.14h.21ZM110.4,22.16c-.05-.09-.07-.16-.07-.21h-.14v.07c0,.09.05.14.14.14h.07ZM110.4,27.06v-.07h-.14v.07h.14ZM110.47,20.98v-.37h-.14l.07.37h.07ZM110.47,25.72v-.07h-.14v.07h.14ZM110.47,29.59c-.01-.09-.06-.14-.14-.14v.14h.14ZM111.39,26.02c0-.06-.12-.16-.35-.3h-.07v.16h-.14v-.16h-.28c0,.11-.05.16-.14.16v.07h.14s.02-.07.07-.07l.21.3s.07-.03.07-.09l.35.09c.09-.01.14-.06.14-.16ZM110.47,26.69l.07-.3v-.21h-.07l-.07.44v.07h.07ZM110.61,20.52v-.07h-.14v.07h.14ZM110.54,30.26v-.14h-.07v.14h.07ZM110.68,26.76v-.07h-.14v.07h.14ZM111.11,28.99l-.07-.14h.14v-.07h-.14s-.02.07-.07.07v-.16h-.07c0,.11-.12.23-.35.37h.07l.49-.07ZM110.68,29.29v-.07h-.14v.07h.14ZM110.75,26.55v-.07h-.14v.07h.14ZM110.96,27.52v-.16h-.14c-.07,0-.14.08-.21.23h.14c.09-.05.16-.07.21-.07ZM110.82,28.11v-.09h-.14v.09h.14ZM111.03,25.13s.02-.12.07-.21v-.07h-.07c0,.09-.05.14-.14.14,0,.09.05.14.14.14ZM111.11,28.19v-.16h-.07c-.09,0-.14.05-.14.16h.21ZM111.11,23.95l.07-.16v-.07c-.09.05-.16.07-.21.07,0,.11.05.16.14.16ZM111.09,15.81l-.09-.14.21-.16c.09,0,.14.05.14.14l-.26.16ZM111.46,25.13h-.07l-.35.09v.07h.28c.09-.01.14-.06.14-.16ZM111.39,28.62c0-.09.09-.24.28-.44v-.3s-.12-.02-.21-.07c-.09.05-.16.07-.21.07l.07.14.14-.07h.07v.07c0,.12-.16.24-.49.37.05.11.07.18.07.23h.28ZM111.25,26.76v-.07h-.14v.07h.14ZM111.67,28.99h-.14l.07-.14v-.07h-.28v.28h.07l.14-.07v.16c.09-.01.14-.06.14-.16ZM111.46,29.29v-.07h-.14v.07h.14ZM111.46,29.45v-.09h-.14v.09h.14ZM111.6,25.58v-.07h-.14v.07h.14ZM111.6,26.32v-.14c-.09,0-.14.05-.14.14h.14ZM111.88,24.09v-.07c-.11,0-.2-.02-.28-.07v.21h.07c.09-.05.16-.07.21-.07ZM112.16,23.42v-.07c-.07,0-.16-.05-.28-.14h-.14c0,.08.12.15.35.21h.07ZM111.95,26.39v-.07h-.21v.07h.21ZM111.95,24.99v-.07h-.14v.07h.14ZM112.12,15.48h-.07v-.14h.07v.14ZM112.23,24.32v-.16h-.07v.16h.07ZM113.6,8.94v-.21h.14v.07c-.01.09-.06.14-.14.14Z"/>
    </g>
    <g>
      <path class="cls-2" d="M3.63,2.79s.06-.04.09-.06c-.03.02-.06.04-.09.06Z"/>
      <path class="cls-2" d="M2.12,3.28c.51-.03,1-.18,1.42-.44-.43.25-.91.41-1.42.44l-.96.06c-.23.01-.44.1-.61.25.16-.15.38-.24.6-.25,0,0,.96-.06.96-.06Z"/>
      <path class="cls-2" d="M2.58,10.27c.03.07.09.12.16.13.02,0,.05,0,.07,0l1.38-.22c2.47-.33,4.4-1.47,5.73-3.37.21-.3.41-.63.59-.97l.7-1.21c.05-.09.03-.19-.04-.26L6.69.28c-.22-.23-.53-.32-.82-.27-.07.01-.14.04-.21.07.07-.03.14-.05.21-.07.29-.05.6.04.82.27l3.29,3-.56.97c-1.31,2.48-3.46,3.96-6.32,4.34l-1.11.18-.15-.38.5,1.29h0l.23.58h0Z"/>
      <path class="cls-1" d="M3.1,8.6c2.86-.38,5.01-1.86,6.32-4.34l.56-.97L6.69.28c-.22-.23-.53-.32-.82-.27-.07.01-.14.04-.21.07-.2.1-.36.27-.45.48l-.4.88c-.24.53-.62.98-1.09,1.3-.03.02-.06.04-.09.06-.03.02-.06.04-.09.05-.43.25-.91.41-1.42.44l-.96.06c-.23.01-.44.1-.6.25-.05.05-.1.11-.14.17-.15.25-.18.57-.04.86l1.47,3.77.15.38s1.11-.18,1.11-.18Z"/>
      <path class="cls-4" d="M13.34,6.71c.68-1.49.74-2.92.02-3.97-.82-1.19-1.54-.27-2.66,1.2l.46.42c.07.07.09.17.04.26l-.7,1.21c-.18.34-.38.67-.59.97-1.33,1.9-3.26,3.04-5.73,3.37l-1.38.22s-.05,0-.07,0c-.07-.01-.13-.06-.16-.13l-.23-.58h0c-1.78.51-2.89.86-2.08,2.05.95,1.38,3.03,1.74,5.36,1.13,1.25-.32,2.56-.92,3.82-1.79,1.83-1.26,3.19-2.84,3.88-4.37Z"/>
    </g>
  </g>
</svg>