<?xml version="1.0" encoding="UTF-8"?>
<svg id="Layer_2" data-name="Layer 2" xmlns="http://www.w3.org/2000/svg" viewBox="0 0 79.85 33.5">
  <defs>
    <style>
      .cls-1 {
        fill: #492807;
      }

      .cls-2 {
        fill: tan;
      }

      .cls-3 {
        fill: #441107;
      }
    </style>
  </defs>
  <g id="story">
    <g>
      <path class="cls-3" d="M16.16,27.33h.05c-.05.27-.11.47-.19.6-.08.32-.19.63-.32.95v.09c-.05.08-.09.15-.12.21-.08.19-.17.37-.26.54-.06.06-.12.1-.19.12-.04.14-.08.21-.12.21l-.04-.02.02.05c-.12.13-.24.25-.37.35l-.04.05v.09l.14-.09h.07v.16h-.14c-.35,0-.8.32-1.34.95-.71.25-1.23.37-1.55.37h-.84c-.43,0-.86-.1-1.27-.3l.14-.23-.14-.05c-.29.11-.64,0-1.04-.3v.7h-2.95v-3.41s-.02-.05-.02-.07v-.09l.02-.04v-.12c-.06-.02-.09-.06-.09-.12v-.16c0-.15.02-.23.07-.23l-.07-.35v-.6c0-.16.02-.39.07-.67l-.14-.42c.05-.32.1-.57.16-.76v-.16h.05c.05-.11.09-.16.14-.18h.56c.15,0,.27.02.35.07l.42-.07h.42c.12.08.21.12.28.12.25,0,.71-.02,1.41-.05.23.16.35.4.35.72v.3c0,.15-.02.23-.07.23l.07.35v.97c0,.11-.02.2-.07.28.05.08.07.18.07.3v.74c0,.16.14.4.42.72-.01.11-.06.16-.14.16l-.07-.3h-.07c-.16.2-.33.3-.49.3,0-.06-.02-.09-.07-.09v.09s.02.07.07.07l-.07.14c0,.11.05.16.14.16h.35v.21c0,.08-.07.15-.21.21h-.21c-.09,0-.14-.04-.14-.12h.14v-.16h-.21c0,.11-.02.16-.07.16.09.14.14.26.14.35h.14c.33,0,.49-.08.49-.23h.35v.07l-.07.16s.12.02.21.07v-.42h.14c0-.07-.12-.17-.35-.3,0,.2-.05.3-.14.3l-.07-.16v-.07c0-.09.05-.14.14-.14h.35c.09,0,.14.09.14.28h.14l-.07-.51.14-.07h.07s-.02.07-.07.07c.05.09.07.17.07.23h.19v-.26l-.05-.12h.05v-.32l.21-.02c.3-.01.52-.12.63-.32.05-.12.08-.25.11-.39v-.18s.02,0,.04-.02c.01-.07.02-.15.02-.23v-.39h.11c.02-.27.04-.62.05-1.05l-.02-.56s.02-.07.07-.07c-.06-.09-.09-.16-.09-.21s.02-.07.07-.07c-.05-1.24-.75-2.34-2.11-3.3,0-.08-.27-.35-.81-.81-.01-.3-.67-1.07-1.99-2.3-.89-1-1.42-1.89-1.6-2.67h.07c-.09-.16-.21-.59-.33-1.27h.07c-.11-.35-.17-.79-.19-1.32.02-.43.08-.65.18-.65l-.07-.14-.02-.28c0-.09.09-.14.28-.14l-.02-.28h-.21c.2-.66.4-1.22.6-1.69v-.02c.33-.73.65-1.21.97-1.46.05-.05.1-.09.16-.14l-.14.09h-.07v-.16h.14c.06,0,.12,0,.18-.02.29-.25.57-.44.84-.58.11-.11.21-.22.32-.35.71-.25,1.23-.37,1.55-.37h.84c.43,0,.86.1,1.27.3l-.14.23.14.05c.29-.11.64,0,1.04.3v-.7h2.95v3.41s.02.05.02.07v.09l-.02.04v.12c.06.02.09.06.09.12v.16c0,.15-.02.23-.07.23l.07.35v.6c0,.16-.02.39-.07.67l.14.42c-.05.32-.1.57-.16.76v.16h-.05c-.05.11-.09.16-.14.18h-.56c-.15,0-.27-.02-.35-.07l-.42.07h-.42c-.12-.08-.21-.12-.28-.12-.25,0-.71.02-1.41.05-.23-.16-.35-.4-.35-.72v-.3c0-.15.02-.23.07-.23l-.07-.35v-.97c0-.11.02-.2.07-.28-.05-.08-.07-.18-.07-.3v-.74c0-.16-.14-.4-.42-.72.01-.11.06-.16.14-.16l.07.3h.07c.16-.2.33-.3.49-.3,0,.06.02.09.07.09v-.09s-.02-.07-.07-.07l.07-.14c0-.11-.05-.16-.14-.16h-.35v-.21c0-.08.07-.15.21-.21h.21c.09,0,.14.04.14.12h-.14v.16h.21c0-.11.02-.16.07-.16-.09-.14-.14-.26-.14-.35h-.14c-.33,0-.49.08-.49.23h-.35v-.07l.07-.16s-.12-.02-.21-.07v.42h-.14c0,.07.12.17.35.3,0-.2.05-.3.14-.3l.07.16v.07c0,.09-.05.14-.14.14h-.35c-.09,0-.14-.09-.14-.28h-.14l.07.51-.14.07h-.07s.02-.07.07-.07c-.05-.09-.07-.17-.07-.23h-.04v.77s-.09-.04-.12-.05c-.36.02-.65.12-.86.3-.09.21-.15.49-.18.83v.39h-.3c-.02.55-.01,1.45.04,2.71.04.81.9,1.99,2.6,3.53,1.93,1.68,2.94,2.76,3.02,3.25.15,0,.29.3.4.91.18.43.35.75.53.95.09,1.22.19,1.83.28,1.83.04.67-.02,1.34-.16,2ZM5.56,13.75v-.07h-.14v.07h.14ZM5.89,27.25c0-.2.05-.3.14-.3-.05-.11-.07-.18-.07-.23h-.21v.14l.07.39h.07ZM6.25,28.28l-.21-.37s.07-.03.07-.09l-.28-.14-.07.14c.13.05.25.18.35.39-.09,0-.14.05-.14.14.05,0,.07.02.07.07.14-.05.21-.09.21-.14ZM6.39,25.52l.21.16.28-.23c-.05-.09-.07-.17-.07-.23h-.07c-.09,0-.14.05-.14.16.05,0,.07.02.07.07h-.07l-.35-.23c0,.08-.07.16-.21.23l-.14-.07-.07.14c.09,0,.14.12.14.37.28-.06.42-.18.42-.37ZM5.93,12.46v-.14h-.07v.14h.07ZM6.18,25.68h-.07v-.16h.07v.16ZM6.46,26.72c-.05-.09-.07-.17-.07-.23h-.07c-.11,0-.18.12-.21.37h.07c.12-.09.21-.14.28-.14ZM6.32,27.69v-.23h-.14v.23h.14ZM6.53,25.89v-.07h-.21v.07h.21ZM6.53,25.22v-.07h-.14v.07h.14ZM6.6,26.28c-.05-.11-.07-.18-.07-.23h-.14v.23h.21ZM6.6,10.14v-.21c-.09,0-.14.05-.14.14l.14.07ZM6.67,9.84v-.07h-.14v.07h.14ZM6.74,11.57v-.16h-.14v.16h.14ZM6.95,26.95s-.12-.03-.21-.09h-.14v.09c.14,0,.21.05.21.14.09-.01.14-.06.14-.14ZM6.81,28.49v-.07h-.21v.07h.21ZM7.28,26.33v-.21c-.15-.2-.23-.36-.23-.47-.25.01-.39.09-.42.23v.07c.22-.01.37.12.44.4l.21-.02ZM6.95,25.98v-.09h-.14v.09h.14ZM7.09,9.4v-.14h-.07v.14h.07ZM7.09,26.42v-.14h-.07v.14h.07ZM7.44,28.42v-.07c-.01-.09-.06-.14-.14-.14-.09.05-.16.07-.21.07v.14h.35ZM7.3,26.35v-.16c-.01-.09-.06-.14-.14-.14v.3h.14ZM7.37,10.81v-.14c-.09,0-.14.05-.14.14h.14ZM7.37,25.45v-.14h-.07v.14h.07ZM7.58,27.02v-.3c-.01-.09-.06-.14-.14-.14v.44h.14ZM7.72,30.73v-.37c-.09,0-.14-.05-.14-.14h-.14l.21.44s-.07.02-.07.07h.14ZM7.93,29.69c-.01-.09-.06-.14-.14-.14v.14h.14ZM8.07,29.25v-.23c-.01-.09-.06-.14-.14-.14h-.07l.07.37h.14ZM8.14,29.62v-.07h-.14v.07h.14ZM8.57,13.57v-.16c-.09,0-.14.05-.14.16h.14ZM8.57,30.95c0-.15.05-.23.14-.23v-.21h-.21s-.02.18-.07.44h.14ZM8.94,8.61v-.07c-.08,0-.18-.05-.3-.14-.06,0-.12.08-.19.23l.49-.02ZM9.06,28.58l.07-.16c-.09,0-.14-.07-.14-.21h-.14c0,.14-.09.21-.28.21v.07s.12.03.21.09c.09-.06.16-.09.21-.09,0,.06.02.09.07.09ZM8.78,29.85v-.09h-.21v.09h.21ZM8.85,12.74l-.14-.07h-.07v.23h.07c.09-.01.14-.06.14-.16ZM8.99,29.62v-.16h-.14v.16h.14ZM9.41,31.39l.07-.14v-.23h-.07c-.09.05-.16.07-.21.07.07.2.14.3.21.3ZM9.62,13.41v-1.11h-.07c0,.32-.07.54-.21.67.14.2.21.35.21.44h.07ZM9.62,12.01v-.07h-.07l-.07.3c.09,0,.14-.08.14-.23ZM9.55,31.55v-.16h-.07v.16h.07ZM9.69,11.71v-.74l.14-.23c-.07,0-.16-.05-.28-.14v1.11h.14ZM9.69,13.78v-.07c-.05-.09-.07-.16-.07-.21h-.07v.28h.14ZM10.11,31.39s.02-.12.07-.21c-.13-.15-.27-.23-.42-.23-.01-.11-.06-.16-.14-.16l-.07.16c.14.05.21.19.21.44h.35ZM9.88,26.09h-.14c-.01-.09.03-.14.12-.14l.02.14ZM10.04,10.44v-.07h-.14v.07h.14ZM10.64,20.5l.05-.14h-.07c-.08.05-.15.07-.21.07l-.07-.12v-.07l.35-.02c.13-.2.26-.3.4-.3,0-.13-.17-.22-.51-.26l.09.14v.07h-.07l-.14-.07v.14h.14c-.01.09-.05.14-.12.14-.02-.09-.08-.13-.16-.12,0,.07-.09.14-.26.21.06.23.25.35.58.33ZM10.32,30.73v-.07h-.14v.07h.14ZM10.32,31.39v-.07c-.09,0-.14.05-.14.16v.07c.09-.01.14-.06.14-.16ZM10.89,31.18c0-.11.09-.16.28-.16v-.07h-.14v-.23l.07-.14c-.09-.01-.14-.06-.14-.16.05,0,.07-.02.07-.07-.21-.2-.33-.3-.35-.3,0,.2-.05.38-.14.53.09,0,.14.05.14.14-.11.11-.25.16-.42.16.05.09.07.16.07.21h.14c0-.14.05-.21.14-.21h.07c0,.2.07.3.21.3ZM10.8,21.11l-.07-.12c.09-.02.13-.08.12-.16l-.14-.05h-.07c.01.11,0,.2-.05.28l.14.07.07-.02ZM10.82,31.62v-.07h-.14v.07h.14ZM11.03,20.71v-.09h-.07c-.09.06-.16.09-.21.09v.07h.07c.09-.05.16-.07.21-.07ZM11.05,20.48v-.07h-.21v.07h.21ZM11.2,22.31v-.07h-.14v.07h.14ZM11.66,31.18h-.21c-.07,0-.14.07-.21.21h.14c.19-.07.28-.14.28-.21ZM11.52,30.59c-.01-.11-.06-.16-.14-.16h-.07c0,.11.05.16.14.16h.07ZM12.01,23.15v-.14l-.14.07c-.09-.05-.16-.07-.21-.07-.09.05-.16.07-.21.07v.07h.56ZM11.91,12.36h-.07l-.09-.35-.02-.35.07-.14.14.05s.07-.02.07-.07c.09.05.16.07.21.07v.14c-.14,0-.21.05-.19.14v.07l.42-.02v.07c-.01.09-.06.15-.14.16l-.21-.14c-.05.23-.11.36-.19.37ZM11.87,19.95h-.14v.16c.09-.01.14-.06.14-.16ZM11.94,30.66v-.14h-.14c0,.09.05.14.14.14ZM12.13,11.28h-.14c0-.08-.05-.19-.14-.33l.12-.09h.07l.02.07-.07.14c.09,0,.14.05.14.14v.07ZM12.22,30.8l-.14-.07h-.07c-.09,0-.14.05-.14.16v.07h.21c.09-.01.14-.06.14-.16ZM12.15,29.92v-.07h-.14v.07h.14ZM12.15,31.18v-.09h-.14v.09h.14ZM12.52,13.52c-.05-.08-.08-.18-.09-.28-.07.06-.19.09-.35.09l.02.35h.14c.12-.11.21-.16.28-.16ZM12.26,13.82h-.14v.14c.09-.01.14-.06.14-.14ZM12.49,14.43v-.14l-.09-.12s.07-.04.07-.09l-.14-.05h-.07c-.09,0-.14.05-.14.14.09.05.17.07.23.07l-.07.14v.07l.21-.02ZM12.29,23.31v-.09h-.14v.09h.14ZM12.33,12.41h-.14v-.21c.09,0,.14.05.14.14v.07ZM12.5,19.44h-.28c0,.09.05.14.14.14.09-.01.14-.06.14-.14ZM12.5,30.36h-.21v.23c.07,0,.14-.08.21-.23ZM12.64,23.22v-.37c-.08,0-.15.12-.21.37h.21ZM12.72,22.55v-.07h-.14v.07h.14ZM12.86,29.09v-.07h-.07c-.09,0-.14.05-.14.14v.09h.07c.09-.01.14-.06.14-.16ZM12.86,29.32h-.07c-.09,0-.14.05-.14.14h.07c.09-.01.14-.06.14-.14ZM12.86,29.69c-.01-.09-.06-.14-.14-.14l-.07.14h.21ZM13.07,26.58v-.09h-.21c-.09,0-.14.05-.14.16h.14c.09-.05.16-.07.21-.07ZM12.93,27.09v-.07h-.21v.07h.21ZM12.93,27.91c0-.09.07-.22.21-.39h-.14v.16h-.14l-.14-.07v.14c0,.11.05.16.14.16h.07ZM13,30.36l-.21-.14h-.07v.3h.14c.09-.02.14-.08.14-.16ZM12.93,30.13v-.14h-.07v.14h.07ZM13.07,24.64v-.09h-.14v.09h.14ZM13.49,28.42v-.44c-.22.12-.41.34-.56.67h.07c.18-.15.34-.23.49-.23ZM13.07,28.95v-.16h-.14v.16h.14ZM13.42,26.42v-.23l-.14.09h-.14v-.16h-.14c.09.13.14.23.14.3h.28ZM13.14,27.16v-.07h-.14v.07h.14ZM13.35,13.94v-.07l-.14-.23.07-.14h-.07c-.09,0-.14.05-.14.14v.07c0,.08.07.16.21.23h.07ZM13.35,14.38c-.05-.08-.07-.21-.07-.37h-.14c0,.11-.02.16-.07.16.05.09.07.16.07.21h.21ZM13.84,12.6c0-.13-.09-.35-.28-.67v-.07h-.21c-.07,0-.14.07-.21.21v.16l.21-.16c.12,0,.21.2.28.6h.07l.14-.07ZM13.28,21.52c-.01-.09-.06-.14-.14-.14v.14h.14ZM13.35,23.22v-.21h-.21v.14s.12.02.21.07ZM13.28,28.05v-.14h-.14c0,.09.05.14.14.14ZM13.49,27.76v-.07h-.28v.07h.28ZM13.63,20.25v-.37l-.35.07v.09c.08,0,.2.07.35.21ZM13.42,22.11v-.07h-.14v.07h.14ZM13.42,22.41v-.07h-.14v.07h.14ZM13.49,18.91v-.14h-.14v.14h.14ZM13.49,21.95v-.07h-.14v.07h.14ZM13.7,26.72h-.14c-.09,0-.14.05-.14.14h.14c.09-.01.14-.06.14-.14ZM13.63,21.44v-.07h-.14v.07h.14ZM13.63,27.91v-.09h-.14v.09h.14ZM13.77,23.52v-.14h-.21v.14h.21ZM13.84,22.25c-.05-.09-.07-.16-.07-.21h-.14v.07c0,.09.05.14.14.14h.07ZM13.84,27.16v-.07h-.14v.07h.14ZM13.91,21.08v-.37h-.14l.07.37h.07ZM13.91,25.82v-.07h-.14v.07h.14ZM13.91,29.69c-.01-.09-.06-.14-.14-.14v.14h.14ZM14.82,26.12c0-.06-.12-.16-.35-.3h-.07v.16h-.14v-.16h-.28c0,.11-.05.16-.14.16v.07h.14s.02-.07.07-.07l.21.3s.07-.03.07-.09l.35.09c.09-.01.14-.06.14-.16ZM13.91,26.79l.07-.3v-.21h-.07l-.07.44v.07h.07ZM14.05,20.62v-.07h-.14v.07h.14ZM13.98,30.36v-.14h-.07v.14h.07ZM14.12,26.86v-.07h-.14v.07h.14ZM14.54,29.09l-.07-.14h.14v-.07h-.14s-.02.07-.07.07v-.16h-.07c0,.11-.12.23-.35.37h.07l.49-.07ZM14.12,29.39v-.07h-.14v.07h.14ZM14.19,26.65v-.07h-.14v.07h.14ZM14.4,27.61v-.16h-.14c-.07,0-.14.08-.21.23h.14c.09-.05.16-.07.21-.07ZM14.26,28.21v-.09h-.14v.09h.14ZM14.47,25.22s.02-.12.07-.21v-.07h-.07c0,.09-.05.14-.14.14,0,.09.05.14.14.14ZM14.54,28.28v-.16h-.07c-.09,0-.14.05-.14.16h.21ZM14.54,24.05l.07-.16v-.07c-.09.05-.16.07-.21.07,0,.11.05.16.14.16ZM14.53,15.91l-.09-.14.21-.16c.09,0,.14.05.14.14l-.26.16ZM14.89,25.22h-.07l-.35.09v.07h.28c.09-.01.14-.06.14-.16ZM14.82,28.72c0-.09.09-.24.28-.44v-.3s-.12-.02-.21-.07c-.09.05-.16.07-.21.07l.07.14.14-.07h.07v.07c0,.12-.16.24-.49.37.05.11.07.18.07.23h.28ZM14.68,26.86v-.07h-.14v.07h.14ZM15.11,29.09h-.14l.07-.14v-.07h-.28v.28h.07l.14-.07v.16c.09-.01.14-.06.14-.16ZM14.89,29.39v-.07h-.14v.07h.14ZM14.89,29.55v-.09h-.14v.09h.14ZM15.04,25.68v-.07h-.14v.07h.14ZM15.04,26.42v-.14c-.09,0-.14.05-.14.14h.14ZM15.32,24.19v-.07c-.11,0-.2-.02-.28-.07v.21h.07c.09-.05.16-.07.21-.07ZM15.6,23.52v-.07c-.07,0-.16-.05-.28-.14h-.14c0,.08.12.15.35.21h.07ZM15.39,26.49v-.07h-.21v.07h.21ZM15.39,25.08v-.07h-.14v.07h.14ZM15.56,15.57h-.07v-.14h.07v.14ZM15.67,24.42v-.16h-.07v.16h.07ZM17.04,9.03v-.21h.14v.07c-.01.09-.06.14-.14.14Z"/>
      <path class="cls-3" d="M27.43,10.67c.02.5.06.8.11.9l-.07.12c-.01.26,0,.63.02,1.11,0,.05-.03.19-.09.44.16.71.21,1.94.14,3.67l.05.35s-.07.02-.07.07c-.01.09.03.15.12.16,0,.05-.02.07-.07.07l.07.14-.02.42c-.01.28,0,.63.02,1.04-.05.11-.07.18-.07.23l.12.42-.09.16c.01.86.02,1.37.02,1.55,0,.05-.05.07-.14.07l-.02.12c.14,0,.21.08.21.23l-.16.28.14.3-.09.16s.07.02.07.07v.09h-.21v.07c.22.26.32.81.28,1.67-.01.14-.06.29-.16.46,0,.07.04.11.12.12-.04.96-.02,1.82.05,2.57-.06.2-.09.37-.11.51l.07.3s-.07.02-.07.05c.08.18.12.33.11.47v.05c0,.09-.09.14-.28.14v.04h1.51v2.5h-7.51v-2.5h1.56v-.11l-.07-.12s.08-.03.09-.09l-.05-.44.07-.16c-.11,0-.14-1.46-.11-4.38l.09-.16h-.07c.02-.63,0-1.29-.07-1.97.05,0,.07-.02.07-.07-.04-.09-.05-.19-.05-.28.04-.89.02-1.82-.04-2.79l.09-.3c-.05-.08-.09-.64-.14-1.67l.07-.12c-.07-.55-.11-1.19-.12-1.92l.07-.14c0-1.2-.02-1.96-.05-2.29.05,0,.07-.03.07-.09l-.11-.7s.07-.03.07-.09c-.07,0-.11-.17-.12-.51l.02-.04c-.09-.02-.22-.06-.39-.12,0,.05-.03.12-.09.21l-.49-.07c-.11,0-.2.02-.28.07-.08-.05-.18-.07-.28-.07h-.05v2.58h-2.6v-6.01h2.6v.02h.32v-.02h7.51v.02h.32v-.02h2.6v6.01h-2.6v-2.58h-.05c-.11,0-.2.02-.28.07-.08-.05-.18-.07-.28-.07l-.49.07c-.06-.09-.09-.16-.09-.21-.28.09-.46.14-.54.14l-.09-.14s.07-.02.07-.07h-.09ZM21.59,9.77l-.07.14v.07c.09-.05.16-.07.21-.07,0-.09-.05-.14-.14-.14ZM21.59,8.37h.07c.09.01.14.06.14.14v.07h-.07c-.09,0-.14-.05-.14-.14v-.07ZM21.87,9.77v.07l.35.07v-.07c0-.07-.07-.14-.21-.21-.09.01-.14.06-.14.14ZM22.54,16.26v-.25h-.07v.25h.07ZM23.63,16.17h.21v.07c0,.09-.05.14-.14.14l-.07-.14v-.07ZM23.65,19.21v.25h.23v-.25h-.23ZM23.65,22.89v.47h.07c.13-.32.23-.47.32-.47v-.12h-.09c-.08.08-.18.12-.3.12ZM23.72,21.94c.3.55.49.83.54.83l.07-.23c-.14-.4-.35-.6-.62-.6ZM23.81,19.56v.12h.14v-.12h-.14ZM23.84,8.86c.01.09.06.14.14.14l.07-.14h-.21ZM23.88,18.51v.23h.16v-.23h-.16ZM23.95,18.03v.12h.16v-.37c-.11.02-.16.11-.16.25ZM24.07,16.61v-.47h-.09v.47h.09ZM24.04,23.01v.11c.01.16.06.25.14.25h.09v-.12c0-.15-.05-.23-.16-.23h-.07ZM24.05,8.51c.01.09.06.14.14.14v-.14h-.14ZM24.11,19.93v.11h.16v-.11h-.16ZM24.26,18.74v.12h.14v-.12h-.14ZM24.33,21.59c0,.08-.02.12-.07.12.05.13.07.29.07.47.09-.08.19-.12.3-.12,0-.12-.1-.28-.3-.47ZM24.33,16.73c.01.15.06.23.16.23h.07c.11,0,.16-.08.16-.23h-.39ZM24.4,20.76v.23h.09v-.23h-.09ZM24.49,20.51v.12h.14v-.12h-.14ZM24.56,16.26v.12h.16v-.12h-.16ZM24.56,18.86v.12h.16v-.12h-.16ZM24.72,19.93v.23h.07v-.23h-.07ZM24.72,23.01v.11h.14v-.11h-.14ZM24.95,16.96h.14v-.23c-.09.01-.14.09-.14.23ZM24.95,17.91h.14v-.23c-.09.01-.14.09-.14.23ZM24.95,18.86v.12h.14v-.12h-.14ZM25.11,27.77l.14.07v-.21c-.09.01-.14.06-.14.14ZM25.18,16.73v.11h.14v-.11h-.14ZM25.18,18.03v.12c.01.15.06.23.14.23v-.12c0-.15-.05-.23-.14-.23ZM25.25,15.91c.01.15.06.23.16.23h.07v-.47h-.07c-.11.02-.16.11-.16.25ZM25.25,30.02v.21h.21v-.14s-.12-.02-.21-.07ZM25.32,21.34v.25h.09v-.25h-.09ZM25.32,28.83v.14h.07v-.14h-.07ZM25.39,9.28v.07h.14v-.07h-.14ZM25.39,18v.14h.14c0-.09-.05-.14-.14-.14ZM25.39,30.66v.14h.07v-.14h-.07ZM25.41,22.89c.05.15.07.27.07.35h.14v-.23l.46.23c0-.18.03-.33.09-.47l-.16-.11h-.16v.23h-.14v-.12l.07-.23h-.16c-.07,0-.14.12-.21.35ZM25.53,25.73l-.07.28c.09,0,.14-.07.14-.21v-.07h-.07ZM25.48,17.91v.25h.53c-.05-.16-.07-.29-.07-.37l-.46.12ZM25.53,8.65v.07h.14v-.07h-.14ZM25.55,21.59v.23c.11,0,.16-.08.16-.23h-.16ZM25.6,24.54v.21c.14,0,.21.07.21.21h.07v-.35l-.14.07c0-.09-.05-.14-.14-.14ZM25.67,9.42v.14h.07v-.14h-.07ZM25.74,16.73v.07h.21c.09,0,.14-.05.14-.14v-.14h-.07c-.19.07-.28.14-.28.21ZM25.81,30.59l-.07.28c.05.09.07.16.07.21h.14l.07-.28c-.09,0-.14-.07-.14-.21h-.07ZM25.78,15.78v.12h.16v-.12h-.16ZM25.78,23.59v.25h.16v-.25h-.16ZM25.81,25.8v.14h.07v-.14h-.07ZM25.85,21.46c.02.16.08.25.16.25h.16c0-.16-.05-.25-.16-.25h-.16ZM25.93,16.73v.35h.23c0-.08.02-.2.07-.35-.05,0-.07-.04-.07-.12-.11.08-.18.12-.23.12ZM25.95,25.94v.14h.14c0-.09-.05-.14-.14-.14ZM25.95,27.21v.07h.14v-.07h-.14ZM26.02,24.75v.14h.14v-.28c-.09.01-.14.06-.14.14ZM26.16,11.32l-.07.28h.07c.07,0,.14-.07.21-.21l-.14-.07h-.07ZM26.09,22.15v.84h.14c-.05-.25-.07-.53-.07-.84h-.07ZM26.16,19.21v.12h.23v-.12h-.23ZM26.23,13.5v.14c.09,0,.14-.05.14-.14h-.14ZM26.3,20.16l-.07.25c.01.15.06.23.16.23,0-.08.02-.2.07-.35l-.16-.12ZM26.23,23.71c0,.18.15.33.46.47v.12c.11,0,.16-.08.16-.25v-.11c-.08,0-.29-.08-.62-.25ZM26.3,10.12v.14h.07v-.14h-.07ZM26.3,17.56v.23h.16v-.23h-.16ZM26.3,19.56c.01.16.06.25.16.25.11,0,.16-.08.16-.25h-.32ZM26.3,24.68v.14h.07v-.14h-.07ZM26.44,12.8v.21h.07v-.21h-.07ZM26.44,25.87v.14c.01.09.06.14.14.14v-.14c0-.09-.05-.14-.14-.14ZM26.44,26.65v.14c.09,0,.14-.05.14-.14v-.14c-.09.01-.14.06-.14.14ZM26.46,23.11v.12l.3.12c-.05-.14-.07-.3-.07-.47h-.07c-.11.02-.16.1-.16.23ZM26.51,24.82v.07c.01.09.06.14.14.14v-.07c0-.09-.05-.14-.14-.14ZM26.51,25.52v.14h.07v-.14h-.07ZM26.69,21.46v.12h.16v-.12h-.16ZM26.76,18.26v.12h.16v-.12h-.16ZM26.76,20.86v.37h.09v-.37h-.09ZM26.76,23.59v.25h.09v-.25h-.09ZM26.8,9.14v.14c.09,0,.14-.05.14-.14h-.14ZM26.8,11.25v.14h.07v-.14h-.07ZM26.8,18.49v.07h.14v-.07h-.14ZM26.87,17.09v.14h.07v-.14h-.07ZM26.94,17.86v.07h.14v-.07h-.14ZM27.01,12.16v.07h.14v-.07h-.14ZM27.57,19.55v.07c.09,0,.14-.05.14-.14v-.07c-.09.01-.14.06-.14.14ZM28.13,18.42v.14h.07v-.14h-.07ZM28.41,11.32v.14h.07v-.14h-.07ZM28.83,10.48v.14c0,.07.07.14.21.21,0-.15.02-.27.07-.35h-.28ZM29.19,9v.07c.01.09.06.14.14.14v-.07c0-.09-.05-.14-.14-.14ZM29.75,10.48l.07.42.42-.07c-.09-.23-.26-.35-.49-.35ZM29.96,9.63h.14v-.14c-.09.01-.14.06-.14.14ZM30.38,10.27v.07h.14v-.07h-.14ZM30.8,8.93l.14.07h.07c.09,0,.14-.05.14-.14v-.07h-.21c-.09.01-.14.06-.14.14ZM30.87,10.12v.07h.07c.09,0,.14-.05.14-.14v-.07h-.07c-.09.01-.14.06-.14.14ZM30.94,9.63v.07c.01.09.06.14.14.14h.07v-.21h-.21ZM31.79,9.49s-.02.12-.07.21l.14.07c.09,0,.14-.05.14-.14s-.05-.14-.14-.14h-.07ZM31.72,10.27c.09.01.14.06.14.14.09-.05.16-.07.21-.07v-.28h-.14c-.07,0-.14.07-.21.21Z"/>
      <path class="cls-3" d="M44.69,20.99s.02.07.07.07l-.07.14v4.2l.14.21v.16l-.14.21v.54c0,1.78-.47,3.09-1.41,3.94-.86,1-2.29,1.49-4.31,1.49-1.39,0-2.68-.45-3.85-1.34l-.81-1.12c-.32-.66-.54-1.48-.67-2.46-.05,0-.07-.02-.07-.07,0-.06.02-.13.07-.23l-.07-.39.07-.37c-.09-.01-.14-.06-.14-.14.09-.46.14-.79.14-.98v-.14c0-.18-.02-.4-.07-.67l.14-.46c-.05-.08-.07-.18-.07-.28l.07-.53c-.09-.02-.14-.08-.14-.16v-.14c0-.11.05-.16.14-.16l-.07-.37v-.07l.07-.46c-.05-.08-.07-.16-.07-.23.07-.19.15-.28.23-.28.09.05.16.07.21.07v-.07l-.07-.16-.14.07c-.12,0-.19-.17-.23-.51l.02-.05h-.04l-.05-.35s.04-.1.05-.16c-.01-.06-.03-.12-.05-.19.02-.04.04-.08.05-.12-.01-.05-.03-.09-.05-.12.02-.07.04-.13.05-.19-.01-.06-.03-.11-.05-.16l.05-.35h.04l-.02-.05c.04-.34.11-.51.23-.51l.14.07.07-.16v-.07s-.12.02-.21.07c-.08,0-.16-.09-.23-.28,0-.07.02-.15.07-.23l-.07-.46v-.07l.07-.37c-.09,0-.14-.05-.14-.16v-.14c0-.08.05-.13.14-.16l-.07-.53c0-.11.02-.2.07-.28l-.14-.46c.05-.27.07-.49.07-.67v-.14c0-.2-.05-.53-.14-.98,0-.08.05-.13.14-.14l-.07-.37.07-.39c-.05-.09-.07-.17-.07-.23,0-.05.02-.07.07-.07.13-.98.35-1.8.67-2.46l.81-1.12c1.17-.89,2.46-1.34,3.85-1.34,2.02,0,3.45.5,4.31,1.49.94.84,1.41,2.16,1.41,3.94v.54l.14.21v.16l-.14.21v4.2l.07.14s-.07.02-.07.07v3.09ZM35.25,11.78c-.15.11-.23.18-.23.21h.23v.14h-.23v.3c.11.12.16.21.16.28.19.07.31.21.37.42-.04.14-.23.21-.6.21,0,.06.02.09.07.09l-.14.28v.07l.14-.07h.07v.28h-.14v.07h.07c.35-.06.53-.13.53-.21.08,0,.13.05.14.14l-.07.14h.3v-.14h-.16v-.07l.09-.14.14.07c.08,0,.13-.05.14-.14.06,0,.13.02.23.07.2,0,.32-.09.37-.28-.09,0-.22-.22-.37-.65-.25.19-.42.28-.51.28v.07h.07l.37-.07.07.14c0,.11-.05.16-.14.16h-.23c-.2-.12-.3-.22-.3-.3v-.07h.16c0-.18-.03-.29-.09-.35,0-.14.08-.21.23-.21v-.07s-.12-.02-.23-.07l.09-.51h-.23l-.37-.07ZM35.69,10h-.23c-.11.09-.25.14-.44.14.05.09.07.16.07.21.11,0,.36-.07.76-.21,0-.08-.05-.13-.16-.14ZM35.46,10.56h-.14l-.14-.07s-.05.07-.16.07v.07l.07.51h.23c0-.09.18-.26.53-.51v-.14l-.39.07ZM35.02,11.36v.21l.16-.07c0-.08-.05-.13-.16-.14ZM35.02,14.48v.07c0,.11.05.16.16.16l-.16.21v.28h.3c.25,0,.39.07.44.21l.16-.07h.07s.02.12.07.21c.09-.05.17-.07.23-.07v-.07c-.06,0-.13-.02-.23-.07,0-.09.12-.14.37-.14l-.07-.14.07-.14-.51.07-.16-.07.09-.14c0-.08-.05-.13-.16-.14l.07-.16v-.14l-.07-.14c-.45.07-.67.16-.67.28ZM35.02,21.06h.16v-.14c-.11,0-.16.05-.16.14ZM35.09,12.92v.14h.16c0-.08-.05-.13-.16-.14ZM35.14,30.41h.07l.14.07s.03-.07.09-.07l.07.14-.23.14h-.07l-.07-.28ZM35.25,15.27h-.07v.14c0,.06.17.18.51.35v-.21c-.18,0-.32-.09-.44-.28ZM35.69,16.49v.07c-.15.12-.23.21-.23.28h-.07c-.09,0-.14-.05-.14-.14l.07-.14c-.09,0-.14-.05-.14-.14,0-.08.05-.13.14-.14h.14c.15.07.23.14.23.21ZM35.39,14.55h-.14v-.14h.14v.14ZM35.55,15.06h-.23v-.14h.23v.14ZM35.62,17.42v.14c-.13-.14-.23-.21-.3-.21v-.14c.2.07.3.14.3.21ZM35.55,18.91l-.09.14-.14-.07c0-.08.05-.13.14-.14h.09v.07ZM35.88,30.76c0,.14.08.21.23.21v.14c-.16,0-.26.09-.3.28-.2-.07-.3-.14-.3-.21.15,0,.23-.09.23-.28.01-.09.06-.14.14-.14ZM35.62,11.21v.14c.08.18.28.34.6.49h.14c0-.14.05-.21.14-.21l.39.07v-.14c-.22,0-.38-.02-.46-.07-.08.05-.18.07-.3.07h-.07c-.11,0-.18-.12-.21-.35h-.23ZM35.92,20.85c-.11,0-.16-.05-.16-.14h.16v.14ZM35.85,19.85v.21l.37.07h.14v-.21s-.12.02-.23.07c-.07,0-.16-.05-.28-.14ZM35.88,30.06v.07h.23v-.07h-.23ZM36.22,10.56h-.23v.14l.14.21v.16l-.07.14s.07.05.07.14h.23l.23-.14c-.16-.42-.29-.64-.37-.65ZM35.99,14.48v.07h.14v-.07h-.14ZM36.13,18.56h-.14v-.14h.14v.14ZM36.11,29.36c0,.11-.03.2-.09.28h.23c-.05-.08-.07-.18-.07-.28h-.07ZM36.25,29.99c0,.07-.05.16-.14.28h.14c.09-.05.17-.07.23-.07,0-.07-.08-.14-.23-.21ZM36.36,17.84c-.09,0-.14.05-.14.14.05,0,.12-.02.21-.07l.16.07.3-.07v-.07h-.53ZM36.22,21.2v.07h.14v-.07h-.14ZM36.43,11.14h-.14v-.16h.14v.16ZM36.43,16.21c0,.09-.05.14-.14.14,0,.09.05.14.14.14,0-.07.08-.16.23-.28h-.23ZM36.36,9.49h.23l-.09-.14c-.09,0-.14.05-.14.14ZM36.5,15.7h-.07c0,.12-.02.22-.07.3l.3-.07v-.07c0-.08-.05-.13-.16-.16ZM36.36,17.21c.05.15.15.25.3.28v-.28h-.3ZM36.41,29.92v.07h.14v-.07h-.14ZM36.43,21.27v.14h.16c0-.08-.05-.13-.16-.14ZM36.66,14.85v.21c0,.09.05.14.14.14h.09v-.07c-.11-.12-.16-.21-.16-.28h-.07ZM37.43,18.12c0,.06.02.09.07.09,0,.05-.02.12-.07.21l.07.14c-.02.19-.09.28-.21.28l.07.14c0,.09-.22.16-.67.21,0,.11.05.16.14.16,0,.05-.02.07-.07.07l.07.14c.14,0,.29-.05.46-.14,0,.05.02.07.07.07,0,.09-.1.14-.3.14.05.09.07.16.07.21h.07c.09,0,.15-.05.16-.14.05,0,.07.02.07.07h.07l-.07-.14v-.07c.12-.25.24-.37.37-.37l-.14-.21c.12-.19.22-.28.3-.28l-.16-.21.07-.14s-.12.02-.21.07c-.05,0-.07-.1-.07-.3h-.16ZM36.69,31.25h.16v.14c-.11,0-.16-.05-.16-.14ZM36.88,10.07c-.11,0-.16.05-.16.14v.14h.3l-.07-.28h-.07ZM36.73,12.36v.21l.37-.07-.21-.3c-.11,0-.16.05-.16.16ZM36.73,16v.14h.07v-.14h-.07ZM36.78,30.69v.07h.21v-.21h-.07c-.09.01-.14.06-.14.14ZM36.92,31.53l.07.14c0,.09-.05.14-.14.14l-.07-.14c.01-.09.06-.14.14-.14ZM36.88,16.07l.07.35c.08,0,.13-.05.14-.14-.07-.14-.14-.21-.21-.21ZM37.15,30.06s-.02.12-.07.21h.14v-.21h-.07ZM37.08,30.55c.05.09.07.16.07.21h.07v-.21h-.14ZM37.15,30.83c0,.09.07.14.21.14h.09v-.07l-.3-.07ZM37.29,31.46h.16c0,.11.02.2.07.28h-.07c-.11,0-.16-.05-.16-.14v-.14ZM37.66,22.06h-.07c0,.08-.05.2-.16.35,0,.14.1.26.3.35l.07-.35h-.14c0-.09.1-.14.3-.14v-.07c-.08,0-.18-.05-.3-.14ZM37.59,29.5v.07h.23v-.07h-.23ZM37.59,31.75h.53s.02.12.07.21c-.4-.05-.6-.12-.6-.21ZM37.75,30.76c0,.15-.03.27-.09.35h.37v-.21c0-.09-.05-.14-.14-.14h-.14ZM39.19,9.61c-.55,0-.94.39-1.18,1.18l.07.14-.07.44c0,.06.05.33.14.81l-.07.14.07.67c0,.32-.02.81-.07,1.48l.07.37-.07.14.07.14-.07.44v.23c0,.18.02.4.07.67-.05.08-.07.18-.07.28l.07.16h-.07l.07.44-.14,2.57s.09.08.14.23c-.09.41-.17.85-.23,1.32.06,0,.11.12.16.37l-.07.14.07.37s-.07.02-.07.07h.07l-.07.53v.14c0,.21.05.4.14.58l-.07.37c.05.67.07,1.16.07,1.48,0,.21-.02.48-.07.81l.07.14c-.05.34-.07.61-.07.81v.44c.21.36.58.61,1.11.74v-.07c0-.08-.05-.13-.14-.14.12-.2.22-.3.3-.3l.14.07c-.09.16-.14.29-.14.37v.07l.37-.07v-.07l-.07-.14.28-.23.16.07v-.14l-.07-.16s.07-.02.07-.07h-.16c-.09,0-.14.08-.14.23-.09-.05-.17-.07-.23-.07v-.23c.4-.13.6-.38.6-.74h-.23v-.21c.15,0,.23-.05.23-.16v-.14c-.2-.15-.37-.23-.51-.23v-.07c.21,0,.38-.15.51-.44-.05,0-.09-.07-.14-.21.08,0,.13-.05.14-.16l-.07-.37h.07v-1.25c.05-.56.1-.88.16-.95-.06,0-.09-.02-.09-.07v-.16l.09-.37c-.06,0-.09-.02-.09-.07l.09-.14c-.06,0-.09-.02-.09-.07v-.37h-.14v-.07l.14-.23v-.58h-.21v-.16c.12,0,.19-.09.21-.28-.05,0-.07-.03-.07-.09v-.81l.07-.51c-.14-.39-.24-.58-.3-.58,0-.09.05-.15.16-.16,0-.14-.05-.33-.16-.58.06,0,.09-.02.09-.07v-.09l-.09-.14c.06,0,.09-.02.09-.07v-.3c0-.08-.05-.13-.16-.14l.16-.23v-.21c0-.21-.03-.41-.09-.6.06-.2.09-.39.09-.58v-.37l.07-.16s-.07-.02-.07-.07v-.65l-.09-.37c.07,0,.12-.39.16-1.18,0-.05-.02-.12-.07-.23.02-.09.07-.56.14-1.39-.19-.59-.51-.88-.97-.88ZM37.96,30.55v.14h.07v-.14h-.07ZM37.96,33.36h.07v.14h-.07v-.14ZM38.19,26.19v.14h.07c.11,0,.16-.05.16-.14h-.23ZM38.19,30.76v.07h.3v-.07h-.3ZM38.33,25.7h.09c.09.01.14.06.14.14v.07c-.07,0-.15-.07-.23-.21ZM38.7,17.33v.07l-.07.14c.2,0,.3.05.3.14-.05,0-.07.02-.07.07-.07-.05-.22-.07-.44-.07v-.28c.11,0,.2-.02.28-.07ZM38.41,30.34v.07h.21v-.07h-.21ZM38.63,31.82h.07v.21h-.21v-.07c.01-.09.06-.14.14-.14ZM38.55,17.12h.07v.14h-.07v-.14ZM38.55,26.89h.23v.14h-.23v-.14ZM39.36,30.55c0,.08-.15.15-.44.21,0-.09-.05-.14-.14-.14h-.09c0,.07-.05.16-.14.28v.07l.14-.07c.16.09.29.14.39.14.01-.09.06-.14.14-.14h.07v.21h.07c0-.19.13-.28.39-.28v-.21l-.16.07-.23-.14ZM38.78,27.46v.14h-.16c.02-.09.08-.14.16-.14ZM38.63,31.11v.07h.23v-.07h-.23ZM39.08,26.05h.07l.3.21c-.06.08-.09.18-.09.28l-.37-.07-.3.07v-.14c.22,0,.38-.09.46-.28-.05,0-.07-.02-.07-.07ZM38.7,30.27v.07h.16v-.07h-.16ZM38.78,17.89h.07c.09.01.14.06.14.14h-.21v-.14ZM38.85,17.26h.14v.14h-.14v-.14ZM39.22,24.78h.07c.11.01.16.06.16.14v.14c-.12,0-.29.09-.53.28h-.07v-.07c.25-.16.37-.33.37-.49ZM38.92,16.77h.16v.07h-.16v-.07ZM39.08,18.74v.14h-.16c.01-.09.06-.14.16-.14ZM39.22,26.54v.14c0,.09-.05.14-.14.14-.11,0-.16-.05-.16-.14v-.07s.12-.02.3-.07ZM38.92,27.6h.23c.09.01.14.06.14.14-.05,0-.07.02-.07.07h.14v.14h-.28c-.11,0-.16-.05-.16-.14v-.21ZM39.15,15.93v.14h-.16c.02-.09.08-.14.16-.14ZM39.08,19.51h.14v.07h-.14v-.07ZM39.08,24.43h.14c.09.01.14.06.14.14l-.14.07c-.09,0-.14-.05-.14-.14v-.07ZM39.08,25.77h.21v.14h-.21v-.14ZM39.08,26.89h.14v.14h-.14v-.14ZM39.15,26.26v.07h.14v-.07h-.14ZM39.22,18.67h.14c0,.09-.05.14-.14.14v-.14ZM39.36,19.86l.09.14v.07h-.09c-.09,0-.14-.05-.14-.14l.14-.07ZM39.22,21.2c.09.01.14.06.14.14h-.14v-.14ZM39.22,23.94h.14v.07h-.14v-.07ZM39.22,29.28v.07h.14v-.07h-.14ZM39.45,29.99c0,.09-.08.14-.23.14.01.09.06.14.14.14.3-.05.46-.12.46-.21v-.07l-.16.07c-.09-.05-.16-.07-.21-.07ZM39.29,19.23c.11.01.16.06.16.14v.28h-.16v-.42ZM39.29,20.92h.16v.14h-.16v-.14ZM39.29,27.46h.07v.21h-.07v-.21ZM39.29,32.03h.16v.14h-.16v-.14ZM39.45,15.71h.21v.07c0,.09-.05.14-.14.14l-.07-.14v-.07ZM39.45,16.07h.07v.14h-.07v-.14ZM39.45,21.41h.14v.14h-.14v-.14ZM39.59,20.85h.23c0,.09-.05.14-.16.14h-.07v-.14ZM39.59,22.89h.07c.11.01.16.06.16.14l-.16.07-.07-.14v-.07ZM39.96,31.75v.28c-.08.05-.18.07-.3.07h-.07s.12-.16.37-.35ZM39.89,16.63h.07v.14h-.07v-.14ZM40.03,29.07c0,.09-.05.14-.14.14l.07.14c-.05.09-.07.16-.07.21.05.09.07.16.07.21h.07c0-.23.13-.35.39-.35v-.14c-.13,0-.26-.07-.39-.21ZM39.96,20.64c.11.01.16.06.16.14h-.16v-.14ZM39.96,30.13v.07h.37c.11,0,.16-.05.16-.14v-.07h-.23c-.12.09-.22.14-.3.14ZM40.03,28.72v.14h.09c.09,0,.14-.05.14-.14h-.23ZM40.33,28.09s-.02.12-.07.21h.16s.02-.12.07-.21h-.16ZM40.33,30.69v.14c.11-.05.18-.07.23-.07v-.07h-.23ZM40.49,19.65c.05.09.07.16.07.21h.14c.08,0,.16-.07.23-.21v-.07h-.07l-.37.07ZM40.63,21.83l.16.21c-.06,0-.09.02-.09.07.06,0,.13.02.23.07v-.07l-.07-.14s.07-.02.07-.07l-.14-.07h-.16ZM40.63,27.25v.21h.07v-.21h-.07ZM40.86,29.28v.21h.07v-.21h-.07ZM40.86,30.69h.3c0-.09-.05-.14-.16-.14-.09.01-.14.06-.14.14ZM40.93,20.43v.21h.37c0-.07-.07-.14-.21-.21h-.16ZM40.93,22.46c.05.09.07.16.07.21.06,0,.09-.02.09-.07l.14.07h.07c.12,0,.22-.02.3-.07.09.05.17.07.23.07.09-.05.16-.07.21-.07v-.14l-.07-.14c-.18.09-.38.14-.6.14h-.07v-.14h-.07c-.12.09-.22.14-.3.14ZM40.93,27.25c.05.09.07.16.07.21h.16c-.05-.09-.07-.16-.07-.21h-.16ZM41.09,21.27l-.09.14c.11-.05.18-.07.23-.07v-.07h-.14ZM41.23,21.62c0,.07-.05.16-.14.28v.14h.07c.08,0,.15-.14.21-.42h-.14ZM41.09,26.54v.28h.07c.09,0,.14-.05.14-.14s-.05-.14-.14-.14h-.07ZM41.09,30.13v.21h.07c.12-.09.22-.14.3-.14v-.14c-.08.05-.21.07-.37.07ZM41.16,21.13v.07h.21v-.07h-.21ZM41.23,31.61h.14v.14h-.14v-.14ZM41.3,27.95v.14c.13-.09.23-.14.3-.14v-.07h-.07c-.09.05-.17.07-.23.07ZM41.46,20c0,.11-.03.2-.09.28h.16c0-.11.02-.2.07-.28h-.14ZM41.37,21.41v.14h.09c.09,0,.14-.05.14-.14h-.23ZM41.37,24.08h.3c0-.09-.05-.14-.14-.14-.11.01-.16.06-.16.14ZM41.53,22.89c.01.09.06.14.14.14v-.14h-.14ZM41.53,25.21v.07c.09,0,.14-.05.14-.14v-.07c-.09.01-.14.06-.14.14ZM41.53,28.58v.07l.07.14s-.07.02-.07.07h.07c.11,0,.16-.05.16-.14s-.05-.14-.16-.14h-.07ZM41.97,20.92v.14h-.14l-.16-.07-.07.28h.3c.11-.02.21-.14.3-.35h-.23ZM41.6,26.54v.07h.16v-.07h-.16ZM41.6,29.99v.07c.01.09.06.14.16.14v-.07c0-.09-.05-.14-.16-.14ZM42.12,31.18v.07c-.2.14-.3.26-.3.35h-.23v-.21c0-.09.18-.16.53-.21ZM41.75,22.18v.07h.14v-.07h-.14ZM41.75,23.87v.07h.14v-.07h-.14ZM41.82,27.81v.14h.07c.09-.05.17-.07.23-.07v-.07h-.3ZM41.89,25.77v.21c.01.09.06.14.14.14h.16v-.07c-.11-.12-.16-.21-.16-.28h-.14ZM42.04,19.86h.09c.09,0,.14-.05.14-.14v-.14c-.07,0-.15.09-.23.28ZM42.04,27.32c.06.08.09.18.09.28h.07v-.35l-.16.07ZM42.12,26.61v.07h.14v-.07h-.14ZM42.19,24.57v.14l.37-.07v-.07h-.37ZM42.26,23.24v.14c.11,0,.16-.05.16-.14h-.16ZM42.26,23.73v.07h.23v-.07h-.23ZM42.42,31.39h.07v.21h-.23v-.07c.01-.09.06-.14.16-.14ZM42.49,20.57h.14v-.14c-.09.01-.14.06-.14.14ZM42.49,20.92v.07h.14v-.07h-.14ZM42.56,29.28v.14h.07v-.14h-.07ZM42.7,30.13c0,.14-.05.21-.14.21v.21h.07c0-.07.05-.16.16-.28v-.14h-.09ZM42.7,21.9v.14h.09v-.14h-.09ZM42.79,26.54v.14h.14v-.14h-.14ZM42.86,27.88v.07c.01.09.06.14.14.14v-.21h-.14ZM43.09,22.04v.07h.28v-.07h-.28ZM43.16,24.08v.07h.14v-.07h-.14ZM43.16,26.61v.07h.14v-.07h-.14ZM43.37,22.25v.21h.09c.09,0,.14-.05.14-.14l-.14-.07h-.09ZM43.46,29.57h.14v.07h-.14v-.07ZM43.53,8.47h.07v.14h-.07v-.14ZM43.9,8.33h.14v.14h-.14v-.14ZM43.97,9.46s-.02.07-.07.07c.09.19.14.35.14.49.11,0,.16-.05.16-.14v-.07l-.07-.14h.21v-.21l-.14.07h-.07l-.16-.07ZM43.97,28.09c.09.05.19.07.3.07v.14h-.14c-.11,0-.16-.05-.16-.14v-.07ZM44.2,7.35h.07v.07c0,.09-.05.14-.14.14l-.09-.14.16-.07ZM44.2,29.64h.07c.11.01.16.06.16.14l-.16.07-.07-.14v-.07ZM44.34,29h.09v.14h-.09v-.14ZM44.43,15.36h.07v.14h-.07v-.14ZM44.5,8.33h.14v.07h-.14v-.07ZM44.64,14.59h.16c0,.09-.05.14-.16.14v-.14ZM44.8,15.5v.14h-.16c.02-.09.08-.14.16-.14ZM44.8,13.89h.14v.07h-.14v-.07ZM45.16,14.59l.07.14-.14.07h-.16c0-.07.08-.14.23-.21ZM45.09,9.11h.14v.14h-.14v-.14ZM45.23,14.24h.14v.14h-.14v-.14ZM45.38,13.53h.16v.14h-.16v-.14ZM46.04,9.03h.09v.07c0,.09-.05.14-.16.14h-.07v-.07c.01-.09.06-.14.14-.14ZM46.43,31.53h.14v.14c-.09,0-.14-.05-.14-.14Z"/>
      <path class="cls-3" d="M48.19,12.23l.02-.07h.14v.21c-.11-.01-.16-.06-.16-.14ZM48.21,13.36v-.07l.16.02v.07l-.16-.02ZM48.24,11.39l.02-.14h.07l-.02.14h-.07ZM48.4,8.72v-.07h.07c.11.01.15.06.14.16v.07h-.07c-.11-.02-.15-.08-.14-.16ZM55.13,19.7c.12,0,.22.02.32.07l.16-.09c.08.09.16.14.25.14.04.28.11.42.23.42-.18.27-.33.41-.46.42-.06.01-.11-.08-.16-.26h.09l-.11-.14v-.14l.09-.14c-.06,0-.09-.02-.09-.07l-.16.07h-.16s.02-.07.07-.07c0-.08-.05-.13-.16-.14h-.07c0,.14-.08.22-.25.23v.07c.13.18.23.26.32.26l.16-.07.04.28c-.08,0-.19.05-.33.14,0,.08.11.34.33.77-.06.08-.08.18-.07.28l.09.35h.23c0-.28.11-.43.33-.44l.07.14v.07l-.63.44.16.28.16-.07c0,.13-.05.27-.14.42.11.55.21.97.32,1.25l-.05.14c.08.19.16.28.23.28,0,.05-.02.12-.07.21.12.75.23,1.12.33,1.12l-.07.14v.42c.45,1.23.67,1.93.67,2.09-.05,0-.07.02-.07.07v.28c.04.08.06.16.09.23l-.79-.02v2.51h3.3l.07.04.09-.04h.16l.09.04.05-.04h.3s.02.02.04.02l.05-.02h.26c.06.01.12.02.18.02.04,0,.07,0,.11-.02h1.67v-2.51l-1.02.02v-.11c-.11-.19-.19-.28-.25-.28,0-.05.03-.07.09-.07,0-.02-.08-.19-.25-.49h-.16v.14h-.09c-.01-.43-.09-.8-.25-1.11h.07c0-.15-.11-.57-.33-1.27h.07c-.22-1.08-.39-1.69-.51-1.83h.07c-.54-2.25-.91-3.87-1.12-4.85.16-.01.25-.09.26-.23.18.11.32.16.44.16l.11-.23c-.08-.05-.14-.07-.18-.07v-.3c.2,0,.3-.09.3-.28l.12.07h.18c.01.09.05.14.12.14h.07c0-.09.04-.14.12-.14v-.14h-.07l-.18.14c-.01-.12-.06-.24-.14-.37h.07l.11.07v-.07l-.23-.28.33-.6c.08-.01.12-.06.12-.14-.04-.09-.05-.16-.05-.21.08,0,.14-.26.18-.79h.25c.01-.07.02-.15.04-.23-.06-.54-.11-.81-.16-.81.05-.07.09-.34.12-.81l-.07-.35c.05-.11.06-.18.05-.23l-.07-.14s.02-.07.07-.07c-.05-2.45-.62-4.01-1.71-4.68,0-.23-.19-.35-.56-.35,0-.21-.71-.43-2.13-.67h-.26v-.14h-7.51v2.48h1.56v.11l-.07.12s.08.03.09.09l-.05.42.07.16c-.11,0-.14,1.45-.11,4.34l.09.16h-.07c.02.63,0,1.28-.07,1.95.05,0,.07.02.07.07-.04.09-.05.19-.05.28.04.88.02,1.8-.04,2.78l.09.28c-.05.08-.09.64-.14,1.67l.07.12c-.07.54-.11,1.17-.12,1.9l.07.14c0,1.18-.02,1.93-.05,2.25.05,0,.07.03.07.09l-.11.7s.07.03.07.09c-.07,0-.11.17-.12.51l.09.14s-.07.02-.07.07l.04.74h-1.3v2.46h6.98v-2.46h-.97c.01-.25.03-.4.05-.46-.05,0-.08-.02-.09-.07.02-.62.06-.98.11-1.09l-.07-.12c-.01-.26,0-.62.02-1.09,0-.05-.03-.19-.09-.44.16-.71.21-1.93.14-3.64l.05-.35s-.07-.02-.07-.07c-.01-.09.03-.15.12-.16,0-.05-.02-.07-.07-.07l.07-.14-.02-.42c-.01-.28,0-.62.02-1.02-.05-.11-.07-.18-.07-.23l.12-.42-.02-.02c.19.01.34.02.46.02v.26ZM48.94,11.07c-.05-.14-.09-.21-.14-.21.08-.28.19-.42.32-.42v.07l-.11.35.16.09.14-.07v.21l-.16-.07-.07-.02-.14.07ZM48.84,26.03h.07l.02-.14h-.07l-.02.14ZM49.03,26.38h.07v-.14h-.07v.14ZM49.14,24.7h.07l.02-.14h-.07l-.02.14ZM49.19,26.03c.09-.01.15-.06.16-.14h-.14l-.02.14ZM49.24,25.33h.14v-.14c-.09,0-.14.05-.14.14ZM49.38,9.69v-.07l.16.02v.07l-.16-.02ZM49.54,30.99l.02.14h-.09v-.14h.07ZM49.58,25.54h.07v-.14h-.07v.14ZM49.77,26.81l.09-.14-.14-.07-.09.14.14.07ZM49.68,26.03h.14v-.07h-.14v.07ZM49.75,27.02h.07l.02-.14h-.07l-.02.14ZM49.98,27.93h.14c.01-.22.07-.39.18-.49h-.28l-.16.07c.08.15.12.29.12.42ZM50.02,27.37v-.14h-.14c.01.09.06.14.14.14ZM49.91,24.63h.07l.02-.14h-.07l-.02.14ZM50.05,9.79l.02-.07h.14v.07h-.16ZM50.31,18.97h.07v.35l-.07.14-.21-.14c.04-.23.11-.35.21-.35ZM50.23,28.35l.09-.14-.21-.14v.14c0,.09.04.14.12.14ZM50.1,30.22c.01-.09.06-.14.14-.14l.07.14h-.21ZM50.14,25.54c.09-.01.14-.06.14-.14h-.14v.14ZM50.31,26.1l.07-.14.14.07h.07l.02-.14h-.28c-.09,0-.15.05-.16.14l.14.07ZM50.19,25.82h.07c.09-.01.14-.06.14-.14l.02-.07h-.07c-.09,0-.15.05-.16.14v.07ZM50.38,21.15l.14.07c0,.09-.05.14-.14.14l-.14-.07c0-.08.05-.13.14-.14ZM50.26,24.84h.07v-.14h-.07v.14ZM50.6,9.33l-.07.14v.21l.14.21h-.14c-.08,0-.15-.12-.21-.35.05,0,.07-.07.07-.21h.21ZM50.6,18.47v.07l-.07.14c-.09-.05-.16-.07-.21-.07v-.21l.28.07ZM50.31,30.57c.01-.09.06-.14.14-.14v.14h-.14ZM50.38,26.95h.07c.11-.01.16-.06.16-.14h-.21l-.02.14ZM50.42,26.67c.09-.05.16-.07.21-.07v-.14h-.07c-.09,0-.14.05-.14.14v.07ZM50.44,26.38h.07v-.14h-.07v.14ZM50.6,20.51v.14h-.14v-.14h.14ZM50.46,28.21h.14v-.14c-.09,0-.14.05-.14.14ZM50.6,29.79v.14h-.14v-.14h.14ZM50.56,27.72h.07c.09-.01.14-.06.14-.14v-.07h-.14l.09-.14v-.07h-.07c-.09,0-.14.05-.14.14.04.08.05.18.05.28ZM50.53,27.16h.21v-.14h-.21v.14ZM50.67,27.76h.14v.14s-.12.02-.21.07h-.07v-.07c0-.08.05-.13.14-.14ZM50.67,18.83c.09,0,.14.05.14.14v.28h-.07c0-.08-.05-.2-.14-.35v-.07h.07ZM50.81,24.03v.14h-.07v-.14h.07ZM50.97,30.78v.21h-.14l-.02-.07c0-.08.05-.13.16-.14ZM50.82,27.86h.21l.02-.14h-.07c-.09,0-.15.05-.16.14ZM51.02,25.65v.28h-.14v-.28h.14ZM50.88,28.14h.14v-.14h-.14v.14ZM51.18,25.89l.07-.14-.14-.07-.07.14.14.07ZM51.07,25.26h.07l.02-.14h-.07l-.02.14ZM51.51,21.15v.07c0,.09-.05.14-.14.14l.14.21c-.23,0-.38-.07-.42-.21v-.07c.09,0,.23-.05.42-.14ZM51.23,23.82c.09,0,.14.05.14.14v.07c-.08-.05-.18-.07-.28-.07,0-.08.05-.13.14-.14ZM51.11,24.84h.14v-.14h-.14v.14ZM51.14,24.2h.14l.02-.14h-.14l-.02.14ZM51.23,9.4v.14h-.07v-.14h.07ZM51.3,20.44h.07c0,.09-.05.14-.14.14h-.07c0-.08.05-.13.14-.14ZM51.3,20.72v.07h-.14v-.07h.14ZM51.35,9.65c.01-.19.04-.28.09-.28-.04-.09-.05-.16-.05-.21h-.14l-.02.35c0,.09.04.14.12.14ZM51.65,24.87l.14.07c-.09.12-.14.23-.14.35h-.35l.07-.14h-.14v-.07c0-.08.05-.13.14-.14h.07v.07l-.07.14h.07c.09,0,.14-.05.14-.14l-.07-.14h.14ZM51.23,30.46l.07.14.21-.14c-.01-.08-.06-.13-.16-.14-.08,0-.12.05-.12.14ZM51.25,8.24h.14v-.21c-.09,0-.14.05-.14.14v.07ZM51.42,30.18h.07c-.01-.08-.06-.13-.16-.14h-.07c.01.09.06.14.16.14ZM51.35,10.63c.01-.07.13-.16.37-.28.09.05.16.07.21.07-.25.21-.38.35-.39.42-.06,0-.12-.07-.19-.21ZM51.58,18.47v.14h-.21v-.14h.21ZM51.51,20.16v.21c-.08,0-.13-.05-.14-.14v-.07h.14ZM51.58,27.33v.07h-.07l-.14-.07.07-.14c.09,0,.14.05.14.14ZM51.39,11.27h.07l.21-.14s.02.07.07.07l.09-.14-.14-.07h-.07c-.07,0-.15.07-.23.21v.07ZM51.53,10.14c.01-.09-.03-.14-.12-.14v-.14c.11.09.2.14.28.14l-.02.14h-.14ZM51.58,23.33h.14c-.05.09-.07.16-.07.21h-.07l-.14-.07c0-.08.05-.13.14-.14ZM51.58,24.45v.07h-.14v-.07h.14ZM51.6,8.17l.02-.21h-.14l-.02.07c.01.09.06.14.14.14ZM51.55,14.08v-.07h.14l-.02.21c-.08-.01-.12-.06-.12-.14ZM51.56,13.73l.02-.14h.14l-.02.28c-.09-.01-.14-.06-.14-.14ZM51.56,14.78l.02-.21h.14l-.02.35c-.09-.01-.14-.06-.14-.14ZM51.58,9.51c.19-.07.28-.14.28-.21l-.12-.07c-.09,0-.15.05-.16.14v.14ZM51.79,8.07v.07h-.14v-.07h.14ZM52,21.5v.07h-.35v-.07h.35ZM51.86,25.79c.09,0,.14.05.14.14v.07c-.11,0-.2.02-.28.07,0-.05-.02-.07-.07-.07.05-.09.07-.16.07-.21h.14ZM51.86,21.22c.09,0,.14.05.14.14h-.28c0-.08.05-.13.14-.14ZM51.93,26.56v.07h-.21v-.07h.21ZM52,19.74l.07.35h-.14c-.08,0-.13-.05-.14-.14v-.14s.12-.02.21-.07ZM51.79,30.43v-.07h.14v.07h-.14ZM52.14,20.72l-.14.35-.14-.07.07-.35c.09.05.16.07.21.07ZM52,8.21v.14h-.07v-.14h.07ZM52.07,23.26h.07v.14h-.21c0-.08.05-.13.14-.14ZM51.98,9.65h.14v.14c-.09-.01-.14-.06-.14-.14ZM52.14,23.75h.07v.21c-.09-.05-.16-.07-.21-.07,0-.08.05-.13.14-.14ZM52.28,24.1v.21l-.14-.07v.14l-.14-.07s.02-.07.07-.07l-.07-.14h.28ZM52.21,22.69v.07h-.14v-.07h.14ZM52.35,19.81v.21c-.14-.07-.21-.14-.21-.21h.21ZM52.28,25.72h.07v.21h-.21v-.07c0-.08.05-.13.14-.14ZM52.42,19.18c0,.09.12.14.35.14v.14c-.07,0-.16.05-.28.14h-.14c0-.07-.05-.16-.14-.28v-.14h.21ZM52.42,20.58h.07c0,.09-.05.14-.14.14h-.07c0-.08.05-.13.14-.14ZM52.49,26.56v.21s-.12.02-.21.07l.07-.28h.14ZM52.63,8.91v.28h-.14l.07-.28h.07ZM52.56,21.92s.02.12.07.21h-.14v-.21h.07ZM52.78,23.89c.14.07.21.14.21.21l-.49-.07v-.14h.28ZM52.85,24.8c.08,0,.15.14.21.42-.12,0-.28-.09-.49-.28v-.07l.14.07v-.14h.14ZM52.78,20.65h.07v.14l.21-.14h.07v.14c-.12.19-.21.28-.28.28h-.07c0-.08-.05-.2-.14-.35l.14-.07ZM52.78,21.5v.07h-.14v-.07h.14ZM52.69,29.64l.02-.21h.07v.21h-.09ZM53.2,7.93c0,.09-.05.14-.14.14v-.14h.14ZM53.09,16.05l.02-.14c.07,0,.16.09.26.28h-.14c-.09-.01-.14-.06-.14-.14ZM53.27,9.83v.14h-.07v-.14h.07ZM53.48,21.64v.07c-.08-.05-.18-.07-.28-.07v-.07l.07-.14c.14.07.21.14.21.21ZM53.32,19.99l.02-.14h.21l-.02.14h-.21ZM53.37,17.31v-.21h.14v.21h-.14ZM53.41,16.86l.02-.28h.07l-.02.28h-.07ZM53.51,16.36l.02-.35c.09.01.14.06.14.16-.06.08-.09.15-.09.19h-.07ZM53.62,15.66l.02-.14.07.02v.14l-.09-.02ZM53.67,14.84v-.14h.09l-.02.14h-.07ZM53.69,12.6v-.14h.07v.14h-.07ZM53.69,14.96v-.14l.35-.07-.14.21s.07.02.07.07h-.07c-.09-.05-.16-.07-.21-.07ZM53.76,11.16v-.07h.14v.07h-.14ZM53.76,16.36c.05-.07.07-.21.07-.42h.14c0,.09.02.14.07.14-.05.08-.07.18-.07.28h-.21ZM53.76,17.14v-.21h.07s.02.12.07.21h-.14ZM53.76,17.42v-.21h.07v.21h-.07ZM53.76,17.91v-.35h.07c0,.14.05.21.14.21v.14l-.14-.07s-.02.07-.07.07ZM53.9,18.16l.02.28c-.07,0-.12-.05-.14-.14-.01-.08.03-.13.12-.14ZM53.83,11.37l.14-.07s.02.12.07.21h-.07c-.09-.01-.14-.06-.14-.14ZM53.83,12.78v-.07h.14v.07h-.14ZM53.83,13.27l.07-.14-.07-.14h.14s.02.12.07.21l-.14.07h-.07ZM53.83,15.73l.07-.14s-.07-.02-.07-.07c.05,0,.07-.02.07-.07-.05,0-.07-.02-.07-.07h.14l.14.07c.01-.09.06-.14.14-.14l.07.14c-.23,0-.35.09-.35.28h-.14ZM53.9,10.04v-.35c.15,0,.27-.02.35-.07v.14c-.14,0-.21.05-.21.14.05.08.07.18.07.28h-.07c-.09-.01-.14-.06-.14-.14ZM53.97,12.36s-.02-.12-.07-.21l.14-.07.07.14c0,.09-.05.14-.14.14ZM53.9,12.57v-.14h.21v.14h-.21ZM53.9,17.49v-.14c.09,0,.14-.02.14-.07.09.05.16.07.21.07v.07c-.15,0-.27.02-.35.07ZM53.9,18.19l.14-.07h.14v.28h-.07c-.07,0-.14-.07-.21-.21ZM53.9,19.32h.21c0-.09-.05-.14-.14-.14l-.07.14ZM54.06,7.89v.07h-.14v-.07h.14ZM54.08,19.7l-.05.28h-.07l-.02-.28h.14ZM53.97,13.48v-.07c.01-.09.06-.14.14-.14h.07v.07c0,.09-.05.14-.14.14h-.07ZM54.11,16.79v-.07l.07-.14h-.21c.02-.09.14-.19.35-.28v.07l-.14.21c.09.05.16.07.21.07v.07l-.28.07ZM54.11,14.75s-.02-.12-.07-.21v-.07h.07s.02.12.07.21v.07h-.07ZM54.04,17.91c.01-.09.06-.14.14-.14h.07v.14h-.21ZM54.11,10.46c.01-.09.06-.14.14-.14v.14h-.14ZM54.11,15.03v-.07h.14v.07h-.14ZM54.18,12.78v-.14c.09,0,.14.05.14.14h-.14ZM54.18,12.92v-.07h.14v.07h-.14ZM54.18,17.63v-.14h.07v.14h-.07ZM54.32,10.25l-.07-.14h.21c0,.09-.05.14-.14.14ZM54.53,9.97c.09-.19.14-.33.14-.42.09,0,.14.05.14.14-.05,0-.07.02-.07.07.05,0,.07.02.07.07l.14-.07h.21l-.07.14s.07.02.07.07c-.14,0-.21.02-.21.07-.07-.05-.21-.07-.42-.07ZM56.03,16.77h-1.44c.11-.34.15-.86.12-1.55-.01-.14-.06-.3-.16-.49,0-.08.04-.13.12-.14-.04-1.08-.02-2.03.05-2.87-.06-.22-.09-.41-.11-.56l.04-.19h1.25v-.39c.21.05.42.32.62.81v4.82c-.16.38-.33.56-.49.56ZM54.81,8.56v-.14h.14c0,.09.02.14.07.14.09-.05.16-.07.21-.07l.28.35h-.35c-.16-.19-.28-.28-.35-.28ZM54.88,8.98v-.07h.14c.09.05.16.07.21.07l-.07.14c.09,0,.14.05.14.14v.07h-.07c-.14-.23-.26-.35-.35-.35ZM55.1,20.27l.04.28h-.14l-.02-.14c0-.08.04-.13.12-.14ZM55.24,8.07v-.07h.28l.07.14v.07c-.12-.09-.23-.14-.35-.14ZM55.9,23.47l.14.07-.07.14c-.08,0-.13-.05-.14-.14v-.07h.07ZM56.13,23.59l.11.35v.07l-.32-.12c.05-.09.07-.19.07-.3h.14ZM56.08,17.45v.07h-.14v-.07h.14ZM56.12,23.24l.02.28h-.14l-.02-.28h.14ZM56.13,22.52c.01.09-.03.14-.12.14l-.02-.14h.14ZM56.22,10.12l.28.35-.42.07c0-.15-.02-.27-.07-.35.05,0,.12-.02.21-.07ZM56.15,22.73v.07h-.14v-.07h.14ZM56.24,24.08c.01.19.07.35.18.47-.09.01-.14.09-.14.23-.09-.05-.17-.07-.23-.07v-.14l.05-.49h.14ZM56.29,24.86l.07-.02.11.49s-.02.12-.07.21c-.08.01-.19-.15-.33-.47.07-.14.15-.21.23-.21ZM56.48,25.68v.14c.01.09-.04.15-.14.16-.08,0-.13-.05-.16-.14l-.02-.21.32.05ZM56.57,26.1s-.01.07-.07.07c.01.09.06.14.16.14-.05.07-.06.21-.05.42-.13-.09-.23-.13-.3-.12l.07-.14-.02-.14h-.14l-.02-.28c.08.05.21.06.37.05ZM56.36,9.14v.14h-.14c0-.08.05-.13.14-.14ZM56.45,21.04h.07l.02.14-.05.14c-.15-.07-.23-.14-.23-.21.05,0,.11-.02.19-.07ZM56.38,26.68l.02.14h-.07l-.02-.14h.07ZM56.47,26.95l.02.14c0,.09-.05.15-.14.16l-.02-.14c0-.08.05-.13.14-.16ZM56.5,20.18h.14v-.14c-.08,0-.13.05-.14.14ZM56.59,27.65l.16.07c-.05.08-.07.18-.07.28h-.14l-.02-.35h.07ZM56.71,27.16c0,.09-.05.14-.14.14l-.02-.14h.16ZM56.78,28.42l-.12.63h-.07l-.04-.56.07-.14.16.07ZM56.77,28.14v.07h-.14v-.07h.14ZM56.85,29.74l.02.35-.14.02.05-.35.07-.02ZM56.87,30.16l.02.07-.16.02v-.07l.14-.02ZM56.75,13.52h.14v-.07h-.14v.07ZM56.82,30.53l.02.14h-.07l-.02-.14h.07ZM56.85,17.65h-.07v.14h.07v-.14ZM57.21,9.14h.21v.07c0,.09-.05.14-.14.14h-.07l-.14-.07c0-.08.05-.13.14-.14ZM57.28,10.34h.07v.07c0,.09-.05.14-.14.14h-.07v-.07c0-.08.05-.13.14-.14ZM57.42,9.98v.21h-.07c-.08,0-.13-.05-.14-.14v-.07h.21ZM57.21,13.8h.07c.09,0,.13-.05.12-.14v-.07h-.14s-.02.12-.05.21ZM57.43,15.12c-.04.07-.05.12-.05.16h-.11v-.25h.05c.07,0,.11.03.11.09ZM57.35,29.23l.02.14h-.07l-.02-.14h.07ZM57.36,12.18h.14v-.14h-.14v.14ZM57.38,28.6v-.14c0-.07.07-.14.21-.21,0,.15.02.27.07.35h-.28ZM57.4,12.6h.14v-.07h-.14v.07ZM57.43,13.24h.07v-.14h-.07v.14ZM57.45,23.68h.07v-.14h-.07v.14ZM57.49,11.76c0,.09.05.14.14.14l-.02-.21h-.14l.02.07ZM57.59,15.47v.11h-.11v-.11h.11ZM57.64,15.82c0,.14.05.21.16.21-.04.04-.05.13-.05.3h.05v.11h-.05c-.08-.07-.15-.11-.21-.11v-.11l.11-.14s-.1-.05-.16-.16v-.11h.16ZM57.52,11.41h.14c0-.08-.05-.13-.14-.14v.14ZM57.86,14.82c0,.06.04.13.11.21-.18,0-.26.03-.26.09h.05c-.04.07-.05.12-.05.16h-.05c-.07,0-.11-.04-.11-.11.04-.06.05-.12.05-.19-.04,0-.05-.02-.05-.05.09,0,.18-.04.26-.11h.05ZM57.7,16.47v.11h-.05c-.07,0-.11-.04-.11-.11v-.04c.07.02.12.04.16.04ZM57.7,13.68l.05.09v.11h-.05c-.07,0-.11-.04-.11-.11,0-.06.04-.09.11-.09ZM57.91,31.18c.11-.01.16.03.16.12h-.07c-.08.01-.13-.03-.16-.12h.07ZM58.38,14.92v.25c.07.08.11.18.11.3.11,0,.26-.06.47-.19,0,.04.02.05.05.05-.08.23-.15.35-.21.35h-.16c0-.11-.05-.16-.16-.16-.04.07-.05.12-.05.16h-.11c-.01-.43-.1-.65-.26-.65v-.11l.11.05v-.11c-.08-.16-.13-.25-.16-.25-.07.04-.12.05-.16.05.21-.22.32-.36.32-.4h.05c.11,0,.16.22.16.65ZM58.07,16.58v.05h-.11v-.05h.11ZM58.17,18.23l-.05.25s-.1-.05-.16-.14l.16-.11h.05ZM58.3,29.95c0,.09-.05.15-.14.16-.08,0-.13-.05-.16-.14l.3-.02ZM58.19,9.98v.07h-.14v-.21c.09,0,.14.05.14.14ZM58.33,13.57v.16s-.02.04-.05.04l.05.11v.05h-.16s-.02-.09-.05-.16h.11v-.09l-.11.05-.05-.11.11-.05.11.05s.02-.05.05-.05ZM58.17,14.52c-.07.01-.11.05-.11.11h.11v-.11ZM58.22,16.17c0,.08.02.15.05.21-.04.06-.05.12-.05.19h-.05c-.07,0-.11-.04-.11-.11.04-.06.05-.11.05-.14h-.05c.04-.07.05-.12.05-.16h.11ZM58.22,15.87v.11h-.11v-.11h.11ZM58.33,18.09v.04c-.07,0-.11-.03-.11-.09v-.05c.07.01.11.05.11.11ZM58.7,15.77c0,.07.05.11.16.11l-.05.21c0,.14.05.29.16.44v.05l-.16-.11h-.05l-.11.05c-.13-.16-.23-.25-.32-.25v-.11c.18,0,.26-.03.26-.09v-.05h-.05l-.11.05-.05-.11v-.16s.13-.02.32-.05ZM58.54,19.74l.05.09c0,.06-.07.11-.21.16l-.05-.11v-.05c.06,0,.13-.03.21-.09ZM58.54,13.62v.11h-.11v-.11h.11ZM59.65,14.77v.11h-.21l-.05.25-.11-.04h-.26l-.16.09-.16-.09h-.05v.09c-.06-.04-.13-.05-.21-.05,0-.08.09-.16.26-.25,0,.07.05.11.16.11.27-.14.45-.21.53-.21l-.05-.09v-.3c.07,0,.12.13.16.39h.16ZM58.8,13.68c.11.27.16.42.16.44h-.05s-.09-.01-.16-.04h-.16c0-.08-.02-.15-.05-.21.07,0,.11-.06.11-.19h.16ZM58.73,27.26l.02.28c-.08,0-.13-.05-.16-.14,0-.07.05-.12.14-.14ZM58.75,16.87c-.04.07-.05.12-.05.16h-.05v-.16h.11ZM58.89,31.2v.07l-.23.02v-.07l.23-.02ZM58.91,16.63v.11c-.01.06-.05.09-.11.09h-.11v-.05c.04-.06.05-.11.05-.14h.16ZM58.96,16.87v.16h-.05c-.07,0-.11-.04-.11-.11v-.05h.16ZM59.17,25.63c.13.08.23.12.3.12l-.12.21c-.25.18-.36.32-.35.44l-.16.02c.19-.27.28-.53.26-.79h.07ZM59.05,30.2h.07s0,.12-.05.21l.09.14-.23.16h-.07v-.07c-.01-.23.05-.38.19-.44ZM59.12,23.24v.14l-.05.35h-.16l.05-.49h.16ZM59.1,8.93h.07v.14h-.21c0-.08.05-.13.14-.14ZM59.28,27.6v.05c.01.09-.04.15-.14.16h-.07c.05-.09.07-.16.07-.21h.14ZM59.49,15.27s.04.11.11.19v.35c.09,0,.16.07.21.21h.05c-.01.06-.05.09-.11.09v-.09h-.05s-.05.02-.05.05c-.16-.06-.3-.16-.42-.32h.11v-.04l-.21-.21c.21,0,.32-.08.32-.25h.05ZM59.38,16.28l.05.11c-.07,0-.11.08-.11.25h-.16l-.05-.19.26-.16ZM59.19,27.25c.09-.01.15.03.16.12l-.07.02c-.09,0-.15-.05-.16-.14h.07ZM59.54,28.28v.07c-.07.14-.14.21-.21.21l-.14-.05c.04-.09.05-.16.05-.21l.3-.02ZM59.31,29.57l.02.14h-.09v-.14h.07ZM59.33,15.22v.16h-.05v-.16h.05ZM59.49,16.73v.14h-.16c.04-.06.05-.14.05-.25.07.01.11.05.11.11ZM59.47,31.1l.02.07-.16.02v-.07l.14-.02ZM59.61,29.55l.02.14c-.08,0-.13-.05-.16-.14h.14ZM59.86,14.92c-.04.06-.05.14-.05.25-.14-.05-.21-.09-.21-.14v-.05l.26-.05ZM59.75,16.38v.05h-.11v-.05h.11ZM59.86,25.94l.02.07h-.16v-.07h.14ZM59.97,27.7s.03.11.09.19l-.3.02-.02-.14c.06,0,.13-.02.23-.07ZM59.91,16.44v.04c-.04.07-.05.12-.05.16l-.11-.05c.04-.07.05-.12.05-.14h.11ZM60.02,27.19l-.23.02-.02-.21c.15.07.23.13.25.19ZM60.07,29.58v.07l-.23.02v-.07l.23-.02ZM60.11,27.4v.07l-.23.02v-.07l.23-.02ZM60,29.74l.02.14h-.09v-.14h.07ZM59.95,30.46h.07v-.14h-.07v.14ZM60.21,26.77l.02.21h-.16c.05-.09.07-.16.07-.21h.07ZM60.55,30.06l.02.42c.01.07-.08.15-.28.23-.05,0-.1-.07-.16-.21.21-.29.35-.44.42-.44ZM60.33,11.65l.05-.14v.14h-.05Z"/>
      <path class="cls-3" d="M74.17,29.11h1.21v2.46h-7.51v-2.46h1.6l-.02-.11c-.01-.11,0-.2.05-.28-.01-.05-.04-.07-.09-.07.05-.66.05-1.29,0-1.9l.07-.02-.09-.12c-.14-2.81-.16-4.22-.06-4.24l-.07-.14.04-.35c-.09.01-.14-.03-.14-.12l.12-.23-.07-.77c-.01-.11,0-.2.05-.28-.6-1.62-1.24-3.45-1.92-5.48l.07-.02c-.29-.86-.5-1.38-.62-1.56.08-.06.15-.09.21-.09l-.02-.14c-.24.02-.43-.36-.58-1.16.04-.09.05-.16.05-.21-.14.01-.38-.63-.71-1.92h-2.31v-2.43h5.34l.23-.02s.03,0,.05.02h1.89v2.43h-.88c.46,1.08.74,1.81.86,2.2,0,.09-.07.15-.21.16.32.15.53.42.63.81.16.62.39,1.12.69,1.49.8-2,1.42-3.56,1.88-4.66h-1.69v-2.09h-.04v-.33h7.54v2.43h-2.01c-.01.06-.03.12-.05.19l-.19.3.09.12c-.3.7-.58,1.43-.82,2.18-.28.89-.57,1.67-.86,2.34l.07.12c-.3.95-.5,1.44-.58,1.46l.02.21h.14c.19-.54.28-.88.26-1.02l.21-.02v.07c-.16.66-.32,1.03-.47,1.11-.09-.05-.16-.06-.21-.05-.15.23-.25.52-.28.86l-.14.02-.02-.14h-.14c-.13.01-.45.77-.95,2.27l.09.14s-.02.06-.07.07l.18.33-.12.37-.14-.07-.07.02.02.21.07-.02.12-.07.09.12s-.07.04-.07.09l-.14-.07-.07.02.02.14c.19-.02.28.01.28.11l.02.07-.11.51c.09,0,.14.04.14.12-.04.09-.05.16-.05.21.11.01.16.06.16.14l.02.14c-.18.15-.21,1.03-.09,2.62-.09.01-.13.06-.12.14.11.15.16.29.18.4.06.82-.02,1.37-.23,1.65v.07l.21-.02.02.07s-.02.07-.07.07l.09.14-.12.28.16.28c.01.14-.05.22-.19.23l.02.14c.09-.01.14,0,.14.05.01.18.02.33.02.47ZM64.13,19.58l.14-.02c.01.08.09.19.25.33l-.07.02c-.2-.06-.3-.12-.3-.19l-.02-.14ZM64.24,8.44l.14-.02.02.14-.14.02-.02-.14ZM64.57,19.69l.21-.02v.21l-.21.02v-.21ZM64.97,10.49l.14-.02c0,.09-.05.15-.14.16v-.14ZM65.08,8.37l.02.14.14-.02-.02-.14-.14.02ZM65.38,9.47v.07l.14-.02v-.07l-.14.02ZM65.44,11.79l.12-.02.02.07-.14.02v-.07ZM65.93,19.86h.14v.07h-.14v-.07ZM67.71,13.02l.02.07.14-.02-.02-.07-.14.02ZM68.65,12.46c.02.09.08.13.16.12l-.02-.14-.14.02ZM69.37,18.03c.02.09.08.14.16.14l.07-.02-.02-.12h-.21ZM69.55,18.25l.03.35c.08-.06.15-.09.19-.09-.1-.11-.16-.2-.16-.28l-.07.02ZM69.58,30.59c.02.09.08.13.16.12l-.02-.14-.14.02ZM69.65,16.96l.02.07.14-.02-.02-.07-.14.02ZM69.65,18.79l.02.07.09.35h.07l-.04-.42h-.14ZM70.02,18.21l.02.14.12-.02v-.14l-.14.02ZM70.63,26.82l.09.14c-.14.01-.21.06-.19.16v.07l.28-.02c.07-.01.13-.09.19-.23-.16-.08-.29-.12-.37-.12ZM70.53,12.87l.02.07c.01.09.06.14.14.14l.07-.02v-.07c-.01-.08-.06-.12-.16-.12h-.07ZM70.7,13.22l.07.12-.05.16.28.04-.16-.19s.07-.02.07-.07c-.05,0-.12-.02-.21-.05ZM70.76,30.99c.02.08.08.12.16.12h.07c-.01-.09-.06-.14-.16-.14l-.07.02ZM70.79,28.65l.02.21h.07c.08-.01.12-.06.12-.16v-.07l-.21.02ZM70.9,23.85l.02.14c.11-.11.19-.16.26-.18v-.07l-.07.02c-.09.05-.16.08-.21.09ZM70.92,14.11l.09.35c.09-.01.14-.06.14-.16l-.02-.21-.21.02ZM71.13,23.2l.02.14c.09-.01.13-.06.12-.16l-.14.02ZM71.16,14.66l.04.35.14-.02-.04-.35-.14.02ZM71.18,30.88v.07l.14-.02v-.07l-.14.02ZM71.37,30.87v.14l.07-.02c.09,0,.14-.05.14-.14l-.21.02ZM71.94,30.04v.07h.07c.09-.01.14-.06.14-.16l-.02-.07-.07.02c-.09.01-.13.06-.12.14ZM72.01,27.35l.04.21c.16-.08.25-.16.25-.23l-.28.02ZM72.45,28.53l.02.07.21-.02-.02-.21h-.07c-.09.02-.14.08-.14.16ZM72.59,18.28l.02.21c.06,0,.12-.08.19-.23l-.02-.07c-.08.06-.15.09-.19.09ZM72.78,18.4c.02.09.08.14.16.14.09-.01.13-.06.12-.16v-.07h-.07c-.08.06-.15.09-.21.09ZM73.03,18.88c.02.09.08.14.16.14l.07-.02c-.01-.09-.06-.13-.16-.12h-.07ZM73.08,23.75v.07l.28-.02v-.07l-.28.02ZM73.17,17.82v.14l.14-.02c0-.09-.05-.13-.14-.12ZM73.17,20.28l.02.21c0,.07.08.13.23.19l-.02-.14c-.08-.18-.16-.26-.23-.26ZM73.31,24.01l.02.07.14-.02-.02-.07-.14.02ZM73.32,23.24v.07l.21-.02v-.07l-.21.02ZM73.34,19l.02.14h.07l-.02-.14h-.07ZM73.36,18.58l.02.14.14-.02-.02-.14-.14.02ZM73.45,24.78v.07l.14-.02v-.07l-.14.02ZM73.61,15.38c.02.09.08.13.16.12l-.02-.14-.14.02ZM73.71,11.07v.07l.09.14c.08-.06.15-.09.19-.09v-.07c-.11,0-.2-.02-.28-.05ZM73.76,17.98v.07l.14-.02v-.07l-.14.02ZM73.94,10.35v.14h.07v-.14h-.07ZM74.05,11.9l.02.07.21-.02-.02-.07-.21.02ZM74.08,15.84l.02.14h.07l-.02-.14h-.07ZM74.15,10.48s-.02.12-.05.21l.44.18-.02-.14c-.14.01-.22-.08-.23-.26l-.14.02ZM74.1,25.01l.14-.02v.07l-.14.02v-.07ZM74.24,9.69v.07l.21-.02v.07l-.25.46.02.07c.19-.3.34-.46.46-.47h.07l-.02-.14-.42-.04h-.07ZM74.2,11.11v.07l.14-.02v-.07l-.14.02ZM74.27,9.26v.14h.07v-.14h-.07ZM74.41,10.32l-.05.14.21-.02c-.01-.09-.06-.13-.16-.12ZM74.4,9.12l.02.21s.12,0,.21.05c0-.09.07-.15.21-.16-.06-.09-.09-.16-.09-.21-.08.06-.2.09-.35.11ZM74.47,11.72l.02.21c.02.09.07.13.14.12h.07l.21-.16c-.06-.08-.09-.18-.11-.28-.07.06-.18.09-.33.11ZM74.66,12.34v.14h.07v-.14h-.07ZM74.78,9.51l.02.14h.07l-.02-.14h-.07ZM74.82,13.87l.02.14h.14l-.02-.14h-.14ZM74.98,10.97l.02.28h.14l-.02-.28h-.14ZM75.06,9.42c0,.11-.02.2-.05.28.05,0,.12.09.23.26.13-.01.21-.16.25-.44-.18.01-.32-.02-.42-.11ZM75.13,10.34v.07c.25-.02.46.03.65.16.07-.06.16-.09.26-.11v-.21l-.91.09ZM75.15,12.44l.02.14.07-.02-.02-.14-.07.02ZM75.4,9.18s-.02.07-.07.07c.06.09.09.16.09.21h.07l-.02-.14s-.07-.02-.07-.07c.05,0,.07-.02.07-.07h-.07ZM75.35,11.23c.02.09.07.13.14.12v-.14l-.14.02ZM75.4,11v.14c.25.04.39.05.42.05-.06-.14-.11-.21-.15-.21-.09.06-.16.09-.2.09,0-.05-.02-.07-.07-.07ZM75.79,15.13l.02.21c.01.09-.03.15-.12.16h-.07v-.07c.05-.19.11-.29.18-.3ZM76.03,9.4c0,.12.15.2.44.25.07-.05.21-.08.42-.11l-.02-.07c-.11.01-.25-.05-.44-.18-.08.06-.15.09-.19.09l-.02-.07c-.08.06-.15.09-.19.09ZM76.12,14.2l.14-.02v.07l-.14.02v-.07ZM76.15,10.25l.02.14.07-.02-.02-.12h-.07ZM76.61,13.24l.02.14-.14.02c0-.09.04-.15.12-.16ZM76.51,12.76l.14-.02v.07l-.14.02v-.07ZM76.68,8.86l.02.14c.09,0,.13-.05.12-.14h-.14ZM76.88,12.16h.07l.02.14h-.07l-.02-.14ZM77.61,9.77c.19.06.29.12.3.19v.07s-.12.03-.21.09c0-.09-.07-.13-.21-.12l-.02-.07c.01-.09.06-.15.14-.16ZM77.47,10.7l.14-.02v.07l-.14.02v-.07ZM77.88,29.3l.07.12-.12.09-.09-.14.14-.07ZM77.81,9.54h.07c.09.01.14.05.14.12l-.12.09-.09-.14v-.07ZM78.65,31.06h.14v.07h-.14v-.07ZM78.88,22.45l.14-.02.02.14-.14.02-.02-.14ZM79.13,22.78l.14-.02v.07l-.14.02v-.07ZM79.46,22.61h.07l.02.14h-.07l-.02-.14ZM79.69,24.57l.14-.02.02.14-.14.02-.02-.14Z"/>
    </g>
    <g>
      <path class="cls-1" d="M3.63,2.79s.06-.04.09-.06c-.03.02-.06.04-.09.06Z"/>
      <path class="cls-1" d="M2.12,3.28c.51-.03,1-.18,1.42-.44-.43.25-.91.41-1.42.44l-.96.06c-.23.01-.44.1-.61.25.16-.15.38-.24.6-.25l.96-.06Z"/>
      <path class="cls-1" d="M2.58,10.27c.03.07.09.12.16.13.02,0,.05,0,.07,0l1.38-.22c2.47-.33,4.4-1.47,5.73-3.37.21-.3.41-.63.59-.97l.7-1.21c.05-.09.03-.19-.04-.26L6.69.28c-.22-.23-.53-.32-.82-.27-.07.01-.14.04-.21.07.07-.03.14-.05.21-.07.29-.05.6.04.82.27l3.29,3-.56.97c-1.31,2.48-3.46,3.96-6.32,4.34l-1.11.18-.15-.38.5,1.29h0l.23.58h0Z"/>
      <path class="cls-2" d="M3.1,8.6c2.86-.38,5.01-1.86,6.32-4.34l.56-.97L6.69.28c-.22-.23-.53-.32-.82-.27-.07.01-.14.04-.21.07-.2.1-.36.27-.45.48l-.4.88c-.24.53-.62.98-1.09,1.3-.03.02-.06.04-.09.06-.03.02-.06.04-.09.05-.43.25-.91.41-1.42.44l-.96.06c-.23.01-.44.1-.6.25-.05.05-.1.11-.14.17-.15.25-.18.57-.04.86l1.47,3.77.15.38,1.11-.18Z"/>
      <path class="cls-2" d="M13.34,6.71c.68-1.49.74-2.92.02-3.97-.82-1.19-1.54-.27-2.66,1.2l.46.42c.07.07.09.17.04.26l-.7,1.21c-.18.34-.38.67-.59.97-1.33,1.9-3.26,3.04-5.73,3.37l-1.38.22s-.05,0-.07,0c-.07-.01-.13-.06-.16-.13l-.23-.58h0c-1.78.51-2.89.86-2.08,2.05.95,1.38,3.03,1.74,5.36,1.13,1.25-.32,2.56-.92,3.82-1.79,1.83-1.26,3.19-2.84,3.88-4.37Z"/>
    </g>
  </g>
</svg>